<?xml version="1.0"?>
<svg xmlns="http://www.w3.org/2000/svg" xmlns:xlink="http://www.w3.org/1999/xlink" xmlns:svgjs="http://svgjs.com/svgjs" version="1.1" width="512" height="512" x="0" y="0" viewBox="0 0 512 512" style="enable-background:new 0 0 512 512" xml:space="preserve" class=""><g><g xmlns="http://www.w3.org/2000/svg"><path d="m497 142.467h-32.133c-8.284 0-15-6.716-15-15s6.716-15 15-15h32.133c8.284 0 15 6.716 15 15s-6.715 15-15 15z" fill="#ce665c" data-original="#fdb442" style="" class=""/><path d="m351.977 449.866h-48.843v-64.909c0-8.077-6.207-15.027-14.275-15.407-8.614-.406-15.725 6.458-15.725 14.983v80.333c0 8.284 6.716 15 15 15h64.266c8.525 0 15.389-7.111 14.983-15.725-.38-8.068-7.33-14.275-15.406-14.275z" fill="#0c0e10" data-original="#a54628" style="" class=""/><path d="m288.134 449.866h-49.267v-65.333c0-8.284-6.716-15-15-15s-15 6.716-15 15v65.333h-17.133c-8.284 0-15 6.716-15 15s6.716 15 15 15h96.4c8.284 0 15-6.716 15-15s-6.716-15-15-15z" fill="#191e23" data-original="#d26432" style="" class=""/><path d="m336.334 399.533h-160.667c-8.284 0-15-6.716-15-15s6.716-15 15-15c53.743 0 97.467-43.724 97.467-97.467v-160.665c0-3.979 1.58-7.793 4.393-10.606 0-.001 23.054-23.055 41.529-41.545 17.222-17.232 41.088-27.115 65.478-27.115 25.143 0 49.715 10.18 67.416 27.928 17.993 17.945 27.917 41.888 27.917 67.389v128.548z" fill="#ce665c" data-original="#fdb442" style="" class=""/><path d="m384.534 32.134c-24.39 0-48.256 9.883-65.478 27.115-5.151 5.156-10.658 10.665-15.922 15.931v324.353h33.2l143.533-143.533v-128.55c0-25.501-9.924-49.443-27.917-67.389-17.702-17.747-42.274-27.927-67.416-27.927z" fill="#53c9cc" data-original="#ff8c28" style="" class=""/><circle clip-rule="evenodd" cx="384.534" cy="127.467" fill="#191e23" fill-rule="evenodd" r="15" data-original="#78281e" style="" class=""/><path d="m175.667 399.533h-160.667c-6.067 0-11.537-3.654-13.858-9.26-2.321-5.605-1.038-12.057 3.252-16.347l298.74-298.746v196.886c0 70.286-57.181 127.467-127.467 127.467z" fill="#4fb5b7" data-original="#fadc5c" style="" class=""/><path d="m479.867 256.016v-.016c-79.145 0-143.533 64.382-143.533 143.533 79.144 0 143.533-64.381 143.533-143.517z" fill="#ce665c" data-original="#fdb442" style="" class=""/></g></g></svg>
