<?xml version="1.0"?>
<svg xmlns="http://www.w3.org/2000/svg" xmlns:xlink="http://www.w3.org/1999/xlink" version="1.1" id="Capa_1" x="0px" y="0px" viewBox="0 0 512.007 512.007" style="enable-background:new 0 0 512.007 512.007;" xml:space="preserve" width="512px" height="512px" class=""><g><path style="fill:#607D8B;" d="M224.018,448.035v15.993c0,26.484-21.495,47.979-47.979,47.979s-47.979-21.495-47.979-47.979l0,0  v-15.993H224.018z" data-original="#607D8B" class=""/><path style="fill:#ECEFF1;" d="M224.018,112.182v335.853H128.06V220.615c-43.245,9.884-88.633-1.12-122.506-29.747  c-3.486-2.943-5.47-7.293-5.438-11.835V45.332c-0.032-4.542,1.951-8.892,5.438-11.835C30.63,11.682,62.84-0.153,96.074,0.231  C162.189-3.831,219.284,46.099,224.018,112.182z" data-original="#ECEFF1" class=""/><path style="fill:#607D8B;" d="M287.99,448.035v15.993c0,26.484,21.495,47.979,47.979,47.979s47.979-21.495,47.979-47.979l0,0  v-15.993H287.99z" data-original="#607D8B" class=""/><path style="fill:#ECEFF1;" d="M287.99,112.182v335.853h95.958V220.615c43.245,9.884,88.633-1.12,122.506-29.747  c3.486-2.943,5.47-7.293,5.438-11.835V45.332c0.032-4.542-1.951-8.892-5.438-11.835c-25.077-21.814-57.287-33.649-90.52-33.265  C349.787-3.831,292.724,46.099,287.99,112.182z" data-original="#ECEFF1" class=""/><path d="M176.039,512.007c-26.484,0-47.979-21.495-47.979-47.979l0,0V220.487c-43.245,10.14-88.729-0.8-122.602-29.523  c-3.423-3.039-5.342-7.357-5.342-11.931V45.332c0-4.542,1.951-8.892,5.342-11.931C30.566,11.618,62.808-0.185,96.074,0.231  c66.115-4.03,123.178,45.868,127.944,111.951v351.846C224.018,490.545,202.523,512.007,176.039,512.007L176.039,512.007z   M144.053,182.551c3.135,0,6.205,0.928,8.828,2.655c4.478,2.975,7.165,7.996,7.165,13.338v265.484  c0,8.828,7.165,15.993,15.993,15.993c8.828,0,15.993-7.165,15.993-15.993V112.182c-4.83-48.363-47.531-83.931-95.958-79.965  c-22.998-0.192-45.42,7.069-63.972,20.663v118.604c30.835,21.878,70.721,26.548,105.746,12.315  C139.799,182.967,141.91,182.551,144.053,182.551z" data-original="#000000" class="active-path"/><path d="M144.053,128.175c-8.828,0-15.993-7.165-15.993-15.993s-7.165-15.993-15.993-15.993s-15.993-7.165-15.993-15.993  s7.165-15.993,15.993-15.993c26.484,0,47.979,21.495,47.979,47.979C160.046,121.01,152.881,128.175,144.053,128.175z" data-original="#000000" class="active-path"/><path d="M80.72,128.175c-8.828,0-15.993-7.165-15.993-15.993c0-8.7,6.973-15.833,15.673-15.993h0.32  c8.828,0,15.993,7.165,15.993,15.993S89.549,128.175,80.72,128.175z" data-original="#000000" class="active-path"/><path d="M208.025,448.035h-63.972c-8.828,0-15.993-7.165-15.993-15.993c0-8.828,7.165-15.993,15.993-15.993h63.972  c8.828,0,15.993,7.165,15.993,15.993C224.018,440.87,216.853,448.035,208.025,448.035z" data-original="#000000" class="active-path"/><path d="M335.969,512.007c-26.484,0-47.979-21.495-47.979-47.979l0,0V112.182C292.756,46.099,349.819-3.799,415.934,0.231  c33.265-0.416,65.507,11.387,90.616,33.169c3.391,3.039,5.342,7.389,5.342,11.931v133.702c0,4.542-1.951,8.892-5.342,11.931  c-33.905,28.691-79.357,39.631-122.602,29.523v243.541C383.948,490.545,362.453,512.007,335.969,512.007L335.969,512.007z   M415.934,32.217c-48.427-3.966-91.128,31.602-95.958,79.965v351.846c0,8.828,7.165,15.993,15.993,15.993  c8.828,0,15.993-7.165,15.993-15.993V198.544c0-8.828,7.165-15.993,15.993-15.993c2.143,0,4.254,0.416,6.205,1.247  c35.025,14.234,74.911,9.564,105.746-12.315V52.88C461.354,39.286,438.932,32.025,415.934,32.217z" data-original="#000000" class="active-path"/><path d="M367.955,128.175c-8.828,0-15.993-7.165-15.993-15.993c0-26.484,21.495-47.979,47.979-47.979  c8.828,0,15.993,7.165,15.993,15.993s-7.165,15.993-15.993,15.993c-8.828,0-15.993,7.165-15.993,15.993  S376.783,128.175,367.955,128.175z" data-original="#000000" class="active-path"/><path d="M432.566,128.175c-8.828,0-15.993-7.165-15.993-15.993c0-8.7,6.973-15.833,15.673-15.993h0.32  c8.828,0,15.993,7.165,15.993,15.993S441.395,128.175,432.566,128.175z" data-original="#000000" class="active-path"/><path d="M367.955,448.035h-63.972c-8.828,0-15.993-7.165-15.993-15.993c0-8.828,7.165-15.993,15.993-15.993h63.972  c8.828,0,15.993,7.165,15.993,15.993C383.948,440.87,376.783,448.035,367.955,448.035z" data-original="#000000" class="active-path"/></g> </svg>
