<?xml version="1.0"?>
<svg xmlns="http://www.w3.org/2000/svg" xmlns:xlink="http://www.w3.org/1999/xlink" xmlns:svgjs="http://svgjs.com/svgjs" version="1.1" width="512" height="512" x="0" y="0" viewBox="0 0 512 512" style="enable-background:new 0 0 512 512" xml:space="preserve" class=""><g><g xmlns="http://www.w3.org/2000/svg"><path d="m108.4 234.867h78.4v42.267h-78.4z" fill="#2c82adbd" data-original="#000000" style="" class=""/><path d="m108.4 307.134h78.4v42.267h-78.4z" fill="#2c82adbd" data-original="#000000" style="" class=""/><path d="m108.4 379.4h78.4v42.267h-78.4z" fill="#2c82adbd" data-original="#000000" style="" class=""/><path d="m216.801 451.667h78.4v42.267h-78.4z" fill="#2c82adbd" data-original="#000000" style="" class=""/><path d="m108.4 162.601h78.4v42.267h-78.4z" fill="#2c82adbd" data-original="#000000" style="" class=""/><path d="m108.4 90.334h78.4v42.267h-78.4z" fill="#2c82adbd" data-original="#000000" style="" class=""/><path d="m0 472.801c0 11.455 13.814 21.133 30.166 21.133h48.234v-42.267h-78.4z" fill="#2c82adbd" data-original="#000000" style="" class=""/><path d="m108.4 451.667h78.4v42.267h-78.4z" fill="#2c82adbd" data-original="#000000" style="" class=""/><path d="m216.801 379.4h78.4v42.267h-78.4z" fill="#2c82adbd" data-original="#000000" style="" class=""/><path d="m0 379.4h78.4v42.267h-78.4z" fill="#2c82adbd" data-original="#000000" style="" class=""/><path d="m0 307.134h78.4v42.267h-78.4z" fill="#2c82adbd" data-original="#000000" style="" class=""/><path d="m0 234.867h78.4v42.267h-78.4z" fill="#2c82adbd" data-original="#000000" style="" class=""/><path d="m433.6 493.934h48.234c16.351 0 30.166-9.678 30.166-21.133v-21.134h-78.4z" fill="#2c82adbd" data-original="#000000" style="" class=""/><path d="m433.6 307.134h78.4v42.267h-78.4z" fill="#2c82adbd" data-original="#000000" style="" class=""/><path d="m433.6 379.4h78.4v42.267h-78.4z" fill="#2c82adbd" data-original="#000000" style="" class=""/><path d="m325.201 18.066h78.398v42.268h-78.398z" fill="#2c82adbd" data-original="#000000" style="" class=""/><path d="m433.6 234.867h78.4v42.267h-78.4z" fill="#2c82adbd" data-original="#000000" style="" class=""/><path d="m325.201 90.334h78.398v42.267h-78.398z" fill="#2c82adbd" data-original="#000000" style="" class=""/><path d="m433.6 162.601h78.4v42.267h-78.4z" fill="#2c82adbd" data-original="#000000" style="" class=""/><path d="m325.201 307.134h78.398v42.267h-78.398z" fill="#2c82adbd" data-original="#000000" style="" class=""/><path d="m325.201 379.4h78.398v42.267h-78.398z" fill="#2c82adbd" data-original="#000000" style="" class=""/><path d="m325.201 451.667h78.398v42.267h-78.398z" fill="#2c82adbd" data-original="#000000" style="" class=""/><path d="m325.201 234.867h78.398v42.267h-78.398z" fill="#2c82adbd" data-original="#000000" style="" class=""/><path d="m325.201 162.601h78.398v42.267h-78.398z" fill="#2c82adbd" data-original="#000000" style="" class=""/><path d="m216.801 307.134h78.4v42.267h-78.4z" fill="#2c82adbd" data-original="#000000" style="" class=""/></g></g></svg>
