<?xml version="1.0" encoding="utf-8"?>
<!-- Generator: Adobe Illustrator 24.1.1, SVG Export Plug-In . SVG Version: 6.00 Build 0)  -->
<svg version="1.1" id="Layer_1" xmlns="http://www.w3.org/2000/svg" xmlns:xlink="http://www.w3.org/1999/xlink" x="0px" y="0px"
	 viewBox="0 0 512 512" style="enable-background:new 0 0 512 512;" xml:space="preserve">
<style type="text/css">
	.st0{fill:#7AA376;}
	.st1{fill:#EFEDE6;}
	.st2{font-family:'Catamaran-Medium';}
	.st3{font-size:53.2308px;}
	.st4{fill:#191E23;}
</style>
<g>
	<path d="M504.5,83.8V471c0,4.9-4.1,8.8-9.1,8.8H16.6c-5,0-9.1-3.9-9.1-8.8V83.8c0-10.7,8.9-19.3,19.8-19.3h457.3
		C495.6,64.5,504.5,73.2,504.5,83.8z"/>
	<path d="M504.5,65.2v70.9H7.5V65.2c0-11,8.9-19.8,19.8-19.8h457.3C495.6,45.3,504.5,54.2,504.5,65.2z"/>
	<path d="M504.5,120.3H7.5V65.2c0-11,8.9-19.8,19.8-19.8h457.3c11,0,19.8,8.9,19.8,19.8v55.1H504.5z"/>
	<path d="M422.6,442.1H112.3c-4.3,0-7.8-3.5-7.8-7.8v-32.1c0-4.3,3.5-7.8,7.8-7.8h310.3c4.3,0,7.8,3.5,7.8,7.8v32.1
		C430.3,438.6,426.9,442.1,422.6,442.1z"/>
	<path d="M341.7,76.7H74.2c-4.1,0-7.5,3.4-7.5,7.5s3.4,7.5,7.5,7.5h267.5c4.1,0,7.5-3.4,7.5-7.5C349.2,80,345.8,76.7,341.7,76.7z"/>
	<path class="st0" d="M378,74.6c-4.1,0-7.5,3.4-7.5,7.5v1.3c0,4.1,3.4,7.5,7.5,7.5s7.5-3.4,7.5-7.5v-1.3
		C385.5,78,382.1,74.6,378,74.6z"/>
	<path class="st0" d="M407.9,74.6c-4.1,0-7.5,3.4-7.5,7.5v1.3c0,4.1,3.4,7.5,7.5,7.5s7.5-3.4,7.5-7.5v-1.3
		C415.4,78,412,74.6,407.9,74.6z"/>
	<path class="st0" d="M437.8,74.6c-4.1,0-7.5,3.4-7.5,7.5v1.3c0,4.1,3.4,7.5,7.5,7.5s7.5-3.4,7.5-7.5v-1.3
		C445.3,78,442,74.6,437.8,74.6z"/>
	<text transform="matrix(1 0 0 1 66.6601 294.5137)" class="st1 st2 st3">No image chosen</text>
	<g>
		<path class="st4" d="M467.1,409.8l13.5,49.2c0.5,1.8,0.5,3.8,0,5.7c-1.5,5.9-7.6,9.4-13.4,7.9l-24.7-6.4l-0.2-34.3l16.9-29.8
			C463.2,403.1,466.1,406.2,467.1,409.8z"/>
		<path class="st4" d="M448.6,405l-35.8,36.3c-1.3,1.3-2.3,3-2.8,5c-1.5,5.9,2,11.9,7.9,13.4l24.7,6.4l16.7-64.1
			C455.3,401,451.3,402.3,448.6,405z"/>
		<path d="M476.4,460.2L462.9,411c-0.6-2.2-2.3-4-4.5-4.6l6.6,61l3.4,0.9c3.5,0.9,7.1-1.2,8.1-4.7
			C476.7,462.5,476.7,461.3,476.4,460.2z"/>
		<path d="M472.2,459.1c0.2,1.1,0.2,2.3-0.1,3.4c-0.9,3.5-4.1,5.8-7.2,5l-46-12c-3.5-0.9-5.7-4.5-4.7-8.1c0.3-1.1,0.9-2.1,1.7-3
			l35.8-36.3c1.7-1.7,4.1-2.4,6.4-1.8c0.1,0,0.1,0,0.2,0.1c1.9,0.6,3.3,2.2,3.8,4.4L472.2,459.1z"/>
		<path class="st4" d="M447.4,447.7l-1.9,7.1c2,0.5,4-0.7,4.5-2.6C450.5,450.2,449.3,448.2,447.4,447.7z"/>
		<path class="st4" d="M447.4,447.7c0.4,0.1,0.3,1.8-0.2,3.7c-0.5,2-1.2,3.5-1.6,3.4c-2-0.5-3.1-2.5-2.6-4.5
			S445.4,447.2,447.4,447.7z"/>
		<path class="st4" d="M455.3,417.1l-6.9,26.3c2,0.5,4-0.7,4.5-2.6l5-19.2C458.5,419.6,457.3,417.6,455.3,417.1z"/>
		<path class="st4" d="M455.3,417.1c0.4,0.1,0.3,1.8-0.2,3.7l-5,19.2c-0.5,2-1.2,3.5-1.6,3.4c-2-0.5-3.1-2.5-2.6-4.5l5-19.2
			C451.4,417.7,453.4,416.6,455.3,417.1z"/>
	</g>
</g>
<rect x="546" y="275" style="fill:none;" width="4" height="1"/>
<rect x="740" y="121" style="fill:none;" width="3" height="1"/>
</svg>
