<?xml version="1.0"?>
<svg xmlns="http://www.w3.org/2000/svg" xmlns:xlink="http://www.w3.org/1999/xlink" xmlns:svgjs="http://svgjs.com/svgjs" version="1.1" width="512" height="512" x="0" y="0" viewBox="0 0 31.125 31.126" style="enable-background:new 0 0 512 512" xml:space="preserve" class=""><g>
<g xmlns="http://www.w3.org/2000/svg">
	<path d="M31.125,28.625c0,1.381-1.119,2.5-2.5,2.5s-2.5-1.119-2.5-2.5C26.125,15.598,15.527,5,2.5,5C1.12,5,0,3.881,0,2.5   S1.12,0,2.5,0C18.287,0,31.125,12.841,31.125,28.625z M2.501,11.698c-1.381,0-2.5,1.119-2.5,2.5c0,1.381,1.119,2.5,2.5,2.5   c6.576,0,11.929,5.353,11.929,11.929c0,1.381,1.118,2.5,2.5,2.5c1.381,0,2.5-1.119,2.5-2.5   C19.43,19.292,11.834,11.698,2.501,11.698z M4.486,22.906c-2.063,0-3.733,1.673-3.733,3.734c0,2.062,1.672,3.734,3.733,3.734   s3.734-1.672,3.734-3.734C8.221,24.579,6.547,22.906,4.486,22.906z" fill="#efede6" data-original="#000000" style="" class=""/>
</g>
<g xmlns="http://www.w3.org/2000/svg">
</g>
<g xmlns="http://www.w3.org/2000/svg">
</g>
<g xmlns="http://www.w3.org/2000/svg">
</g>
<g xmlns="http://www.w3.org/2000/svg">
</g>
<g xmlns="http://www.w3.org/2000/svg">
</g>
<g xmlns="http://www.w3.org/2000/svg">
</g>
<g xmlns="http://www.w3.org/2000/svg">
</g>
<g xmlns="http://www.w3.org/2000/svg">
</g>
<g xmlns="http://www.w3.org/2000/svg">
</g>
<g xmlns="http://www.w3.org/2000/svg">
</g>
<g xmlns="http://www.w3.org/2000/svg">
</g>
<g xmlns="http://www.w3.org/2000/svg">
</g>
<g xmlns="http://www.w3.org/2000/svg">
</g>
<g xmlns="http://www.w3.org/2000/svg">
</g>
<g xmlns="http://www.w3.org/2000/svg">
</g>
</g></svg>
