<?xml version="1.0"?>
<svg xmlns="http://www.w3.org/2000/svg" xmlns:xlink="http://www.w3.org/1999/xlink" xmlns:svgjs="http://svgjs.com/svgjs" version="1.1" width="512" height="512" x="0" y="0" viewBox="0 0 36 36" style="enable-background:new 0 0 512 512" xml:space="preserve" class=""><g><g xmlns="http://www.w3.org/2000/svg" id="BG"><g><path d="m34.928 20.591c-3.693-5.848-3.199-11.778-4.979-14.596s-7.138-7.714-20.103.473-9.84 17.35-7.882 20.45c9.166 14.515 39.504 4.031 32.964-6.327z" fill="#efefef" data-original="#efefef" style="" class=""/></g></g><g xmlns="http://www.w3.org/2000/svg" id="Effect"><g><g><path d="m7.033 3.555h2v1h-2z" fill="#a4afc1" transform="matrix(.707 -.707 .707 .707 -.515 6.868)" data-original="#a4afc1" style="" class=""/></g><g><path d="m2.967 7.621h2v1h-2z" fill="#a4afc1" transform="matrix(.707 -.707 .707 .707 -4.581 5.184)" data-original="#a4afc1" style="" class=""/></g><g><path d="m3.467 2.878h1v2h-1z" fill="#a4afc1" transform="matrix(.707 -.707 .707 .707 -1.581 3.941)" data-original="#a4afc1" style="" class=""/></g></g><g><path d="m30 6.5c-.827 0-1.5-.673-1.5-1.5s.673-1.5 1.5-1.5 1.5.673 1.5 1.5-.673 1.5-1.5 1.5zm0-2c-.276 0-.5.224-.5.5s.224.5.5.5.5-.224.5-.5-.224-.5-.5-.5z" fill="#a4afc1" data-original="#a4afc1" style="" class=""/></g></g><g xmlns="http://www.w3.org/2000/svg" id="color"><g><path d="m9.135 11.08c-1.522 1.914-2.425 4.329-2.425 6.97 0 6.234 5.056 11.289 11.289 11.289 5.772 0 10.543-4.339 11.211-9.935-.53-.216-.903-.746-.903-1.355s.373-1.139.903-1.355c-.668-5.596-5.438-9.935-11.211-9.935-2.641 0-5.056.903-6.97 2.425.069.157.098.334.098.52 0 .815-.658 1.473-1.473 1.473-.185.001-.362-.028-.519-.097z" fill="#f3f3f1" data-original="#f3f3f1" style="" class=""/></g><g><g><circle cx="20.944" cy="12.664" fill="#2c82adbd" r="2.454" data-original="#2fdf84" style="" class=""/></g><g><circle cx="13.091" cy="20.013" fill="#2c82adbd" r="1.473" data-original="#2fdf84" style="" class=""/></g><g><circle cx="20.944" cy="23.94" fill="#2c82adbd" r="1.473" data-original="#2fdf84" style="" class=""/></g></g><g><path d="m8.96 18.05c0-2.641.903-5.056 2.425-6.97.157.069.334.098.52.098.815 0 1.473-.658 1.473-1.472 0-.187-.029-.363-.098-.52 1.641-1.304 3.651-2.149 5.855-2.365-.374-.037-.752-.059-1.135-.059-2.641 0-5.056.903-6.97 2.425.069.157.098.334.098.52 0 .815-.658 1.472-1.473 1.472-.187 0-.363-.029-.52-.098-1.522 1.914-2.425 4.329-2.425 6.97 0 6.234 5.056 11.289 11.289 11.289.378 0 .751-.021 1.119-.057-5.702-.568-10.158-5.381-10.158-11.233z" fill="#d5dbe1" data-original="#d5dbe1" style="" class=""/></g><g><path d="m22.069 14.833c-.786-.409-1.329-1.222-1.329-2.169s.543-1.76 1.329-2.169c-.338-.176-.717-.285-1.125-.285-1.355 0-2.454 1.099-2.454 2.454s1.099 2.454 2.454 2.454c.408 0 .787-.109 1.125-.285z" fill="#2c82adbd" data-original="#00b871" style="" class=""/></g></g><g xmlns="http://www.w3.org/2000/svg" id="_x31_.5"><g><path d="m20.944 15.868c-1.767 0-3.204-1.438-3.204-3.204s1.438-3.204 3.204-3.204 3.204 1.438 3.204 3.204-1.437 3.204-3.204 3.204zm0-4.908c-.939 0-1.704.765-1.704 1.704s.765 1.704 1.704 1.704 1.704-.765 1.704-1.704-.764-1.704-1.704-1.704z" fill="#1b1f1f" data-original="#000000" style="" class=""/></g><g><path d="m13.091 22.236c-1.226 0-2.223-.997-2.223-2.223 0-1.225.997-2.222 2.223-2.222s2.223.997 2.223 2.222c-.001 1.226-.998 2.223-2.223 2.223zm0-2.945c-.398 0-.723.324-.723.722s.324.723.723.723.723-.324.723-.723-.325-.722-.723-.722z" fill="#1b1f1f" data-original="#000000" style="" class=""/></g><g><path d="m20.944 26.163c-1.226 0-2.223-.997-2.223-2.223 0-1.225.997-2.222 2.223-2.222s2.223.997 2.223 2.222c0 1.226-.997 2.223-2.223 2.223zm0-2.945c-.398 0-.723.324-.723.722s.324.723.723.723.723-.324.723-.723-.324-.722-.723-.722z" fill="#1b1f1f" data-original="#000000" style="" class=""/></g><g><path d="m17.999 30.089c-6.638 0-12.039-5.401-12.039-12.04 0-2.735.895-5.307 2.588-7.437.211-.266.576-.358.888-.22.053.023.128.035.219.035.398 0 .723-.324.723-.723 0-.091-.012-.167-.035-.219-.137-.312-.046-.676.22-.888 2.13-1.692 4.702-2.587 7.437-2.587 6.095 0 11.235 4.555 11.956 10.596.04.335-.149.656-.462.784-.261.106-.436.371-.436.66s.175.554.436.66c.313.127.502.448.462.784-.722 6.04-5.862 10.595-11.957 10.595zm-8.56-18.171c-1.296 1.787-1.979 3.896-1.979 6.132 0 5.812 4.728 10.54 10.539 10.54 5.174 0 9.562-3.749 10.398-8.797-.524-.412-.841-1.047-.841-1.743 0-.695.317-1.331.841-1.742-.836-5.048-5.224-8.797-10.398-8.797-2.235 0-4.345.683-6.131 1.979.006.07.01.142.01.215 0 1.226-.997 2.223-2.223 2.223-.073 0-.145-.003-.216-.01z" fill="#1b1f1f" data-original="#000000" style="" class=""/></g></g></g></svg>
