<?xml version="1.0"?>
<svg xmlns="http://www.w3.org/2000/svg" xmlns:xlink="http://www.w3.org/1999/xlink" xmlns:svgjs="http://svgjs.com/svgjs" version="1.1" width="512" height="512" x="0" y="0" viewBox="0 0 512 512" style="enable-background:new 0 0 512 512" xml:space="preserve" class=""><g><g xmlns="http://www.w3.org/2000/svg"><path d="m442.201 503.606-95.705-118.036-93.191-19.233-91.415 14.684-99.394 122.585c-2.73 3.367-.334 8.394 4.001 8.394h371.703c4.335 0 6.731-5.028 4.001-8.394z" fill="#333a3a" data-original="#8c818f" style="" class=""/><path d="m442.201 503.606-95.705-118.036-15.244 17.885 81.496 100.511c2.613 3.222.319 8.034-3.829 8.034h29.281c4.335 0 6.731-5.028 4.001-8.394z" fill="#41454a" data-original="#766d78" style="" class=""/><path d="m179.262 404.692 30.874-25.28c2.171-1.777 5.389-1.365 7.042.901l38.166 52.334c2.034 2.789 6.24 2.646 8.08-.274l23.308-36.989c1.603-2.544 5.103-3.05 7.36-1.063l25.781 22.687c1.465 1.29 3.726 1.023 4.851-.572l21.771-30.866-40.432-49.866c-3.447-4.252-9.657-4.977-13.991-1.634l-9.923 7.653c-3.515 2.711-8.197 3.375-12.327 1.748l-50.739-19.985c-4.757-1.874-10.18-.448-13.4 3.524l-43.794 54.012 12.414 22.705c.986 1.804 3.369 2.267 4.959.965z" fill="#d3766d" data-original="#d97b7b" style="" class=""/><path d="m332.657 405.189 13.838-19.619-40.432-49.866c-.656-.81-1.403-1.479-2.2-2.016-.778-.524-1.649-.952-2.599-1.251-1.521-.478-3.142-.592-4.721-.326-1.626.274-3.154.942-4.471 1.959l-9.923 7.653c-.23.178-.478.323-.718.483 1.158 1.052-2.269-2.911 51.226 62.983z" fill="#e3786d" data-original="#d16161" style="" class=""/><path d="m362.903 64.895c-.739-24.828-20.905-45.164-45.727-46.098-10.622-.4-20.503 2.687-28.597 8.203.064-.728.111-1.461.111-2.206.001-13.694-11.099-24.794-24.792-24.794-12.554 0-22.903 9.34-24.541 21.445-3.639-.811-7.416-1.252-11.299-1.252-26.016 0-47.541 19.201-51.194 44.204-20.467 6.901-35.212 26.239-35.212 49.033 0 28.58 23.168 51.748 51.748 51.748 3.382 0 6.685-.335 9.886-.954-.021.361-.055.719-.055 1.085 0 10.292 8.343 18.636 18.636 18.636 3.048 0 5.922-.735 8.461-2.034.836-.428 1.829.145 1.829 1.084v90.01c0 1.707 1.384 3.09 3.09 3.09h34.082c1.707 0 3.09-1.384 3.09-3.09v-73.839c0-1.051 1.222-1.614 2.027-.939 3.686 3.093 8.578 4.792 13.879 4.255 7.693-.779 14.179-6.415 16.107-13.904.835-3.243.745-6.35.012-9.204-.208-.81.411-1.584 1.247-1.546.513.023 1.028.036 1.546.036 19.865 0 35.968-16.104 35.968-35.968 0-10.736-4.707-20.369-12.168-26.959-1.326-1.171-.87-3.338.789-3.951 18.582-6.863 31.705-24.985 31.077-46.091z" fill="#599db9" data-original="#ddebfd" style="" class=""/><path d="m331.888 111.027c18.58-6.864 31.703-24.986 31.075-46.092-.739-24.828-20.905-45.164-45.727-46.098-3.943-.149-7.784.186-11.469.944 21.164 4.36 37.36 22.955 38.02 45.154.628 21.106-12.495 39.228-31.075 46.092-1.66.613-2.116 2.78-.789 3.951 7.46 6.589 12.168 16.222 12.168 26.959 0 19.865-16.103 35.968-35.968 35.968-.518 0-1.033-.013-1.545-.036-.836-.038-1.456.735-1.248 1.546.733 2.853.822 5.96-.012 9.203-1.236 4.799-4.348 8.828-8.445 11.315 3.308 2 7.274 3.018 11.513 2.588 7.693-.779 14.179-6.415 16.107-13.904.835-3.242.745-6.35.012-9.203-.208-.811.412-1.585 1.248-1.546.512.023 1.027.036 1.545.036 19.865 0 35.968-16.103 35.968-35.968 0-10.736-4.707-20.369-12.168-26.959-1.325-1.171-.87-3.337.79-3.95z" fill="#2c82adbd" data-original="#bed9fd" style="" class=""/><path d="m269.21 200.461c-5.299.536-10.19-1.161-13.875-4.252-.807-.677-2.031-.119-2.031.935v78.989h16.085c1.707 0 3.09-1.384 3.09-3.09v-73.233c-1.058.31-2.148.538-3.269.651z" fill="#2c82adbd" data-original="#bed9fd" style="" class=""/><g><path d="m315.086 18.765c-5.385.028-10.555.956-15.375 2.633 3.867-1.236 7.945-1.911 12.128-1.911 1.161 0 2.259-.263 3.247-.722z" fill="#2c82adbd" data-original="#bed9fd" style="" class=""/></g><path d="m424.965 213.566-9.958 27.449c-1.814 5.001 2.844 9.933 7.94 8.408l36.251-10.849c2.861-.856 4.752-3.573 4.561-6.553l-1.486-23.233c-.258-4.029-4.13-6.82-8.034-5.792l-24.88 6.555c-2.034.537-3.677 2.037-4.394 4.015z" fill="#e3ebebb4" data-original="#a29aa5" style="" class=""/><path d="m56.642 230.074-8.012-21.776c-1.553-4.222 1.583-8.645 6.082-8.626h25.236c6.133.026 11.767 3.435 14.711 8.815l9.63 17.603c2.351 4.298-.758 9.552-5.658 9.553h-33.994c-3.57.002-6.762-2.218-7.995-5.569z" fill="#e3ebebb4" data-original="#a29aa5" style="" class=""/><g fill="#c8c3ca"><path d="m294.513 306.14c-1.999 0-3.996-.771-5.509-2.308-2.992-3.042-2.951-7.933.091-10.926 23.834-23.441 53.106-41.676 84.654-52.734 4.028-1.414 8.435.708 9.846 4.735s-.709 8.435-4.735 9.846c-29.415 10.311-56.708 27.313-78.93 49.169-1.504 1.479-3.461 2.218-5.417 2.218z" fill="#dbeced" data-original="#c8c3ca" style="" class=""/><path d="m191.116 282.396c-2.071 0-4.135-.827-5.658-2.463-14.778-15.883-33.516-27.759-54.186-34.346-4.065-1.296-6.311-5.641-5.015-9.707 1.296-4.065 5.641-6.31 9.707-5.015 23.196 7.392 44.223 20.72 60.807 38.543 2.907 3.123 2.731 8.012-.393 10.919-1.489 1.384-3.378 2.069-5.262 2.069z" fill="#dbeced" data-original="#c8c3ca" style="" class=""/><path d="m334.499 230.288c-1.354 0-2.725-.356-3.97-1.104-3.658-2.197-4.842-6.943-2.646-10.601 9.536-15.881 24.066-28.873 40.91-36.583 3.877-1.778 8.464-.071 10.24 3.809 1.776 3.879.07 8.465-3.809 10.24-14.039 6.426-26.147 17.254-34.095 30.489-1.448 2.414-4.007 3.75-6.63 3.75z" fill="#dbeced" data-original="#c8c3ca" style="" class=""/></g></g></g></svg>
