<?xml version="1.0"?>
<svg xmlns="http://www.w3.org/2000/svg" xmlns:xlink="http://www.w3.org/1999/xlink" xmlns:svgjs="http://svgjs.com/svgjs" version="1.1" width="512" height="512" x="0" y="0" viewBox="0 0 461.426 461.426" style="enable-background:new 0 0 512 512" xml:space="preserve" class=""><g>
<path xmlns="http://www.w3.org/2000/svg" d="M230.721,0C106.843,0,6.42,100.416,6.42,224.285v196.711l28.866,28.866c7.403,7.402,17.442,11.562,27.917,11.562  c10.467,0,20.514-4.16,27.917-11.562c7.403-7.412,17.442-11.572,27.917-11.572c10.475,0,20.513,4.16,27.917,11.572  c7.402,7.402,17.45,11.562,27.917,11.562c10.475,0,20.514-4.16,27.917-11.562c7.404-7.404,17.444-11.564,27.918-11.564  c10.467,0,20.514,4.16,27.917,11.564c7.402,7.402,17.442,11.562,27.917,11.562c10.468,0,20.514-4.16,27.918-11.562  c7.402-7.412,17.442-11.572,27.917-11.572c10.475,0,20.514,4.16,27.925,11.572c15.413,15.42,40.406,15.42,55.827,0l28.882-28.874  V224.285C455.006,100.416,359.955,0,230.721,0z M159.894,252.832c-20.49,0-37.093-23.322-37.093-52.094s16.603-52.094,37.093-52.094  c20.498,0,37.101,23.322,37.101,52.094S180.392,252.832,159.894,252.832z M301.517,252.832c-20.484,0-37.087-23.322-37.087-52.094  s16.603-52.094,37.087-52.094c20.506,0,37.107,23.322,37.107,52.094S322.023,252.832,301.517,252.832z" fill="#53c9cc" data-original="#000000" style="" class=""/>
<g xmlns="http://www.w3.org/2000/svg">
</g>
<g xmlns="http://www.w3.org/2000/svg">
</g>
<g xmlns="http://www.w3.org/2000/svg">
</g>
<g xmlns="http://www.w3.org/2000/svg">
</g>
<g xmlns="http://www.w3.org/2000/svg">
</g>
<g xmlns="http://www.w3.org/2000/svg">
</g>
<g xmlns="http://www.w3.org/2000/svg">
</g>
<g xmlns="http://www.w3.org/2000/svg">
</g>
<g xmlns="http://www.w3.org/2000/svg">
</g>
<g xmlns="http://www.w3.org/2000/svg">
</g>
<g xmlns="http://www.w3.org/2000/svg">
</g>
<g xmlns="http://www.w3.org/2000/svg">
</g>
<g xmlns="http://www.w3.org/2000/svg">
</g>
<g xmlns="http://www.w3.org/2000/svg">
</g>
<g xmlns="http://www.w3.org/2000/svg">
</g>
</g></svg>
