<svg id="Layer_1" data-name="Layer 1" xmlns="http://www.w3.org/2000/svg" viewBox="0 0 500 500"><defs><style>.cls-1{fill:#181c1d;}.cls-2{fill:#edc963;}.cls-3{fill:#e7b93e;}.cls-4{fill:#454d58;}.cls-5{fill:#3c434c;}.cls-6{fill:#dad8db;}.cls-7{fill:#b3e59f;}.cls-8{fill:#c4dbf9;}.cls-9{fill:#bed8fb;}.cls-10{fill:#df667c;}.cls-11{fill:#a6aec4;}.cls-12{fill:#c8c5c9;}.cls-13{fill:#959db0;}</style></defs><rect class="cls-1" width="500" height="500"/><path class="cls-2" d="M188.66,145.41V144.1a9.38,9.38,0,0,0-9.39-9.39H161.56a9.39,9.39,0,0,0-9.4,9.39v.65Z"/><path class="cls-2" d="M347.84,144.75v-.65a9.39,9.39,0,0,0-9.4-9.39H320.73a9.39,9.39,0,0,0-9.39,9.39v1.31Z"/><path class="cls-3" d="M347.84,156V144.75a53.79,53.79,0,0,0-36.5.66v11.27Z"/><path class="cls-2" d="M169.5,153.15a53.44,53.44,0,0,1,19.16,3.53V144.1a9.38,9.38,0,0,0-9.39-9.39H161.56a9.39,9.39,0,0,0-9.4,9.39V156A53.49,53.49,0,0,1,169.5,153.15Z"/><path class="cls-3" d="M188.66,156.68V145.41a53.79,53.79,0,0,0-36.5-.66V156Z"/><path class="cls-4" d="M115.21,354.94c28.14,12.48,41.9-6.22,48.06-24.47l14.88-44.31h0l3.24-4s9.18,5,17,5a34.21,34.21,0,0,0,23.91-9.7,3.08,3.08,0,0,1,2.15-.86h51.14a3.08,3.08,0,0,1,2.15.86,34.23,34.23,0,0,0,23.91,9.7c7.8,0,17-5,17-5l3.24,4,14.88,44.29C342.87,348.71,367,363.4,384.79,356c10.76-4.47,20-17.92,20-30.53l-21.15-126h0a53.62,53.62,0,0,0-92.07-29.62H208.42a53.62,53.62,0,0,0-92.07,29.62h0L95.16,325.61l0-.13c-.48,15.53,9.27,25,20,29.46Z"/><path class="cls-5" d="M115.21,350.56a33.27,33.27,0,0,1-20-25.08l0,.13a33.26,33.26,0,0,0,64.33,16.1l3.78-11.24C157.11,348.72,133,358,115.21,350.56Z"/><path class="cls-5" d="M404.82,325.48a33.27,33.27,0,0,1-20,25.08c-17.8,7.39-41.92-1.85-48.06-20.12l3.78,11.27a33.26,33.26,0,0,0,64.33-16.1Z"/><path class="cls-5" d="M319.42,278.9a3.13,3.13,0,0,0-4.73-1.59,20.37,20.37,0,0,1-13.06,4.16,34.23,34.23,0,0,1-23.91-9.7,3.12,3.12,0,0,0-2.15-.85H224.43a3.12,3.12,0,0,0-2.15.85,34.21,34.21,0,0,1-23.91,9.7,20.35,20.35,0,0,1-13.05-4.16,3.13,3.13,0,0,0-4.73,1.59l-2.44,7.26a34.34,34.34,0,0,0,45-4h53.74a34.34,34.34,0,0,0,45,4Z"/><path class="cls-6" d="M186,253.13c0,5.59,7.47,14.72,13.6,14.72s13.6-9.17,13.6-14.72a14.73,14.73,0,0,0-27.2,0Z"/><path class="cls-7" d="M185.6,198.06h-5.76V192.3a10,10,0,0,0-19.93,0v5.76h-5.76a10,10,0,1,0,0,19.93h5.76v5.76a10,10,0,0,0,19.93,0V218h5.76a10,10,0,0,0,0-19.93Z"/><path class="cls-6" d="M185.6,198.06h-5.76V192.3a10,10,0,0,0-19.93,0v5.76h-5.76a10,10,0,1,0,0,19.93h5.76v5.76a10,10,0,0,0,19.93,0V218h5.76a10,10,0,0,0,0-19.93Z"/><path class="cls-8" d="M333.34,175.92a9,9,0,1,0,9,9A9,9,0,0,0,333.34,175.92Z"/><path class="cls-7" d="M333.34,175.92a9,9,0,1,0,9,9A9,9,0,0,0,333.34,175.92Z"/><path class="cls-9" d="M333.34,222.09a9,9,0,1,0,9,9A9,9,0,0,0,333.34,222.09Z"/><path class="cls-2" d="M365.45,208a9,9,0,1,0-9,9A9,9,0,0,0,365.45,208Z"/><path class="cls-10" d="M319.28,208a9,9,0,1,0-9,9A9,9,0,0,0,319.28,208Z"/><path class="cls-11" d="M220.94,185.15h58.12c5.91,0,12.16-9.73,12.16-15.24H208.78c.42,5.51,6.25,15.24,12.16,15.24Z"/><path class="cls-12" d="M199.55,262.21a14.72,14.72,0,0,1-13.6-9.08,14.72,14.72,0,1,0,27.2,0,14.72,14.72,0,0,1-13.6,9.08Z"/><path class="cls-6" d="M286.85,253.13c0,5.59,7.47,14.72,13.6,14.72s13.6-9.17,13.6-14.72a14.73,14.73,0,0,0-27.2,0Z"/><path class="cls-12" d="M300.45,262.21a14.73,14.73,0,0,1-13.6-9.08,14.72,14.72,0,1,0,27.2,0,14.72,14.72,0,0,1-13.6,9.08Z"/><path class="cls-13" d="M279.06,179.51H221a12.52,12.52,0,0,1-12.17-9.6h-.36v8.35A12.53,12.53,0,0,0,221,190.78h58.11a12.53,12.53,0,0,0,12.52-12.52v-8.35h-.36a12.51,12.51,0,0,1-12.16,9.6Z"/></svg>