<?xml version="1.0"?>
<svg xmlns="http://www.w3.org/2000/svg" xmlns:xlink="http://www.w3.org/1999/xlink" xmlns:svgjs="http://svgjs.com/svgjs" version="1.1" width="512" height="512" x="0" y="0" viewBox="0 0 480 480.09806" style="enable-background:new 0 0 512 512" xml:space="preserve" class=""><g><path xmlns="http://www.w3.org/2000/svg" d="m344.050781 72.097656c0 4.417969 3.578125 8 8 8 4.417969 0 8-3.582031 8-8 .40625-10.726562-3.679687-21.140625-11.269531-28.730468-7.59375-7.589844-18.003906-11.675782-28.730469-11.269532-4.421875-.011718-8.011719 3.558594-8.027343 7.976563-.011719 4.417969 3.558593 8.011719 7.976562 8.023437 6.472656-.355468 12.789062 2.058594 17.378906 6.636719 4.585938 4.578125 7.011719 10.890625 6.671875 17.363281zm0 0" fill="#2c82adbd" data-original="#000000" style="" class=""/><path xmlns="http://www.w3.org/2000/svg" d="m64.050781 192.097656h-24c-4.421875 0-8 3.582032-8 8v24c0 4.417969 3.578125 8 8 8 4.417969 0 8-3.582031 8-8v-16h16c4.417969 0 8-3.582031 8-8 0-4.417968-3.582031-8-8-8zm0 0" fill="#2c82adbd" data-original="#000000" style="" class=""/><path xmlns="http://www.w3.org/2000/svg" d="m64.050781 432.097656h-16v-16c0-4.417968-3.582031-8-8-8-4.421875 0-8 3.582032-8 8v24c0 4.417969 3.578125 8 8 8h24c4.417969 0 8-3.582031 8-8 0-4.417968-3.582031-8-8-8zm0 0" fill="#2c82adbd" data-original="#000000" style="" class=""/><path xmlns="http://www.w3.org/2000/svg" d="m440.050781 408.097656c-4.421875 0-8 3.582032-8 8v16h-16c-4.421875 0-8 3.582032-8 8 0 4.417969 3.578125 8 8 8h24c4.417969 0 8-3.582031 8-8v-24c0-4.417968-3.582031-8-8-8zm0 0" fill="#2c82adbd" data-original="#000000" style="" class=""/><path xmlns="http://www.w3.org/2000/svg" d="m440.050781 192.097656h-24c-4.421875 0-8 3.582032-8 8 0 4.417969 3.578125 8 8 8h16v16c0 4.417969 3.578125 8 8 8 4.417969 0 8-3.582031 8-8v-24c0-4.417968-3.582031-8-8-8zm0 0" fill="#2c82adbd" data-original="#000000" style="" class=""/><path xmlns="http://www.w3.org/2000/svg" d="m120.050781 96.097656h104c4.417969 0 8-3.582031 8-8 0-4.417968-3.582031-8-8-8h-104c-4.421875 0-8 3.582032-8 8 0 4.417969 3.578125 8 8 8zm0 0" fill="#2c82adbd" data-original="#000000" style="" class=""/><path xmlns="http://www.w3.org/2000/svg" d="m224.050781 48.097656h-32c-4.421875 0-8 3.582032-8 8 0 4.417969 3.578125 8 8 8h32c4.417969 0 8-3.582031 8-8 0-4.417968-3.582031-8-8-8zm0 0" fill="#2c82adbd" data-original="#000000" style="" class=""/><path xmlns="http://www.w3.org/2000/svg" d="m168.050781 56.097656c0-4.417968-3.582031-8-8-8h-72c-4.421875 0-8 3.582032-8 8 0 4.417969 3.578125 8 8 8h72c4.417969 0 8-3.582031 8-8zm0 0" fill="#2c82adbd" data-original="#000000" style="" class=""/><path xmlns="http://www.w3.org/2000/svg" d="m440.050781 160.097656h-88v-23.597656c29.949219-14.859375 45.730469-48.382812 38.097657-80.933594-7.632813-32.550781-36.664063-55.566406-70.097657-55.566406-33.433593 0-62.46875 23.015625-70.101562 55.566406-7.628907 32.550782 8.148437 66.074219 38.101562 80.933594v23.597656h-248c-22.082031.027344-39.9765622 17.921875-39.9999998 40v240c.0234376 22.082032 17.9179688 39.972656 39.9999998 40h400c22.078125-.027344 39.972657-17.917968 40-40v-240c-.027343-22.078125-17.921875-39.972656-40-40zm-88 80c0-8.835937 7.160157-16 16-16 8.835938 0 16 7.164063 16 16v168c0 8.835938-7.164062 16-16 16-8.839843 0-16-7.164062-16-16zm-88-168c0-30.925781 25.070313-56 56-56 30.925781 0 56 25.074219 56 56 0 30.929688-25.074219 56-56 56-30.914062-.035156-55.964843-25.085937-56-56zm56 72c5.382813-.015625 10.75-.636718 16-1.855468v193.855468h-32v-193.855468c5.246094 1.21875 10.613281 1.839843 16 1.855468zm-56 192c-4.421875 0-8 3.582032-8 8v64c0 8.835938-7.164062 16-16 16-8.839843 0-16-7.164062-16-16v-64c0-4.417968-3.582031-8-8-8h-80c-4.421875 0-8 3.582032-8 8v64c0 8.835938-7.164062 16-16 16-8.839843 0-16-7.164062-16-16v-168c0-8.835937 7.160157-16 16-16 8.835938 0 16 7.164063 16 16v56c0 4.417969 3.578125 8 8 8h80c4.417969 0 8-3.582031 8-8v-56c0-8.835937 7.160157-16 16-16 8.835938 0 16 7.164063 16 16v56c0 4.417969 3.578125 8 8 8h24v32zm200 104c0 13.253906-10.746093 24-24 24h-400c-13.257812 0-24-10.746094-24-24v-240c0-13.253906 10.742188-24 24-24h248v112h-16v-48c0-17.671875-14.328125-32-32-32-17.675781 0-32 14.328125-32 32v48h-64v-48c0-17.671875-14.328125-32-32-32-17.675781 0-32 14.328125-32 32v168c0 17.671875 14.324219 32 32 32 17.671875 0 32-14.328125 32-32v-56h64v56c0 17.671875 14.324219 32 32 32 17.671875 0 32-14.328125 32-32v-56h64v56c0 17.671875 14.324219 32 32 32 17.671875 0 32-14.328125 32-32v-168c0-17.671875-14.328125-32-32-32-5.636719.035156-11.160156 1.570313-16 4.449219v-36.449219h88c13.253907 0 24 10.746094 24 24zm0 0" fill="#2c82adbd" data-original="#000000" style="" class=""/></g></svg>
