<?xml version="1.0"?>
<svg xmlns="http://www.w3.org/2000/svg" id="Filled_Outline" height="512px" viewBox="0 0 512 512" width="512px" data-name="Filled Outline" class=""><g><path d="m64 392h16a16 16 0 0 1 16 16v16a0 0 0 0 1 0 0h-48a0 0 0 0 1 0 0v-16a16 16 0 0 1 16-16z" fill="#546e7a" data-original="#546E7A" class="active-path" style="fill:#58606B" data-old_color="#546e7a"/><path d="m56 456h400v40h-400z" fill="#8c6239" data-original="#8C6239" class="" style="fill:#CE665C" data-old_color="#8c6239"/><path d="m24 424h464v32h-464z" fill="#603813" data-original="#603813" class="" style="fill:#B25046" data-old_color="#603813"/><circle cx="256" cy="151" fill="#f4cda5" r="48" data-original="#F4CDA5" class="" style="fill:#F4CDA5"/><path d="m200 216h112a32 32 0 0 1 32 32v32a0 0 0 0 1 0 0h-176a0 0 0 0 1 0 0v-32a32 32 0 0 1 32-32z" fill="#8c6239" data-original="#8C6239" class="" style="fill:#CE665C" data-old_color="#8c6239"/><path d="m368 424h-224l-16-160h256z" fill="#b0bec5" data-original="#B0BEC5" class="" style="fill:#818893" data-old_color="#b0bec5"/><circle cx="256" cy="344" fill="#f5f5f5" r="24" data-original="#F5F5F5" class="" style="fill:#949DA8" data-old_color="#f5f5f5"/><path d="m312 152a56 56 0 1 0 -56 56 56.063 56.063 0 0 0 56-56zm-56 40a40 40 0 1 1 40-40 40.045 40.045 0 0 1 -40 40z" data-original="#000000" class="" style="fill:#161819" data-old_color="#000000"/><path d="m256 376a32 32 0 1 0 -32-32 32.036 32.036 0 0 0 32 32zm0-48a16 16 0 1 1 -16 16 16.019 16.019 0 0 1 16-16z" data-original="#000000" class="" style="fill:#161819" data-old_color="#000000"/><path d="m488 416h-111.16l15.12-151.2a8 8 0 0 0 -7.96-8.8h-32v-8a40.046 40.046 0 0 0 -40-40h-112a40.046 40.046 0 0 0 -40 40v8h-32a8 8 0 0 0 -7.96 8.8l15.12 151.2h-31.16v-8a24.027 24.027 0 0 0 -24-24h-16a24.027 24.027 0 0 0 -24 24v8h-16a8 8 0 0 0 -8 8v32a8 8 0 0 0 8 8h24v32h16v-32h384v32h16v-32h24a8 8 0 0 0 8-8v-32a8 8 0 0 0 -8-8zm-312-168a24.028 24.028 0 0 1 24-24h112a24.028 24.028 0 0 1 24 24v8h-160zm199.16 24-14.4 144h-209.52l-14.4-144zm-319.16 136a8.009 8.009 0 0 1 8-8h16a8.009 8.009 0 0 1 8 8v8h-32zm424 40h-448v-16h448z" data-original="#000000" class="" style="fill:#161819" data-old_color="#000000"/><path d="m48 152a24.027 24.027 0 0 0 24-24v-74.234l42.53-14.176-5.06-15.18-48 16a8 8 0 0 0 -5.47 7.59v57.376a24 24 0 1 0 -8 46.624zm0-32a8 8 0 1 1 -8 8 8.009 8.009 0 0 1 8-8z" data-original="#000000" class="" style="fill:#161819" data-old_color="#000000"/><path d="m493.006 17.76a7.993 7.993 0 0 0 -6.741-1.569l-72 16a8 8 0 0 0 -6.265 7.809v57.376a24 24 0 1 0 16 22.624v-73.583l56-12.444v47.4a24 24 0 1 0 16 22.627v-80a8 8 0 0 0 -2.994-6.24zm-93.006 110.24a8 8 0 1 1 8-8 8.009 8.009 0 0 1 -8 8zm72-16a8 8 0 1 1 8-8 8.009 8.009 0 0 1 -8 8z" data-original="#000000" class="" style="fill:#161819" data-old_color="#000000"/><path d="m256 80a56.063 56.063 0 0 1 56 56v40a8 8 0 0 0 8 8h12a28 28 0 0 0 0-56h-4.455a71.99 71.99 0 0 0 -143.09 0h-4.455a28 28 0 0 0 0 56h12a8 8 0 0 0 8-8v-40a56.063 56.063 0 0 1 56-56zm72 64h4a12 12 0 0 1 0 24h-4zm-144 24h-4a12 12 0 0 1 0-24h4z" data-original="#000000" class="" style="fill:#161819" data-old_color="#000000"/></g> </svg>
