<svg id="Layer_1" data-name="Layer 1" xmlns="http://www.w3.org/2000/svg" viewBox="0 0 363.95 272.13"><defs><style>.cls-1{fill:#53c9cc;}.cls-2{fill:#98bbc8;}.cls-3{fill:#9ac1d0;}.cls-4{fill:#c2c1bf;}.cls-5{fill:#efede6;}.cls-6{fill:#ce665c;}.cls-7{fill:#383d44;}</style></defs><path class="cls-1" d="M382.09,127.54a84.55,84.55,0,1,0,84.55,84.55A84.54,84.54,0,0,0,382.09,127.54Zm35.6,87.24a5.93,5.93,0,0,1-2.71,2.71v0l-48.31,24.16a6,6,0,0,1-8.1-2.7,5.92,5.92,0,0,1-.64-2.73V187.93a6,6,0,0,1,8.74-5.4L415,206.68A6,6,0,0,1,417.69,214.78Z" transform="translate(-102.68 -24.51)"/><path class="cls-2" d="M114.74,157.09V141A112.49,112.49,0,0,1,227.23,28.53h0A112.49,112.49,0,0,1,339.72,141v16.07h-24.1V141a88.39,88.39,0,0,0-88.39-88.38h0A88.39,88.39,0,0,0,138.84,141v16.07Z" transform="translate(-102.68 -24.51)"/><path class="cls-3" d="M126.79,157.09V141A100.44,100.44,0,0,1,227.23,40.58h0A100.44,100.44,0,0,1,327.67,141v16.07H315.62V141a88.39,88.39,0,0,0-88.39-88.38h0A88.39,88.39,0,0,0,138.84,141v16.07Z" transform="translate(-102.68 -24.51)"/><path class="cls-4" d="M114.74,253.52h16.07V189.23H114.74a8,8,0,0,0-8,8v48.21A8,8,0,0,0,114.74,253.52Z" transform="translate(-102.68 -24.51)"/><path class="cls-4" d="M339.72,253.52H323.65V189.23h16.07a8,8,0,0,1,8,8v48.21A8,8,0,0,1,339.72,253.52Z" transform="translate(-102.68 -24.51)"/><path class="cls-5" d="M114.74,189.23a8,8,0,0,0-8,8v48.21a8,8,0,0,0,8,8h4V189.23Z" transform="translate(-102.68 -24.51)"/><path class="cls-5" d="M335.7,245.48V197.27a8,8,0,0,0-8-8h-4v64.29h4A8,8,0,0,0,335.7,245.48Z" transform="translate(-102.68 -24.51)"/><path class="cls-2" d="M163,269.59H138.84a8,8,0,0,1-8-8V181.2a8,8,0,0,1,8-8H163a8,8,0,0,1,8,8v80.35A8,8,0,0,1,163,269.59Z" transform="translate(-102.68 -24.51)"/><path class="cls-2" d="M291.51,269.59h24.11a8,8,0,0,0,8-8V181.2a8,8,0,0,0-8-8H291.51a8,8,0,0,0-8,8v80.35A8,8,0,0,0,291.51,269.59Z" transform="translate(-102.68 -24.51)"/><path class="cls-3" d="M158.93,261.55V181.2a8,8,0,0,0-8-8H138.84a8,8,0,0,0-8,8v80.35a8,8,0,0,0,8,8H150.9A8,8,0,0,0,158.93,261.55Z" transform="translate(-102.68 -24.51)"/><path class="cls-3" d="M311.6,261.55V181.2a8,8,0,0,0-8-8H291.51a8,8,0,0,0-8,8v80.35a8,8,0,0,0,8,8h12.05A8,8,0,0,0,311.6,261.55Z" transform="translate(-102.68 -24.51)"/><path class="cls-6" d="M275.44,118c0-15-11.3-28.19-26.29-29.15a28.08,28.08,0,0,0-21.92,8.4,28.08,28.08,0,0,0-21.92-8.4C190.32,89.81,179,103,179,118h0a34.09,34.09,0,0,0,11,25.12l37.16,34.06,37.16-34.06A34.09,34.09,0,0,0,275.44,118Z" transform="translate(-102.68 -24.51)"/><path class="cls-7" d="M163,273.6H138.84a12.06,12.06,0,0,1-12-12.05V181.2a12.06,12.06,0,0,1,12-12H163a12.06,12.06,0,0,1,12.05,12v80.35A12.06,12.06,0,0,1,163,273.6Zm-24.11-96.42a4,4,0,0,0-4,4v80.35a4,4,0,0,0,4,4H163a4,4,0,0,0,4-4V181.2a4,4,0,0,0-4-4Z" transform="translate(-102.68 -24.51)"/><path class="cls-7" d="M130.81,257.53H114.74a12.06,12.06,0,0,1-12.06-12V197.27a12.06,12.06,0,0,1,12.06-12.05h16.07a4,4,0,0,1,4,4v64.29A4,4,0,0,1,130.81,257.53Zm-16.07-64.28a4,4,0,0,0-4,4v48.21a4,4,0,0,0,4,4h12.05V193.25Z" transform="translate(-102.68 -24.51)"/><rect class="cls-7" x="48.21" y="160.7" width="8.04" height="72.32"/><path class="cls-7" d="M315.62,273.6H291.51a12.06,12.06,0,0,1-12.05-12.05V181.2a12.06,12.06,0,0,1,12.05-12h24.11a12.06,12.06,0,0,1,12.05,12v80.35A12.06,12.06,0,0,1,315.62,273.6Zm-24.11-96.42a4,4,0,0,0-4,4v80.35a4,4,0,0,0,4,4h24.11a4,4,0,0,0,4-4V181.2a4,4,0,0,0-4-4Z" transform="translate(-102.68 -24.51)"/><path class="cls-7" d="M339.72,257.53H323.65a4,4,0,0,1-4-4V189.23a4,4,0,0,1,4-4h16.07a12.06,12.06,0,0,1,12.06,12.05v48.21A12.06,12.06,0,0,1,339.72,257.53Zm-12.05-8h12.05a4,4,0,0,0,4-4V197.27a4,4,0,0,0-4-4H327.67Z" transform="translate(-102.68 -24.51)"/><rect class="cls-7" x="192.84" y="160.7" width="8.04" height="72.32"/><path class="cls-7" d="M343.74,189.23h-8V141a108.48,108.48,0,0,0-216.95,0v48.21h-8V141a116.51,116.51,0,0,1,233,0Z" transform="translate(-102.68 -24.51)"/><path class="cls-7" d="M339.72,161.11h-24.1a4,4,0,0,1-4-4V141a84.37,84.37,0,0,0-168.74,0v16.07a4,4,0,0,1-4,4h-24.1v-8h20.08V141a92.41,92.41,0,0,1,184.81,0v12.06h20.09Z" transform="translate(-102.68 -24.51)"/><path class="cls-7" d="M207.14,253.52H207a4,4,0,0,1-3.79-3.17l-9.41-43.9L186.73,223a4,4,0,0,1-3.69,2.44H171v-8h9.41l11-25.69a4,4,0,0,1,7.62.73l8.68,40.52,3.61-12.65a4,4,0,0,1,3.87-2.91h9.15L231.45,196a4,4,0,0,1,7.62,0l7.13,21.36h9.15a4,4,0,0,1,3.74,2.52l4.3,10.77,4.3-10.77a4,4,0,0,1,3.73-2.52h12.06v8h-9.34l-7,17.56a4,4,0,0,1-7.46,0l-7-17.56H243.3a4,4,0,0,1-3.81-2.75L235.26,210,231,222.64a4,4,0,0,1-3.81,2.75h-9L211,250.6A4,4,0,0,1,207.14,253.52Z" transform="translate(-102.68 -24.51)"/><path class="cls-7" d="M227.23,181.2a4.07,4.07,0,0,1-2.72-1.06l-37.16-34.06A38.17,38.17,0,0,1,175,118c0-17.52,13.2-32.08,30.05-33.16a32.1,32.1,0,0,1,22.18,7,32.36,32.36,0,0,1,22.18-7c16.85,1.08,30,15.64,30,33.16a38.18,38.18,0,0,1-12.36,28.08L230,180.15A4.11,4.11,0,0,1,227.23,181.2ZM207.11,92.81c-.51,0-1,0-1.55,0C192.93,93.67,183,104.71,183,118a30.13,30.13,0,0,0,9.75,22.16l34.44,31.57,34.44-31.57A30.13,30.13,0,0,0,271.42,118c0-13.29-9.89-24.33-22.52-25.14a24.22,24.22,0,0,0-18.8,7.2,4.12,4.12,0,0,1-5.74,0A24.14,24.14,0,0,0,207.11,92.81Z" transform="translate(-102.68 -24.51)"/><path class="cls-7" d="M247.32,133v-8a8,8,0,0,0,0-16.07v-8a16.07,16.07,0,0,1,0,32.14Z" transform="translate(-102.68 -24.51)"/></svg>