<svg id="Layer_1" data-name="Layer 1" xmlns="http://www.w3.org/2000/svg" viewBox="0 0 365.18 280.14"><defs><style>.cls-1{fill:#9ac1d0;}.cls-2{fill:#3f6162;}.cls-3{fill:#53c9cc;}.cls-4{fill:#356;}.cls-5{fill:#ce665c;}.cls-6{fill:#eedc9a;}.cls-7{fill:#383d44;}</style></defs><path class="cls-1" d="M390.2,134a81.7,81.7,0,1,0,81.7,81.7A81.7,81.7,0,0,0,390.2,134Zm34.4,84.3a5.73,5.73,0,0,1-2.62,2.62v0L375.3,244.25a5.85,5.85,0,0,1-8.45-5.26V192.31a5.83,5.83,0,0,1,5.84-5.84,5.92,5.92,0,0,1,2.61.61L422,210.43A5.82,5.82,0,0,1,424.6,218.25Z" transform="translate(-106.72 -17.21)"/><g id="Fill_out_line" data-name="Fill out line"><rect class="cls-2" x="153.55" y="207.5" width="29.05" height="37.35"/><rect class="cls-3" x="215.8" y="120.35" width="24.9" height="29.05"/><rect class="cls-3" x="8.3" y="120.35" width="24.9" height="29.05"/><rect class="cls-4" x="29.05" y="128.65" width="24.9" height="99.6" rx="12.45"/><rect class="cls-4" x="195.05" y="128.65" width="24.9" height="99.6" rx="12.45"/><path class="cls-1" d="M119.17,137.56v-4.15a112,112,0,0,1,112.05-112h0a112,112,0,0,1,112,112.05v4.15h-16.6v-4.15A95.44,95.44,0,0,0,231.22,38h0a95.45,95.45,0,0,0-95.45,95.45v4.15Z" transform="translate(-106.72 -17.21)"/><path class="cls-5" d="M289.32,104.36V224.71H210.47v2.07a6.23,6.23,0,1,1-12.45,0v-2.07H191.8a18.67,18.67,0,0,0-18.68,18.67V123a18.67,18.67,0,0,1,18.68-18.67H198v2.07a6.23,6.23,0,1,0,12.45,0v-2.07Z" transform="translate(-106.72 -17.21)"/><path class="cls-6" d="M276.12,256.59a18.63,18.63,0,0,0,13.2,5.47H210.47V260A6.23,6.23,0,0,0,198,260v2.08H191.8a18.68,18.68,0,1,1,0-37.35H198v2.07a6.23,6.23,0,1,0,12.45,0v-2.07h78.85a18.65,18.65,0,0,0-18.55,16.6,18,18,0,0,0,0,4.15,18.52,18.52,0,0,0,5.35,11.13Z" transform="translate(-106.72 -17.21)"/><path class="cls-5" d="M210.47,106.43V226.78a6.23,6.23,0,1,1-12.45,0V106.43a6.23,6.23,0,1,0,12.45,0Z" transform="translate(-106.72 -17.21)"/><path class="cls-1" d="M119.17,158.31h16.6V233h-16.6a8.31,8.31,0,0,1-8.3-8.3v-58.1A8.3,8.3,0,0,1,119.17,158.31Z" transform="translate(-106.72 -17.21)"/><path class="cls-1" d="M343.27,233h-16.6v-74.7h16.6a8.29,8.29,0,0,1,8.3,8.3v58.1A8.3,8.3,0,0,1,343.27,233Z" transform="translate(-106.72 -17.21)"/><path class="cls-7" d="M351.57,157.34V137.56a4.15,4.15,0,0,0-4.15-4.15,116.2,116.2,0,0,0-232.4,0,4.15,4.15,0,0,0-4.15,4.15v19.78a12.43,12.43,0,0,0-4.15,9.27v58.1a12.47,12.47,0,0,0,12.45,12.45h13A16.6,16.6,0,0,0,164.82,233v-74.7a16.6,16.6,0,0,0-16.61-16.6,17.08,17.08,0,0,0-4.14.52v-4.67a4.15,4.15,0,0,0-4.15-4.15,91.3,91.3,0,1,1,182.6,0,4.15,4.15,0,0,0-4.15,4.15v4.67a16.62,16.62,0,0,0-20.75,16.08V233a16.6,16.6,0,0,0,32.68,4.15h13a12.46,12.46,0,0,0,12.45-12.45v-58.1A12.43,12.43,0,0,0,351.57,157.34Zm-21.27-3.18a16.54,16.54,0,0,0-3.63-6.81v-5.64h16.6v12.45ZM119.17,141.71h16.6v5.64a16.52,16.52,0,0,0-3.62,6.81h-13Zm-4.15,83v-58.1a4.16,4.16,0,0,1,4.15-4.15h12.45v66.4H119.17A4.16,4.16,0,0,1,115,224.71Zm41.5-66.4V233a8.3,8.3,0,0,1-16.6,0v-74.7a8.3,8.3,0,0,1,16.6,0Zm74.7-124.5a99.71,99.71,0,0,0-99.6,99.6h-8.3a107.9,107.9,0,0,1,215.8,0h-8.3A99.71,99.71,0,0,0,231.22,33.81ZM322.52,233a8.3,8.3,0,1,1-16.6,0v-74.7a8.3,8.3,0,1,1,16.6,0Zm24.9-8.3a4.15,4.15,0,0,1-4.15,4.15H330.82v-66.4h12.45a4.15,4.15,0,0,1,4.15,4.15Z" transform="translate(-106.72 -17.21)"/><path class="cls-7" d="M289.32,100.21H210.47a4.15,4.15,0,0,0-4.15,4.15h0v2.07a2.08,2.08,0,1,1-4.15,0v-2.07a4.14,4.14,0,0,0-4.14-4.15H191.8A22.85,22.85,0,0,0,169,123V243.38a22.87,22.87,0,0,0,22.83,22.83H198a4.15,4.15,0,0,0,4.15-4.15h0V260a2.08,2.08,0,0,1,4.15,0v2.08a4.15,4.15,0,0,0,4.15,4.15h78.85a4.15,4.15,0,0,0,4.15-4.15h0V104.36a4.14,4.14,0,0,0-4.14-4.15ZM202.17,116.6a10.36,10.36,0,0,0,4.15,0V226.78a2.08,2.08,0,1,1-4.15,0ZM177.27,123a14.55,14.55,0,0,1,14.53-14.52h2.07V220.56H191.8a22.68,22.68,0,0,0-14.53,5.23ZM266.6,241.31a21.58,21.58,0,0,0,0,4.15H218.77v8.3H269a22.88,22.88,0,0,0,2.73,4.15H214.42a10.38,10.38,0,0,0-20.34,0H191.8a14.53,14.53,0,1,1,0-29.05h2.28a10.38,10.38,0,0,0,20.34,0h57.31A22.37,22.37,0,0,0,269,233H218.77v8.3Zm18.57,16a14.52,14.52,0,0,1,0-27.83Zm0-36.74H214.62v-112h70.55Z" transform="translate(-106.72 -17.21)"/></g></svg>