<svg id="Layer_1" data-name="Layer 1" xmlns="http://www.w3.org/2000/svg" viewBox="0 0 491.78 273.46"><defs><style>.cls-1{fill:#ce665c;}.cls-2{fill:#356;}.cls-3{fill:#cd6569;}.cls-4{fill:#c7ebff;}.cls-5{fill:#026ca2;}.cls-6{fill:#cbcbcb;}.cls-7{fill:#3f6162;}.cls-8{fill:#edd4ba;}.cls-9{fill:#db6257;}.cls-10{fill:#53c9cc;}.cls-11{fill:#383d44;}.cls-12{fill:#22282e;}</style></defs><path class="cls-1" d="M423.64,124.16a81.52,81.52,0,1,0,81.51,81.52A81.52,81.52,0,0,0,423.64,124.16ZM458,208.27a5.86,5.86,0,0,1-2.61,2.62v0L408.78,234.2a5.81,5.81,0,0,1-7.81-2.6,5.89,5.89,0,0,1-.62-2.64V182.39a5.83,5.83,0,0,1,5.82-5.83,5.76,5.76,0,0,1,2.61.62l46.58,23.29A5.81,5.81,0,0,1,458,208.27Z" transform="translate(-13.38 -13.73)"/><g id="filled_outline" data-name="filled outline"><path class="cls-2" d="M95,252.3v12.55H51.05l6.28-31.39Z" transform="translate(-13.38 -13.73)"/><path class="cls-2" d="M107.55,202.07,95,252.3,76.16,246,63.6,239.74Z" transform="translate(-13.38 -13.73)"/><path class="cls-3" d="M365,170.68l1.2.9A39,39,0,0,1,379,217.27l-1.45,3.64,2.43,4.86a39,39,0,0,1-2.43,39.08H258.22l37.67-51Z" transform="translate(-13.38 -13.73)"/><path class="cls-4" d="M201.72,164.4l31.39,25.12v25.11H214.28l-18.84-31.39L170.33,177l-6.28-18.83,18.84-18.84V164.4Z" transform="translate(-13.38 -13.73)"/><path class="cls-4" d="M38.49,233.46,19.66,246v18.83H63.6l6.28-12.55Z" transform="translate(-13.38 -13.73)"/><path class="cls-1" d="M361.71,131.91h0a28.25,28.25,0,0,1,4.3,39.72l-39.37,48.91a28.25,28.25,0,0,1-39.72,4.29h0a28.26,28.26,0,0,1-4.29-39.72L322,136.2A28.26,28.26,0,0,1,361.71,131.91Z" transform="translate(-13.38 -13.73)"/><path class="cls-1" d="M270.78,177,252,189.52H232.38a25.11,25.11,0,0,0-23.83,17.17l-.55,1.66-12.56,6.28H164.05v50.22h94.17l25.12-37.66-6.28-25.12,6.28-12.55Z" transform="translate(-13.38 -13.73)"/><path class="cls-4" d="M283.53,204.58a15.58,15.58,0,0,0-21.8,3.12l-.21.29-22.13,31H189.16l-12.55-5.51-12.56,6.28v25.11h94.17l28.49-38.56A15.58,15.58,0,0,0,283.53,204.58Z" transform="translate(-13.38 -13.73)"/><path class="cls-5" d="M164.05,264.85h-12.5a20.4,20.4,0,0,1-18.25-11.27l-25.75-51.51L69.88,252.3,38.49,233.46,88.4,166.92A22,22,0,0,1,106,158.13h8.64a22,22,0,0,1,18.29,9.78l31.14,46.72Z" transform="translate(-13.38 -13.73)"/><path class="cls-6" d="M182.89,126.74H208V164.4H182.89Z" transform="translate(-13.38 -13.73)"/><path class="cls-7" d="M182.89,133H208v25.12H182.89Z" transform="translate(-13.38 -13.73)"/><path class="cls-4" d="M311.2,139.61h0a18.83,18.83,0,0,1,2.86,26.48l-15.74,19.56a18.84,18.84,0,0,1-26.48,2.86h0A18.83,18.83,0,0,1,269,162l15.75-19.56A18.83,18.83,0,0,1,311.2,139.61Z" transform="translate(-13.38 -13.73)"/><path class="cls-8" d="M318.28,154.27a18.74,18.74,0,0,1-4.16,11.81l-11.8,14.67-9.79-7.87-7.75-30.42a18.83,18.83,0,0,1,33.5,11.81Z" transform="translate(-13.38 -13.73)"/><path class="cls-9" d="M312.1,188.62l-14.67-11.81,21.64-26.9a9.42,9.42,0,0,1,13.24-1.43h0a9.42,9.42,0,0,1,1.44,13.24h0Z" transform="translate(-13.38 -13.73)"/><circle class="cls-1" cx="288.82" cy="165.95" r="13.32"/><path class="cls-10" d="M303.06,20.07l-43.95-6.28a6.28,6.28,0,0,0-7.1,5.33A6.65,6.65,0,0,0,252,20V38.84h-6.28A18.84,18.84,0,1,0,264.5,57.68V27.25l31.39,4.48V45.12h-6.28A18.84,18.84,0,1,0,308.45,64V26.29A6.28,6.28,0,0,0,303.06,20.07Z" transform="translate(-13.38 -13.73)"/><path class="cls-11" d="M182.89,126.74h6.27V133h-6.27Z" transform="translate(-13.38 -13.73)"/><path class="cls-11" d="M182.89,158.13h6.27v6.27h-6.27Z" transform="translate(-13.38 -13.73)"/><path class="cls-7" d="M182.89,133h6.27v25.12h-6.27Z" transform="translate(-13.38 -13.73)"/><path class="cls-1" d="M146.74,95.53l-20.36-5.09V84.55l17.32,4.33a6.28,6.28,0,0,0,3.13-12.16l-.09,0-25.11-6.28A6.28,6.28,0,0,0,114,75a6,6,0,0,0-.19,1.52v25.11h-6.28a18.84,18.84,0,1,0,18.83,18.84V103.39l17.32,4.32a6.28,6.28,0,0,0,3.13-12.16Z" transform="translate(-13.38 -13.73)"/><path class="cls-12" d="M385.56,223l-1.18-2.35.41-1a45.37,45.37,0,0,0-10.4-49.2,34.53,34.53,0,0,0-57.23-38.14l-2,2.44a25.1,25.1,0,0,0-35.1,3.58l0,0-.19.22-15.74,19.57A24.94,24.94,0,0,0,258.6,174l-9.25,9.25h-14l-21.3-17a6.09,6.09,0,0,0,.27-1.8V126.74a6.28,6.28,0,0,0-6.28-6.28H182.89a6.28,6.28,0,0,0-6.28,6.28v10l-17,17a6.26,6.26,0,0,0-1.51,6.42L164.37,179a6.3,6.3,0,0,0,4.44,4.1l22.59,5.65,9.66,16.11-7.1,3.54H167.41l-29.28-43.92a28.19,28.19,0,0,0-23.51-12.58H106a28.37,28.37,0,0,0-22.6,11.3L34.11,228.83l-17.94,12A6.31,6.31,0,0,0,13.38,246v18.83a6.28,6.28,0,0,0,6.28,6.28H95a6.28,6.28,0,0,0,6.28-6.28V253.07l8.25-33,18.17,36.32a26.5,26.5,0,0,0,23.86,14.75h226a6.28,6.28,0,0,0,5.22-2.79A45.41,45.41,0,0,0,385.56,223Zm-27.72-86.19a22,22,0,0,1,3.34,30.9l-39.35,48.91a22.12,22.12,0,0,1-26.55,6.07,21.91,21.91,0,0,0-8-23.1c-.35-.26-.71-.51-1.07-.75a25.2,25.2,0,0,0,5.36-1.13A6.47,6.47,0,0,0,293,197a19.54,19.54,0,0,0,25.84-7l19.77-24.32a15.68,15.68,0,0,0-11.71-25.51v0a22,22,0,0,1,30.9-3.34Zm-38.73,33a19.5,19.5,0,0,0-4-4.87L324,153.84a3.15,3.15,0,0,1,4.92,3.92Zm-16.9,2.87a7,7,0,1,1-5.49,2.62,7,7,0,0,1,5.49-2.62Zm-4.11-30.86a12.56,12.56,0,0,1,13.06,7.95l-8.34,10.37a19.67,19.67,0,0,0-6.81,1l-4.27-16.73a12.49,12.49,0,0,1,6.36-2.59ZM273.93,166l7.87-9.78,3.48,13.62a19.49,19.49,0,0,0-2.56,12,19.71,19.71,0,0,0,1.07,4.6A12.55,12.55,0,0,1,273.93,166Zm-84.77-33h12.56v25.12H189.16ZM197,177.15,175.2,171.7l-4-11.88,5.38-5.37v10a6.28,6.28,0,0,0,6.28,6.28h16.63L219,186.24a31.44,31.44,0,0,0-10,7.41L200.83,180a6.28,6.28,0,0,0-3.86-2.86Zm-1.53,43.76a6.22,6.22,0,0,0,2.81-.67L210.81,214a6.25,6.25,0,0,0,3.14-3.63l.56-1.67a18.83,18.83,0,0,1,17.87-12.88H252a6.28,6.28,0,0,0,4.43-1.83l6.34-6.34a25.12,25.12,0,0,0,8.2,7.82h-.07a21.65,21.65,0,0,0-14.44,8.89l-20.25,28.35H193.48l-13-5.08a6.32,6.32,0,0,0-4.83.12l-5.3,2.35v-9.17ZM91,242.52l-4.06-2.46,7-9.35Zm-65,6.86,12.74-8.49,23,13.8-2,3.89H25.93Zm47.83,9.2,1.48-3,4.1-5.46,9.38,5.68v2.75Zm65.16-7.81-25.76-51.5a6.27,6.27,0,0,0-5-3.45,5.25,5.25,0,0,0-.56,0,6.27,6.27,0,0,0-5,2.52L68.26,244,47.69,231.66l45.73-61A15.82,15.82,0,0,1,106,164.4h8.64a15.67,15.67,0,0,1,13.06,7l30.09,45.14v42h-6.22A14,14,0,0,1,138.92,250.77Zm31.41-7,8-3.56L190,244.82a6.15,6.15,0,0,0,2.28.43h47.09a6.28,6.28,0,0,0,5.11-2.63l22.13-31a9.29,9.29,0,0,1,12.95-2.16l.18.13a9.31,9.31,0,0,1,1.9,12.95l-26.6,36H170.33ZM374,258.58H270.67l18.44-25a34.71,34.71,0,0,0,42.5-9.15l35.24-43.8a32.77,32.77,0,0,1,6.28,34.28l-1.45,3.64a6.25,6.25,0,0,0,.21,5.13l2.43,4.87a32.78,32.78,0,0,1-.37,30Z" transform="translate(-13.38 -13.73)"/><path class="cls-12" d="M245.67,76.51A18.86,18.86,0,0,0,264.5,57.68V27.25l31.39,4.48V45.12h-6.28A18.84,18.84,0,1,0,308.45,64V26.29a6.28,6.28,0,0,0-5.39-6.22l-43.95-6.28a6.28,6.28,0,0,0-7.1,5.33A6.65,6.65,0,0,0,252,20V38.84h-6.28a18.84,18.84,0,1,0,0,37.67ZM295.89,64a6.28,6.28,0,1,1-6.28-6.28h6.28ZM245.67,51.4H252v6.28a6.28,6.28,0,1,1-6.28-6.28Z" transform="translate(-13.38 -13.73)"/><path class="cls-12" d="M107.55,139.29a18.85,18.85,0,0,0,18.83-18.83V103.39s18.34,4.51,18.84,4.51a6.28,6.28,0,0,0,1.52-12.37l-20.36-5.09V84.55l17.32,4.33a6.28,6.28,0,0,0,3.13-12.16l-.09,0-25.11-6.28A6.28,6.28,0,0,0,114,75a6,6,0,0,0-.19,1.52v25.11h-6.28a18.84,18.84,0,0,0,0,37.67Zm0-25.11h6.28v6.28a6.28,6.28,0,1,1-6.28-6.28Z" transform="translate(-13.38 -13.73)"/></g></svg>