<?xml version="1.0" encoding="utf-8"?>
<!-- Generator: Adobe Illustrator 24.1.1, SVG Export Plug-In . SVG Version: 6.00 Build 0)  -->
<svg version="1.1" xmlns="http://www.w3.org/2000/svg" xmlns:xlink="http://www.w3.org/1999/xlink" x="0px" y="0px"
	 viewBox="0 0 512 320.4" style="enable-background:new 0 0 512 320.4;" xml:space="preserve">
<style type="text/css">
	.st0{fill:#9AC1D0;}
	.st1{fill:#3F6162;}
	.st2{fill:#53C9CC;}
	.st3{fill:#335566;}
	.st4{fill:#CE665C;}
	.st5{fill:#EEDC9A;}
	.st6{fill:#383D44;}
</style>
<g id="Layer_1">
	<g>
		<g>
			<g>
				<path class="st0" d="M390.2,133.9c-45.1,0-81.7,36.6-81.7,81.7s36.6,81.7,81.7,81.7s81.7-36.6,81.7-81.7
					C471.9,170.5,435.3,134,390.2,133.9z M424.6,218.3c-0.6,1.1-1.5,2.1-2.6,2.6v0l-46.7,23.3c-2.9,1.4-6.4,0.3-7.8-2.6
					c-0.4-0.8-0.6-1.7-0.6-2.6v-46.7c0-3.2,2.6-5.8,5.8-5.8c0.9,0,1.8,0.2,2.6,0.6l46.7,23.3C424.9,211.9,426,215.4,424.6,218.3z"/>
			</g>
		</g>
	</g>
	<g>
		<g id="Fill_out_line">
			<rect x="260.3" y="224.7" class="st1" width="29" height="37.3"/>
			<rect x="322.5" y="137.6" class="st2" width="24.9" height="29"/>
			<rect x="115" y="137.6" class="st2" width="24.9" height="29"/>
			<path class="st3" d="M148.2,145.9L148.2,145.9c6.9,0,12.5,5.6,12.5,12.4V233c0,6.9-5.6,12.4-12.4,12.4h0
				c-6.9,0-12.4-5.6-12.4-12.4v-74.7C135.8,151.4,141.3,145.9,148.2,145.9z"/>
			<path class="st3" d="M314.2,245.5L314.2,245.5c-6.9,0-12.5-5.6-12.5-12.4v-74.7c0-6.9,5.6-12.4,12.4-12.4h0
				c6.9,0,12.4,5.6,12.4,12.4V233C326.7,239.9,321.1,245.5,314.2,245.5z"/>
			<path class="st0" d="M119.2,137.6v-4.2c0-61.9,50.2-112,112-112h0c61.9,0,112,50.2,112,112v4.2h-16.6v-4.2
				c0-52.7-42.7-95.4-95.4-95.4h0c-52.7,0-95.4,42.7-95.4,95.4v4.2H119.2z"/>
			<path class="st4" d="M289.3,104.4v120.4h-78.8v2.1c0,3.4-2.8,6.2-6.2,6.2s-6.2-2.8-6.2-6.2v-2.1h-6.2c-10.3,0-18.7,8.4-18.7,18.7
				V123c0-10.3,8.4-18.7,18.7-18.7h6.2v2.1c0,3.4,2.8,6.2,6.2,6.2s6.2-2.8,6.2-6.2v-2.1H289.3z"/>
			<path class="st5" d="M276.1,256.6c3.5,3.5,8.3,5.5,13.2,5.5h-78.8V260c0-3.4-2.8-6.2-6.2-6.2s-6.2,2.8-6.2,6.2v2.1h-6.2
				c-10.3,0-18.7-8.4-18.7-18.7c0-10.3,8.4-18.7,18.7-18.7h6.2v2.1c0,3.4,2.8,6.2,6.2,6.2s6.2-2.8,6.2-6.2v-2.1h78.8
				c-9.5,0-17.5,7.1-18.6,16.6c-0.2,1.4-0.2,2.8,0,4.2c0.3,3,1.4,5.8,3,8.3C274.5,254.8,275.3,255.7,276.1,256.6z"/>
			<path class="st4" d="M210.5,106.4v120.3c0,3.4-2.8,6.2-6.2,6.2s-6.2-2.8-6.2-6.2V106.4c0,3.4,2.8,6.2,6.2,6.2
				S210.5,109.9,210.5,106.4z"/>
			<path class="st0" d="M119.2,158.3h16.6l0,0V233l0,0h-16.6c-4.6,0-8.3-3.7-8.3-8.3v-58.1C110.9,162,114.6,158.3,119.2,158.3z"/>
			<path class="st0" d="M343.3,233h-16.6l0,0v-74.7l0,0h16.6c4.6,0,8.3,3.7,8.3,8.3v58.1C351.6,229.3,347.9,233,343.3,233z"/>
			<path class="st6" d="M351.6,157.3v-19.8c0-2.3-1.9-4.1-4.1-4.1c0-64.2-52-116.2-116.2-116.2c-30.8,0-60.4,12.2-82.2,34
				c-21.9,21.7-34.1,51.3-34,82.2c-2.3,0-4.1,1.9-4.2,4.1v19.8c-2.6,2.4-4.2,5.7-4.2,9.3v58.1c0,6.9,5.6,12.4,12.4,12.4h13
				c2.3,8.9,11.3,14.2,20.2,11.9c7.3-1.9,12.4-8.5,12.5-16.1v-74.7c0-9.2-7.4-16.6-16.6-16.6c-1.4,0-2.8,0.2-4.1,0.5v-4.7
				c0-2.3-1.9-4.1-4.1-4.1c0-50.3,41-91.3,91.3-91.3s91.3,41,91.3,91.3c-2.3,0-4.1,1.9-4.2,4.1v4.7c-8.9-2.3-17.9,3.1-20.2,11.9
				c-0.3,1.4-0.5,2.7-0.5,4.1V233c0,9.2,7.4,16.6,16.6,16.6c7.6,0,14.2-5.1,16.1-12.5h13c6.9,0,12.4-5.6,12.4-12.4v-58.1
				C355.7,163.1,354.2,159.7,351.6,157.3z M330.3,154.2c-0.7-2.5-1.9-4.9-3.6-6.8v-5.6h16.6v12.4H330.3z M119.2,141.7h16.6v5.6
				c-1.7,2-3,4.3-3.6,6.8h-13V141.7z M115,224.7v-58.1c0-2.3,1.9-4.1,4.1-4.1h12.5v66.4h-12.5C116.9,228.9,115,227,115,224.7z
				 M156.5,158.3V233c0,4.6-3.7,8.3-8.3,8.3c-4.6,0-8.3-3.7-8.3-8.3v-74.7c0-4.6,3.7-8.3,8.3-8.3C152.8,150,156.5,153.7,156.5,158.3
				z M231.2,33.8c-54.9,0-99.6,44.7-99.6,99.6h-8.3c0-59.5,48.4-107.9,107.9-107.9s107.9,48.4,107.9,107.9h-8.3
				C330.8,78.5,286.1,33.8,231.2,33.8z M322.5,233c0,4.6-3.7,8.3-8.3,8.3s-8.3-3.7-8.3-8.3v-74.7c0-4.6,3.7-8.3,8.3-8.3
				s8.3,3.7,8.3,8.3V233z M347.4,224.7c0,2.3-1.9,4.1-4.1,4.1h-12.5v-66.4h12.5c2.3,0,4.1,1.9,4.1,4.1V224.7z"/>
			<path class="st6" d="M289.3,100.2h-78.8c-2.3,0-4.1,1.9-4.2,4.1c0,0,0,0,0,0v2.1c0,1.1-0.9,2.1-2.1,2.1s-2.1-0.9-2.1-2.1v-2.1
				c0-2.3-1.9-4.1-4.1-4.1c0,0,0,0,0,0h-6.2c-12.6,0-22.8,10.2-22.8,22.8v120.4c0,12.6,10.2,22.8,22.8,22.8h6.2
				c2.3,0,4.1-1.9,4.2-4.1c0,0,0,0,0,0V260c0-1.1,0.9-2.1,2.1-2.1s2.1,0.9,2.1,2.1v2.1c0,2.3,1.9,4.1,4.1,4.1c0,0,0,0,0,0h78.8
				c2.3,0,4.1-1.9,4.1-4.1c0,0,0,0,0,0V104.4C293.5,102.1,291.6,100.2,289.3,100.2C289.3,100.2,289.3,100.2,289.3,100.2z
				 M202.2,116.6c1.4,0.3,2.8,0.3,4.1,0v110.2c0,1.1-0.9,2.1-2.1,2.1s-2.1-0.9-2.1-2.1V116.6z M177.3,123c0-8,6.5-14.5,14.5-14.5
				h2.1v112h-2.1c-5.3,0-10.4,1.8-14.5,5.2V123z M266.6,241.3c-0.1,0.7-0.1,1.4-0.1,2.1s0,1.4,0.1,2.1h-47.8v8.3H269
				c0.8,1.5,1.7,2.9,2.7,4.1h-57.3c-1.1-5.6-6.6-9.2-12.2-8.1c-4.1,0.8-7.3,4-8.1,8.1h-2.3c-8,0-14.5-6.5-14.5-14.5
				c0-8,6.5-14.5,14.5-14.5l0,0h2.3c1.1,5.6,6.6,9.2,12.2,8.1c4.1-0.8,7.3-4,8.1-8.1h57.3c-1.1,1.3-2,2.7-2.7,4.2h-50.2v8.3H266.6z
				 M285.2,257.3c-7.7-2.3-12.1-10.4-9.8-18.1c1.4-4.7,5.1-8.4,9.8-9.8V257.3z M285.2,220.6h-70.6v-112h70.6V220.6z"/>
		</g>
	</g>
</g>
<g id="Layer_2">
</g>
</svg>
