<svg id="Layer_1" data-name="Layer 1" xmlns="http://www.w3.org/2000/svg" viewBox="0 0 500 500"><defs><style>.cls-1{fill:#181c1d;}.cls-2{fill:#eceaec;}.cls-3{fill:#dad8db;}.cls-4{fill:#a6aec4;}.cls-5{fill:#959db0;}.cls-6{fill:#3b434d;}.cls-7{fill:#434d59;}</style></defs><rect class="cls-1" width="500" height="500"/><path class="cls-2" d="M194.47,395.53l18.85-1.11c18.25-7.83,15-20.34,11.43-30.26l-25-68.66a19.13,19.13,0,0,0-24.53-11.41L156.33,291l9.44,57.44,28.7,47.13Z"/><path class="cls-3" d="M228.49,374.44l-3.75-10.28a19.12,19.12,0,0,1-11.42,24.5l-18.85,6.87-4,4.84,7.75,5.47L217.08,399a19.13,19.13,0,0,0,11.41-24.53Z"/><path class="cls-4" d="M159.91,390l18.34,8.71,16.22-3.14L156.33,291l-22.86,26.51,2.25,37.74L159.91,390Z"/><path class="cls-5" d="M194.47,395.53,159.91,390l3.76,10.31,34.56,5.57Z"/><path class="cls-6" d="M123.75,376.44l1.5,3.84a44.5,44.5,0,0,0,41.48,28.38l-4.27-11.72C148.05,395.64,132.25,388,123.75,376.44Z"/><path class="cls-2" d="M305.53,395.53l-18.85-1.11c-18.25-7.83-15-20.34-11.42-30.26l25-68.66a19.12,19.12,0,0,1,24.52-11.41L343.67,291l-9.43,57.44-28.71,47.13Z"/><path class="cls-3" d="M271.51,374.44l3.75-10.28a19.12,19.12,0,0,0,11.42,24.5l18.85,6.87,4,4.84-7.75,5.47L282.92,399a19.13,19.13,0,0,1-11.41-24.53Z"/><path class="cls-4" d="M340.09,390l-18.34,8.71-16.22-3.14L343.67,291l22.86,26.51-2.25,37.74L340.09,390Z"/><path class="cls-5" d="M305.53,395.53,340.09,390l-3.76,10.31-34.56,5.57Z"/><path class="cls-7" d="M250,91.34h0c216.91,0,138.24,229.77,138.24,229.77a61.89,61.89,0,0,1-3.31,33l-8.68,22.34c-4.28,9.7-20.95,24.58-31.48,27.92l-7.23-7.42L373.27,299a231.75,231.75,0,0,0,8.26-66.66c0-44.28-17.16-123.2-131.53-123.2s-131.54,78.92-131.54,123.2A232,232,0,0,0,126.73,299l35.73,97.95-7.23,7.42C144.7,401,128,386.14,123.75,376.44l-8.68-22.34a62,62,0,0,1-3.32-33S33.09,91.34,250,91.34h0"/><path class="cls-6" d="M376.25,376.44l-1.5,3.84a44.5,44.5,0,0,1-41.48,28.38l4.27-11.72c14.41-1.3,30.21-8.94,38.71-20.5Z"/><path class="cls-6" d="M250,114.89c106.46,0,130,64.74,131.54,117.44,1.51-54.24-17.16-129-131.54-129s-133,74.71-131.54,129C120,179.63,143.54,114.89,250,114.89Z"/></svg>