<?xml version="1.0"?>
<svg xmlns="http://www.w3.org/2000/svg" id="Capa_1" enable-background="new 0 0 512 512" height="512px" viewBox="0 0 512 512" width="512px" class=""><g><g><g><path d="m472 152h-336l-96-8v-88h432z" fill="#cca400" data-original="#CCA400" class="" style="fill:#348183" data-old_color="#cca400"/><path d="m496 152v304h-480v-352h144l16 48z" fill="#ffda44" data-original="#FFDA44" class="" style="fill:#53C9CC" data-old_color="#ffda44"/><circle cx="256" cy="304" fill="#e0e0e2" r="112" data-original="#E0E0E2" class="" style="fill:#383D44" data-old_color="#e0e0e2"/><circle cx="232" cy="352" fill="#2d2d30" r="24" data-original="#2D2D30" class="active-path" style="fill:#1b1f1f" data-old_color="#2d2d30"/></g><g><path d="m496 144h-16v-88c0-4.418-3.582-8-8-8h-432c-4.418 0-8 3.582-8 8v40h-16c-4.418 0-8 3.582-8 8v352c0 4.418 3.582 8 8 8h480c4.418 0 8-3.582 8-8v-304c0-4.418-3.582-8-8-8zm-448-80h416v80h-282.23l-14.18-42.53c-1.089-3.267-4.146-5.47-7.59-5.47h-112zm440 384h-464v-336h130.23l14.18 42.53c1.089 3.267 4.146 5.47 7.59 5.47h312z" data-original="#000000" class="" style="fill:#1b1f1f" data-old_color="#000000"/><path d="m256 184c-66.274 0-120 53.726-120 120s53.726 120 120 120 120-53.726 120-120c-.074-66.244-53.756-119.926-120-120zm0 224c-57.438 0-104-46.562-104-104s46.562-104 104-104 104 46.562 104 104c-.062 57.412-46.588 103.938-104 104z" data-original="#000000" class="" style="fill:#1b1f1f" data-old_color="#000000"/><path d="m308.44 257.34-48-32c-3.685-2.447-8.655-1.444-11.103 2.241-.87 1.31-1.335 2.847-1.337 4.419v92.3c-15.303-8.832-34.868-3.587-43.7 11.716s-3.587 34.868 11.716 43.7 34.868 3.587 43.7-11.716c2.808-4.865 4.285-10.383 4.284-16v-105.05l35.56 23.71c3.678 2.452 8.648 1.458 11.1-2.22s1.458-8.648-2.22-11.1zm-76.44 110.66c-8.837 0-16-7.163-16-16s7.163-16 16-16 16 7.163 16 16c-.012 8.832-7.168 15.988-16 16z" data-original="#000000" class="" style="fill:#1b1f1f" data-old_color="#000000"/></g></g></g> </svg>
