<?xml version="1.0"?>
<svg xmlns="http://www.w3.org/2000/svg" xmlns:xlink="http://www.w3.org/1999/xlink" xmlns:svgjs="http://svgjs.com/svgjs" version="1.1" width="512" height="512" x="0" y="0" viewBox="0 0 395.947 395.947" style="enable-background:new 0 0 512 512" xml:space="preserve" class=""><g>
<g xmlns="http://www.w3.org/2000/svg">
	<path style="" d="M341.333,252.587H54.613C24.45,252.587,0,228.137,0,197.973l0,0   c0-30.164,24.45-54.613,54.613-54.613h286.72c30.164,0,54.613,24.45,54.613,54.613l0,0   C395.947,228.137,371.497,252.587,341.333,252.587z" fill="#1b1f1f" data-original="#ea3457" class=""/>
	<circle style="" cx="75.093" cy="197.973" r="27.307" fill="#1b1f1f" data-original="#ea3457" class=""/>
</g>
<path xmlns="http://www.w3.org/2000/svg" style="" d="M75.093,232.107c-18.821,0-34.133-15.312-34.133-34.133s15.312-34.133,34.133-34.133  s34.133,15.312,34.133,34.133S93.914,232.107,75.093,232.107z M75.093,177.493c-11.295,0-20.48,9.185-20.48,20.48  c0,11.295,9.185,20.48,20.48,20.48s20.48-9.185,20.48-20.48C95.573,186.679,86.388,177.493,75.093,177.493z" fill="#6c797c" data-original="#602f75" class=""/>
<circle xmlns="http://www.w3.org/2000/svg" style="" cx="197.973" cy="197.973" r="27.307" fill="#1b1f1f" data-original="#ffe600" class=""/>
<path xmlns="http://www.w3.org/2000/svg" style="" d="M197.973,232.107c-18.821,0-34.133-15.312-34.133-34.133s15.312-34.133,34.133-34.133  s34.133,15.312,34.133,34.133S216.794,232.107,197.973,232.107z M197.973,177.493c-11.295,0-20.48,9.185-20.48,20.48  c0,11.295,9.185,20.48,20.48,20.48c11.295,0,20.48-9.185,20.48-20.48C218.453,186.679,209.268,177.493,197.973,177.493z" fill="#6c797c" data-original="#602f75" class=""/>
<circle xmlns="http://www.w3.org/2000/svg" style="" cx="320.853" cy="197.973" r="27.307" fill="#1b1f1f" data-original="#00e7ff" class=""/>
<path xmlns="http://www.w3.org/2000/svg" style="" d="M320.853,232.107c-18.821,0-34.133-15.312-34.133-34.133s15.312-34.133,34.133-34.133  c18.821,0,34.133,15.312,34.133,34.133S339.674,232.107,320.853,232.107z M320.853,177.493c-11.295,0-20.48,9.185-20.48,20.48  c0,11.295,9.185,20.48,20.48,20.48s20.48-9.185,20.48-20.48C341.333,186.679,332.148,177.493,320.853,177.493z" fill="#6c797c" data-original="#602f75" class=""/>
<g xmlns="http://www.w3.org/2000/svg">
</g>
<g xmlns="http://www.w3.org/2000/svg">
</g>
<g xmlns="http://www.w3.org/2000/svg">
</g>
<g xmlns="http://www.w3.org/2000/svg">
</g>
<g xmlns="http://www.w3.org/2000/svg">
</g>
<g xmlns="http://www.w3.org/2000/svg">
</g>
<g xmlns="http://www.w3.org/2000/svg">
</g>
<g xmlns="http://www.w3.org/2000/svg">
</g>
<g xmlns="http://www.w3.org/2000/svg">
</g>
<g xmlns="http://www.w3.org/2000/svg">
</g>
<g xmlns="http://www.w3.org/2000/svg">
</g>
<g xmlns="http://www.w3.org/2000/svg">
</g>
<g xmlns="http://www.w3.org/2000/svg">
</g>
<g xmlns="http://www.w3.org/2000/svg">
</g>
<g xmlns="http://www.w3.org/2000/svg">
</g>
</g></svg>
