<svg xmlns="http://www.w3.org/2000/svg" xmlns:xlink="http://www.w3.org/1999/xlink" width="493" height="160" viewBox="0 0 493 160">
  <defs>
    <clipPath id="clip-path">
      <rect width="492.605" height="159.933" fill="none"/>
    </clipPath>
    <clipPath id="clip-custom_1">
      <rect width="493" height="160"/>
    </clipPath>
  </defs>
  <g id="custom_1" data-name="custom – 1" clip-path="url(#clip-custom_1)">
    <rect width="493" height="160" fill="rgba(255,255,255,0)"/>
    <g id="Repeat_Grid_1" data-name="Repeat Grid 1" transform="translate(0.022 0.074)" clip-path="url(#clip-path)">
      <g transform="translate(-328.022 -18.074)">
        <g id="wave" transform="translate(328.022 1.007)">
          <path id="Path_1" data-name="Path 1" d="M3.7,17.067H51.792a3.7,3.7,0,0,1,3.7,3.7V65.159a3.7,3.7,0,0,1-3.7,3.7H3.7a3.7,3.7,0,0,1-3.7-3.7V20.766A3.7,3.7,0,0,1,3.7,17.067Z" transform="translate(0 0)" fill="#efede6"/>
          <path id="Path_2" data-name="Path 2" d="M29.6,122.326a1.849,1.849,0,0,1-1.728-1.184l-7.5-19.5-3.84,10.24a1.849,1.849,0,0,1-1.635,1.195,1.8,1.8,0,0,1-1.75-1.017l-3.189-6.378H1.85a1.85,1.85,0,1,1,0-3.7H11.1A1.853,1.853,0,0,1,12.752,103l1.805,3.607,4.069-10.828a1.849,1.849,0,0,1,1.72-1.2h0a1.849,1.849,0,0,1,1.728,1.184l7.047,18.323,6.067-27.305a1.85,1.85,0,0,1,3.5-.351L45.6,101.968h8.046a1.85,1.85,0,1,1,0,3.7H44.393a1.846,1.846,0,0,1-1.691-1.11l-5.12-11.5L31.4,120.876a1.853,1.853,0,0,1-1.668,1.45Z" transform="translate(0 -60.866)" fill="#ce665c"/>
          <path id="Path_3" data-name="Path 3" d="M51.792,68.859H3.7a3.7,3.7,0,0,1-3.7-3.7V20.766a3.7,3.7,0,0,1,3.7-3.7H51.792a3.7,3.7,0,0,1,3.7,3.7V65.159A3.7,3.7,0,0,1,51.792,68.859ZM3.7,20.766V65.159H51.792V20.766Z" transform="translate(0 0)" fill="#191e23"/>
        </g>
        <g id="buds" transform="translate(421.529 86)">
          <path id="Path_4" data-name="Path 4" d="M138.369,448.035v1.718a5.155,5.155,0,1,1-10.309,0h0v-1.718Z" transform="translate(-114.199 -399.901)" fill="#607d8b"/>
          <path id="Path_5" data-name="Path 5" d="M24.17,12.052V48.134H13.861V23.7A15.158,15.158,0,0,1,.7,20.506a1.65,1.65,0,0,1-.584-1.271V4.87A1.65,1.65,0,0,1,.7,3.6,14.559,14.559,0,0,1,10.425.025,12.982,12.982,0,0,1,24.17,12.052Z" transform="translate(0 0)" fill="#eceff1"/>
          <path id="Path_6" data-name="Path 6" d="M287.99,448.035v1.718a5.155,5.155,0,0,0,10.309,0h0v-1.718Z" transform="translate(-256.947 -399.901)" fill="#607d8b"/>
          <path id="Path_7" data-name="Path 7" d="M287.99,12.053V48.135H298.3V23.7a15.158,15.158,0,0,0,13.161-3.2,1.65,1.65,0,0,0,.584-1.271V4.871a1.65,1.65,0,0,0-.584-1.271A14.56,14.56,0,0,0,301.736.025,12.98,12.98,0,0,0,287.99,12.053Z" transform="translate(-256.947 -0.001)" fill="#eceff1"/>
          <path id="Path_8" data-name="Path 8" d="M19.016,55.01a5.157,5.157,0,0,1-5.155-5.155h0V23.691A15.051,15.051,0,0,1,.69,20.519a1.707,1.707,0,0,1-.574-1.282V4.873A1.725,1.725,0,0,1,.69,3.591,14.576,14.576,0,0,1,10.425.028,12.987,12.987,0,0,1,24.171,12.055v37.8a5.154,5.154,0,0,1-5.155,5.155ZM15.58,19.615A1.718,1.718,0,0,1,17.3,21.333V49.855a1.718,1.718,0,1,0,3.436,0v-37.8A9.576,9.576,0,0,0,10.425,3.464a11.465,11.465,0,0,0-6.873,2.22V18.426a11.9,11.9,0,0,0,11.361,1.323A1.7,1.7,0,0,1,15.58,19.615Z" transform="translate(0 -0.003)"/>
          <path id="Path_9" data-name="Path 9" d="M101.229,71.076a1.719,1.719,0,0,1-1.718-1.718,1.719,1.719,0,0,0-1.718-1.718,1.718,1.718,0,1,1,0-3.436,5.157,5.157,0,0,1,5.155,5.155A1.719,1.719,0,0,1,101.229,71.076Z" transform="translate(-85.649 -57.306)"/>
          <path id="Path_10" data-name="Path 10" d="M66.445,99.625a1.718,1.718,0,0,1-.034-3.436h.034a1.718,1.718,0,0,1,0,3.436Z" transform="translate(-57.67 -85.855)"/>
          <path id="Path_11" data-name="Path 11" d="M136.651,419.485h-6.873a1.718,1.718,0,0,1,0-3.436h6.873a1.718,1.718,0,0,1,0,3.436Z" transform="translate(-114.199 -371.351)"/>
          <path id="Path_12" data-name="Path 12" d="M293.145,55.01a5.157,5.157,0,0,1-5.155-5.155h0v-37.8A12.987,12.987,0,0,1,301.736.028a14.577,14.577,0,0,1,9.735,3.563,1.724,1.724,0,0,1,.574,1.282V19.237a1.724,1.724,0,0,1-.574,1.282A15.074,15.074,0,0,1,298.3,23.691V49.855a5.154,5.154,0,0,1-5.155,5.155Zm8.591-51.546a9.576,9.576,0,0,0-10.309,8.591v37.8a1.718,1.718,0,0,0,3.436,0V21.333a1.719,1.719,0,0,1,1.718-1.718,1.7,1.7,0,0,1,.667.134,11.9,11.9,0,0,0,11.361-1.323V5.684A11.465,11.465,0,0,0,301.736,3.464Z" transform="translate(-256.947 -0.003)"/>
          <path id="Path_13" data-name="Path 13" d="M353.68,71.076a1.719,1.719,0,0,1-1.718-1.718,5.157,5.157,0,0,1,5.155-5.155,1.718,1.718,0,1,1,0,3.436,1.719,1.719,0,0,0-1.718,1.718A1.719,1.719,0,0,1,353.68,71.076Z" transform="translate(-314.046 -57.306)"/>
          <path id="Path_14" data-name="Path 14" d="M418.291,99.625a1.718,1.718,0,0,1-.034-3.436h.034a1.718,1.718,0,0,1,0,3.436Z" transform="translate(-371.715 -85.855)"/>
          <path id="Path_15" data-name="Path 15" d="M296.581,419.485h-6.873a1.718,1.718,0,0,1,0-3.436h6.873a1.718,1.718,0,1,1,0,3.436Z" transform="translate(-256.947 -371.351)"/>
        </g>
        <g id="redfolder" transform="translate(329.476 61.916) rotate(-20)">
          <path id="Path_37" data-name="Path 37" d="M15.1,52.126l-3.845-3.845A.96.96,0,0,0,10.574,48H1.923A1.923,1.923,0,0,0,0,49.923v2.884a.962.962,0,0,0,.961.961H14.419a.961.961,0,0,0,.681-1.642Z" fill="#c0584e"/>
          <path id="Path_38" data-name="Path 38" d="M28.838,112H.961a.962.962,0,0,0-.961.961v18.264a1.923,1.923,0,0,0,1.923,1.923H28.838a1.923,1.923,0,0,0,1.923-1.923v-17.3A1.923,1.923,0,0,0,28.838,112Z" transform="translate(0 -60.155)" fill="#ce665c"/>
          <path id="Path_39" data-name="Path 39" d="M70.908,144.021a.961.961,0,0,0-1.14.944V154a4.925,4.925,0,0,0-1.923-.384c-2.157,0-3.845,1.267-3.845,2.884s1.688,2.884,3.845,2.884,3.845-1.267,3.845-2.884V146.284a2.777,2.777,0,0,1,1.923,2.407.961.961,0,1,0,1.923,0C75.535,145.684,72.507,144.321,70.908,144.021Z" transform="translate(-60.155 -90.236)" fill="#efede6"/>
          <path id="Path_40" data-name="Path 40" d="M28.838,72.993H1.923A1.923,1.923,0,0,1,0,71.07V49.923A1.923,1.923,0,0,1,1.923,48h8.651a.96.96,0,0,1,.681.281l3.562,3.564H28.838a1.923,1.923,0,0,1,1.923,1.923v17.3A1.923,1.923,0,0,1,28.838,72.993ZM1.923,49.923V71.07H28.838v-17.3H14.419a.96.96,0,0,1-.681-.281l-3.562-3.564Z" fill="#191e23"/>
          <path id="Path_41" data-name="Path 41" d="M67.845,309.768c-2.155,0-3.845-1.267-3.845-2.884S65.69,304,67.845,304s3.845,1.267,3.845,2.884S70,309.768,67.845,309.768Zm0-3.845c-1.173,0-1.923.577-1.923.961s.75.961,1.923.961,1.923-.577,1.923-.961S69.018,305.923,67.845,305.923Z" transform="translate(-60.155 -240.62)" fill="#191e23"/>
          <path id="Path_42" data-name="Path 42" d="M165.44,149.764a.962.962,0,0,1-.961-.961c0-2.188-3.03-2.776-3.061-2.782a.961.961,0,0,1,.354-1.888c1.6.3,4.629,1.661,4.629,4.67A.962.962,0,0,1,165.44,149.764Z" transform="translate(-151.021 -90.348)" fill="#191e23"/>
          <path id="Path_43" data-name="Path 43" d="M160.961,157.458A.962.962,0,0,1,160,156.5V144.961a.961.961,0,0,1,1.923,0V156.5A.962.962,0,0,1,160.961,157.458Z" transform="translate(-150.387 -90.232)" fill="#191e23"/>
        </g>
        <g id="folder" transform="translate(458.899 -17.082) rotate(11)">
          <path id="Path_44" data-name="Path 44" d="M13.4,51.661,9.987,48.249a.852.852,0,0,0-.6-.249H1.706A1.707,1.707,0,0,0,0,49.706v2.559a.853.853,0,0,0,.853.853H12.795a.853.853,0,0,0,.6-1.457Z" fill="#7ca3b2"/>
          <path id="Path_45" data-name="Path 45" d="M25.59,112H.853a.853.853,0,0,0-.853.853V129.06a1.707,1.707,0,0,0,1.706,1.706H25.59A1.707,1.707,0,0,0,27.3,129.06V113.706A1.707,1.707,0,0,0,25.59,112Z" transform="translate(0 -60.588)" fill="#9ac1d0"/>
          <path id="Path_46" data-name="Path 46" d="M70.13,144.019a.852.852,0,0,0-1.012.838v8.018a4.37,4.37,0,0,0-1.706-.341c-1.914,0-3.412,1.124-3.412,2.559s1.5,2.559,3.412,2.559,3.412-1.124,3.412-2.559v-9.066a2.464,2.464,0,0,1,1.706,2.136.853.853,0,0,0,1.706,0C74.236,145.495,71.549,144.285,70.13,144.019Z" transform="translate(-60.588 -90.886)" fill="#efede6"/>
          <path id="Path_47" data-name="Path 47" d="M25.59,70.178H1.706A1.707,1.707,0,0,1,0,68.472V49.706A1.707,1.707,0,0,1,1.706,48H9.383a.852.852,0,0,1,.6.249l3.161,3.163H25.59A1.707,1.707,0,0,1,27.3,53.118V68.472A1.707,1.707,0,0,1,25.59,70.178ZM1.706,49.706V68.472H25.59V53.118H12.795a.852.852,0,0,1-.6-.249L9.03,49.706Z" fill="#191e23"/>
          <path id="Path_48" data-name="Path 48" d="M67.412,309.118c-1.912,0-3.412-1.124-3.412-2.559S65.5,304,67.412,304s3.412,1.124,3.412,2.559S69.324,309.118,67.412,309.118Zm0-3.412c-1.041,0-1.706.512-1.706.853s.665.853,1.706.853,1.706-.512,1.706-.853S68.453,305.706,67.412,305.706Z" transform="translate(-60.588 -242.352)" fill="#191e23"/>
          <path id="Path_49" data-name="Path 49" d="M164.9,149.129a.853.853,0,0,1-.853-.853c0-1.941-2.689-2.463-2.716-2.469a.853.853,0,0,1,.314-1.675c1.421.266,4.108,1.474,4.108,4.144A.853.853,0,0,1,164.9,149.129Z" transform="translate(-152.109 -90.999)" fill="#191e23"/>
          <path id="Path_50" data-name="Path 50" d="M160.853,155.942a.853.853,0,0,1-.853-.853V144.853a.853.853,0,1,1,1.706,0v10.236A.853.853,0,0,1,160.853,155.942Z" transform="translate(-151.47 -90.882)" fill="#191e23"/>
        </g>
      </g>
      <g transform="translate(-159.022 -18.074)">
        <g id="wave-2" data-name="wave" transform="translate(328.022 1.007)">
          <path id="Path_1-2" data-name="Path 1" d="M3.7,17.067H51.792a3.7,3.7,0,0,1,3.7,3.7V65.159a3.7,3.7,0,0,1-3.7,3.7H3.7a3.7,3.7,0,0,1-3.7-3.7V20.766A3.7,3.7,0,0,1,3.7,17.067Z" transform="translate(0 0)" fill="#efede6"/>
          <path id="Path_2-2" data-name="Path 2" d="M29.6,122.326a1.849,1.849,0,0,1-1.728-1.184l-7.5-19.5-3.84,10.24a1.849,1.849,0,0,1-1.635,1.195,1.8,1.8,0,0,1-1.75-1.017l-3.189-6.378H1.85a1.85,1.85,0,1,1,0-3.7H11.1A1.853,1.853,0,0,1,12.752,103l1.805,3.607,4.069-10.828a1.849,1.849,0,0,1,1.72-1.2h0a1.849,1.849,0,0,1,1.728,1.184l7.047,18.323,6.067-27.305a1.85,1.85,0,0,1,3.5-.351L45.6,101.968h8.046a1.85,1.85,0,1,1,0,3.7H44.393a1.846,1.846,0,0,1-1.691-1.11l-5.12-11.5L31.4,120.876a1.853,1.853,0,0,1-1.668,1.45Z" transform="translate(0 -60.866)" fill="#ce665c"/>
          <path id="Path_3-2" data-name="Path 3" d="M51.792,68.859H3.7a3.7,3.7,0,0,1-3.7-3.7V20.766a3.7,3.7,0,0,1,3.7-3.7H51.792a3.7,3.7,0,0,1,3.7,3.7V65.159A3.7,3.7,0,0,1,51.792,68.859ZM3.7,20.766V65.159H51.792V20.766Z" transform="translate(0 0)" fill="#191e23"/>
        </g>
        <g id="buds-2" data-name="buds" transform="translate(421.529 86)">
          <path id="Path_4-2" data-name="Path 4" d="M138.369,448.035v1.718a5.155,5.155,0,1,1-10.309,0h0v-1.718Z" transform="translate(-114.199 -399.901)" fill="#607d8b"/>
          <path id="Path_5-2" data-name="Path 5" d="M24.17,12.052V48.134H13.861V23.7A15.158,15.158,0,0,1,.7,20.506a1.65,1.65,0,0,1-.584-1.271V4.87A1.65,1.65,0,0,1,.7,3.6,14.559,14.559,0,0,1,10.425.025,12.982,12.982,0,0,1,24.17,12.052Z" transform="translate(0 0)" fill="#eceff1"/>
          <path id="Path_6-2" data-name="Path 6" d="M287.99,448.035v1.718a5.155,5.155,0,0,0,10.309,0h0v-1.718Z" transform="translate(-256.947 -399.901)" fill="#607d8b"/>
          <path id="Path_7-2" data-name="Path 7" d="M287.99,12.053V48.135H298.3V23.7a15.158,15.158,0,0,0,13.161-3.2,1.65,1.65,0,0,0,.584-1.271V4.871a1.65,1.65,0,0,0-.584-1.271A14.56,14.56,0,0,0,301.736.025,12.98,12.98,0,0,0,287.99,12.053Z" transform="translate(-256.947 -0.001)" fill="#eceff1"/>
          <path id="Path_8-2" data-name="Path 8" d="M19.016,55.01a5.157,5.157,0,0,1-5.155-5.155h0V23.691A15.051,15.051,0,0,1,.69,20.519a1.707,1.707,0,0,1-.574-1.282V4.873A1.725,1.725,0,0,1,.69,3.591,14.576,14.576,0,0,1,10.425.028,12.987,12.987,0,0,1,24.171,12.055v37.8a5.154,5.154,0,0,1-5.155,5.155ZM15.58,19.615A1.718,1.718,0,0,1,17.3,21.333V49.855a1.718,1.718,0,1,0,3.436,0v-37.8A9.576,9.576,0,0,0,10.425,3.464a11.465,11.465,0,0,0-6.873,2.22V18.426a11.9,11.9,0,0,0,11.361,1.323A1.7,1.7,0,0,1,15.58,19.615Z" transform="translate(0 -0.003)"/>
          <path id="Path_9-2" data-name="Path 9" d="M101.229,71.076a1.719,1.719,0,0,1-1.718-1.718,1.719,1.719,0,0,0-1.718-1.718,1.718,1.718,0,1,1,0-3.436,5.157,5.157,0,0,1,5.155,5.155A1.719,1.719,0,0,1,101.229,71.076Z" transform="translate(-85.649 -57.306)"/>
          <path id="Path_10-2" data-name="Path 10" d="M66.445,99.625a1.718,1.718,0,0,1-.034-3.436h.034a1.718,1.718,0,0,1,0,3.436Z" transform="translate(-57.67 -85.855)"/>
          <path id="Path_11-2" data-name="Path 11" d="M136.651,419.485h-6.873a1.718,1.718,0,0,1,0-3.436h6.873a1.718,1.718,0,0,1,0,3.436Z" transform="translate(-114.199 -371.351)"/>
          <path id="Path_12-2" data-name="Path 12" d="M293.145,55.01a5.157,5.157,0,0,1-5.155-5.155h0v-37.8A12.987,12.987,0,0,1,301.736.028a14.577,14.577,0,0,1,9.735,3.563,1.724,1.724,0,0,1,.574,1.282V19.237a1.724,1.724,0,0,1-.574,1.282A15.074,15.074,0,0,1,298.3,23.691V49.855a5.154,5.154,0,0,1-5.155,5.155Zm8.591-51.546a9.576,9.576,0,0,0-10.309,8.591v37.8a1.718,1.718,0,0,0,3.436,0V21.333a1.719,1.719,0,0,1,1.718-1.718,1.7,1.7,0,0,1,.667.134,11.9,11.9,0,0,0,11.361-1.323V5.684A11.465,11.465,0,0,0,301.736,3.464Z" transform="translate(-256.947 -0.003)"/>
          <path id="Path_13-2" data-name="Path 13" d="M353.68,71.076a1.719,1.719,0,0,1-1.718-1.718,5.157,5.157,0,0,1,5.155-5.155,1.718,1.718,0,1,1,0,3.436,1.719,1.719,0,0,0-1.718,1.718A1.719,1.719,0,0,1,353.68,71.076Z" transform="translate(-314.046 -57.306)"/>
          <path id="Path_14-2" data-name="Path 14" d="M418.291,99.625a1.718,1.718,0,0,1-.034-3.436h.034a1.718,1.718,0,0,1,0,3.436Z" transform="translate(-371.715 -85.855)"/>
          <path id="Path_15-2" data-name="Path 15" d="M296.581,419.485h-6.873a1.718,1.718,0,0,1,0-3.436h6.873a1.718,1.718,0,1,1,0,3.436Z" transform="translate(-256.947 -371.351)"/>
        </g>
        <g id="redfolder-2" data-name="redfolder" transform="translate(329.476 61.916) rotate(-20)">
          <path id="Path_37-2" data-name="Path 37" d="M15.1,52.126l-3.845-3.845A.96.96,0,0,0,10.574,48H1.923A1.923,1.923,0,0,0,0,49.923v2.884a.962.962,0,0,0,.961.961H14.419a.961.961,0,0,0,.681-1.642Z" fill="#c0584e"/>
          <path id="Path_38-2" data-name="Path 38" d="M28.838,112H.961a.962.962,0,0,0-.961.961v18.264a1.923,1.923,0,0,0,1.923,1.923H28.838a1.923,1.923,0,0,0,1.923-1.923v-17.3A1.923,1.923,0,0,0,28.838,112Z" transform="translate(0 -60.155)" fill="#ce665c"/>
          <path id="Path_39-2" data-name="Path 39" d="M70.908,144.021a.961.961,0,0,0-1.14.944V154a4.925,4.925,0,0,0-1.923-.384c-2.157,0-3.845,1.267-3.845,2.884s1.688,2.884,3.845,2.884,3.845-1.267,3.845-2.884V146.284a2.777,2.777,0,0,1,1.923,2.407.961.961,0,1,0,1.923,0C75.535,145.684,72.507,144.321,70.908,144.021Z" transform="translate(-60.155 -90.236)" fill="#efede6"/>
          <path id="Path_40-2" data-name="Path 40" d="M28.838,72.993H1.923A1.923,1.923,0,0,1,0,71.07V49.923A1.923,1.923,0,0,1,1.923,48h8.651a.96.96,0,0,1,.681.281l3.562,3.564H28.838a1.923,1.923,0,0,1,1.923,1.923v17.3A1.923,1.923,0,0,1,28.838,72.993ZM1.923,49.923V71.07H28.838v-17.3H14.419a.96.96,0,0,1-.681-.281l-3.562-3.564Z" fill="#191e23"/>
          <path id="Path_41-2" data-name="Path 41" d="M67.845,309.768c-2.155,0-3.845-1.267-3.845-2.884S65.69,304,67.845,304s3.845,1.267,3.845,2.884S70,309.768,67.845,309.768Zm0-3.845c-1.173,0-1.923.577-1.923.961s.75.961,1.923.961,1.923-.577,1.923-.961S69.018,305.923,67.845,305.923Z" transform="translate(-60.155 -240.62)" fill="#191e23"/>
          <path id="Path_42-2" data-name="Path 42" d="M165.44,149.764a.962.962,0,0,1-.961-.961c0-2.188-3.03-2.776-3.061-2.782a.961.961,0,0,1,.354-1.888c1.6.3,4.629,1.661,4.629,4.67A.962.962,0,0,1,165.44,149.764Z" transform="translate(-151.021 -90.348)" fill="#191e23"/>
          <path id="Path_43-2" data-name="Path 43" d="M160.961,157.458A.962.962,0,0,1,160,156.5V144.961a.961.961,0,0,1,1.923,0V156.5A.962.962,0,0,1,160.961,157.458Z" transform="translate(-150.387 -90.232)" fill="#191e23"/>
        </g>
        <g id="folder-2" data-name="folder" transform="translate(458.899 -17.082) rotate(11)">
          <path id="Path_44-2" data-name="Path 44" d="M13.4,51.661,9.987,48.249a.852.852,0,0,0-.6-.249H1.706A1.707,1.707,0,0,0,0,49.706v2.559a.853.853,0,0,0,.853.853H12.795a.853.853,0,0,0,.6-1.457Z" fill="#7ca3b2"/>
          <path id="Path_45-2" data-name="Path 45" d="M25.59,112H.853a.853.853,0,0,0-.853.853V129.06a1.707,1.707,0,0,0,1.706,1.706H25.59A1.707,1.707,0,0,0,27.3,129.06V113.706A1.707,1.707,0,0,0,25.59,112Z" transform="translate(0 -60.588)" fill="#9ac1d0"/>
          <path id="Path_46-2" data-name="Path 46" d="M70.13,144.019a.852.852,0,0,0-1.012.838v8.018a4.37,4.37,0,0,0-1.706-.341c-1.914,0-3.412,1.124-3.412,2.559s1.5,2.559,3.412,2.559,3.412-1.124,3.412-2.559v-9.066a2.464,2.464,0,0,1,1.706,2.136.853.853,0,0,0,1.706,0C74.236,145.495,71.549,144.285,70.13,144.019Z" transform="translate(-60.588 -90.886)" fill="#efede6"/>
          <path id="Path_47-2" data-name="Path 47" d="M25.59,70.178H1.706A1.707,1.707,0,0,1,0,68.472V49.706A1.707,1.707,0,0,1,1.706,48H9.383a.852.852,0,0,1,.6.249l3.161,3.163H25.59A1.707,1.707,0,0,1,27.3,53.118V68.472A1.707,1.707,0,0,1,25.59,70.178ZM1.706,49.706V68.472H25.59V53.118H12.795a.852.852,0,0,1-.6-.249L9.03,49.706Z" fill="#191e23"/>
          <path id="Path_48-2" data-name="Path 48" d="M67.412,309.118c-1.912,0-3.412-1.124-3.412-2.559S65.5,304,67.412,304s3.412,1.124,3.412,2.559S69.324,309.118,67.412,309.118Zm0-3.412c-1.041,0-1.706.512-1.706.853s.665.853,1.706.853,1.706-.512,1.706-.853S68.453,305.706,67.412,305.706Z" transform="translate(-60.588 -242.352)" fill="#191e23"/>
          <path id="Path_49-2" data-name="Path 49" d="M164.9,149.129a.853.853,0,0,1-.853-.853c0-1.941-2.689-2.463-2.716-2.469a.853.853,0,0,1,.314-1.675c1.421.266,4.108,1.474,4.108,4.144A.853.853,0,0,1,164.9,149.129Z" transform="translate(-152.109 -90.999)" fill="#191e23"/>
          <path id="Path_50-2" data-name="Path 50" d="M160.853,155.942a.853.853,0,0,1-.853-.853V144.853a.853.853,0,1,1,1.706,0v10.236A.853.853,0,0,1,160.853,155.942Z" transform="translate(-151.47 -90.882)" fill="#191e23"/>
        </g>
      </g>
      <g transform="translate(9.978 -18.074)">
        <g id="wave-3" data-name="wave" transform="translate(328.022 1.007)">
          <path id="Path_1-3" data-name="Path 1" d="M3.7,17.067H51.792a3.7,3.7,0,0,1,3.7,3.7V65.159a3.7,3.7,0,0,1-3.7,3.7H3.7a3.7,3.7,0,0,1-3.7-3.7V20.766A3.7,3.7,0,0,1,3.7,17.067Z" transform="translate(0 0)" fill="#efede6"/>
          <path id="Path_2-3" data-name="Path 2" d="M29.6,122.326a1.849,1.849,0,0,1-1.728-1.184l-7.5-19.5-3.84,10.24a1.849,1.849,0,0,1-1.635,1.195,1.8,1.8,0,0,1-1.75-1.017l-3.189-6.378H1.85a1.85,1.85,0,1,1,0-3.7H11.1A1.853,1.853,0,0,1,12.752,103l1.805,3.607,4.069-10.828a1.849,1.849,0,0,1,1.72-1.2h0a1.849,1.849,0,0,1,1.728,1.184l7.047,18.323,6.067-27.305a1.85,1.85,0,0,1,3.5-.351L45.6,101.968h8.046a1.85,1.85,0,1,1,0,3.7H44.393a1.846,1.846,0,0,1-1.691-1.11l-5.12-11.5L31.4,120.876a1.853,1.853,0,0,1-1.668,1.45Z" transform="translate(0 -60.866)" fill="#ce665c"/>
          <path id="Path_3-3" data-name="Path 3" d="M51.792,68.859H3.7a3.7,3.7,0,0,1-3.7-3.7V20.766a3.7,3.7,0,0,1,3.7-3.7H51.792a3.7,3.7,0,0,1,3.7,3.7V65.159A3.7,3.7,0,0,1,51.792,68.859ZM3.7,20.766V65.159H51.792V20.766Z" transform="translate(0 0)" fill="#191e23"/>
        </g>
        <g id="buds-3" data-name="buds" transform="translate(421.529 86)">
          <path id="Path_4-3" data-name="Path 4" d="M138.369,448.035v1.718a5.155,5.155,0,1,1-10.309,0h0v-1.718Z" transform="translate(-114.199 -399.901)" fill="#607d8b"/>
          <path id="Path_5-3" data-name="Path 5" d="M24.17,12.052V48.134H13.861V23.7A15.158,15.158,0,0,1,.7,20.506a1.65,1.65,0,0,1-.584-1.271V4.87A1.65,1.65,0,0,1,.7,3.6,14.559,14.559,0,0,1,10.425.025,12.982,12.982,0,0,1,24.17,12.052Z" transform="translate(0 0)" fill="#eceff1"/>
          <path id="Path_6-3" data-name="Path 6" d="M287.99,448.035v1.718a5.155,5.155,0,0,0,10.309,0h0v-1.718Z" transform="translate(-256.947 -399.901)" fill="#607d8b"/>
          <path id="Path_7-3" data-name="Path 7" d="M287.99,12.053V48.135H298.3V23.7a15.158,15.158,0,0,0,13.161-3.2,1.65,1.65,0,0,0,.584-1.271V4.871a1.65,1.65,0,0,0-.584-1.271A14.56,14.56,0,0,0,301.736.025,12.98,12.98,0,0,0,287.99,12.053Z" transform="translate(-256.947 -0.001)" fill="#eceff1"/>
          <path id="Path_8-3" data-name="Path 8" d="M19.016,55.01a5.157,5.157,0,0,1-5.155-5.155h0V23.691A15.051,15.051,0,0,1,.69,20.519a1.707,1.707,0,0,1-.574-1.282V4.873A1.725,1.725,0,0,1,.69,3.591,14.576,14.576,0,0,1,10.425.028,12.987,12.987,0,0,1,24.171,12.055v37.8a5.154,5.154,0,0,1-5.155,5.155ZM15.58,19.615A1.718,1.718,0,0,1,17.3,21.333V49.855a1.718,1.718,0,1,0,3.436,0v-37.8A9.576,9.576,0,0,0,10.425,3.464a11.465,11.465,0,0,0-6.873,2.22V18.426a11.9,11.9,0,0,0,11.361,1.323A1.7,1.7,0,0,1,15.58,19.615Z" transform="translate(0 -0.003)"/>
          <path id="Path_9-3" data-name="Path 9" d="M101.229,71.076a1.719,1.719,0,0,1-1.718-1.718,1.719,1.719,0,0,0-1.718-1.718,1.718,1.718,0,1,1,0-3.436,5.157,5.157,0,0,1,5.155,5.155A1.719,1.719,0,0,1,101.229,71.076Z" transform="translate(-85.649 -57.306)"/>
          <path id="Path_10-3" data-name="Path 10" d="M66.445,99.625a1.718,1.718,0,0,1-.034-3.436h.034a1.718,1.718,0,0,1,0,3.436Z" transform="translate(-57.67 -85.855)"/>
          <path id="Path_11-3" data-name="Path 11" d="M136.651,419.485h-6.873a1.718,1.718,0,0,1,0-3.436h6.873a1.718,1.718,0,0,1,0,3.436Z" transform="translate(-114.199 -371.351)"/>
          <path id="Path_12-3" data-name="Path 12" d="M293.145,55.01a5.157,5.157,0,0,1-5.155-5.155h0v-37.8A12.987,12.987,0,0,1,301.736.028a14.577,14.577,0,0,1,9.735,3.563,1.724,1.724,0,0,1,.574,1.282V19.237a1.724,1.724,0,0,1-.574,1.282A15.074,15.074,0,0,1,298.3,23.691V49.855a5.154,5.154,0,0,1-5.155,5.155Zm8.591-51.546a9.576,9.576,0,0,0-10.309,8.591v37.8a1.718,1.718,0,0,0,3.436,0V21.333a1.719,1.719,0,0,1,1.718-1.718,1.7,1.7,0,0,1,.667.134,11.9,11.9,0,0,0,11.361-1.323V5.684A11.465,11.465,0,0,0,301.736,3.464Z" transform="translate(-256.947 -0.003)"/>
          <path id="Path_13-3" data-name="Path 13" d="M353.68,71.076a1.719,1.719,0,0,1-1.718-1.718,5.157,5.157,0,0,1,5.155-5.155,1.718,1.718,0,1,1,0,3.436,1.719,1.719,0,0,0-1.718,1.718A1.719,1.719,0,0,1,353.68,71.076Z" transform="translate(-314.046 -57.306)"/>
          <path id="Path_14-3" data-name="Path 14" d="M418.291,99.625a1.718,1.718,0,0,1-.034-3.436h.034a1.718,1.718,0,0,1,0,3.436Z" transform="translate(-371.715 -85.855)"/>
          <path id="Path_15-3" data-name="Path 15" d="M296.581,419.485h-6.873a1.718,1.718,0,0,1,0-3.436h6.873a1.718,1.718,0,1,1,0,3.436Z" transform="translate(-256.947 -371.351)"/>
        </g>
        <g id="redfolder-3" data-name="redfolder" transform="translate(329.476 61.916) rotate(-20)">
          <path id="Path_37-3" data-name="Path 37" d="M15.1,52.126l-3.845-3.845A.96.96,0,0,0,10.574,48H1.923A1.923,1.923,0,0,0,0,49.923v2.884a.962.962,0,0,0,.961.961H14.419a.961.961,0,0,0,.681-1.642Z" fill="#c0584e"/>
          <path id="Path_38-3" data-name="Path 38" d="M28.838,112H.961a.962.962,0,0,0-.961.961v18.264a1.923,1.923,0,0,0,1.923,1.923H28.838a1.923,1.923,0,0,0,1.923-1.923v-17.3A1.923,1.923,0,0,0,28.838,112Z" transform="translate(0 -60.155)" fill="#ce665c"/>
          <path id="Path_39-3" data-name="Path 39" d="M70.908,144.021a.961.961,0,0,0-1.14.944V154a4.925,4.925,0,0,0-1.923-.384c-2.157,0-3.845,1.267-3.845,2.884s1.688,2.884,3.845,2.884,3.845-1.267,3.845-2.884V146.284a2.777,2.777,0,0,1,1.923,2.407.961.961,0,1,0,1.923,0C75.535,145.684,72.507,144.321,70.908,144.021Z" transform="translate(-60.155 -90.236)" fill="#efede6"/>
          <path id="Path_40-3" data-name="Path 40" d="M28.838,72.993H1.923A1.923,1.923,0,0,1,0,71.07V49.923A1.923,1.923,0,0,1,1.923,48h8.651a.96.96,0,0,1,.681.281l3.562,3.564H28.838a1.923,1.923,0,0,1,1.923,1.923v17.3A1.923,1.923,0,0,1,28.838,72.993ZM1.923,49.923V71.07H28.838v-17.3H14.419a.96.96,0,0,1-.681-.281l-3.562-3.564Z" fill="#191e23"/>
          <path id="Path_41-3" data-name="Path 41" d="M67.845,309.768c-2.155,0-3.845-1.267-3.845-2.884S65.69,304,67.845,304s3.845,1.267,3.845,2.884S70,309.768,67.845,309.768Zm0-3.845c-1.173,0-1.923.577-1.923.961s.75.961,1.923.961,1.923-.577,1.923-.961S69.018,305.923,67.845,305.923Z" transform="translate(-60.155 -240.62)" fill="#191e23"/>
          <path id="Path_42-3" data-name="Path 42" d="M165.44,149.764a.962.962,0,0,1-.961-.961c0-2.188-3.03-2.776-3.061-2.782a.961.961,0,0,1,.354-1.888c1.6.3,4.629,1.661,4.629,4.67A.962.962,0,0,1,165.44,149.764Z" transform="translate(-151.021 -90.348)" fill="#191e23"/>
          <path id="Path_43-3" data-name="Path 43" d="M160.961,157.458A.962.962,0,0,1,160,156.5V144.961a.961.961,0,0,1,1.923,0V156.5A.962.962,0,0,1,160.961,157.458Z" transform="translate(-150.387 -90.232)" fill="#191e23"/>
        </g>
        <g id="folder-3" data-name="folder" transform="translate(458.899 -17.082) rotate(11)">
          <path id="Path_44-3" data-name="Path 44" d="M13.4,51.661,9.987,48.249a.852.852,0,0,0-.6-.249H1.706A1.707,1.707,0,0,0,0,49.706v2.559a.853.853,0,0,0,.853.853H12.795a.853.853,0,0,0,.6-1.457Z" fill="#7ca3b2"/>
          <path id="Path_45-3" data-name="Path 45" d="M25.59,112H.853a.853.853,0,0,0-.853.853V129.06a1.707,1.707,0,0,0,1.706,1.706H25.59A1.707,1.707,0,0,0,27.3,129.06V113.706A1.707,1.707,0,0,0,25.59,112Z" transform="translate(0 -60.588)" fill="#9ac1d0"/>
          <path id="Path_46-3" data-name="Path 46" d="M70.13,144.019a.852.852,0,0,0-1.012.838v8.018a4.37,4.37,0,0,0-1.706-.341c-1.914,0-3.412,1.124-3.412,2.559s1.5,2.559,3.412,2.559,3.412-1.124,3.412-2.559v-9.066a2.464,2.464,0,0,1,1.706,2.136.853.853,0,0,0,1.706,0C74.236,145.495,71.549,144.285,70.13,144.019Z" transform="translate(-60.588 -90.886)" fill="#efede6"/>
          <path id="Path_47-3" data-name="Path 47" d="M25.59,70.178H1.706A1.707,1.707,0,0,1,0,68.472V49.706A1.707,1.707,0,0,1,1.706,48H9.383a.852.852,0,0,1,.6.249l3.161,3.163H25.59A1.707,1.707,0,0,1,27.3,53.118V68.472A1.707,1.707,0,0,1,25.59,70.178ZM1.706,49.706V68.472H25.59V53.118H12.795a.852.852,0,0,1-.6-.249L9.03,49.706Z" fill="#191e23"/>
          <path id="Path_48-3" data-name="Path 48" d="M67.412,309.118c-1.912,0-3.412-1.124-3.412-2.559S65.5,304,67.412,304s3.412,1.124,3.412,2.559S69.324,309.118,67.412,309.118Zm0-3.412c-1.041,0-1.706.512-1.706.853s.665.853,1.706.853,1.706-.512,1.706-.853S68.453,305.706,67.412,305.706Z" transform="translate(-60.588 -242.352)" fill="#191e23"/>
          <path id="Path_49-3" data-name="Path 49" d="M164.9,149.129a.853.853,0,0,1-.853-.853c0-1.941-2.689-2.463-2.716-2.469a.853.853,0,0,1,.314-1.675c1.421.266,4.108,1.474,4.108,4.144A.853.853,0,0,1,164.9,149.129Z" transform="translate(-152.109 -90.999)" fill="#191e23"/>
          <path id="Path_50-3" data-name="Path 50" d="M160.853,155.942a.853.853,0,0,1-.853-.853V144.853a.853.853,0,1,1,1.706,0v10.236A.853.853,0,0,1,160.853,155.942Z" transform="translate(-151.47 -90.882)" fill="#191e23"/>
        </g>
      </g>
      <g transform="translate(-328.022 124.926)">
        <g id="wave-4" data-name="wave" transform="translate(328.022 1.007)">
          <path id="Path_1-4" data-name="Path 1" d="M3.7,17.067H51.792a3.7,3.7,0,0,1,3.7,3.7V65.159a3.7,3.7,0,0,1-3.7,3.7H3.7a3.7,3.7,0,0,1-3.7-3.7V20.766A3.7,3.7,0,0,1,3.7,17.067Z" transform="translate(0 0)" fill="#efede6"/>
          <path id="Path_2-4" data-name="Path 2" d="M29.6,122.326a1.849,1.849,0,0,1-1.728-1.184l-7.5-19.5-3.84,10.24a1.849,1.849,0,0,1-1.635,1.195,1.8,1.8,0,0,1-1.75-1.017l-3.189-6.378H1.85a1.85,1.85,0,1,1,0-3.7H11.1A1.853,1.853,0,0,1,12.752,103l1.805,3.607,4.069-10.828a1.849,1.849,0,0,1,1.72-1.2h0a1.849,1.849,0,0,1,1.728,1.184l7.047,18.323,6.067-27.305a1.85,1.85,0,0,1,3.5-.351L45.6,101.968h8.046a1.85,1.85,0,1,1,0,3.7H44.393a1.846,1.846,0,0,1-1.691-1.11l-5.12-11.5L31.4,120.876a1.853,1.853,0,0,1-1.668,1.45Z" transform="translate(0 -60.866)" fill="#ce665c"/>
          <path id="Path_3-4" data-name="Path 3" d="M51.792,68.859H3.7a3.7,3.7,0,0,1-3.7-3.7V20.766a3.7,3.7,0,0,1,3.7-3.7H51.792a3.7,3.7,0,0,1,3.7,3.7V65.159A3.7,3.7,0,0,1,51.792,68.859ZM3.7,20.766V65.159H51.792V20.766Z" transform="translate(0 0)" fill="#191e23"/>
        </g>
        <g id="buds-4" data-name="buds" transform="translate(421.529 86)">
          <path id="Path_4-4" data-name="Path 4" d="M138.369,448.035v1.718a5.155,5.155,0,1,1-10.309,0h0v-1.718Z" transform="translate(-114.199 -399.901)" fill="#607d8b"/>
          <path id="Path_5-4" data-name="Path 5" d="M24.17,12.052V48.134H13.861V23.7A15.158,15.158,0,0,1,.7,20.506a1.65,1.65,0,0,1-.584-1.271V4.87A1.65,1.65,0,0,1,.7,3.6,14.559,14.559,0,0,1,10.425.025,12.982,12.982,0,0,1,24.17,12.052Z" transform="translate(0 0)" fill="#eceff1"/>
          <path id="Path_6-4" data-name="Path 6" d="M287.99,448.035v1.718a5.155,5.155,0,0,0,10.309,0h0v-1.718Z" transform="translate(-256.947 -399.901)" fill="#607d8b"/>
          <path id="Path_7-4" data-name="Path 7" d="M287.99,12.053V48.135H298.3V23.7a15.158,15.158,0,0,0,13.161-3.2,1.65,1.65,0,0,0,.584-1.271V4.871a1.65,1.65,0,0,0-.584-1.271A14.56,14.56,0,0,0,301.736.025,12.98,12.98,0,0,0,287.99,12.053Z" transform="translate(-256.947 -0.001)" fill="#eceff1"/>
          <path id="Path_8-4" data-name="Path 8" d="M19.016,55.01a5.157,5.157,0,0,1-5.155-5.155h0V23.691A15.051,15.051,0,0,1,.69,20.519a1.707,1.707,0,0,1-.574-1.282V4.873A1.725,1.725,0,0,1,.69,3.591,14.576,14.576,0,0,1,10.425.028,12.987,12.987,0,0,1,24.171,12.055v37.8a5.154,5.154,0,0,1-5.155,5.155ZM15.58,19.615A1.718,1.718,0,0,1,17.3,21.333V49.855a1.718,1.718,0,1,0,3.436,0v-37.8A9.576,9.576,0,0,0,10.425,3.464a11.465,11.465,0,0,0-6.873,2.22V18.426a11.9,11.9,0,0,0,11.361,1.323A1.7,1.7,0,0,1,15.58,19.615Z" transform="translate(0 -0.003)"/>
          <path id="Path_9-4" data-name="Path 9" d="M101.229,71.076a1.719,1.719,0,0,1-1.718-1.718,1.719,1.719,0,0,0-1.718-1.718,1.718,1.718,0,1,1,0-3.436,5.157,5.157,0,0,1,5.155,5.155A1.719,1.719,0,0,1,101.229,71.076Z" transform="translate(-85.649 -57.306)"/>
          <path id="Path_10-4" data-name="Path 10" d="M66.445,99.625a1.718,1.718,0,0,1-.034-3.436h.034a1.718,1.718,0,0,1,0,3.436Z" transform="translate(-57.67 -85.855)"/>
          <path id="Path_11-4" data-name="Path 11" d="M136.651,419.485h-6.873a1.718,1.718,0,0,1,0-3.436h6.873a1.718,1.718,0,0,1,0,3.436Z" transform="translate(-114.199 -371.351)"/>
          <path id="Path_12-4" data-name="Path 12" d="M293.145,55.01a5.157,5.157,0,0,1-5.155-5.155h0v-37.8A12.987,12.987,0,0,1,301.736.028a14.577,14.577,0,0,1,9.735,3.563,1.724,1.724,0,0,1,.574,1.282V19.237a1.724,1.724,0,0,1-.574,1.282A15.074,15.074,0,0,1,298.3,23.691V49.855a5.154,5.154,0,0,1-5.155,5.155Zm8.591-51.546a9.576,9.576,0,0,0-10.309,8.591v37.8a1.718,1.718,0,0,0,3.436,0V21.333a1.719,1.719,0,0,1,1.718-1.718,1.7,1.7,0,0,1,.667.134,11.9,11.9,0,0,0,11.361-1.323V5.684A11.465,11.465,0,0,0,301.736,3.464Z" transform="translate(-256.947 -0.003)"/>
          <path id="Path_13-4" data-name="Path 13" d="M353.68,71.076a1.719,1.719,0,0,1-1.718-1.718,5.157,5.157,0,0,1,5.155-5.155,1.718,1.718,0,1,1,0,3.436,1.719,1.719,0,0,0-1.718,1.718A1.719,1.719,0,0,1,353.68,71.076Z" transform="translate(-314.046 -57.306)"/>
          <path id="Path_14-4" data-name="Path 14" d="M418.291,99.625a1.718,1.718,0,0,1-.034-3.436h.034a1.718,1.718,0,0,1,0,3.436Z" transform="translate(-371.715 -85.855)"/>
          <path id="Path_15-4" data-name="Path 15" d="M296.581,419.485h-6.873a1.718,1.718,0,0,1,0-3.436h6.873a1.718,1.718,0,1,1,0,3.436Z" transform="translate(-256.947 -371.351)"/>
        </g>
        <g id="redfolder-4" data-name="redfolder" transform="translate(329.476 61.916) rotate(-20)">
          <path id="Path_37-4" data-name="Path 37" d="M15.1,52.126l-3.845-3.845A.96.96,0,0,0,10.574,48H1.923A1.923,1.923,0,0,0,0,49.923v2.884a.962.962,0,0,0,.961.961H14.419a.961.961,0,0,0,.681-1.642Z" fill="#c0584e"/>
          <path id="Path_38-4" data-name="Path 38" d="M28.838,112H.961a.962.962,0,0,0-.961.961v18.264a1.923,1.923,0,0,0,1.923,1.923H28.838a1.923,1.923,0,0,0,1.923-1.923v-17.3A1.923,1.923,0,0,0,28.838,112Z" transform="translate(0 -60.155)" fill="#ce665c"/>
          <path id="Path_39-4" data-name="Path 39" d="M70.908,144.021a.961.961,0,0,0-1.14.944V154a4.925,4.925,0,0,0-1.923-.384c-2.157,0-3.845,1.267-3.845,2.884s1.688,2.884,3.845,2.884,3.845-1.267,3.845-2.884V146.284a2.777,2.777,0,0,1,1.923,2.407.961.961,0,1,0,1.923,0C75.535,145.684,72.507,144.321,70.908,144.021Z" transform="translate(-60.155 -90.236)" fill="#efede6"/>
          <path id="Path_40-4" data-name="Path 40" d="M28.838,72.993H1.923A1.923,1.923,0,0,1,0,71.07V49.923A1.923,1.923,0,0,1,1.923,48h8.651a.96.96,0,0,1,.681.281l3.562,3.564H28.838a1.923,1.923,0,0,1,1.923,1.923v17.3A1.923,1.923,0,0,1,28.838,72.993ZM1.923,49.923V71.07H28.838v-17.3H14.419a.96.96,0,0,1-.681-.281l-3.562-3.564Z" fill="#191e23"/>
          <path id="Path_41-4" data-name="Path 41" d="M67.845,309.768c-2.155,0-3.845-1.267-3.845-2.884S65.69,304,67.845,304s3.845,1.267,3.845,2.884S70,309.768,67.845,309.768Zm0-3.845c-1.173,0-1.923.577-1.923.961s.75.961,1.923.961,1.923-.577,1.923-.961S69.018,305.923,67.845,305.923Z" transform="translate(-60.155 -240.62)" fill="#191e23"/>
          <path id="Path_42-4" data-name="Path 42" d="M165.44,149.764a.962.962,0,0,1-.961-.961c0-2.188-3.03-2.776-3.061-2.782a.961.961,0,0,1,.354-1.888c1.6.3,4.629,1.661,4.629,4.67A.962.962,0,0,1,165.44,149.764Z" transform="translate(-151.021 -90.348)" fill="#191e23"/>
          <path id="Path_43-4" data-name="Path 43" d="M160.961,157.458A.962.962,0,0,1,160,156.5V144.961a.961.961,0,0,1,1.923,0V156.5A.962.962,0,0,1,160.961,157.458Z" transform="translate(-150.387 -90.232)" fill="#191e23"/>
        </g>
        <g id="folder-4" data-name="folder" transform="translate(458.899 -17.082) rotate(11)">
          <path id="Path_44-4" data-name="Path 44" d="M13.4,51.661,9.987,48.249a.852.852,0,0,0-.6-.249H1.706A1.707,1.707,0,0,0,0,49.706v2.559a.853.853,0,0,0,.853.853H12.795a.853.853,0,0,0,.6-1.457Z" fill="#7ca3b2"/>
          <path id="Path_45-4" data-name="Path 45" d="M25.59,112H.853a.853.853,0,0,0-.853.853V129.06a1.707,1.707,0,0,0,1.706,1.706H25.59A1.707,1.707,0,0,0,27.3,129.06V113.706A1.707,1.707,0,0,0,25.59,112Z" transform="translate(0 -60.588)" fill="#9ac1d0"/>
          <path id="Path_46-4" data-name="Path 46" d="M70.13,144.019a.852.852,0,0,0-1.012.838v8.018a4.37,4.37,0,0,0-1.706-.341c-1.914,0-3.412,1.124-3.412,2.559s1.5,2.559,3.412,2.559,3.412-1.124,3.412-2.559v-9.066a2.464,2.464,0,0,1,1.706,2.136.853.853,0,0,0,1.706,0C74.236,145.495,71.549,144.285,70.13,144.019Z" transform="translate(-60.588 -90.886)" fill="#efede6"/>
          <path id="Path_47-4" data-name="Path 47" d="M25.59,70.178H1.706A1.707,1.707,0,0,1,0,68.472V49.706A1.707,1.707,0,0,1,1.706,48H9.383a.852.852,0,0,1,.6.249l3.161,3.163H25.59A1.707,1.707,0,0,1,27.3,53.118V68.472A1.707,1.707,0,0,1,25.59,70.178ZM1.706,49.706V68.472H25.59V53.118H12.795a.852.852,0,0,1-.6-.249L9.03,49.706Z" fill="#191e23"/>
          <path id="Path_48-4" data-name="Path 48" d="M67.412,309.118c-1.912,0-3.412-1.124-3.412-2.559S65.5,304,67.412,304s3.412,1.124,3.412,2.559S69.324,309.118,67.412,309.118Zm0-3.412c-1.041,0-1.706.512-1.706.853s.665.853,1.706.853,1.706-.512,1.706-.853S68.453,305.706,67.412,305.706Z" transform="translate(-60.588 -242.352)" fill="#191e23"/>
          <path id="Path_49-4" data-name="Path 49" d="M164.9,149.129a.853.853,0,0,1-.853-.853c0-1.941-2.689-2.463-2.716-2.469a.853.853,0,0,1,.314-1.675c1.421.266,4.108,1.474,4.108,4.144A.853.853,0,0,1,164.9,149.129Z" transform="translate(-152.109 -90.999)" fill="#191e23"/>
          <path id="Path_50-4" data-name="Path 50" d="M160.853,155.942a.853.853,0,0,1-.853-.853V144.853a.853.853,0,1,1,1.706,0v10.236A.853.853,0,0,1,160.853,155.942Z" transform="translate(-151.47 -90.882)" fill="#191e23"/>
        </g>
      </g>
      <g transform="translate(-159.022 124.926)">
        <g id="wave-5" data-name="wave" transform="translate(328.022 1.007)">
          <path id="Path_1-5" data-name="Path 1" d="M3.7,17.067H51.792a3.7,3.7,0,0,1,3.7,3.7V65.159a3.7,3.7,0,0,1-3.7,3.7H3.7a3.7,3.7,0,0,1-3.7-3.7V20.766A3.7,3.7,0,0,1,3.7,17.067Z" transform="translate(0 0)" fill="#efede6"/>
          <path id="Path_2-5" data-name="Path 2" d="M29.6,122.326a1.849,1.849,0,0,1-1.728-1.184l-7.5-19.5-3.84,10.24a1.849,1.849,0,0,1-1.635,1.195,1.8,1.8,0,0,1-1.75-1.017l-3.189-6.378H1.85a1.85,1.85,0,1,1,0-3.7H11.1A1.853,1.853,0,0,1,12.752,103l1.805,3.607,4.069-10.828a1.849,1.849,0,0,1,1.72-1.2h0a1.849,1.849,0,0,1,1.728,1.184l7.047,18.323,6.067-27.305a1.85,1.85,0,0,1,3.5-.351L45.6,101.968h8.046a1.85,1.85,0,1,1,0,3.7H44.393a1.846,1.846,0,0,1-1.691-1.11l-5.12-11.5L31.4,120.876a1.853,1.853,0,0,1-1.668,1.45Z" transform="translate(0 -60.866)" fill="#ce665c"/>
          <path id="Path_3-5" data-name="Path 3" d="M51.792,68.859H3.7a3.7,3.7,0,0,1-3.7-3.7V20.766a3.7,3.7,0,0,1,3.7-3.7H51.792a3.7,3.7,0,0,1,3.7,3.7V65.159A3.7,3.7,0,0,1,51.792,68.859ZM3.7,20.766V65.159H51.792V20.766Z" transform="translate(0 0)" fill="#191e23"/>
        </g>
        <g id="buds-5" data-name="buds" transform="translate(421.529 86)">
          <path id="Path_4-5" data-name="Path 4" d="M138.369,448.035v1.718a5.155,5.155,0,1,1-10.309,0h0v-1.718Z" transform="translate(-114.199 -399.901)" fill="#607d8b"/>
          <path id="Path_5-5" data-name="Path 5" d="M24.17,12.052V48.134H13.861V23.7A15.158,15.158,0,0,1,.7,20.506a1.65,1.65,0,0,1-.584-1.271V4.87A1.65,1.65,0,0,1,.7,3.6,14.559,14.559,0,0,1,10.425.025,12.982,12.982,0,0,1,24.17,12.052Z" transform="translate(0 0)" fill="#eceff1"/>
          <path id="Path_6-5" data-name="Path 6" d="M287.99,448.035v1.718a5.155,5.155,0,0,0,10.309,0h0v-1.718Z" transform="translate(-256.947 -399.901)" fill="#607d8b"/>
          <path id="Path_7-5" data-name="Path 7" d="M287.99,12.053V48.135H298.3V23.7a15.158,15.158,0,0,0,13.161-3.2,1.65,1.65,0,0,0,.584-1.271V4.871a1.65,1.65,0,0,0-.584-1.271A14.56,14.56,0,0,0,301.736.025,12.98,12.98,0,0,0,287.99,12.053Z" transform="translate(-256.947 -0.001)" fill="#eceff1"/>
          <path id="Path_8-5" data-name="Path 8" d="M19.016,55.01a5.157,5.157,0,0,1-5.155-5.155h0V23.691A15.051,15.051,0,0,1,.69,20.519a1.707,1.707,0,0,1-.574-1.282V4.873A1.725,1.725,0,0,1,.69,3.591,14.576,14.576,0,0,1,10.425.028,12.987,12.987,0,0,1,24.171,12.055v37.8a5.154,5.154,0,0,1-5.155,5.155ZM15.58,19.615A1.718,1.718,0,0,1,17.3,21.333V49.855a1.718,1.718,0,1,0,3.436,0v-37.8A9.576,9.576,0,0,0,10.425,3.464a11.465,11.465,0,0,0-6.873,2.22V18.426a11.9,11.9,0,0,0,11.361,1.323A1.7,1.7,0,0,1,15.58,19.615Z" transform="translate(0 -0.003)"/>
          <path id="Path_9-5" data-name="Path 9" d="M101.229,71.076a1.719,1.719,0,0,1-1.718-1.718,1.719,1.719,0,0,0-1.718-1.718,1.718,1.718,0,1,1,0-3.436,5.157,5.157,0,0,1,5.155,5.155A1.719,1.719,0,0,1,101.229,71.076Z" transform="translate(-85.649 -57.306)"/>
          <path id="Path_10-5" data-name="Path 10" d="M66.445,99.625a1.718,1.718,0,0,1-.034-3.436h.034a1.718,1.718,0,0,1,0,3.436Z" transform="translate(-57.67 -85.855)"/>
          <path id="Path_11-5" data-name="Path 11" d="M136.651,419.485h-6.873a1.718,1.718,0,0,1,0-3.436h6.873a1.718,1.718,0,0,1,0,3.436Z" transform="translate(-114.199 -371.351)"/>
          <path id="Path_12-5" data-name="Path 12" d="M293.145,55.01a5.157,5.157,0,0,1-5.155-5.155h0v-37.8A12.987,12.987,0,0,1,301.736.028a14.577,14.577,0,0,1,9.735,3.563,1.724,1.724,0,0,1,.574,1.282V19.237a1.724,1.724,0,0,1-.574,1.282A15.074,15.074,0,0,1,298.3,23.691V49.855a5.154,5.154,0,0,1-5.155,5.155Zm8.591-51.546a9.576,9.576,0,0,0-10.309,8.591v37.8a1.718,1.718,0,0,0,3.436,0V21.333a1.719,1.719,0,0,1,1.718-1.718,1.7,1.7,0,0,1,.667.134,11.9,11.9,0,0,0,11.361-1.323V5.684A11.465,11.465,0,0,0,301.736,3.464Z" transform="translate(-256.947 -0.003)"/>
          <path id="Path_13-5" data-name="Path 13" d="M353.68,71.076a1.719,1.719,0,0,1-1.718-1.718,5.157,5.157,0,0,1,5.155-5.155,1.718,1.718,0,1,1,0,3.436,1.719,1.719,0,0,0-1.718,1.718A1.719,1.719,0,0,1,353.68,71.076Z" transform="translate(-314.046 -57.306)"/>
          <path id="Path_14-5" data-name="Path 14" d="M418.291,99.625a1.718,1.718,0,0,1-.034-3.436h.034a1.718,1.718,0,0,1,0,3.436Z" transform="translate(-371.715 -85.855)"/>
          <path id="Path_15-5" data-name="Path 15" d="M296.581,419.485h-6.873a1.718,1.718,0,0,1,0-3.436h6.873a1.718,1.718,0,1,1,0,3.436Z" transform="translate(-256.947 -371.351)"/>
        </g>
        <g id="redfolder-5" data-name="redfolder" transform="translate(329.476 61.916) rotate(-20)">
          <path id="Path_37-5" data-name="Path 37" d="M15.1,52.126l-3.845-3.845A.96.96,0,0,0,10.574,48H1.923A1.923,1.923,0,0,0,0,49.923v2.884a.962.962,0,0,0,.961.961H14.419a.961.961,0,0,0,.681-1.642Z" fill="#c0584e"/>
          <path id="Path_38-5" data-name="Path 38" d="M28.838,112H.961a.962.962,0,0,0-.961.961v18.264a1.923,1.923,0,0,0,1.923,1.923H28.838a1.923,1.923,0,0,0,1.923-1.923v-17.3A1.923,1.923,0,0,0,28.838,112Z" transform="translate(0 -60.155)" fill="#ce665c"/>
          <path id="Path_39-5" data-name="Path 39" d="M70.908,144.021a.961.961,0,0,0-1.14.944V154a4.925,4.925,0,0,0-1.923-.384c-2.157,0-3.845,1.267-3.845,2.884s1.688,2.884,3.845,2.884,3.845-1.267,3.845-2.884V146.284a2.777,2.777,0,0,1,1.923,2.407.961.961,0,1,0,1.923,0C75.535,145.684,72.507,144.321,70.908,144.021Z" transform="translate(-60.155 -90.236)" fill="#efede6"/>
          <path id="Path_40-5" data-name="Path 40" d="M28.838,72.993H1.923A1.923,1.923,0,0,1,0,71.07V49.923A1.923,1.923,0,0,1,1.923,48h8.651a.96.96,0,0,1,.681.281l3.562,3.564H28.838a1.923,1.923,0,0,1,1.923,1.923v17.3A1.923,1.923,0,0,1,28.838,72.993ZM1.923,49.923V71.07H28.838v-17.3H14.419a.96.96,0,0,1-.681-.281l-3.562-3.564Z" fill="#191e23"/>
          <path id="Path_41-5" data-name="Path 41" d="M67.845,309.768c-2.155,0-3.845-1.267-3.845-2.884S65.69,304,67.845,304s3.845,1.267,3.845,2.884S70,309.768,67.845,309.768Zm0-3.845c-1.173,0-1.923.577-1.923.961s.75.961,1.923.961,1.923-.577,1.923-.961S69.018,305.923,67.845,305.923Z" transform="translate(-60.155 -240.62)" fill="#191e23"/>
          <path id="Path_42-5" data-name="Path 42" d="M165.44,149.764a.962.962,0,0,1-.961-.961c0-2.188-3.03-2.776-3.061-2.782a.961.961,0,0,1,.354-1.888c1.6.3,4.629,1.661,4.629,4.67A.962.962,0,0,1,165.44,149.764Z" transform="translate(-151.021 -90.348)" fill="#191e23"/>
          <path id="Path_43-5" data-name="Path 43" d="M160.961,157.458A.962.962,0,0,1,160,156.5V144.961a.961.961,0,0,1,1.923,0V156.5A.962.962,0,0,1,160.961,157.458Z" transform="translate(-150.387 -90.232)" fill="#191e23"/>
        </g>
        <g id="folder-5" data-name="folder" transform="translate(458.899 -17.082) rotate(11)">
          <path id="Path_44-5" data-name="Path 44" d="M13.4,51.661,9.987,48.249a.852.852,0,0,0-.6-.249H1.706A1.707,1.707,0,0,0,0,49.706v2.559a.853.853,0,0,0,.853.853H12.795a.853.853,0,0,0,.6-1.457Z" fill="#7ca3b2"/>
          <path id="Path_45-5" data-name="Path 45" d="M25.59,112H.853a.853.853,0,0,0-.853.853V129.06a1.707,1.707,0,0,0,1.706,1.706H25.59A1.707,1.707,0,0,0,27.3,129.06V113.706A1.707,1.707,0,0,0,25.59,112Z" transform="translate(0 -60.588)" fill="#9ac1d0"/>
          <path id="Path_46-5" data-name="Path 46" d="M70.13,144.019a.852.852,0,0,0-1.012.838v8.018a4.37,4.37,0,0,0-1.706-.341c-1.914,0-3.412,1.124-3.412,2.559s1.5,2.559,3.412,2.559,3.412-1.124,3.412-2.559v-9.066a2.464,2.464,0,0,1,1.706,2.136.853.853,0,0,0,1.706,0C74.236,145.495,71.549,144.285,70.13,144.019Z" transform="translate(-60.588 -90.886)" fill="#efede6"/>
          <path id="Path_47-5" data-name="Path 47" d="M25.59,70.178H1.706A1.707,1.707,0,0,1,0,68.472V49.706A1.707,1.707,0,0,1,1.706,48H9.383a.852.852,0,0,1,.6.249l3.161,3.163H25.59A1.707,1.707,0,0,1,27.3,53.118V68.472A1.707,1.707,0,0,1,25.59,70.178ZM1.706,49.706V68.472H25.59V53.118H12.795a.852.852,0,0,1-.6-.249L9.03,49.706Z" fill="#191e23"/>
          <path id="Path_48-5" data-name="Path 48" d="M67.412,309.118c-1.912,0-3.412-1.124-3.412-2.559S65.5,304,67.412,304s3.412,1.124,3.412,2.559S69.324,309.118,67.412,309.118Zm0-3.412c-1.041,0-1.706.512-1.706.853s.665.853,1.706.853,1.706-.512,1.706-.853S68.453,305.706,67.412,305.706Z" transform="translate(-60.588 -242.352)" fill="#191e23"/>
          <path id="Path_49-5" data-name="Path 49" d="M164.9,149.129a.853.853,0,0,1-.853-.853c0-1.941-2.689-2.463-2.716-2.469a.853.853,0,0,1,.314-1.675c1.421.266,4.108,1.474,4.108,4.144A.853.853,0,0,1,164.9,149.129Z" transform="translate(-152.109 -90.999)" fill="#191e23"/>
          <path id="Path_50-5" data-name="Path 50" d="M160.853,155.942a.853.853,0,0,1-.853-.853V144.853a.853.853,0,1,1,1.706,0v10.236A.853.853,0,0,1,160.853,155.942Z" transform="translate(-151.47 -90.882)" fill="#191e23"/>
        </g>
      </g>
      <g transform="translate(9.978 124.926)">
        <g id="wave-6" data-name="wave" transform="translate(328.022 1.007)">
          <path id="Path_1-6" data-name="Path 1" d="M3.7,17.067H51.792a3.7,3.7,0,0,1,3.7,3.7V65.159a3.7,3.7,0,0,1-3.7,3.7H3.7a3.7,3.7,0,0,1-3.7-3.7V20.766A3.7,3.7,0,0,1,3.7,17.067Z" transform="translate(0 0)" fill="#efede6"/>
          <path id="Path_2-6" data-name="Path 2" d="M29.6,122.326a1.849,1.849,0,0,1-1.728-1.184l-7.5-19.5-3.84,10.24a1.849,1.849,0,0,1-1.635,1.195,1.8,1.8,0,0,1-1.75-1.017l-3.189-6.378H1.85a1.85,1.85,0,1,1,0-3.7H11.1A1.853,1.853,0,0,1,12.752,103l1.805,3.607,4.069-10.828a1.849,1.849,0,0,1,1.72-1.2h0a1.849,1.849,0,0,1,1.728,1.184l7.047,18.323,6.067-27.305a1.85,1.85,0,0,1,3.5-.351L45.6,101.968h8.046a1.85,1.85,0,1,1,0,3.7H44.393a1.846,1.846,0,0,1-1.691-1.11l-5.12-11.5L31.4,120.876a1.853,1.853,0,0,1-1.668,1.45Z" transform="translate(0 -60.866)" fill="#ce665c"/>
          <path id="Path_3-6" data-name="Path 3" d="M51.792,68.859H3.7a3.7,3.7,0,0,1-3.7-3.7V20.766a3.7,3.7,0,0,1,3.7-3.7H51.792a3.7,3.7,0,0,1,3.7,3.7V65.159A3.7,3.7,0,0,1,51.792,68.859ZM3.7,20.766V65.159H51.792V20.766Z" transform="translate(0 0)" fill="#191e23"/>
        </g>
        <g id="buds-6" data-name="buds" transform="translate(421.529 86)">
          <path id="Path_4-6" data-name="Path 4" d="M138.369,448.035v1.718a5.155,5.155,0,1,1-10.309,0h0v-1.718Z" transform="translate(-114.199 -399.901)" fill="#607d8b"/>
          <path id="Path_5-6" data-name="Path 5" d="M24.17,12.052V48.134H13.861V23.7A15.158,15.158,0,0,1,.7,20.506a1.65,1.65,0,0,1-.584-1.271V4.87A1.65,1.65,0,0,1,.7,3.6,14.559,14.559,0,0,1,10.425.025,12.982,12.982,0,0,1,24.17,12.052Z" transform="translate(0 0)" fill="#eceff1"/>
          <path id="Path_6-6" data-name="Path 6" d="M287.99,448.035v1.718a5.155,5.155,0,0,0,10.309,0h0v-1.718Z" transform="translate(-256.947 -399.901)" fill="#607d8b"/>
          <path id="Path_7-6" data-name="Path 7" d="M287.99,12.053V48.135H298.3V23.7a15.158,15.158,0,0,0,13.161-3.2,1.65,1.65,0,0,0,.584-1.271V4.871a1.65,1.65,0,0,0-.584-1.271A14.56,14.56,0,0,0,301.736.025,12.98,12.98,0,0,0,287.99,12.053Z" transform="translate(-256.947 -0.001)" fill="#eceff1"/>
          <path id="Path_8-6" data-name="Path 8" d="M19.016,55.01a5.157,5.157,0,0,1-5.155-5.155h0V23.691A15.051,15.051,0,0,1,.69,20.519a1.707,1.707,0,0,1-.574-1.282V4.873A1.725,1.725,0,0,1,.69,3.591,14.576,14.576,0,0,1,10.425.028,12.987,12.987,0,0,1,24.171,12.055v37.8a5.154,5.154,0,0,1-5.155,5.155ZM15.58,19.615A1.718,1.718,0,0,1,17.3,21.333V49.855a1.718,1.718,0,1,0,3.436,0v-37.8A9.576,9.576,0,0,0,10.425,3.464a11.465,11.465,0,0,0-6.873,2.22V18.426a11.9,11.9,0,0,0,11.361,1.323A1.7,1.7,0,0,1,15.58,19.615Z" transform="translate(0 -0.003)"/>
          <path id="Path_9-6" data-name="Path 9" d="M101.229,71.076a1.719,1.719,0,0,1-1.718-1.718,1.719,1.719,0,0,0-1.718-1.718,1.718,1.718,0,1,1,0-3.436,5.157,5.157,0,0,1,5.155,5.155A1.719,1.719,0,0,1,101.229,71.076Z" transform="translate(-85.649 -57.306)"/>
          <path id="Path_10-6" data-name="Path 10" d="M66.445,99.625a1.718,1.718,0,0,1-.034-3.436h.034a1.718,1.718,0,0,1,0,3.436Z" transform="translate(-57.67 -85.855)"/>
          <path id="Path_11-6" data-name="Path 11" d="M136.651,419.485h-6.873a1.718,1.718,0,0,1,0-3.436h6.873a1.718,1.718,0,0,1,0,3.436Z" transform="translate(-114.199 -371.351)"/>
          <path id="Path_12-6" data-name="Path 12" d="M293.145,55.01a5.157,5.157,0,0,1-5.155-5.155h0v-37.8A12.987,12.987,0,0,1,301.736.028a14.577,14.577,0,0,1,9.735,3.563,1.724,1.724,0,0,1,.574,1.282V19.237a1.724,1.724,0,0,1-.574,1.282A15.074,15.074,0,0,1,298.3,23.691V49.855a5.154,5.154,0,0,1-5.155,5.155Zm8.591-51.546a9.576,9.576,0,0,0-10.309,8.591v37.8a1.718,1.718,0,0,0,3.436,0V21.333a1.719,1.719,0,0,1,1.718-1.718,1.7,1.7,0,0,1,.667.134,11.9,11.9,0,0,0,11.361-1.323V5.684A11.465,11.465,0,0,0,301.736,3.464Z" transform="translate(-256.947 -0.003)"/>
          <path id="Path_13-6" data-name="Path 13" d="M353.68,71.076a1.719,1.719,0,0,1-1.718-1.718,5.157,5.157,0,0,1,5.155-5.155,1.718,1.718,0,1,1,0,3.436,1.719,1.719,0,0,0-1.718,1.718A1.719,1.719,0,0,1,353.68,71.076Z" transform="translate(-314.046 -57.306)"/>
          <path id="Path_14-6" data-name="Path 14" d="M418.291,99.625a1.718,1.718,0,0,1-.034-3.436h.034a1.718,1.718,0,0,1,0,3.436Z" transform="translate(-371.715 -85.855)"/>
          <path id="Path_15-6" data-name="Path 15" d="M296.581,419.485h-6.873a1.718,1.718,0,0,1,0-3.436h6.873a1.718,1.718,0,1,1,0,3.436Z" transform="translate(-256.947 -371.351)"/>
        </g>
        <g id="redfolder-6" data-name="redfolder" transform="translate(329.476 61.916) rotate(-20)">
          <path id="Path_37-6" data-name="Path 37" d="M15.1,52.126l-3.845-3.845A.96.96,0,0,0,10.574,48H1.923A1.923,1.923,0,0,0,0,49.923v2.884a.962.962,0,0,0,.961.961H14.419a.961.961,0,0,0,.681-1.642Z" fill="#c0584e"/>
          <path id="Path_38-6" data-name="Path 38" d="M28.838,112H.961a.962.962,0,0,0-.961.961v18.264a1.923,1.923,0,0,0,1.923,1.923H28.838a1.923,1.923,0,0,0,1.923-1.923v-17.3A1.923,1.923,0,0,0,28.838,112Z" transform="translate(0 -60.155)" fill="#ce665c"/>
          <path id="Path_39-6" data-name="Path 39" d="M70.908,144.021a.961.961,0,0,0-1.14.944V154a4.925,4.925,0,0,0-1.923-.384c-2.157,0-3.845,1.267-3.845,2.884s1.688,2.884,3.845,2.884,3.845-1.267,3.845-2.884V146.284a2.777,2.777,0,0,1,1.923,2.407.961.961,0,1,0,1.923,0C75.535,145.684,72.507,144.321,70.908,144.021Z" transform="translate(-60.155 -90.236)" fill="#efede6"/>
          <path id="Path_40-6" data-name="Path 40" d="M28.838,72.993H1.923A1.923,1.923,0,0,1,0,71.07V49.923A1.923,1.923,0,0,1,1.923,48h8.651a.96.96,0,0,1,.681.281l3.562,3.564H28.838a1.923,1.923,0,0,1,1.923,1.923v17.3A1.923,1.923,0,0,1,28.838,72.993ZM1.923,49.923V71.07H28.838v-17.3H14.419a.96.96,0,0,1-.681-.281l-3.562-3.564Z" fill="#191e23"/>
          <path id="Path_41-6" data-name="Path 41" d="M67.845,309.768c-2.155,0-3.845-1.267-3.845-2.884S65.69,304,67.845,304s3.845,1.267,3.845,2.884S70,309.768,67.845,309.768Zm0-3.845c-1.173,0-1.923.577-1.923.961s.75.961,1.923.961,1.923-.577,1.923-.961S69.018,305.923,67.845,305.923Z" transform="translate(-60.155 -240.62)" fill="#191e23"/>
          <path id="Path_42-6" data-name="Path 42" d="M165.44,149.764a.962.962,0,0,1-.961-.961c0-2.188-3.03-2.776-3.061-2.782a.961.961,0,0,1,.354-1.888c1.6.3,4.629,1.661,4.629,4.67A.962.962,0,0,1,165.44,149.764Z" transform="translate(-151.021 -90.348)" fill="#191e23"/>
          <path id="Path_43-6" data-name="Path 43" d="M160.961,157.458A.962.962,0,0,1,160,156.5V144.961a.961.961,0,0,1,1.923,0V156.5A.962.962,0,0,1,160.961,157.458Z" transform="translate(-150.387 -90.232)" fill="#191e23"/>
        </g>
        <g id="folder-6" data-name="folder" transform="translate(458.899 -17.082) rotate(11)">
          <path id="Path_44-6" data-name="Path 44" d="M13.4,51.661,9.987,48.249a.852.852,0,0,0-.6-.249H1.706A1.707,1.707,0,0,0,0,49.706v2.559a.853.853,0,0,0,.853.853H12.795a.853.853,0,0,0,.6-1.457Z" fill="#7ca3b2"/>
          <path id="Path_45-6" data-name="Path 45" d="M25.59,112H.853a.853.853,0,0,0-.853.853V129.06a1.707,1.707,0,0,0,1.706,1.706H25.59A1.707,1.707,0,0,0,27.3,129.06V113.706A1.707,1.707,0,0,0,25.59,112Z" transform="translate(0 -60.588)" fill="#9ac1d0"/>
          <path id="Path_46-6" data-name="Path 46" d="M70.13,144.019a.852.852,0,0,0-1.012.838v8.018a4.37,4.37,0,0,0-1.706-.341c-1.914,0-3.412,1.124-3.412,2.559s1.5,2.559,3.412,2.559,3.412-1.124,3.412-2.559v-9.066a2.464,2.464,0,0,1,1.706,2.136.853.853,0,0,0,1.706,0C74.236,145.495,71.549,144.285,70.13,144.019Z" transform="translate(-60.588 -90.886)" fill="#efede6"/>
          <path id="Path_47-6" data-name="Path 47" d="M25.59,70.178H1.706A1.707,1.707,0,0,1,0,68.472V49.706A1.707,1.707,0,0,1,1.706,48H9.383a.852.852,0,0,1,.6.249l3.161,3.163H25.59A1.707,1.707,0,0,1,27.3,53.118V68.472A1.707,1.707,0,0,1,25.59,70.178ZM1.706,49.706V68.472H25.59V53.118H12.795a.852.852,0,0,1-.6-.249L9.03,49.706Z" fill="#191e23"/>
          <path id="Path_48-6" data-name="Path 48" d="M67.412,309.118c-1.912,0-3.412-1.124-3.412-2.559S65.5,304,67.412,304s3.412,1.124,3.412,2.559S69.324,309.118,67.412,309.118Zm0-3.412c-1.041,0-1.706.512-1.706.853s.665.853,1.706.853,1.706-.512,1.706-.853S68.453,305.706,67.412,305.706Z" transform="translate(-60.588 -242.352)" fill="#191e23"/>
          <path id="Path_49-6" data-name="Path 49" d="M164.9,149.129a.853.853,0,0,1-.853-.853c0-1.941-2.689-2.463-2.716-2.469a.853.853,0,0,1,.314-1.675c1.421.266,4.108,1.474,4.108,4.144A.853.853,0,0,1,164.9,149.129Z" transform="translate(-152.109 -90.999)" fill="#191e23"/>
          <path id="Path_50-6" data-name="Path 50" d="M160.853,155.942a.853.853,0,0,1-.853-.853V144.853a.853.853,0,1,1,1.706,0v10.236A.853.853,0,0,1,160.853,155.942Z" transform="translate(-151.47 -90.882)" fill="#191e23"/>
        </g>
      </g>
    </g>
  </g>
</svg>
