<?xml version="1.0"?>
<svg xmlns="http://www.w3.org/2000/svg" xmlns:xlink="http://www.w3.org/1999/xlink" version="1.1" id="Capa_1" x="0px" y="0px" width="512" height="512" viewBox="0 0 322.121 322.121" style="enable-background:new 0 0 322.121 322.121;" xml:space="preserve" class=""><g><g>
	<g>
		<path d="M42.419,96.106h82.187c3.006,0,7.397-2.571,8.997-5.403l16.762-27.737H42.419C18.994,62.966,0,81.959,0,105.385v14.035    C8.961,105.427,24.604,96.106,42.419,96.106z" data-original="#000000" class="active-path" style="fill:#53C9CC" data-old_color="#000000"/>
		<path d="M279.702,45.733h-99.421c-5.861,0-12.935,4.137-15.804,9.243l-4.828,7.989l-19.242,31.851    c-2.869,5.106-9.942,9.243-15.801,9.243H42.419C18.994,104.06,0,123.053,0,146.479v78.211v9.279    c0,23.426,18.994,42.419,42.419,42.419h237.283c23.426,0,42.419-18.993,42.419-42.419v-9.279V105.385V88.152    C322.121,64.727,303.128,45.733,279.702,45.733z M264.571,198.778l-34.642,34.641c-4.423,4.412-11.568,4.412-15.99,0    l-34.642-34.641c-4.412-4.418-2.931-7.996,3.314-7.996h16.709v-33.911c0-6.239,5.064-11.304,11.305-11.304h22.607    c6.244,0,11.309,5.059,11.309,11.304v33.911h16.715C267.502,190.782,268.983,194.366,264.571,198.778z M63.676,210.863    c5.229-5.146,11.969-8.104,18.491-8.104c1.499,0,2.975,0.161,4.373,0.477v-28.511v-12.837c0-5.458,0-9.455,4.01-9.758    c0.769-0.174,2.773-0.688,5.052-1.287l56.104-14.81c0.803-0.212,1.613-0.318,2.413-0.318c4.715,0,8.267,3.674,8.267,8.542v12.106    v0.588c0,0,0,32.588-0.01,45.875l0.005,1.295c0.016,3.438,0.042,7.71-0.795,10.822c-1.24,4.603-3.829,8.947-7.493,12.552    c-5.266,5.183-12.047,8.16-18.607,8.16c-4.904,0-9.357-1.729-12.544-4.867c-6.31-6.214-6.613-16.86-0.733-25.891    c2.004-3.065,6.004-7.011,9.111-8.969c4.256-2.692,8.907-4.106,13.458-4.106c1.504,0,2.985,0.161,4.389,0.482v-28.573    c0-0.005,0-0.016,0-0.021l-0.026,0.005l-47.201,12.464c-1.087,0.285-2.19,1.719-2.19,2.848v40.12c0,0,0,0.704-0.016,1.403    c-0.021,1.124-0.373,4.764-1.734,8.166c-1.411,3.542-3.669,6.907-6.532,9.719c-5.267,5.184-12.047,8.161-18.605,8.161    c-4.906,0-9.359-1.725-12.546-4.867c-3.203-3.153-4.968-7.575-4.968-12.443C55.362,222.783,58.396,216.067,63.676,210.863z" data-original="#000000" class="active-path" style="fill:#53C9CC" data-old_color="#000000"/>
	</g>
</g></g> </svg>
