<?xml version="1.0"?>
<svg xmlns="http://www.w3.org/2000/svg" xmlns:xlink="http://www.w3.org/1999/xlink" xmlns:svgjs="http://svgjs.com/svgjs" version="1.1" width="512" height="512" x="0" y="0" viewBox="0 0 512.008 512.008" style="enable-background:new 0 0 512 512" xml:space="preserve" class=""><g><g xmlns="http://www.w3.org/2000/svg"><path d="m299.403 445.633v-158.78l154.827-43.118v76.601l47.773 58.081v-217.609c0-16.135-15.387-27.822-30.93-23.494l-201.598 56.144c-10.548 2.937-17.845 12.544-17.845 23.494v169.213z" fill="#53c9cc" data-original="#ffda8f" style="" class=""/><path d="m122.757 252.549v-158.78l91.439-25.465c12.838-3.575 21.72-15.269 21.72-28.595 0-19.639-18.729-33.864-37.647-28.595l-108.594 30.242c-9.463 2.635-15.979 11.295-15.889 21.118l1.198 130.607z" fill="#2c82adbd" data-original="#ffe6b4" style="" class=""/><circle id="XMLID_11_" cx="243.027" cy="445.632" fill="#53c9cc" r="56.376" data-original="#ffda8f" style="" class=""/><circle id="XMLID_10_" cx="445.627" cy="378.416" fill="#53c9cc" r="56.376" data-original="#ffda8f" style="" class=""/><circle id="XMLID_7_" cx="66.382" cy="252.549" fill="#2c82adbd" r="56.376" data-original="#ffe6b4" style="" class=""/><g><path d="m498.415 133.423c-8.634-6.559-19.577-8.653-30.024-5.743l-58.211 16.211c-5.32 1.481-8.433 6.996-6.951 12.316 1.482 5.321 6.996 8.43 12.316 6.951l58.211-16.211c4.372-1.216 8.949-.342 12.562 2.403 3.613 2.744 5.686 6.92 5.686 11.458v170.183c-7.687-7.518-17.185-13.181-27.773-16.279v-70.978c0-3.126-1.462-6.072-3.951-7.963-2.49-1.891-5.722-2.511-8.731-1.67l-154.829 43.119c-4.325 1.205-7.317 5.144-7.317 9.633v111.355c-7.687-7.518-17.185-13.181-27.773-16.279v-164.978c0-6.435 4.329-12.134 10.527-13.86l56.69-15.788c5.32-1.481 8.433-6.996 6.951-12.316-1.483-5.321-7.001-8.435-12.316-6.951l-56.69 15.788c-14.815 4.126-25.163 17.748-25.163 33.127v162.341c-35.954.749-64.978 30.209-64.978 66.34 0 36.6 29.776 66.376 66.375 66.376s66.376-29.776 66.376-66.376v-151.183l134.827-37.549v55.176c-35.954.75-64.978 30.209-64.978 66.34 0 36.6 29.776 66.376 66.376 66.376s66.375-29.776 66.375-66.376v-217.608c.001-10.844-4.952-20.826-13.587-27.385zm-255.388 358.585c-25.572 0-46.375-20.804-46.375-46.376 0-25.571 20.804-46.375 46.375-46.375 25.572 0 46.376 20.804 46.376 46.375 0 25.572-20.804 46.376-46.376 46.376zm202.6-67.216c-25.572 0-46.376-20.804-46.376-46.376s20.804-46.375 46.376-46.375c25.571 0 46.375 20.804 46.375 46.375s-20.803 46.376-46.375 46.376z" fill="#1b1f1f" data-original="#000000" style="" class=""/><path d="m245.917 39.709c0-12.514-5.715-24.032-15.681-31.602-9.965-7.569-22.595-9.984-34.649-6.627l-108.595 30.243c-13.794 3.841-23.337 16.525-23.205 30.843l1.134 123.644c-35.925.783-64.915 30.229-64.915 66.339 0 36.6 29.776 66.376 66.376 66.376s66.375-29.776 66.375-66.376v-151.184l84.123-23.427c17.097-4.762 29.037-20.482 29.037-38.229zm-179.535 259.215c-25.572 0-46.376-20.804-46.376-46.376s20.804-46.376 46.376-46.376c25.571 0 46.375 20.804 46.375 46.376s-20.804 46.376-46.375 46.376zm53.693-214.788c-4.325 1.205-7.317 5.144-7.317 9.633v111.355c-7.696-7.527-17.208-13.195-27.812-16.29l-1.16-126.452c-.048-5.289 3.476-9.974 8.571-11.393l108.596-30.243c5.979-1.666 12.243-.467 17.187 3.287 4.943 3.754 7.778 9.468 7.778 15.675 0 8.803-5.923 16.601-14.403 18.962z" fill="#1b1f1f" data-original="#000000" style="" class=""/><circle cx="369.514" cy="165.602" r="10" fill="#1b1f1f" data-original="#000000" style="" class=""/></g></g></g></svg>
