<?xml version="1.0"?>
<svg xmlns="http://www.w3.org/2000/svg" id="Capa_1" enable-background="new 0 0 496.686 496.686" height="512px" viewBox="0 0 496.686 496.686" width="512px" class=""><g><g><g><g><path d="m396.875 50.724c-10.188-17.646-30.215-31.07-59.525-39.899-23.509-7.082-51.693-10.825-81.507-10.825l-22 22.748 22 22.252c55.707 0 94.162 14.542 102.062 28.224 4.642 8.039-2.259 50.834-88.77 150.988l34.055 29.416c21.08-24.405 50.668-60.88 71.911-96.055 28.715-47.543 35.837-82.494 21.774-106.849z" fill="#d4d4ff" data-original="#D4D4FF" class="" style="fill:#61BFC1" data-old_color="#d4d4ff"/><path d="m255.843 45-.732-.852c-10.987-12.772-10.672-31.747.732-44.148-29.813 0-57.998 3.743-81.507 10.825-2.406.725-4.75 1.481-7.031 2.268-25.502 8.794-43.143 21.434-52.495 37.631-14.062 24.355-6.94 59.307 21.774 106.851 21.243 35.174 50.831 71.649 71.911 96.055l34.055-29.416c-86.511-100.154-93.411-142.95-88.77-150.989 7.901-13.683 46.356-28.225 102.063-28.225z" fill="#9ea2e3" data-original="#9EA2E3" class="" style="fill:#53C9CC" data-old_color="#9ea2e3"/></g><g><g fill="#ffb357"><path d="m203.343 446.204v27.982c0 12.426 10.074 22.5 22.5 22.5s22.5-10.074 22.5-22.5v-.85-27.132z" data-original="#FFB357" class="" style="fill:#934038" data-old_color="#FFB357"/><path d="m263.343 446.204v27.135.848c0 12.426 10.074 22.5 22.5 22.5s22.5-10.074 22.5-22.5v-27.982h-45z" data-original="#FFB357" class="" style="fill:#934038" data-old_color="#FFB357"/><g><path d="m225.843 180.698c-12.426 0-22.5 10.074-22.5 22.5v23.982h45v-23.147-.835c0-12.427-10.074-22.5-22.5-22.5z" data-original="#000000" class="active-path" style="fill:#E8EEF3" data-old_color="#000000"/><path d="m285.843 180.698c-12.426 0-22.5 10.074-22.5 22.5v.842 23.141h45v-23.982c0-12.428-10.074-22.501-22.5-22.501z" data-original="#000000" class="active-path" style="fill:#E8EEF3" data-old_color="#000000"/></g></g><g><path d="m321.854 236.662c-3.954-5.259-8.503-9.974-13.511-14.086-12.745-10.468-28.472-17.01-45-18.536l-40.006 33.659 10.101 46.68c.953-10.97 9.993-20.686 22.44-20.686 7.138 0 13.706 3.291 18.021 9.03 9.957 13.242 28.766 15.905 42.007 5.948 13.243-9.959 15.906-28.766 5.948-42.009z" fill="#ffce71" data-original="#FFCE71" class="" style="fill:#CE665C" data-old_color="#ffce71"/></g><g fill="#ffce71"><path d="" data-original="#FFCE71" class="" style="fill:#CE665C" data-old_color="#FFCE71"/><path d="m263.343 372.694c5.8 2.22 10.528 4.652 12.041 7.268 4.542 7.847 3.677 16.828-.714 23.55l-18.091 34.01 19.251 33.713c12.111-3.015 23.173-8.706 32.512-16.421 18.332-15.144 30.034-38.042 30.034-63.622 0-14.503-3.825-28.779-11.062-41.283-14.702-25.409-41.349-33.464-62.759-39.936-11.298-3.416-25.359-7.666-28.188-12.553-1.868-3.23-2.819-6.651-2.988-10.028l-13.096 58.261z" data-original="#FFCE71" class="" style="fill:#CE665C" data-old_color="#FFCE71"/></g><g fill="#ffb357"><path d="m274.671 403.511c-3.91 5.987-10.617 10.18-18.793 10.18-8.01 0-15.484-4.318-19.508-11.27-8.298-14.34-26.651-19.238-40.991-10.938-14.341 8.299-19.238 26.652-10.938 40.992 4.985 8.614 11.427 16.117 18.903 22.28 12.688 10.46 28.364 17.041 45 18.58 2.493.23 5.005.356 7.534.356 2.518 0 5.005-.132 7.466-.354 4.263-.385 8.434-1.094 12.488-2.103-11.924-20.895-12.361-46.43-1.161-67.723z" data-original="#FFB357" class="" style="fill:#934038" data-old_color="#FFB357"/><path d="m233.381 287.392c-.051-1.011-.03-2.017.056-3.014.85-28.545 10.813-56.873 29.906-80.339-2.473-.228-4.964-.348-7.466-.348-2.553 0-5.062.123-7.534.341-17.438 1.536-32.795 8.348-45 18.546-29.128 24.337-40.3 67.915-18.909 104.888 1.091 1.886 2.248 3.677 3.464 5.378 15.165 21.221 39.475 28.57 59.296 34.562 5.255 1.588 11.106 3.357 16.148 5.287-20.197-24.824-30.18-55.092-29.961-85.301z" data-original="#FFB357" class="" style="fill:#934038" data-old_color="#FFB357"/></g></g></g><path d="m201.538 313.528c-4.182-2.559-8.767-4.525-13.638-5.778-1.254-4.871-3.219-9.456-5.778-13.638-3.116-5.092-10.413-5.092-13.529 0-2.56 4.182-4.525 8.768-5.779 13.638-4.87 1.254-9.455 3.219-13.638 5.778-2.546 1.558-3.819 4.161-3.819 6.764s1.273 5.206 3.819 6.764c4.182 2.559 8.77 4.534 13.641 5.788 1.254 4.87 3.217 9.447 5.776 13.629 3.116 5.092 10.412 5.092 13.529 0 2.559-4.182 4.522-8.759 5.776-13.629 4.87-1.254 9.458-3.228 13.64-5.788 5.092-3.115 5.093-10.411 0-13.528z" fill="#ffce71" data-original="#FFCE71" class="" style="fill:#CE665C" data-old_color="#ffce71"/><path d="m177.534 17.427c-3.136-1.92-6.576-3.394-10.228-4.334-.94-3.653-2.414-7.092-4.334-10.228-2.337-3.819-7.81-3.819-10.147 0-1.92 3.137-3.393 6.576-4.334 10.229-3.653.94-7.091 2.414-10.228 4.334-1.91 1.169-2.864 3.121-2.864 5.073s.955 3.905 2.864 5.073c3.136 1.92 6.577 3.4 10.23 4.341.94 3.653 2.412 7.085 4.332 10.222 2.337 3.819 7.809 3.819 10.147 0 1.919-3.137 3.391-6.569 4.332-10.222 3.653-.94 7.094-2.421 10.23-4.341 3.819-2.338 3.819-7.81 0-10.147z" fill="#efedff" data-original="#EFEDFF" class="" style="fill:#CCD0D5" data-old_color="#efedff"/><path d="m423.497 79.916c-3.136-1.92-6.576-3.393-10.228-4.334-.94-3.653-2.414-7.092-4.334-10.229-2.337-3.819-7.81-3.819-10.147 0-1.92 3.137-3.393 6.576-4.334 10.229-3.653.94-7.091 2.414-10.228 4.334-1.91 1.169-2.864 3.121-2.864 5.073s.955 3.905 2.864 5.073c3.136 1.92 6.577 3.4 10.23 4.341.94 3.653 2.412 7.085 4.332 10.222 2.337 3.819 7.809 3.819 10.147 0 1.919-3.137 3.391-6.569 4.332-10.222 3.653-.94 7.094-2.421 10.23-4.341 3.819-2.337 3.819-7.809 0-10.146z" fill="#efedff" data-original="#EFEDFF" class="" style="fill:#CCD0D5" data-old_color="#efedff"/><g fill="#ffce71"><g><path d="m413.862 297.186h-6c-4.143 0-7.5 3.358-7.5 7.5s3.357 7.5 7.5 7.5h6c4.143 0 7.5-3.358 7.5-7.5s-3.358-7.5-7.5-7.5z" data-original="#000000" class="active-path" style="fill:#E8EEF3" data-old_color="#000000"/><path d="m379.862 297.186h-6c-4.143 0-7.5 3.358-7.5 7.5s3.357 7.5 7.5 7.5h6c4.143 0 7.5-3.358 7.5-7.5s-3.358-7.5-7.5-7.5z" data-original="#000000" class="active-path" style="fill:#E8EEF3" data-old_color="#000000"/><path d="m393.862 311.186c-4.143 0-7.5 3.358-7.5 7.5v6c0 4.142 3.357 7.5 7.5 7.5s7.5-3.358 7.5-7.5v-6c0-4.142-3.358-7.5-7.5-7.5z" data-original="#000000" class="active-path" style="fill:#E8EEF3" data-old_color="#000000"/><path d="m393.862 298.186c4.143 0 7.5-3.358 7.5-7.5v-6c0-4.142-3.357-7.5-7.5-7.5s-7.5 3.358-7.5 7.5v6c0 4.142 3.357 7.5 7.5 7.5z" data-original="#000000" class="active-path" style="fill:#E8EEF3" data-old_color="#000000"/></g><g><path d="m117.825 235.186h-6c-4.143 0-7.5 3.358-7.5 7.5s3.357 7.5 7.5 7.5h6c4.143 0 7.5-3.358 7.5-7.5s-3.358-7.5-7.5-7.5z" data-original="#000000" class="active-path" style="fill:#E8EEF3" data-old_color="#000000"/><path d="m83.825 235.186h-6c-4.143 0-7.5 3.358-7.5 7.5s3.357 7.5 7.5 7.5h6c4.143 0 7.5-3.358 7.5-7.5s-3.358-7.5-7.5-7.5z" data-original="#000000" class="active-path" style="fill:#E8EEF3" data-old_color="#000000"/><path d="m97.825 249.186c-4.143 0-7.5 3.358-7.5 7.5v6c0 4.142 3.357 7.5 7.5 7.5s7.5-3.358 7.5-7.5v-6c0-4.142-3.358-7.5-7.5-7.5z" data-original="#000000" class="active-path" style="fill:#E8EEF3" data-old_color="#000000"/><path d="m97.825 236.186c4.143 0 7.5-3.358 7.5-7.5v-6c0-4.142-3.357-7.5-7.5-7.5s-7.5 3.358-7.5 7.5v6c0 4.142 3.357 7.5 7.5 7.5z" data-original="#000000" class="active-path" style="fill:#E8EEF3" data-old_color="#000000"/></g></g></g></g> </svg>
