<?xml version="1.0"?>
<svg xmlns="http://www.w3.org/2000/svg" xmlns:xlink="http://www.w3.org/1999/xlink" version="1.1" id="Capa_1" x="0px" y="0px" viewBox="0 0 512 512" style="enable-background:new 0 0 512 512;" xml:space="preserve" width="512px" height="512px" class=""><g><path style="fill:#7AA376" d="M117.333,0h277.333C459.468,0,512,52.532,512,117.333v277.333C512,459.468,459.468,512,394.667,512  H117.333C52.532,512,0,459.468,0,394.667V117.333C0,52.532,52.532,0,117.333,0z" data-original="#CFD8DC" class="active-path" data-old_color="#CFD8DC"/><g>
	<path style="fill:#191E23" d="M160,149.333h64c5.891,0,10.667,4.776,10.667,10.667v192c0,5.891-4.776,10.667-10.667,10.667h-64   c-5.891,0-10.667-4.776-10.667-10.667V160C149.333,154.109,154.109,149.333,160,149.333z" data-original="#607D8B" class="" data-old_color="#607D8B"/>
	<path style="fill:#191E23" d="M288,149.333h64c5.891,0,10.667,4.776,10.667,10.667v192c0,5.891-4.776,10.667-10.667,10.667h-64   c-5.891,0-10.667-4.776-10.667-10.667V160C277.333,154.109,282.109,149.333,288,149.333z" data-original="#607D8B" class="" data-old_color="#607D8B"/>
</g></g> </svg>
