<?xml version="1.0"?>
<svg xmlns="http://www.w3.org/2000/svg" xmlns:xlink="http://www.w3.org/1999/xlink" xmlns:svgjs="http://svgjs.com/svgjs" version="1.1" width="512" height="512" x="0" y="0" viewBox="0 0 512 512" style="enable-background:new 0 0 512 512" xml:space="preserve" class=""><g><path xmlns="http://www.w3.org/2000/svg" d="m154.332 120.127a19.5 19.5 0 1 0 19.5 19.5 19.522 19.522 0 0 0 -19.5-19.5z" fill="#2c82adbd" data-original="#000000" style="" class=""/><path xmlns="http://www.w3.org/2000/svg" d="m181.281 395.748a7.25 7.25 0 1 0 7.25 7.249 7.258 7.258 0 0 0 -7.25-7.249z" fill="#2c82adbd" data-original="#000000" style="" class=""/><path xmlns="http://www.w3.org/2000/svg" d="m92.983 311.124a50.123 50.123 0 0 0 -76.645-42.532 238.4 238.4 0 0 0 23.826 92.581c.9.048 1.8.075 2.7.075a50.181 50.181 0 0 0 50.119-50.124z" fill="#2c82adbd" data-original="#000000" style="" class=""/><circle xmlns="http://www.w3.org/2000/svg" cx="274.379" cy="251.1" r="30.524" transform="matrix(.383 -.924 .924 .383 -62.607 408.502)" fill="#2c82adbd" data-original="#000000" style="" class=""/><path xmlns="http://www.w3.org/2000/svg" d="m236.957 16.755a48.288 48.288 0 0 0 -.452 6.5 47.675 47.675 0 0 0 95.1 4.843 240.515 240.515 0 0 0 -75.6-12.098q-9.588 0-19.048.755z" fill="#2c82adbd" data-original="#000000" style="" class=""/><path xmlns="http://www.w3.org/2000/svg" d="m404.127 219.25a60.137 60.137 0 0 1 72.105-58.92 241.472 241.472 0 0 0 -134.982-128.8 57.671 57.671 0 0 1 -114.745-8.276c0-1.835.095-3.669.267-5.493a240.059 240.059 0 0 0 -210.763 238.239c0 .435.014.868.016 1.3a60.126 60.126 0 1 1 29.325 113.885 241.007 241.007 0 0 0 40.95 54.515 239.988 239.988 0 0 0 409.249-155.11 60.129 60.129 0 0 1 -91.422-51.34zm-279.295-79.623a29.5 29.5 0 1 1 29.5 29.5 29.533 29.533 0 0 1 -29.5-29.5zm56.449 280.62a17.25 17.25 0 1 1 17.25-17.247 17.269 17.269 0 0 1 -17.25 17.247zm93.1-128.622a40.525 40.525 0 1 1 40.519-40.525 40.571 40.571 0 0 1 -40.521 40.525zm89.419 149.447a29.5 29.5 0 1 1 29.5-29.5 29.533 29.533 0 0 1 -29.5 29.5z" fill="#2c82adbd" data-original="#000000" style="" class=""/><circle xmlns="http://www.w3.org/2000/svg" cx="363.802" cy="411.572" r="19.5" fill="#2c82adbd" data-original="#000000" style="" class=""/><path xmlns="http://www.w3.org/2000/svg" d="m464.251 169.127a50.124 50.124 0 1 0 31.724 88.929c.006-.685.025-1.369.025-2.056a240 240 0 0 0 -15.073-84.028 49.918 49.918 0 0 0 -16.676-2.845z" fill="#2c82adbd" data-original="#000000" style="" class=""/></g></svg>
