<svg id="Layer_1" data-name="Layer 1" xmlns="http://www.w3.org/2000/svg" viewBox="0 0 1758 963"><defs><style>.cls-1{fill:#ce665c;}.cls-2{fill:#356;}.cls-3{fill:#7aa376;}.cls-4{fill:#53c9cc;}.cls-5{fill:#efede6;}</style></defs><path class="cls-1" d="M313.92,430h-86.5a11.72,11.72,0,0,0-11.66,9.51A11.53,11.53,0,0,0,227.09,453h86.5a11.72,11.72,0,0,0,11.66-9.51A11.53,11.53,0,0,0,313.92,430Z" transform="translate(-69 -50)"/><path class="cls-1" d="M176,430H89.5a11.71,11.71,0,0,0-11.65,9.51A11.53,11.53,0,0,0,89.18,453h86.5a11.71,11.71,0,0,0,11.65-9.51A11.53,11.53,0,0,0,176,430Z" transform="translate(-69 -50)"/><path class="cls-1" d="M451.83,430h-86.5a11.72,11.72,0,0,0-11.66,9.51A11.54,11.54,0,0,0,365,453h86.51a11.72,11.72,0,0,0,11.65-9.51A11.53,11.53,0,0,0,451.83,430Z" transform="translate(-69 -50)"/><path class="cls-1" d="M176,395H89.5a11.71,11.71,0,0,0-11.65,9.51A11.53,11.53,0,0,0,89.18,418h86.5a11.71,11.71,0,0,0,11.65-9.51A11.53,11.53,0,0,0,176,395Z" transform="translate(-69 -50)"/><path class="cls-1" d="M176,361H89.5a11.71,11.71,0,0,0-11.65,9.51A11.53,11.53,0,0,0,89.18,384h86.5a11.71,11.71,0,0,0,11.65-9.51A11.53,11.53,0,0,0,176,361Z" transform="translate(-69 -50)"/><path class="cls-1" d="M176,326H89.5a11.71,11.71,0,0,0-11.65,9.51A11.53,11.53,0,0,0,89.18,349h86.5a11.71,11.71,0,0,0,11.65-9.51A11.53,11.53,0,0,0,176,326Z" transform="translate(-69 -50)"/><path class="cls-1" d="M176,292H89.5a11.71,11.71,0,0,0-11.65,9.51A11.53,11.53,0,0,0,89.18,315h86.5a11.71,11.71,0,0,0,11.65-9.51A11.53,11.53,0,0,0,176,292Z" transform="translate(-69 -50)"/><path class="cls-1" d="M176,257H89.5a11.71,11.71,0,0,0-11.65,9.51A11.53,11.53,0,0,0,89.18,280h86.5a11.71,11.71,0,0,0,11.65-9.51A11.53,11.53,0,0,0,176,257Z" transform="translate(-69 -50)"/><path class="cls-1" d="M313.92,395h-86.5a11.72,11.72,0,0,0-11.66,9.51A11.53,11.53,0,0,0,227.09,418h86.5a11.72,11.72,0,0,0,11.66-9.51A11.53,11.53,0,0,0,313.92,395Z" transform="translate(-69 -50)"/><path class="cls-1" d="M313.92,361h-86.5a11.72,11.72,0,0,0-11.66,9.51A11.53,11.53,0,0,0,227.09,384h86.5a11.72,11.72,0,0,0,11.66-9.51A11.53,11.53,0,0,0,313.92,361Z" transform="translate(-69 -50)"/><path class="cls-1" d="M313.92,326h-86.5a11.72,11.72,0,0,0-11.66,9.51A11.53,11.53,0,0,0,227.09,349h86.5a11.72,11.72,0,0,0,11.66-9.51A11.53,11.53,0,0,0,313.92,326Z" transform="translate(-69 -50)"/><path class="cls-1" d="M313.92,292h-86.5a11.72,11.72,0,0,0-11.66,9.51A11.53,11.53,0,0,0,227.09,315h86.5a11.72,11.72,0,0,0,11.66-9.51A11.53,11.53,0,0,0,313.92,292Z" transform="translate(-69 -50)"/><path class="cls-1" d="M313.92,257h-86.5a11.72,11.72,0,0,0-11.66,9.51A11.53,11.53,0,0,0,227.09,280h86.5a11.72,11.72,0,0,0,11.66-9.51A11.53,11.53,0,0,0,313.92,257Z" transform="translate(-69 -50)"/><path class="cls-1" d="M313.92,223h-86.5a11.72,11.72,0,0,0-11.66,9.51A11.53,11.53,0,0,0,227.09,246h86.5a11.72,11.72,0,0,0,11.66-9.51A11.53,11.53,0,0,0,313.92,223Z" transform="translate(-69 -50)"/><path class="cls-1" d="M313.92,188h-86.5a11.72,11.72,0,0,0-11.66,9.51A11.53,11.53,0,0,0,227.09,211h86.5a11.72,11.72,0,0,0,11.66-9.51A11.53,11.53,0,0,0,313.92,188Z" transform="translate(-69 -50)"/><path class="cls-1" d="M313.92,154h-86.5a11.72,11.72,0,0,0-11.66,9.51A11.53,11.53,0,0,0,227.09,177h86.5a11.72,11.72,0,0,0,11.66-9.51A11.53,11.53,0,0,0,313.92,154Z" transform="translate(-69 -50)"/><path class="cls-1" d="M313.92,119h-86.5a11.72,11.72,0,0,0-11.66,9.51A11.53,11.53,0,0,0,227.09,142h86.5a11.72,11.72,0,0,0,11.66-9.51A11.53,11.53,0,0,0,313.92,119Z" transform="translate(-69 -50)"/><path class="cls-1" d="M313.92,85h-86.5a11.72,11.72,0,0,0-11.66,9.51A11.53,11.53,0,0,0,227.09,108h86.5a11.72,11.72,0,0,0,11.66-9.51A11.53,11.53,0,0,0,313.92,85Z" transform="translate(-69 -50)"/><path class="cls-1" d="M313.92,50h-86.5a11.72,11.72,0,0,0-11.66,9.51A11.53,11.53,0,0,0,227.09,73h86.5a11.72,11.72,0,0,0,11.66-9.51A11.53,11.53,0,0,0,313.92,50Z" transform="translate(-69 -50)"/><path class="cls-1" d="M451.83,395h-86.5a11.72,11.72,0,0,0-11.66,9.51A11.54,11.54,0,0,0,365,418h86.51a11.72,11.72,0,0,0,11.65-9.51A11.53,11.53,0,0,0,451.83,395Z" transform="translate(-69 -50)"/><path class="cls-1" d="M451.83,361h-86.5a11.72,11.72,0,0,0-11.66,9.51A11.54,11.54,0,0,0,365,384h86.51a11.72,11.72,0,0,0,11.65-9.51A11.53,11.53,0,0,0,451.83,361Z" transform="translate(-69 -50)"/><path class="cls-1" d="M451.83,326h-86.5a11.72,11.72,0,0,0-11.66,9.51A11.54,11.54,0,0,0,365,349h86.51a11.72,11.72,0,0,0,11.65-9.51A11.53,11.53,0,0,0,451.83,326Z" transform="translate(-69 -50)"/><path class="cls-1" d="M451.83,292h-86.5a11.72,11.72,0,0,0-11.66,9.51A11.54,11.54,0,0,0,365,315h86.51a11.72,11.72,0,0,0,11.65-9.51A11.53,11.53,0,0,0,451.83,292Z" transform="translate(-69 -50)"/><path class="cls-1" d="M451.83,257h-86.5a11.72,11.72,0,0,0-11.66,9.51A11.54,11.54,0,0,0,365,280h86.51a11.72,11.72,0,0,0,11.65-9.51A11.53,11.53,0,0,0,451.83,257Z" transform="translate(-69 -50)"/><path class="cls-1" d="M451.83,223h-86.5a11.72,11.72,0,0,0-11.66,9.51A11.54,11.54,0,0,0,365,246h86.51a11.72,11.72,0,0,0,11.65-9.51A11.53,11.53,0,0,0,451.83,223Z" transform="translate(-69 -50)"/><path class="cls-1" d="M451.83,188h-86.5a11.72,11.72,0,0,0-11.66,9.51A11.54,11.54,0,0,0,365,211h86.51a11.72,11.72,0,0,0,11.65-9.51A11.53,11.53,0,0,0,451.83,188Z" transform="translate(-69 -50)"/><path class="cls-1" d="M578.25,430h-86.5a11.72,11.72,0,0,0-11.66,9.51A11.54,11.54,0,0,0,491.42,453h86.51a11.72,11.72,0,0,0,11.65-9.51A11.53,11.53,0,0,0,578.25,430Z" transform="translate(-69 -50)"/><path class="cls-1" d="M578.25,395h-86.5a11.72,11.72,0,0,0-11.66,9.51A11.54,11.54,0,0,0,491.42,418h86.51a11.72,11.72,0,0,0,11.65-9.51A11.53,11.53,0,0,0,578.25,395Z" transform="translate(-69 -50)"/><path class="cls-1" d="M578.13,361h-86.5A11.71,11.71,0,0,0,480,370.51,11.53,11.53,0,0,0,491.31,384h86.5a11.71,11.71,0,0,0,11.65-9.51A11.53,11.53,0,0,0,578.13,361Z" transform="translate(-69 -50)"/><path class="cls-2" d="M836.53,1013H764.88a9.21,9.21,0,0,1-9.32-8.85,9,9,0,0,1,9-9.15h71.66a9.21,9.21,0,0,1,9.32,8.86A9,9,0,0,1,836.53,1013Z" transform="translate(-69 -50)"/><path class="cls-2" d="M836.53,959H764.88a9.2,9.2,0,0,1-9.32-8.85,9,9,0,0,1,9-9.14h71.66a9.21,9.21,0,0,1,9.32,8.85A9,9,0,0,1,836.53,959Z" transform="translate(-69 -50)"/><path class="cls-2" d="M836.53,904.21H764.88a9.21,9.21,0,0,1-9.32-8.86,9,9,0,0,1,9-9.14h71.66a9.21,9.21,0,0,1,9.32,8.85A9,9,0,0,1,836.53,904.21Z" transform="translate(-69 -50)"/><path class="cls-2" d="M836.53,849.4H764.88a9.21,9.21,0,0,1-9.32-8.85,9,9,0,0,1,9-9.15h71.66a9.21,9.21,0,0,1,9.32,8.86A9,9,0,0,1,836.53,849.4Z" transform="translate(-69 -50)"/><path class="cls-2" d="M836.53,794.6H764.88a9.21,9.21,0,0,1-9.32-8.86,9,9,0,0,1,9-9.14h71.66a9.21,9.21,0,0,1,9.32,8.85A9,9,0,0,1,836.53,794.6Z" transform="translate(-69 -50)"/><path class="cls-3" d="M945.79,1013H874.13a9.21,9.21,0,0,1-9.32-8.85,9,9,0,0,1,9-9.15h71.66a9.22,9.22,0,0,1,9.32,8.86A9,9,0,0,1,945.79,1013Z" transform="translate(-69 -50)"/><path class="cls-3" d="M945.79,959H874.13a9.21,9.21,0,0,1-9.32-8.85,9,9,0,0,1,9-9.14h71.66a9.21,9.21,0,0,1,9.32,8.85A9,9,0,0,1,945.79,959Z" transform="translate(-69 -50)"/><path class="cls-3" d="M945.79,904.21H874.13a9.21,9.21,0,0,1-9.32-8.86,9,9,0,0,1,9-9.14h71.66a9.22,9.22,0,0,1,9.32,8.85A9,9,0,0,1,945.79,904.21Z" transform="translate(-69 -50)"/><path class="cls-3" d="M945.79,849.4H874.13a9.21,9.21,0,0,1-9.32-8.85,9,9,0,0,1,9-9.15h71.66a9.22,9.22,0,0,1,9.32,8.86A9,9,0,0,1,945.79,849.4Z" transform="translate(-69 -50)"/><path class="cls-3" d="M945.79,794.6H874.13a9.21,9.21,0,0,1-9.32-8.86,9,9,0,0,1,9-9.14h71.66a9.22,9.22,0,0,1,9.32,8.85A9,9,0,0,1,945.79,794.6Z" transform="translate(-69 -50)"/><path class="cls-3" d="M945.79,740.61H874.13a9.21,9.21,0,0,1-9.32-8.86,9,9,0,0,1,9-9.14h71.66a9.22,9.22,0,0,1,9.32,8.86A9,9,0,0,1,945.79,740.61Z" transform="translate(-69 -50)"/><path class="cls-3" d="M945.79,685.8H874.13a9.21,9.21,0,0,1-9.32-8.85,9,9,0,0,1,9-9.14h71.66a9.21,9.21,0,0,1,9.32,8.85A9,9,0,0,1,945.79,685.8Z" transform="translate(-69 -50)"/><path class="cls-3" d="M945.79,631H874.13a9.21,9.21,0,0,1-9.32-8.86,9,9,0,0,1,9-9.14h71.66a9.22,9.22,0,0,1,9.32,8.85A9,9,0,0,1,945.79,631Z" transform="translate(-69 -50)"/><path class="cls-4" d="M1055,1013H983.39a9.21,9.21,0,0,1-9.32-8.85,9,9,0,0,1,9-9.15h71.66a9.21,9.21,0,0,1,9.32,8.86A9,9,0,0,1,1055,1013Z" transform="translate(-69 -50)"/><path class="cls-4" d="M1055,959H983.39a9.2,9.2,0,0,1-9.32-8.85,9,9,0,0,1,9-9.14h71.66a9.21,9.21,0,0,1,9.32,8.85A9,9,0,0,1,1055,959Z" transform="translate(-69 -50)"/><path class="cls-4" d="M1055,904.21H983.39a9.21,9.21,0,0,1-9.32-8.86,9,9,0,0,1,9-9.14h71.66a9.21,9.21,0,0,1,9.32,8.85A9,9,0,0,1,1055,904.21Z" transform="translate(-69 -50)"/><path class="cls-5" d="M1164.3,1013h-71.66a9.21,9.21,0,0,1-9.32-8.85,9,9,0,0,1,9-9.15H1164a9.21,9.21,0,0,1,9.32,8.86A9,9,0,0,1,1164.3,1013Z" transform="translate(-69 -50)"/><path class="cls-5" d="M1164.3,959h-71.66a9.21,9.21,0,0,1-9.32-8.85,9,9,0,0,1,9-9.14H1164a9.21,9.21,0,0,1,9.32,8.85A9,9,0,0,1,1164.3,959Z" transform="translate(-69 -50)"/><path class="cls-5" d="M1164.3,904.21h-71.66a9.21,9.21,0,0,1-9.32-8.86,9,9,0,0,1,9-9.14H1164a9.21,9.21,0,0,1,9.32,8.85A9,9,0,0,1,1164.3,904.21Z" transform="translate(-69 -50)"/><path class="cls-5" d="M1164.3,849.4h-71.66a9.21,9.21,0,0,1-9.32-8.85,9,9,0,0,1,9-9.15H1164a9.21,9.21,0,0,1,9.32,8.86A9,9,0,0,1,1164.3,849.4Z" transform="translate(-69 -50)"/><path class="cls-5" d="M1164.3,794.6h-71.66a9.21,9.21,0,0,1-9.32-8.86,9,9,0,0,1,9-9.14H1164a9.21,9.21,0,0,1,9.32,8.85A9,9,0,0,1,1164.3,794.6Z" transform="translate(-69 -50)"/><path class="cls-5" d="M1164.3,740.61h-71.66a9.21,9.21,0,0,1-9.32-8.86,9,9,0,0,1,9-9.14H1164a9.21,9.21,0,0,1,9.32,8.86A9,9,0,0,1,1164.3,740.61Z" transform="translate(-69 -50)"/><path class="cls-1" d="M1324.5,666.12h0a9.5,9.5,0,0,0-9.5,9.5v58.53a9.75,9.75,0,0,0,8.91,9.85,9.5,9.5,0,0,0,10.09-9.48v-58.9A9.5,9.5,0,0,0,1324.5,666.12Z" transform="translate(-69 -50)"/><path class="cls-1" d="M1353,628v154.1a9.76,9.76,0,0,0,8.91,9.86,9.51,9.51,0,0,0,10.09-9.49V627.64a9.5,9.5,0,0,0-10.09-9.48A9.76,9.76,0,0,0,1353,628Z" transform="translate(-69 -50)"/><path class="cls-1" d="M1391,644.64V765.5a9.75,9.75,0,0,0,8.91,9.85,9.5,9.5,0,0,0,10.09-9.48V644.27a9.5,9.5,0,0,0-10.09-9.48A9.74,9.74,0,0,0,1391,644.64Z" transform="translate(-69 -50)"/><path class="cls-1" d="M1438.5,666.12h0a9.5,9.5,0,0,0-9.5,9.5v58.53a9.75,9.75,0,0,0,8.91,9.85,9.5,9.5,0,0,0,10.09-9.48v-58.9A9.5,9.5,0,0,0,1438.5,666.12Z" transform="translate(-69 -50)"/><path class="cls-1" d="M1467,593.25V816.89a9.76,9.76,0,0,0,8.91,9.86,9.51,9.51,0,0,0,10.09-9.49V592.87a9.5,9.5,0,0,0-10.09-9.48A9.76,9.76,0,0,0,1467,593.25Z" transform="translate(-69 -50)"/><path class="cls-1" d="M1505,639.61V770.53a9.76,9.76,0,0,0,8.91,9.86A9.51,9.51,0,0,0,1524,770.9V639.23a9.5,9.5,0,0,0-10.09-9.48A9.76,9.76,0,0,0,1505,639.61Z" transform="translate(-69 -50)"/><path class="cls-1" d="M1543,655.47v99.2a9.75,9.75,0,0,0,8.91,9.85A9.5,9.5,0,0,0,1562,755V655.1a9.5,9.5,0,0,0-10.09-9.48A9.74,9.74,0,0,0,1543,655.47Z" transform="translate(-69 -50)"/><path class="cls-1" d="M1590.5,666.12h0a9.5,9.5,0,0,0-9.5,9.5v58.53a9.75,9.75,0,0,0,8.91,9.85,9.5,9.5,0,0,0,10.09-9.48v-58.9A9.5,9.5,0,0,0,1590.5,666.12Z" transform="translate(-69 -50)"/><path class="cls-1" d="M1619,655.47v99.2a9.75,9.75,0,0,0,8.91,9.85A9.5,9.5,0,0,0,1638,755V655.1a9.5,9.5,0,0,0-10.09-9.48A9.74,9.74,0,0,0,1619,655.47Z" transform="translate(-69 -50)"/><path class="cls-1" d="M1657,639.61V770.53a9.76,9.76,0,0,0,8.91,9.86A9.51,9.51,0,0,0,1676,770.9V639.23a9.5,9.5,0,0,0-10.09-9.48A9.76,9.76,0,0,0,1657,639.61Z" transform="translate(-69 -50)"/><path class="cls-1" d="M1695,593.25V816.89a9.76,9.76,0,0,0,8.91,9.86,9.51,9.51,0,0,0,10.09-9.49V592.87a9.5,9.5,0,0,0-10.09-9.48A9.76,9.76,0,0,0,1695,593.25Z" transform="translate(-69 -50)"/><path class="cls-1" d="M1733,644.64V765.5a9.75,9.75,0,0,0,8.91,9.85,9.5,9.5,0,0,0,10.09-9.48V644.27a9.5,9.5,0,0,0-10.09-9.48A9.74,9.74,0,0,0,1733,644.64Z" transform="translate(-69 -50)"/><path class="cls-1" d="M1779.5,666.12h0a9.5,9.5,0,0,0-9.5,9.5v58.53a9.75,9.75,0,0,0,8.91,9.85,9.5,9.5,0,0,0,10.09-9.48v-58.9A9.5,9.5,0,0,0,1779.5,666.12Z" transform="translate(-69 -50)"/><path class="cls-1" d="M1817.5,666.12h0a9.5,9.5,0,0,0-9.5,9.5v58.53a9.75,9.75,0,0,0,8.91,9.85,9.5,9.5,0,0,0,10.09-9.48v-58.9A9.5,9.5,0,0,0,1817.5,666.12Z" transform="translate(-69 -50)"/><path class="cls-4" d="M887.5,240.74h0a9.5,9.5,0,0,0-9.5,9.5v58.53a9.75,9.75,0,0,0,8.91,9.85A9.5,9.5,0,0,0,897,309.14v-58.9A9.5,9.5,0,0,0,887.5,240.74Z" transform="translate(-69 -50)"/><path class="cls-4" d="M916,202.63V356.74a9.76,9.76,0,0,0,8.91,9.86A9.51,9.51,0,0,0,935,357.11V202.26a9.5,9.5,0,0,0-10.09-9.48A9.75,9.75,0,0,0,916,202.63Z" transform="translate(-69 -50)"/><path class="cls-4" d="M953,219.26V340.12a9.75,9.75,0,0,0,8.91,9.85A9.5,9.5,0,0,0,972,340.49V218.89a9.5,9.5,0,0,0-10.09-9.48A9.74,9.74,0,0,0,953,219.26Z" transform="translate(-69 -50)"/><path class="cls-4" d="M1000.5,240.74h0a9.5,9.5,0,0,0-9.5,9.5v58.53a9.75,9.75,0,0,0,8.91,9.85,9.5,9.5,0,0,0,10.09-9.48v-58.9A9.5,9.5,0,0,0,1000.5,240.74Z" transform="translate(-69 -50)"/><path class="cls-4" d="M1029,167.86V391.51a9.76,9.76,0,0,0,8.91,9.86,9.51,9.51,0,0,0,10.09-9.49V167.49a9.5,9.5,0,0,0-10.09-9.48A9.75,9.75,0,0,0,1029,167.86Z" transform="translate(-69 -50)"/><path class="cls-4" d="M1067,214.22V345.15a9.76,9.76,0,0,0,8.91,9.86,9.51,9.51,0,0,0,10.09-9.49V213.85a9.5,9.5,0,0,0-10.09-9.48A9.75,9.75,0,0,0,1067,214.22Z" transform="translate(-69 -50)"/><path class="cls-4" d="M1105,230.09v99.2a9.75,9.75,0,0,0,8.91,9.85,9.5,9.5,0,0,0,10.09-9.48V229.72a9.5,9.5,0,0,0-10.09-9.48A9.74,9.74,0,0,0,1105,230.09Z" transform="translate(-69 -50)"/><path class="cls-4" d="M1152.5,240.74h0a9.5,9.5,0,0,0-9.5,9.5v58.53a9.75,9.75,0,0,0,8.91,9.85,9.5,9.5,0,0,0,10.09-9.48v-58.9A9.5,9.5,0,0,0,1152.5,240.74Z" transform="translate(-69 -50)"/><path class="cls-4" d="M1181,230.09v99.2a9.75,9.75,0,0,0,8.91,9.85,9.5,9.5,0,0,0,10.09-9.48V229.72a9.5,9.5,0,0,0-10.09-9.48A9.74,9.74,0,0,0,1181,230.09Z" transform="translate(-69 -50)"/><path class="cls-4" d="M1219,214.22V345.15a9.76,9.76,0,0,0,8.91,9.86,9.51,9.51,0,0,0,10.09-9.49V213.85a9.5,9.5,0,0,0-10.09-9.48A9.75,9.75,0,0,0,1219,214.22Z" transform="translate(-69 -50)"/><path class="cls-4" d="M1257,167.86V391.51a9.76,9.76,0,0,0,8.91,9.86,9.51,9.51,0,0,0,10.09-9.49V167.49a9.5,9.5,0,0,0-10.09-9.48A9.75,9.75,0,0,0,1257,167.86Z" transform="translate(-69 -50)"/><path class="cls-4" d="M1295,219.26V340.12a9.75,9.75,0,0,0,8.91,9.85,9.5,9.5,0,0,0,10.09-9.48V218.89a9.5,9.5,0,0,0-10.09-9.48A9.74,9.74,0,0,0,1295,219.26Z" transform="translate(-69 -50)"/><path class="cls-4" d="M1342.5,240.74h0a9.5,9.5,0,0,0-9.5,9.5v58.53a9.75,9.75,0,0,0,8.91,9.85,9.5,9.5,0,0,0,10.09-9.48v-58.9A9.5,9.5,0,0,0,1342.5,240.74Z" transform="translate(-69 -50)"/><path class="cls-4" d="M1380.5,240.74h0a9.5,9.5,0,0,0-9.5,9.5v58.53a9.75,9.75,0,0,0,8.91,9.85,9.5,9.5,0,0,0,10.09-9.48v-58.9A9.5,9.5,0,0,0,1380.5,240.74Z" transform="translate(-69 -50)"/><path class="cls-5" d="M78.5,686.25h0a9.5,9.5,0,0,0-9.5,9.5v58.53a9.74,9.74,0,0,0,8.91,9.85A9.5,9.5,0,0,0,88,754.65v-58.9A9.5,9.5,0,0,0,78.5,686.25Z" transform="translate(-69 -50)"/><path class="cls-5" d="M107,648.15V802.26a9.75,9.75,0,0,0,8.91,9.85A9.5,9.5,0,0,0,126,802.63V647.78a9.5,9.5,0,0,0-10.09-9.48A9.74,9.74,0,0,0,107,648.15Z" transform="translate(-69 -50)"/><path class="cls-5" d="M145,664.77V785.63a9.74,9.74,0,0,0,8.91,9.85A9.5,9.5,0,0,0,164,786V664.4a9.5,9.5,0,0,0-10.09-9.48A9.75,9.75,0,0,0,145,664.77Z" transform="translate(-69 -50)"/><path class="cls-5" d="M192.5,686.25h0a9.5,9.5,0,0,0-9.5,9.5v58.53a9.74,9.74,0,0,0,8.91,9.85A9.5,9.5,0,0,0,202,754.65v-58.9A9.5,9.5,0,0,0,192.5,686.25Z" transform="translate(-69 -50)"/><path class="cls-5" d="M221,613.38V837a9.75,9.75,0,0,0,8.91,9.85A9.5,9.5,0,0,0,240,837.4V613a9.5,9.5,0,0,0-10.09-9.48A9.74,9.74,0,0,0,221,613.38Z" transform="translate(-69 -50)"/><path class="cls-5" d="M259,659.74V790.67a9.75,9.75,0,0,0,8.91,9.85A9.5,9.5,0,0,0,278,791V659.37a9.5,9.5,0,0,0-10.09-9.48A9.74,9.74,0,0,0,259,659.74Z" transform="translate(-69 -50)"/><path class="cls-5" d="M296,675.6v99.2a9.74,9.74,0,0,0,8.91,9.85A9.5,9.5,0,0,0,315,775.17V675.23a9.5,9.5,0,0,0-10.09-9.48A9.75,9.75,0,0,0,296,675.6Z" transform="translate(-69 -50)"/><path class="cls-5" d="M344.5,686.25h0a9.5,9.5,0,0,0-9.5,9.5v58.53a9.74,9.74,0,0,0,8.91,9.85A9.5,9.5,0,0,0,354,754.65v-58.9A9.5,9.5,0,0,0,344.5,686.25Z" transform="translate(-69 -50)"/><path class="cls-5" d="M372,675.6v99.2a9.74,9.74,0,0,0,8.91,9.85A9.5,9.5,0,0,0,391,775.17V675.23a9.5,9.5,0,0,0-10.09-9.48A9.75,9.75,0,0,0,372,675.6Z" transform="translate(-69 -50)"/><path class="cls-5" d="M410,659.74V790.67a9.75,9.75,0,0,0,8.91,9.85A9.5,9.5,0,0,0,429,791V659.37a9.5,9.5,0,0,0-10.09-9.48A9.74,9.74,0,0,0,410,659.74Z" transform="translate(-69 -50)"/><path class="cls-5" d="M448,613.38V837a9.75,9.75,0,0,0,8.91,9.85A9.5,9.5,0,0,0,467,837.4V613a9.5,9.5,0,0,0-10.09-9.48A9.74,9.74,0,0,0,448,613.38Z" transform="translate(-69 -50)"/><path class="cls-5" d="M486,664.77V785.63a9.74,9.74,0,0,0,8.91,9.85A9.5,9.5,0,0,0,505,786V664.4a9.5,9.5,0,0,0-10.09-9.48A9.75,9.75,0,0,0,486,664.77Z" transform="translate(-69 -50)"/><path class="cls-5" d="M533.5,686.25h0a9.5,9.5,0,0,0-9.5,9.5v58.53a9.74,9.74,0,0,0,8.91,9.85A9.5,9.5,0,0,0,543,754.65v-58.9A9.5,9.5,0,0,0,533.5,686.25Z" transform="translate(-69 -50)"/><path class="cls-5" d="M571.5,686.25h0a9.5,9.5,0,0,0-9.5,9.5v58.53a9.74,9.74,0,0,0,8.91,9.85A9.5,9.5,0,0,0,581,754.65v-58.9A9.5,9.5,0,0,0,571.5,686.25Z" transform="translate(-69 -50)"/></svg>