<?xml version="1.0"?>
<svg xmlns="http://www.w3.org/2000/svg" xmlns:xlink="http://www.w3.org/1999/xlink" xmlns:svgjs="http://svgjs.com/svgjs" version="1.1" width="512" height="512" x="0" y="0" viewBox="0 0 512.023 512.023" style="enable-background:new 0 0 512 512" xml:space="preserve" class=""><g>
<g xmlns="http://www.w3.org/2000/svg">
	<g>
		<path d="M485.816,275.202c41.391-81.417,32.915-171.817-22.12-226.845c-35.967-35.967-86.6-52.758-142.675-47.358    c-57.894,6.575-111.728,32.986-152.358,74.75c-22.396,22.179-40.57,48.248-53.633,76.933c-1.95,4.087-3.65,8.092-5.316,12.237    c-2.182,5.351-4.102,10.658-5.735,15.785l-0.006,0.011l-0.016,0.05l-0.026,0.071l-0.004,0.022    c-1.156,3.472-2.222,6.941-2.871,9.645c-0.092,0.246-0.425,1.263-0.492,1.517c-1.167,4.479-2.317,9.042-3.083,13.304    c-5.851,27.629-5.814,56.182,0.108,83.796c3.631,16.126,2.714,32.944-2.65,48.579c-4.23,12.356-11.241,23.576-20.492,32.796    l-46.242,46.329c-0.404,0.405-0.785,0.832-1.142,1.279l-0.101,0.115L9.454,435.724c-12.339,12.429-12.638,32.391-0.675,45.183    l21.625,21.625c12.668,12.644,33.182,12.644,45.85,0l65.056-65.051l0.086-0.057c8.545-8.602,18.854-15.25,30.217-19.483    c16.325-6.213,34.118-7.481,51.158-3.646c27.544,5.838,56.001,5.89,83.567,0.154c4.2-0.754,8.475-1.821,12.683-2.908    c0.293-0.051,0.583-0.118,0.869-0.2c0.204-0.051,0.415-0.036,0.614-0.101c0.371-0.048,0.738-0.119,1.1-0.212    c1.638-0.398,3.254-0.882,4.842-1.45c0.288-0.086,0.771-0.261,1.253-0.447c0.712-0.177,1.417-0.366,2.114-0.573l1.117-0.325    c0.733-0.198,1.434-0.5,2.082-0.895c4.404-1.407,9.233-3.005,13.959-4.926c4.108-1.575,8.15-3.325,12.383-5.167    c7.443-3.436,14.243-7.108,20.831-10.963c19.587,20.241,48.691,28.12,75.814,20.524c27.123-7.597,47.901-29.447,54.125-56.917    C516.348,322.418,507.016,293.746,485.816,275.202z M64.188,490.465c-6.003,5.983-15.714,5.983-21.717,0l-21.35-21.333    c-5.497-6.113-5.322-15.439,0.4-21.342l17.796-17.796l0.029-0.021l0.06-0.068l105.532-105.528    c11.783-11.784,30.889-11.785,42.673-0.002c11.784,11.783,11.785,30.889,0.002,42.673L64.188,490.465z M303.138,397.686    c-25.287,5.288-51.396,5.268-76.675-0.058c-14.813-3.289-30.156-3.387-45.009-0.288l18.225-18.224    c11.956-11.93,16.633-29.335,12.267-45.65c-4.366-16.316-17.11-29.059-33.426-33.424c-16.316-4.365-33.721,0.314-45.65,12.27    l-18.356,18.355c3.147-14.935,3.055-30.371-0.269-45.268c-5.409-25.328-5.412-51.512-0.009-76.842    c0.541-3.026,1.27-6.032,1.994-8.91l196.009,195.93C309.238,396.336,306.241,397.125,303.138,397.686z M352.346,381.682    c-3.8,1.65-7.608,3.304-11.65,4.858c-3.039,1.237-6.179,2.332-9.21,3.344l-0.606,0.198l-208.945-208.87    c1.136-3.267,2.218-6.509,3.594-9.885c1.55-3.846,3.1-7.525,4.983-11.462c12.228-26.865,29.244-51.28,50.217-72.05    c37.832-38.967,87.984-63.64,141.942-69.829c50.808-4.95,96.667,10.146,128.958,42.437    c49.271,49.264,56.855,130.642,20.083,204.849c-30.489-16.563-68.301-10.59-92.2,14.564s-27.931,63.222-9.83,92.824    C364.155,375.819,358.471,378.856,352.346,381.682z M458.08,388.018c-22.321,9.246-48.013,4.135-65.097-12.948    c-17.084-17.084-22.194-42.776-12.949-65.097s31.027-36.874,55.186-36.874c32.974,0.039,59.695,26.76,59.733,59.733    C494.954,356.992,480.401,378.773,458.08,388.018z" fill="#2c82adbd" data-original="#000000" style="" class=""/>
	</g>
</g>
<g xmlns="http://www.w3.org/2000/svg">
</g>
<g xmlns="http://www.w3.org/2000/svg">
</g>
<g xmlns="http://www.w3.org/2000/svg">
</g>
<g xmlns="http://www.w3.org/2000/svg">
</g>
<g xmlns="http://www.w3.org/2000/svg">
</g>
<g xmlns="http://www.w3.org/2000/svg">
</g>
<g xmlns="http://www.w3.org/2000/svg">
</g>
<g xmlns="http://www.w3.org/2000/svg">
</g>
<g xmlns="http://www.w3.org/2000/svg">
</g>
<g xmlns="http://www.w3.org/2000/svg">
</g>
<g xmlns="http://www.w3.org/2000/svg">
</g>
<g xmlns="http://www.w3.org/2000/svg">
</g>
<g xmlns="http://www.w3.org/2000/svg">
</g>
<g xmlns="http://www.w3.org/2000/svg">
</g>
<g xmlns="http://www.w3.org/2000/svg">
</g>
</g></svg>
