<?xml version="1.0"?>
<svg xmlns="http://www.w3.org/2000/svg" height="512px" viewBox="0 0 512 512" width="512px" class=""><g><path d="m256 512c-68.382812 0-132.667969-26.628906-181.019531-74.980469-48.351563-48.351562-74.980469-112.640625-74.980469-181.019531s26.628906-132.667969 74.980469-181.019531c48.351562-48.351563 112.636719-74.980469 181.019531-74.980469 68.378906 0 132.667969 26.628906 181.019531 74.980469 48.351563 48.351562 74.980469 112.640625 74.980469 181.019531s-26.628906 132.667969-74.980469 181.019531c-48.351562 48.351563-112.640625 74.980469-181.019531 74.980469zm0-482c-124.617188 0-226 101.382812-226 226s101.382812 226 226 226 226-101.382812 226-226-101.382812-226-226-226zm0 0" fill="#e6293f" data-original="#E6293F" class="" style="fill:#EFEDE6" data-old_color="#e6293f"/><path d="m199.765625 399.53125c-2.429687 0-4.859375-.585938-7.078125-1.773438-4.878906-2.609374-7.921875-7.691406-7.921875-13.226562v-257.0625c0-5.535156 3.042969-10.617188 7.921875-13.226562 4.878906-2.609376 10.792969-2.324219 15.398438.742187l192.800781 128.535156c4.171875 2.78125 6.679687 7.464844 6.679687 12.480469s-2.507812 9.699219-6.679687 12.480469l-192.800781 128.535156c-2.511719 1.671875-5.410157 2.515625-8.320313 2.515625zm15-244.035156v201.011718l150.757813-100.507812zm0 0" fill="#91e1ff" data-original="#91E1FF" class="active-path" style="fill:#EFEDE6" data-old_color="#91e1ff"/></g> </svg>
