<?xml version="1.0"?>
<svg xmlns="http://www.w3.org/2000/svg" id="Capa_1" enable-background="new 0 0 512 512" height="512px" viewBox="0 0 512 512" width="512px" class=""><g><g><path d="m271 361h-45v151h45 45v-151z" fill="#f2f2fc" data-original="#F2F2FC" class="" style="fill:#EFEDE6" data-old_color="#f2f2fc"/><path d="m271 361h45v151h-45z" fill="#e2d9fb" data-original="#E2D9FB" class="" style="fill:#D1E8E6" data-old_color="#e2d9fb"/><path d="m361 150h-90-120v241h120 120v-211z" fill="#fabe2c" data-original="#FABE2C" class="" style="fill:#53C9CC" data-old_color="#fabe2c"/><path d="m391 180-30-30h-90v241h120z" fill="#ff9100" data-original="#FF9100" class="" style="fill:#CE665C" data-old_color="#ff9100"/><path d="m316 0h-45-75c-41.422 0-75 33.578-75 75v165c0 16.569 13.431 30 30 30s30-13.431 30-30v-15c0-24.853 20.147-45 45-45s45 20.147 45 45v45c0 16.569 13.431 30 30 30s30-13.431 30-30v-75c0-8.284 6.716-15 15-15h45v-105c0-41.422-33.578-75-75-75z" fill="#444" data-original="#444" class="active-path" data-old_color="#444" style="fill:#383D44"/><path d="m301 300c16.569 0 30-13.431 30-30v-75c0-8.284 6.716-15 15-15h45v-105c0-41.422-33.578-75-75-75h-45v225 45c0 16.569 13.431 30 30 30z" fill="#292929" data-original="#292929" class="" style="fill:#191E23" data-old_color="#292929"/><path d="m181.002 120.002h29.997v29.997h-29.997z" fill="#fed843" transform="matrix(.707 -.707 .707 .707 -38.052 178.134)" data-original="#FED843" class="" data-old_color="#fed843" style="fill:#53C9CC"/><path d="m301.002 90.002h29.997v29.997h-29.997z" fill="#fabe2c" transform="matrix(.707 -.707 .707 .707 18.308 254.2)" data-original="#FABE2C" class="" style="fill:#53C9CC" data-old_color="#fabe2c"/><path d="m226.002 60.002h29.997v29.997h-29.997z" fill="#fed843" transform="matrix(.707 -.707 .707 .707 17.554 192.38)" data-original="#FED843" class="" data-old_color="#fed843" style="fill:#53C9CC"/></g></g> </svg>
