<?xml version="1.0"?>
<svg xmlns="http://www.w3.org/2000/svg" xmlns:xlink="http://www.w3.org/1999/xlink" version="1.1" id="Capa_1" x="0px" y="0px" viewBox="0 0 512 512" style="enable-background:new 0 0 512 512;" xml:space="preserve" width="512px" height="512px" class=""><g><path style="fill:#C0584E" d="M251.328,116.672l-64-64C184.32,49.664,180.256,48,176,48H32C14.336,48,0,62.336,0,80v48  c0,8.832,7.168,16,16,16h224c8.832,0,16-7.136,16.032-15.968C256.032,123.776,254.336,119.68,251.328,116.672z" data-original="#FFA000" class="active-path" data-old_color="#FFA000"/><path style="fill:#CE665C" d="M480,112H16c-8.832,0-16,7.168-16,16v304c0,17.664,14.336,32,32,32h448c17.664,0,32-14.336,32-32V144  C512,126.336,497.664,112,480,112z" data-original="#FFC107" class="" data-old_color="#FFC107"/><path style="fill:#EFEDE6" d="M178.976,144.288c-4.672-0.896-9.504,0.352-13.184,3.392c-3.68,3.04-5.792,7.552-5.792,12.32v150.4  c-10.112-4.256-21.024-6.432-32-6.4c-35.904,0-64,21.088-64,48s28.096,48,64,48s64-21.088,64-48V181.952  c17.76,5.664,30.4,21.472,32,40.064c0,8.832,7.168,16,16,16s16-7.168,16-16C256,171.968,205.6,149.28,178.976,144.288z" data-original="#FAFAFA" class="" data-old_color="#FAFAFA"/><path d="M480,464H32c-17.664,0-32-14.336-32-32V80c0-17.664,14.336-32,32-32h144c4.256,0,8.32,1.664,11.328,4.672L246.624,112H480  c17.664,0,32,14.336,32,32v288C512,449.664,497.664,464,480,464z M32,80v352h448V144H240c-4.256,0-8.32-1.664-11.328-4.672  L169.376,80H32z" data-original="#000000" class="" style="fill:#191E23" data-old_color="#000000"/><path d="M128,400c-35.872,0-64-21.088-64-48s28.128-48,64-48s64,21.088,64,48S163.872,400,128,400z M128,336c-19.52,0-32,9.6-32,16  s12.48,16,32,16s32-9.6,32-16S147.52,336,128,336z" data-original="#000000" class="" style="fill:#191E23" data-old_color="#000000"/><path d="M240,238.016c-8.832,0-16-7.168-16-16c0-36.416-50.432-46.208-50.944-46.304c-8.608-1.984-13.952-10.592-11.968-19.2  c1.888-8.096,9.632-13.408,17.856-12.224C205.6,149.28,256,171.936,256,222.016C256,230.848,248.832,238.016,240,238.016z" data-original="#000000" class="" style="fill:#191E23" data-old_color="#000000"/><path d="M176,368c-8.832,0-16-7.168-16-16V160c0-8.832,7.168-16,16-16s16,7.168,16,16v192C192,360.832,184.832,368,176,368z" data-original="#000000" class="" style="fill:#191E23" data-old_color="#000000"/></g> </svg>
