<?xml version="1.0"?>
<svg xmlns="http://www.w3.org/2000/svg" id="Flat" height="512px" viewBox="0 0 512 512" width="512px" class=""><g><rect fill="#dadcde" height="256" rx="16" width="464" x="24" y="112" data-original="#DADCDE" class="active-path" style="fill:#383D44" data-old_color="#dadcde"/><path d="m488 336v16a16 16 0 0 1 -16 16h-432a16 16 0 0 1 -16-16v-16z" fill="#c3c6c7" data-original="#C3C6C7" class="" style="fill:#71767E" data-old_color="#c3c6c7"/><g fill="#2978b8"><path d="m72 312a8 8 0 0 1 -8-8v-160a8 8 0 0 1 16 0v160a8 8 0 0 1 -8 8z" data-original="#2978B8" class="" style="fill:#53C9CC" data-old_color="#2978B8"/><path d="m136 312a8 8 0 0 1 -8-8v-160a8 8 0 0 1 16 0v160a8 8 0 0 1 -8 8z" data-original="#2978B8" class="" style="fill:#53C9CC" data-old_color="#2978B8"/><path d="m200 312a8 8 0 0 1 -8-8v-160a8 8 0 0 1 16 0v160a8 8 0 0 1 -8 8z" data-original="#2978B8" class="" style="fill:#53C9CC" data-old_color="#2978B8"/><path d="m264 312a8 8 0 0 1 -8-8v-160a8 8 0 0 1 16 0v160a8 8 0 0 1 -8 8z" data-original="#2978B8" class="" style="fill:#53C9CC" data-old_color="#2978B8"/><path d="m328 312a8 8 0 0 1 -8-8v-160a8 8 0 0 1 16 0v160a8 8 0 0 1 -8 8z" data-original="#2978B8" class="" style="fill:#53C9CC" data-old_color="#2978B8"/></g><path d="m56 256h32v32h-32z" fill="#3397e8" data-original="#3397E8" class="" style="fill:#2A6768" data-old_color="#3397e8"/><path d="m312 256h32v32h-32z" fill="#3397e8" data-original="#3397E8" class="" style="fill:#2A6768" data-old_color="#3397e8"/><path d="m392 312a8 8 0 0 1 -8-8v-160a8 8 0 0 1 16 0v160a8 8 0 0 1 -8 8z" fill="#2978b8" data-original="#2978B8" class="" style="fill:#53C9CC" data-old_color="#2978b8"/><path d="m376 256h32v32h-32z" fill="#3397e8" data-original="#3397E8" class="" style="fill:#2A6768" data-old_color="#3397e8"/><path d="m120 208h32v32h-32z" fill="#3397e8" data-original="#3397E8" class="" style="fill:#2A6768" data-old_color="#3397e8"/><path d="m248 208h32v32h-32z" fill="#3397e8" data-original="#3397E8" class="" style="fill:#2A6768" data-old_color="#3397e8"/><path d="m184 160h32v32h-32z" fill="#3397e8" data-original="#3397E8" class="" style="fill:#2A6768" data-old_color="#3397e8"/><path d="m40 368h48v32h-48z" fill="#9aa3a8" data-original="#9AA3A8" class="" style="fill:#383D44" data-old_color="#9aa3a8"/><path d="m424 368h48v32h-48z" fill="#9aa3a8" data-original="#9AA3A8" class="" style="fill:#383D44" data-old_color="#9aa3a8"/><path d="m456 312h-16a8 8 0 0 1 0-16h16a8 8 0 0 1 0 16z" fill="#2978b8" data-original="#2978B8" class="" style="fill:#53C9CC" data-old_color="#2978b8"/><path d="m456 280h-16a8 8 0 0 1 0-16h16a8 8 0 0 1 0 16z" fill="#2978b8" data-original="#2978B8" class="" style="fill:#53C9CC" data-old_color="#2978b8"/><path d="m456 248h-16a8 8 0 0 1 0-16h16a8 8 0 0 1 0 16z" fill="#2978b8" data-original="#2978B8" class="" style="fill:#53C9CC" data-old_color="#2978b8"/><path d="m456 216h-16a8 8 0 0 1 0-16h16a8 8 0 0 1 0 16z" fill="#2978b8" data-original="#2978B8" class="" style="fill:#53C9CC" data-old_color="#2978b8"/><circle cx="456" cy="176" fill="#f7b030" r="8" data-original="#F7B030" class="" style="fill:#CE665C" data-old_color="#f7b030"/><circle cx="456" cy="144" fill="#f7b030" r="8" data-original="#F7B030" class="" style="fill:#CE665C" data-old_color="#f7b030"/></g> </svg>
