<?xml version="1.0"?>
<svg xmlns="http://www.w3.org/2000/svg" height="512px" viewBox="0 0 512 512" width="512px" class=""><g><g><g><path d="m240 120h32v160h-32z" fill="#e0e0e2" data-original="#E0E0E2" class="" style="fill:#53C9CC" data-old_color="#e0e0e2"/><path d="m278.7 56.86-22.7 15.14-22.7-15.14 22.7-40.86z" fill="#ffda44" data-original="#FFDA44" class="active-path" style="fill:#CE665C" data-old_color="#ffda44"/><path d="m296 88-16 32h-48l-16-32 17.3-31.14 22.7 15.14 22.7-15.14z" fill="#2d2d30" data-original="#2D2D30" class="" style="fill:#343C45" data-old_color="#2d2d30"/><path d="m368 496-112-80-112 80 72-216h80z" fill="#2d2d30" data-original="#2D2D30" class="" style="fill:#343C45" data-old_color="#2d2d30"/><path d="m232 360h48v24h-48z" fill="#898890" data-original="#898890" class="" style="fill:#383D44" data-old_color="#898890"/><path d="m232 304h48v24h-48z" fill="#898890" data-original="#898890" class="" style="fill:#383D44" data-old_color="#898890"/><g fill="#2d2d30"><circle cx="304" cy="392" r="8" data-original="#2D2D30" class="" style="fill:#343C45" data-old_color="#2D2D30"/><circle cx="312" cy="416" r="8" data-original="#2D2D30" class="" style="fill:#343C45" data-old_color="#2D2D30"/></g></g><g><path d="m375.59 493.47-72-216a8 8 0 0 0 -7.59-5.47h-16v-144a8.011 8.011 0 0 0 7.16-4.42l13.78-27.58h3.06a8 8 0 0 0 0-16h-3.29l-9.32-16.76a8 8 0 0 0 -3.39-15.24h-5.07l-19.94-35.89a8 8 0 0 0 -13.98 0l-19.94 35.89h-5.07a8 8 0 0 0 -3.39 15.24l-9.32 16.76h-3.29a8 8 0 0 0 0 16h3.06l13.78 27.58a8.011 8.011 0 0 0 7.16 4.42v144h-16a8 8 0 0 0 -7.59 5.47l-72 216a8 8 0 0 0 12.24 9.04l107.35-76.68 107.35 76.68a8 8 0 0 0 12.24-9.04zm-119.59-461 12.12 21.83-12.12 8.08-12.12-8.08zm-30.96 55.73 11.04-19.87 15.48 10.33a8.026 8.026 0 0 0 8.88 0l15.48-10.33 11.04 19.87-11.9 23.8h-38.12zm22.96 151.8v-16h16v16zm16 16v16h-16v-16zm-16-48v-16h16v16zm0-32v-16h16v16zm0-32v-16h16v16zm12.65 265.49a8 8 0 0 0 -9.3 0l-91.98 65.7 62.4-187.19h68.46l62.4 187.19z" data-original="#000000" class="" style="fill:#191E23" data-old_color="#000000"/><path d="m280 352h-48a8 8 0 0 0 -8 8v24a8 8 0 0 0 8 8h48a8 8 0 0 0 8-8v-24a8 8 0 0 0 -8-8zm-8 24h-32v-8h32z" data-original="#000000" class="" style="fill:#191E23" data-old_color="#000000"/><path d="m280 296h-48a8 8 0 0 0 -8 8v24a8 8 0 0 0 8 8h48a8 8 0 0 0 8-8v-24a8 8 0 0 0 -8-8zm-8 24h-32v-8h32z" data-original="#000000" class="" style="fill:#191E23" data-old_color="#000000"/><circle cx="304" cy="392" r="8" data-original="#000000" class="" style="fill:#191E23" data-old_color="#000000"/><circle cx="312" cy="416" r="8" data-original="#000000" class="" style="fill:#191E23" data-old_color="#000000"/></g></g></g> </svg>
