<?xml version="1.0"?>
<svg xmlns="http://www.w3.org/2000/svg" id="Capa_1" enable-background="new 0 0 497 497" height="512" viewBox="0 0 497 497" width="512" class=""><g><g><path d="m140.704 314.402h45v60h-45z" fill="#a4bde0" transform="matrix(.707 .707 -.707 .707 291.331 -14.53)" data-original="#A4BDE0" class="" style="fill:#9AC1D0" data-old_color="#a4bde0"/><path d="m132.294 298.492h30v60h-30z" fill="#b0d0ff" transform="matrix(.707 .707 -.707 .707 275.421 -7.94)" data-original="#B0D0FF" class="" style="fill:#7FA5B3" data-old_color="#b0d0ff"/><path d="m80.766 479.296c.006.006 66.528-87.164 66.528-87.164l-21.213-42.426-112.901 134.114c17.574 17.574 46.066 17.574 63.64 0 1.437-1.437 2.744-2.953 3.946-4.524z" fill="#8d6ed1" data-original="#8D6ED1" class="" style="fill:#53C9CC" data-old_color="#8d6ed1"/><path d="m55.607 462.607c1.437-1.437 2.744-2.953 3.946-4.524.006.006 66.528-87.164 66.528-87.164v-21.213h-21.213l-87.169 66.523c-1.565 1.208-3.081 2.515-4.518 3.952-17.574 17.574-17.574 46.066 0 63.64 5.857 5.857 24.852-3.641 42.426-21.214z" fill="#a381e6" data-original="#A381E6" class="" style="fill:#53C9CC" data-old_color="#a381e6"/><circle cx="317" cy="180" fill="#a4bde0" r="180" data-original="#A4BDE0" class="" style="fill:#9AC1D0" data-old_color="#a4bde0"/><path d="m210.934 328.492-21.213-21.213-21.213 21.213 21.213 21.213c5.858 5.858 15.355 5.858 21.213 0 5.858-5.857 5.858-15.355 0-21.213z" fill="#b0d0ff" data-original="#B0D0FF" class="" style="fill:#7FA5B3" data-old_color="#b0d0ff"/><path d="m189.721 328.492c5.858-5.858 5.858-15.355 0-21.213l-21.213-21.213c-5.858-5.858-15.355-5.858-21.213 0s-5.858 15.355 0 21.213l21.213 21.213c5.858 5.858 15.355 5.858 21.213 0z" fill="#c4e3fa" data-original="#C4E3FA" class="active-path" style="fill:#383D44" data-old_color="#c4e3fa"/><path d="m168.508 370.919-21.213-21.213-21.213 21.213 21.213 21.213c5.858 5.858 15.355 5.858 21.213 0s5.858-15.355 0-21.213z" fill="#b0d0ff" data-original="#B0D0FF" class="" style="fill:#7FA5B3" data-old_color="#b0d0ff"/><path d="m147.294 370.919c5.858-5.858 5.858-15.355 0-21.213l-21.213-21.213c-5.858-5.858-15.355-5.858-21.213 0s-5.858 15.355 0 21.213l21.213 21.213c5.858 5.858 15.356 5.858 21.213 0z" fill="#c4e3fa" data-original="#C4E3FA" class="active-path" style="fill:#383D44" data-old_color="#c4e3fa"/><path d="m423.066 73.934-212.132 212.132c58.579 58.579 153.554 58.579 212.132 0 58.579-58.579 58.579-153.553 0-212.132z" fill="#e3f5ff" data-original="#E3F5FF" class="" style="fill:#232828" data-old_color="#e3f5ff"/><path d="m401.853 264.853c58.579-58.579 68.076-144.056 21.213-190.919-58.579-58.579-153.553-58.579-212.132 0s-58.579 153.553 0 212.132c46.863 46.863 132.34 37.365 190.919-21.213z" fill="#fff" data-original="#FFF" class="" style="fill:#1b1f1f" data-old_color="#fff"/></g></g> </svg>
