<svg id="Layer_1" data-name="Layer 1" xmlns="http://www.w3.org/2000/svg" viewBox="0 0 500 500"><defs><style>.cls-1{fill:#181c1d;}.cls-2{fill:#bed8fb;}.cls-3{fill:#a6aec4;}.cls-4{fill:#a3caf7;}.cls-5{fill:#eceaec;}.cls-6{fill:#454d58;}.cls-7{fill:#3c434c;}.cls-8{fill:#dad8db;}.cls-9{fill:#959db0;}</style></defs><rect class="cls-1" width="500" height="500"/><path class="cls-2" d="M264.23,348.9,250,339l-14.23,9.91v56.57L250,412l14.23-6.53V348.9Z"/><path class="cls-3" d="M181.13,423.39H318.87c4.35,0,10.33-5.69,10.33-12.22a12.22,12.22,0,0,0-10.33-5.7H181.13a12.22,12.22,0,0,0-10.33,5.7c0,6.53,6,12.22,10.33,12.22Z"/><path class="cls-4" d="M250,323.71l-14.23,5.6V348.9a109.33,109.33,0,0,0,28.46,0V329.31Z"/><path class="cls-5" d="M140.7,207.87c0,60.27,37.87,115.84,109.3,115.84,73.06,0,109.3-55.57,109.3-115.84V167.61a10.88,10.88,0,1,0-21.76,0v29.82h-31.4a5.44,5.44,0,0,0,0,10.88h31.4v12.62a87.54,87.54,0,0,1-175.08,0V208.31h31.4a5.44,5.44,0,0,0,0-10.88h-31.4V167.61a10.88,10.88,0,1,0-21.76,0v40.26Z"/><path class="cls-6" d="M187.33,203.56c0,34.61,19,69.2,62.67,69.2,45.3,0,62.67-34.59,62.67-69.2v-9.34l-6.53-5.44,6.53-5.44V166l-6.53-5.44,6.53-5.44V137.84l-6.53-5.1L312.4,127a62.67,62.67,0,0,0-124.8,0l6.26,5.78-6.53,5.1v17.31l6.53,5.44L187.33,166v17.31l6.53,5.44-6.53,5.44Z"/><path class="cls-7" d="M250,266.23a62.67,62.67,0,0,1-62.67-62.67v8l.71,5-.44,5.85a62.67,62.67,0,0,0,124.8,0l-.61-4.41.88-6.48v-8A62.67,62.67,0,0,1,250,266.23Z"/><path class="cls-7" d="M214.49,132.4a5.43,5.43,0,0,1-5.44,5.44H187.33v-5.09q0-2.92.27-5.79h21.45A5.44,5.44,0,0,1,214.49,132.4Z"/><path class="cls-7" d="M214.49,160.59a5.44,5.44,0,0,1-5.44,5.44H187.33V155.15h21.72A5.43,5.43,0,0,1,214.49,160.59Z"/><path class="cls-7" d="M214.49,188.78a5.44,5.44,0,0,1-5.44,5.44H187.33V183.34h21.72a5.43,5.43,0,0,1,5.44,5.44Z"/><path class="cls-7" d="M209.05,211.52h-21.2v6.59l2.37,4.29h18.83a5.44,5.44,0,0,0,0-10.88Z"/><path class="cls-7" d="M187.85,211.52h-.52v5.1c0,1.95.11,3.88.28,5.79h2.61a63.36,63.36,0,0,1-2.37-10.89Z"/><path class="cls-7" d="M312.67,132.75v5.09H291A5.44,5.44,0,1,1,291,127H312.4q.27,2.87.27,5.79Z"/><path class="cls-7" d="M312.67,155.15V166H291a5.44,5.44,0,0,1,0-10.88Z"/><path class="cls-7" d="M312.67,183.34v10.88H291a5.44,5.44,0,0,1,0-10.88Z"/><path class="cls-7" d="M312.15,211.52H291a5.44,5.44,0,0,0,0,10.88h18.83l2.08-3.49.29-7.39Z"/><path class="cls-7" d="M312.15,211.52a63.36,63.36,0,0,1-2.37,10.89h2.61c.18-1.91.28-3.84.28-5.79v-5.1Z"/><path class="cls-8" d="M250,317.18a109.42,109.42,0,0,1-109.3-109.3v13.05a109.3,109.3,0,1,0,218.6,0V207.88A109.42,109.42,0,0,1,250,317.18Z"/><path class="cls-9" d="M318.87,416.86H181.13a12.21,12.21,0,0,1-10.33-5.69,12.21,12.21,0,0,0,10.33,18.75H318.87a12.21,12.21,0,0,0,10.33-18.75,12.21,12.21,0,0,1-10.33,5.69Z"/></svg>