<?xml version="1.0"?>
<svg xmlns="http://www.w3.org/2000/svg" xmlns:xlink="http://www.w3.org/1999/xlink" xmlns:svgjs="http://svgjs.com/svgjs" version="1.1" width="512" height="512" x="0" y="0" viewBox="0 0 512 512" style="enable-background:new 0 0 512 512" xml:space="preserve" class=""><g><g xmlns="http://www.w3.org/2000/svg"><path d="m304 427.25v36.75c0 26.51-21.49 48-48 48-13.26 0-25.26-5.37-33.94-14.06-8.69-8.68-14.06-20.68-14.06-33.94v-36.75z" fill="#e56a5e" data-original="#ffd150" style="" class=""/><path d="m304 427.25v36.75c0 26.51-21.49 48-48 48v-84.75z" fill="#ce665c" data-original="#ffb14a" style="" class=""/><path d="m288 32v59.21h-64v-59.21c0-17.67 14.33-32 32-32 17.06-.081 31.847 14.017 32 32z" fill="#f1756a" data-original="#ffea71" style="" class=""/><path d="m288 32v59.21h-32v-91.21c17.06-.081 31.847 14.017 32 32z" fill="#e56a5e" data-original="#ffd150" style="" class=""/><path d="m480 384-221.97 19.73-2.03-.18-224-19.55c35.35 0 64-28.65 64-64v-75.69c0-44.19 17.91-84.19 46.86-113.14 28.96-28.95 68.96-46.86 113.14-46.86 88.37 0 160 71.63 160 160v75.69c0 35.35 28.65 64 64 64z" fill="#e56a5e" data-original="#ffd150" style="" class=""/><path d="m480 384-221.97 19.73-2.03-.18v-319.24c88.37 0 160 71.63 160 160v75.69c0 35.35 28.65 64 64 64z" fill="#ce665c" data-original="#ffb14a" style="" class=""/><path d="m32 384h448v64h-448z" fill="#f1756a" data-original="#ffea71" style="" class=""/><path d="m256 384h224v64h-224z" fill="#e56a5e" data-original="#ffd150" style="" class=""/><path d="m460.28 131.06c0 27.88-5.59 55.76-16.77 81.92-75.55-1.3-106.6-22.9-150.42-61.44h-74.18c-21.91 19.27-40.63 34.3-63.31 44.68s-49.34 16.11-87.11 16.76c-11.18-26.16-16.77-54.04-16.77-81.92s5.59-55.76 16.77-81.93c87.02 1.85 112.16 30.12 150.42 61.44h74.18c38.26-31.32 63.4-59.59 150.42-61.44 11.18 26.17 16.77 54.05 16.77 81.93z" fill="#53c9cc" data-original="#fc70a2" style="" class=""/><path d="m460.28 131.06c0 27.88-5.59 55.76-16.77 81.92-75.55-1.3-106.6-22.9-150.42-61.44h-37.09v-40.97h37.09c38.26-31.32 63.4-59.59 150.42-61.44 11.18 26.17 16.77 54.05 16.77 81.93z" fill="#4dbec1" data-original="#f24986" style="" class=""/><path d="m115.54 116.06h280.92v30h-280.92z" fill="#4dbec1" data-original="#f24986" style="" class=""/><path d="m256 116.06h140.46v30h-140.46z" fill="#53c9cc" data-original="#e53c81" style="" class=""/><path d="m338.2 107.54c0 25.85-21.97 56.23-82.2 93.94-60.23-37.71-82.2-68.09-82.2-93.94 0-25.91 21-46.91 46.91-46.91 14.07 0 26.69 6.21 35.29 16.03 8.6-9.82 21.22-16.03 35.29-16.03 25.91 0 46.91 21 46.91 46.91z" fill="#6adadd" data-original="#ffa0b6" style="" class=""/><path d="m338.2 107.54c0 25.85-21.97 56.23-82.2 93.94v-124.82c8.6-9.82 21.22-16.03 35.29-16.03 25.91 0 46.91 21 46.91 46.91z" fill="#53c9cc" data-original="#fc70a2" style="" class=""/></g></g></svg>
