<?xml version="1.0" encoding="utf-8"?>
<!-- Generator: Adobe Illustrator 24.1.1, SVG Export Plug-In . SVG Version: 6.00 Build 0)  -->
<svg version="1.1" id="Capa_1" xmlns="http://www.w3.org/2000/svg" xmlns:xlink="http://www.w3.org/1999/xlink" x="0px" y="0px"
	 viewBox="0 0 512 512" style="enable-background:new 0 0 512 512;" xml:space="preserve">
<style type="text/css">
	.st0{fill:#9AC1D0;}
	.st1{fill:#CE665C;}
	.st2{fill:#7AA376;}
	.st3{fill:#53C9CC;}
	.st4{fill:#E3E9ED;}
</style>
<g transform="matrix(0.913517 0 0 0.913517 12.0819 21.2171)">
	<g>
		<path class="st0" d="M103.5,492.4h-89c-6.1,0-11.1-5-11.1-11.1c0-6.1,5-11.1,11.1-11.1h89c6.1,0,11.1,5,11.1,11.1
			C114.7,487.4,109.7,492.4,103.5,492.4z"/>
		<path class="st0" d="M103.5,425.6h-89c-6.1,0-11.1-5-11.1-11.1c0-6.1,5-11.1,11.1-11.1h89c6.1,0,11.1,5,11.1,11.1
			C114.7,420.6,109.7,425.6,103.5,425.6z"/>
		<path class="st0" d="M103.5,358.8h-89c-6.1,0-11.1-5-11.1-11.1c0-6.1,5-11.1,11.1-11.1h89c6.1,0,11.1,5,11.1,11.1
			C114.7,353.9,109.7,358.8,103.5,358.8z"/>
		<path class="st0" d="M103.5,292.1h-89c-6.1,0-11.1-5-11.1-11.1c0-6.1,5-11.1,11.1-11.1h89c6.1,0,11.1,5,11.1,11.1
			C114.7,287.1,109.7,292.1,103.5,292.1z"/>
		<path class="st0" d="M103.5,225.3h-89c-6.1,0-11.1-5-11.1-11.1s5-11.1,11.1-11.1h89c6.1,0,11.1,5,11.1,11.1
			S109.7,225.3,103.5,225.3z"/>
	</g>
	<g>
		<path class="st1" d="M237.1,492.4h-89c-6.1,0-11.1-5-11.1-11.1c0-6.1,5-11.1,11.1-11.1h89c6.1,0,11.1,5,11.1,11.1
			C248.2,487.4,243.2,492.4,237.1,492.4z"/>
		<path class="st1" d="M237.1,425.6h-89c-6.1,0-11.1-5-11.1-11.1c0-6.1,5-11.1,11.1-11.1h89c6.1,0,11.1,5,11.1,11.1
			C248.2,420.6,243.2,425.6,237.1,425.6z"/>
		<path class="st1" d="M237.1,358.8h-89c-6.1,0-11.1-5-11.1-11.1c0-6.1,5-11.1,11.1-11.1h89c6.1,0,11.1,5,11.1,11.1
			C248.2,353.9,243.2,358.8,237.1,358.8z"/>
		<path class="st1" d="M237.1,292.1h-89c-6.1,0-11.1-5-11.1-11.1c0-6.1,5-11.1,11.1-11.1h89c6.1,0,11.1,5,11.1,11.1
			C248.2,287.1,243.2,292.1,237.1,292.1z"/>
		<path class="st1" d="M237.1,225.3h-89c-6.1,0-11.1-5-11.1-11.1s5-11.1,11.1-11.1h89c6.1,0,11.1,5,11.1,11.1
			S243.2,225.3,237.1,225.3z"/>
		<path class="st1" d="M237.1,158.5h-89c-6.1,0-11.1-5-11.1-11.1s5-11.1,11.1-11.1h89c6.1,0,11.1,5,11.1,11.1
			S243.2,158.5,237.1,158.5z"/>
		<path class="st1" d="M237.1,91.7h-89c-6.1,0-11.1-5-11.1-11.1s5-11.1,11.1-11.1h89c6.1,0,11.1,5,11.1,11.1S243.2,91.7,237.1,91.7z
			"/>
		<path class="st1" d="M237.1,24.9h-89c-6.1,0-11.1-5-11.1-11.1s5-11.1,11.1-11.1h89c6.1,0,11.1,5,11.1,11.1S243.2,24.9,237.1,24.9z
			"/>
	</g>
	<g>
		<path class="st2" d="M370.7,492.4h-89c-6.1,0-11.1-5-11.1-11.1c0-6.1,5-11.1,11.1-11.1h89c6.1,0,11.1,5,11.1,11.1
			C381.8,487.4,376.8,492.4,370.7,492.4z"/>
		<path class="st2" d="M370.7,425.6h-89c-6.1,0-11.1-5-11.1-11.1c0-6.1,5-11.1,11.1-11.1h89c6.1,0,11.1,5,11.1,11.1
			C381.8,420.6,376.8,425.6,370.7,425.6z"/>
		<path class="st2" d="M370.7,358.8h-89c-6.1,0-11.1-5-11.1-11.1c0-6.1,5-11.1,11.1-11.1h89c6.1,0,11.1,5,11.1,11.1
			C381.8,353.9,376.8,358.8,370.7,358.8z"/>
	</g>
	<g>
		<path class="st3" d="M504.2,492.4h-89c-6.1,0-11.1-5-11.1-11.1c0-6.1,5-11.1,11.1-11.1h89c6.1,0,11.1,5,11.1,11.1
			C515.3,487.4,510.4,492.4,504.2,492.4z"/>
		<path class="st3" d="M504.2,425.6h-89c-6.1,0-11.1-5-11.1-11.1c0-6.1,5-11.1,11.1-11.1h89c6.1,0,11.1,5,11.1,11.1
			C515.3,420.6,510.4,425.6,504.2,425.6z"/>
		<path class="st3" d="M504.2,358.8h-89c-6.1,0-11.1-5-11.1-11.1c0-6.1,5-11.1,11.1-11.1h89c6.1,0,11.1,5,11.1,11.1
			C515.3,353.9,510.4,358.8,504.2,358.8z"/>
		<path class="st3" d="M504.2,292.1h-89c-6.1,0-11.1-5-11.1-11.1c0-6.1,5-11.1,11.1-11.1h89c6.1,0,11.1,5,11.1,11.1
			C515.3,287.1,510.4,292.1,504.2,292.1z"/>
		<path class="st3" d="M504.2,225.3h-89c-6.1,0-11.1-5-11.1-11.1s5-11.1,11.1-11.1h89c6.1,0,11.1,5,11.1,11.1
			S510.4,225.3,504.2,225.3z"/>
		<path class="st3" d="M504.2,158.5h-89c-6.1,0-11.1-5-11.1-11.1s5-11.1,11.1-11.1h89c6.1,0,11.1,5,11.1,11.1
			S510.4,158.5,504.2,158.5z"/>
	</g>
	<path class="st4" d="M103.5,425.6h-89c-6.1,0-11.1-5-11.1-11.1c0-6.1,5-11.1,11.1-11.1h89c6.1,0,11.1,5,11.1,11.1
		C114.7,420.6,109.7,425.6,103.5,425.6z"/>
	<path class="st4" d="M103.5,292.1h-89c-6.1,0-11.1-5-11.1-11.1c0-6.1,5-11.1,11.1-11.1h89c6.1,0,11.1,5,11.1,11.1
		C114.7,287.1,109.7,292.1,103.5,292.1z"/>
	<path class="st4" d="M237.1,225.3h-89c-6.1,0-11.1-5-11.1-11.1s5-11.1,11.1-11.1h89c6.1,0,11.1,5,11.1,11.1
		S243.2,225.3,237.1,225.3z"/>
	<path class="st4" d="M237.1,91.7h-89c-6.1,0-11.1-5-11.1-11.1s5-11.1,11.1-11.1h89c6.1,0,11.1,5,11.1,11.1S243.2,91.7,237.1,91.7z"
		/>
	<path class="st4" d="M370.7,425.6h-89c-6.1,0-11.1-5-11.1-11.1c0-6.1,5-11.1,11.1-11.1h89c6.1,0,11.1,5,11.1,11.1
		C381.8,420.6,376.8,425.6,370.7,425.6z"/>
	<path class="st4" d="M504.2,358.8h-89c-6.1,0-11.1-5-11.1-11.1c0-6.1,5-11.1,11.1-11.1h89c6.1,0,11.1,5,11.1,11.1
		C515.3,353.9,510.4,358.8,504.2,358.8z"/>
	<path class="st4" d="M504.2,225.3h-89c-6.1,0-11.1-5-11.1-11.1s5-11.1,11.1-11.1h89c6.1,0,11.1,5,11.1,11.1
		S510.4,225.3,504.2,225.3z"/>
	<path class="st4" d="M237.1,358.8h-89c-6.1,0-11.1-5-11.1-11.1c0-6.1,5-11.1,11.1-11.1h89c6.1,0,11.1,5,11.1,11.1
		C248.2,353.9,243.2,358.8,237.1,358.8z"/>
</g>
</svg>
