<?xml version="1.0"?>
<svg xmlns="http://www.w3.org/2000/svg" xmlns:xlink="http://www.w3.org/1999/xlink" version="1.1" id="Capa_1" x="0px" y="0px" viewBox="0 0 490.667 490.667" style="enable-background:new 0 0 490.667 490.667;" xml:space="preserve" width="512px" height="512px" class=""><g transform="matrix(0.913517 0 0 0.913517 12.0819 21.2171)"><g>
	
	<filter id="displacementFilter">
			<feTurbulence type="turbulence" 
			baseFrequency="0.004" numOctaves=
			"2" result="turbulence" />
            
            <feDisplacementMap in2="turbulence" in="
            SourceGraphic" scale="60" xChannelSelector="R" 
            yChannelSelector="G" result="disp" />

            <feGaussianBlur in="SourceGraphic" 
                stdDeviation="1" result="blr" />
            

            <feComposite in="blr" in2="disp" operator="in" result="comp" />
            
             

</filter>
	<path style="fill:#9ac1d0;" d="M96,480H10.667C4.779,480,0,475.221,0,469.333s4.779-10.667,10.667-10.667H96   c5.888,0,10.667,4.779,10.667,10.667S101.888,480,96,480z" data-original="#9ac1d0" class=""/>
	<path style="fill:#9ac1d0;" d="M96,416H10.667C4.779,416,0,411.221,0,405.333s4.779-10.667,10.667-10.667H96   c5.888,0,10.667,4.779,10.667,10.667S101.888,416,96,416z" data-original="#9ac1d0" class=""/>
	<path style="fill:#9ac1d0;" d="M96,352H10.667C4.779,352,0,347.221,0,341.333s4.779-10.667,10.667-10.667H96   c5.888,0,10.667,4.779,10.667,10.667S101.888,352,96,352z" data-original="#9ac1d0" class=""/>
	<path style="fill:#9ac1d0;" d="M96,288H10.667C4.779,288,0,283.221,0,277.333s4.779-10.667,10.667-10.667H96   c5.888,0,10.667,4.779,10.667,10.667S101.888,288,96,288z" data-original="#9ac1d0" class=""/>
	<path style="fill:#9ac1d0;" d="M96,224H10.667C4.779,224,0,219.221,0,213.333s4.779-10.667,10.667-10.667H96   c5.888,0,10.667,4.779,10.667,10.667S101.888,224,96,224z" data-original="#9ac1d0" class=""/>
</g><g>
	<path style="fill:#CE665C;" d="M224,480h-85.333c-5.888,0-10.667-4.779-10.667-10.667s4.779-10.667,10.667-10.667H224   c5.888,0,10.667,4.779,10.667,10.667S229.888,480,224,480z" data-original="#CE665C" class=""/>
	<path style="fill:#CE665C;" d="M224,416h-85.333c-5.888,0-10.667-4.779-10.667-10.667s4.779-10.667,10.667-10.667H224   c5.888,0,10.667,4.779,10.667,10.667S229.888,416,224,416z" data-original="#CE665C" class=""/>
	<path style="fill:#CE665C;" d="M224,352h-85.333c-5.888,0-10.667-4.779-10.667-10.667s4.779-10.667,10.667-10.667H224   c5.888,0,10.667,4.779,10.667,10.667S229.888,352,224,352z" data-original="#CE665C" class=""/>
	<path style="fill:#CE665C;" d="M224,288h-85.333c-5.888,0-10.667-4.779-10.667-10.667s4.779-10.667,10.667-10.667H224   c5.888,0,10.667,4.779,10.667,10.667S229.888,288,224,288z" data-original="#CE665C" class=""/>
	<path style="fill:#CE665C;" d="M224,224h-85.333c-5.888,0-10.667-4.779-10.667-10.667s4.779-10.667,10.667-10.667H224   c5.888,0,10.667,4.779,10.667,10.667S229.888,224,224,224z" data-original="#CE665C" class=""/>
	<path style="fill:#CE665C;" d="M224,160h-85.333c-5.888,0-10.667-4.779-10.667-10.667s4.779-10.667,10.667-10.667H224   c5.888,0,10.667,4.779,10.667,10.667S229.888,160,224,160z" data-original="#CE665C" class=""/>
	<path style="fill:#CE665C;" d="M224,96h-85.333C132.779,96,128,91.221,128,85.333s4.779-10.667,10.667-10.667H224   c5.888,0,10.667,4.779,10.667,10.667S229.888,96,224,96z" data-original="#CE665C" class=""/>
	<path style="fill:#CE665C;" d="M224,32h-85.333C132.779,32,128,27.221,128,21.333s4.779-10.667,10.667-10.667H224   c5.888,0,10.667,4.779,10.667,10.667S229.888,32,224,32z" data-original="#CE665C" class=""/>
</g><g>
	<path style="fill:#7aa376;" d="M352,480h-85.333c-5.888,0-10.667-4.779-10.667-10.667s4.779-10.667,10.667-10.667H352   c5.888,0,10.667,4.779,10.667,10.667S357.888,480,352,480z" data-original="#7aa376" class=""/>
	<path style="fill:#7aa376;" d="M352,416h-85.333c-5.888,0-10.667-4.779-10.667-10.667s4.779-10.667,10.667-10.667H352   c5.888,0,10.667,4.779,10.667,10.667S357.888,416,352,416z" data-original="#7aa376" class=""/>
	<path style="fill:#7aa376;" d="M352,352h-85.333c-5.888,0-10.667-4.779-10.667-10.667s4.779-10.667,10.667-10.667H352   c5.888,0,10.667,4.779,10.667,10.667S357.888,352,352,352z" data-original="#7aa376" class=""/>
</g><g>
	<path style="fill:#53C9CC;" d="M480,480h-85.333c-5.888,0-10.667-4.779-10.667-10.667s4.779-10.667,10.667-10.667H480   c5.888,0,10.667,4.779,10.667,10.667S485.888,480,480,480z" data-original="#53C9CC" class=""/>
	<path style="fill:#53C9CC;" d="M480,416h-85.333c-5.888,0-10.667-4.779-10.667-10.667s4.779-10.667,10.667-10.667H480   c5.888,0,10.667,4.779,10.667,10.667S485.888,416,480,416z" data-original="#53C9CC" class=""/>
	<path style="fill:#53C9CC;" d="M480,352h-85.333c-5.888,0-10.667-4.779-10.667-10.667s4.779-10.667,10.667-10.667H480   c5.888,0,10.667,4.779,10.667,10.667S485.888,352,480,352z" data-original="#53C9CC" class=""/>
	<path style="fill:#53C9CC;" d="M480,288h-85.333c-5.888,0-10.667-4.779-10.667-10.667s4.779-10.667,10.667-10.667H480   c5.888,0,10.667,4.779,10.667,10.667S485.888,288,480,288z" data-original="#53C9CC" class=""/>
	<path style="fill:#53C9CC;" d="M480,224h-85.333c-5.888,0-10.667-4.779-10.667-10.667s4.779-10.667,10.667-10.667H480   c5.888,0,10.667,4.779,10.667,10.667S485.888,224,480,224z" data-original="#53C9CC" class=""/>
	<path style="fill:#53C9CC;" d="M480,160h-85.333c-5.888,0-10.667-4.779-10.667-10.667s4.779-10.667,10.667-10.667H480   c5.888,0,10.667,4.779,10.667,10.667S485.888,160,480,160z" data-original="#53C9CC" class=""/>
</g><path filter="url(#displacementFilter)" d="M96,480H10.667C4.779,480,0,475.221,0,469.333s4.779-10.667,10.667-10.667H96c5.888,0,10.667,4.779,10.667,10.667  S101.888,480,96,480z" data-original="#000000" class="active-path" style="fill:#E3E9ED" data-old_color="#000000"/><path d="M96,416H10.667C4.779,416,0,411.221,0,405.333s4.779-10.667,10.667-10.667H96c5.888,0,10.667,4.779,10.667,10.667  S101.888,416,96,416z" data-original="#000000" class="active-path" style="fill:#E3E9ED" data-old_color="#000000"/><path d="M96,352H10.667C4.779,352,0,347.221,0,341.333s4.779-10.667,10.667-10.667H96c5.888,0,10.667,4.779,10.667,10.667  S101.888,352,96,352z" data-original="#000000" class="active-path" style="fill:#E3E9ED" data-old_color="#000000"/><path filter="url(#displacementFilter)" d="M96,288H10.667C4.779,288,0,283.221,0,277.333s4.779-10.667,10.667-10.667H96c5.888,0,10.667,4.779,10.667,10.667  S101.888,288,96,288z" data-original="#000000" class="active-path" style="fill:#E3E9ED" data-old_color="#000000"/><path d="M96,224H10.667C4.779,224,0,219.221,0,213.333s4.779-10.667,10.667-10.667H96c5.888,0,10.667,4.779,10.667,10.667  S101.888,224,96,224z" data-original="#000000" class="active-path" style="fill:#E3E9ED" data-old_color="#000000"/><path d="M224,480h-85.333c-5.888,0-10.667-4.779-10.667-10.667s4.779-10.667,10.667-10.667H224c5.888,0,10.667,4.779,10.667,10.667  S229.888,480,224,480z" data-original="#000000" class="active-path" style="fill:#E3E9ED" data-old_color="#000000"/><path d="M224,416h-85.333c-5.888,0-10.667-4.779-10.667-10.667s4.779-10.667,10.667-10.667H224c5.888,0,10.667,4.779,10.667,10.667  S229.888,416,224,416z" data-original="#000000" class="active-path" style="fill:#E3E9ED" data-old_color="#000000"/><path d="M224,352h-85.333c-5.888,0-10.667-4.779-10.667-10.667s4.779-10.667,10.667-10.667H224c5.888,0,10.667,4.779,10.667,10.667  S229.888,352,224,352z" data-original="#000000" class="active-path" style="fill:#E3E9ED" data-old_color="#000000"/><path d="M224,288h-85.333c-5.888,0-10.667-4.779-10.667-10.667s4.779-10.667,10.667-10.667H224c5.888,0,10.667,4.779,10.667,10.667  S229.888,288,224,288z" data-original="#000000" class="active-path" style="fill:#E3E9ED" data-old_color="#000000"/><path d="M224,224h-85.333c-5.888,0-10.667-4.779-10.667-10.667s4.779-10.667,10.667-10.667H224c5.888,0,10.667,4.779,10.667,10.667  S229.888,224,224,224z" data-original="#000000" class="active-path" style="fill:#E3E9ED" data-old_color="#000000"/><path d="M224,160h-85.333c-5.888,0-10.667-4.779-10.667-10.667s4.779-10.667,10.667-10.667H224c5.888,0,10.667,4.779,10.667,10.667  S229.888,160,224,160z" data-original="#000000" class="active-path" style="fill:#E3E9ED" data-old_color="#000000"/><path d="M224,96h-85.333C132.779,96,128,91.221,128,85.333s4.779-10.667,10.667-10.667H224c5.888,0,10.667,4.779,10.667,10.667  S229.888,96,224,96z" data-original="#000000" filter="url(#displacementFilter)" class="active-path" style="fill:#E3E9ED" data-old_color="#000000"/><path d="M224,32h-85.333C132.779,32,128,27.221,128,21.333s4.779-10.667,10.667-10.667H224c5.888,0,10.667,4.779,10.667,10.667  S229.888,32,224,32z" data-original="#000000" class="active-path" style="fill:#E3E9ED" data-old_color="#000000"/><path d="M352,480h-85.333c-5.888,0-10.667-4.779-10.667-10.667s4.779-10.667,10.667-10.667H352c5.888,0,10.667,4.779,10.667,10.667  S357.888,480,352,480z" data-original="#000000" class="active-path" style="fill:#E3E9ED" data-old_color="#000000"/><path filter="url(#displacementFilter)" d="M352,416h-85.333c-5.888,0-10.667-4.779-10.667-10.667s4.779-10.667,10.667-10.667H352c5.888,0,10.667,4.779,10.667,10.667  S357.888,416,352,416z" data-original="#000000" class="active-path" style="fill:#E3E9ED" data-old_color="#000000"/><path  d="M352,352h-85.333c-5.888,0-10.667-4.779-10.667-10.667s4.779-10.667,10.667-10.667H352c5.888,0,10.667,4.779,10.667,10.667  S357.888,352,352,352z" data-original="#000000" class="active-path"  style="fill:#E3E9ED" data-old_color="#000000"/><path d="M480,480h-85.333c-5.888,0-10.667-4.779-10.667-10.667s4.779-10.667,10.667-10.667H480c5.888,0,10.667,4.779,10.667,10.667  S485.888,480,480,480z" data-original="#000000" class="active-path" style="fill:#E3E9ED" data-old_color="#000000"/><path d="M480,416h-85.333c-5.888,0-10.667-4.779-10.667-10.667s4.779-10.667,10.667-10.667H480c5.888,0,10.667,4.779,10.667,10.667  S485.888,416,480,416z" data-original="#000000" class="active-path" style="fill:#E3E9ED" data-old_color="#000000"/><path filter="url(#displacementFilter)" d="M480,352h-85.333c-5.888,0-10.667-4.779-10.667-10.667s4.779-10.667,10.667-10.667H480c5.888,0,10.667,4.779,10.667,10.667  S485.888,352,480,352z" data-original="#000000" class="active-path" style="fill:#E3E9ED" data-old_color="#000000"/><path d="M480,288h-85.333c-5.888,0-10.667-4.779-10.667-10.667s4.779-10.667,10.667-10.667H480c5.888,0,10.667,4.779,10.667,10.667  S485.888,288,480,288z" data-original="#000000" class="active-path" style="fill:#E3E9ED" data-old_color="#000000"/><path d="M480,224h-85.333c-5.888,0-10.667-4.779-10.667-10.667s4.779-10.667,10.667-10.667H480c5.888,0,10.667,4.779,10.667,10.667  S485.888,224,480,224z" data-original="#000000" class="active-path" style="fill:#E3E9ED" filter="url(#displacementFilter)" data-old_color="#000000"/><path d="M480,160h-85.333c-5.888,0-10.667-4.779-10.667-10.667s4.779-10.667,10.667-10.667H480c5.888,0,10.667,4.779,10.667,10.667  S485.888,160,480,160z" data-original="#000000" class="active-path" style="fill:#E3E9ED" data-old_color="#000000"/></g> </svg>
