<?xml version="1.0"?>
<svg xmlns="http://www.w3.org/2000/svg" xmlns:xlink="http://www.w3.org/1999/xlink" xmlns:svgjs="http://svgjs.com/svgjs" version="1.1" width="512" height="512" x="0" y="0" viewBox="0 0 511.982 511.982" style="enable-background:new 0 0 512 512" xml:space="preserve" class=""><g>
<g xmlns="http://www.w3.org/2000/svg">
	<g>
		<g>
			<path d="M71.804,146.275h385.339v-3.196c-0.012-13.378-10.854-24.22-24.232-24.232H241.643     c-15.773,0.055-30.444-8.082-38.75-21.491L178.67,58.597c-4.979-8.046-13.78-12.928-23.241-12.893H16.732     C7.496,45.716,0.013,53.2,0,62.436v268.61l25.839-146.851C29.878,162.046,49.291,146.031,71.804,146.275z" fill="#efede6" data-original="#000000" style="" class=""/>
			<path d="M505.625,174.686c-5.497-6.474-13.579-10.181-22.071-10.125H71.804c-13.623-0.229-25.427,9.396-27.946,22.785     L0.42,434.213c-0.277,1.559-0.418,3.14-0.42,4.723v3.107c0.012,13.378,10.854,24.22,24.232,24.232h415.893     c13.645,0.191,25.463-9.43,28.045-22.83l43.419-246.821C512.943,188.789,510.759,180.757,505.625,174.686z" fill="#efede6" data-original="#000000" style="" class=""/>
		</g>
	</g>
</g>
<g xmlns="http://www.w3.org/2000/svg">
</g>
<g xmlns="http://www.w3.org/2000/svg">
</g>
<g xmlns="http://www.w3.org/2000/svg">
</g>
<g xmlns="http://www.w3.org/2000/svg">
</g>
<g xmlns="http://www.w3.org/2000/svg">
</g>
<g xmlns="http://www.w3.org/2000/svg">
</g>
<g xmlns="http://www.w3.org/2000/svg">
</g>
<g xmlns="http://www.w3.org/2000/svg">
</g>
<g xmlns="http://www.w3.org/2000/svg">
</g>
<g xmlns="http://www.w3.org/2000/svg">
</g>
<g xmlns="http://www.w3.org/2000/svg">
</g>
<g xmlns="http://www.w3.org/2000/svg">
</g>
<g xmlns="http://www.w3.org/2000/svg">
</g>
<g xmlns="http://www.w3.org/2000/svg">
</g>
<g xmlns="http://www.w3.org/2000/svg">
</g>
</g></svg>
