<svg id="Capa_1" enable-background="new 0 0 512 512" height="512" viewBox="0 0 512 512" width="512" xmlns="http://www.w3.org/2000/svg"><g><g><path d="m276.24 396.718-20.24-14.094-20.24 14.094v80.494l20.24 9.29 20.24-9.29v-80.495z" fill="#bed8fb"/><path d="m158.004 502.71h195.993c6.186 0 14.688-8.104 14.688-17.394-3.084-4.865-8.502-8.104-14.688-8.104h-195.993c-6.186 0-11.604 3.239-14.688 8.104 0 9.29 8.502 17.394 14.688 17.394z" fill="#a6aec4"/><path d="m256 360.873-20.24 7.974v27.871c6.626.865 13.382 1.317 20.24 1.317s13.614-.451 20.24-1.317v-27.871z" fill="#a3caf7"/><path d="m100.479 196.062c0 85.754 53.89 164.81 155.521 164.81 103.954 0 155.521-79.056 155.521-164.81v-57.294c0-8.551-6.932-15.484-15.484-15.484s-15.484 6.933-15.484 15.484v42.432h-44.679c-4.276 0-7.742 3.466-7.742 7.742s3.466 7.742 7.742 7.742h44.679v17.959c0 68.679-55.874 124.552-124.553 124.552-68.678 0-124.552-55.874-124.552-124.552v-17.959h44.679c4.276 0 7.742-3.466 7.742-7.742s-3.466-7.742-7.742-7.742h-44.679v-42.432c0-8.551-6.932-15.484-15.484-15.484s-15.484 6.933-15.484 15.484v57.294z" fill="#eceaec"/><path d="m166.836 189.925c0 49.244 27.019 98.454 89.164 98.454 64.45 0 89.164-49.21 89.164-98.454v-13.295l-9.29-7.742 9.29-7.742v-24.619l-9.29-7.742 9.29-7.742v-24.63l-9.29-7.249 8.915-8.235c-4.156-45.384-42.322-80.929-88.789-80.929-46.467 0-84.632 35.545-88.789 80.929l8.915 8.235-9.29 7.249v24.63l9.29 7.742-9.29 7.742v24.619l9.29 7.742-9.29 7.742z" fill="#454d58"/><g fill="#3c434c"><path d="m256 279.089c-49.244 0-89.164-39.92-89.164-89.164v11.329l1.004 7.168-.628 8.318c4.155 45.384 42.321 80.93 88.789 80.93 46.468 0 84.633-35.546 88.789-80.93l-.868-6.27 1.243-9.215v-11.329c-.001 49.243-39.921 89.163-89.165 89.163z"/><path d="m205.481 88.671c0 4.284-3.469 7.742-7.742 7.742h-30.906v-7.246c0-2.777.124-5.523.382-8.237h30.524c4.274-.001 7.742 3.468 7.742 7.741z"/><path d="m205.481 128.785c0 4.273-3.469 7.742-7.742 7.742h-30.906v-15.484h30.906c4.274 0 7.742 3.458 7.742 7.742z"/><path d="m205.481 168.888c0 4.274-3.469 7.742-7.742 7.742h-30.906v-15.484h30.906c4.274 0 7.742 3.468 7.742 7.742z"/><path d="m197.739 201.249h-30.172l.009.004-.009 9.378 3.376 6.101h26.795c4.273 0 7.742-3.458 7.742-7.742.001-4.273-3.467-7.741-7.741-7.741z"/><path d="m167.577 201.254h-.741v7.252c0 2.777.145 5.52.393 8.232h3.716c-1.57-4.985-2.693-10.164-3.368-15.484z"/><path d="m345.166 89.167v7.246h-30.906c-4.273 0-7.742-3.458-7.742-7.742 0-4.273 3.469-7.742 7.742-7.742h30.524c.259 2.715.382 5.461.382 8.238z"/><path d="m345.166 121.043v15.484h-30.906c-4.273 0-7.742-3.469-7.742-7.742 0-4.284 3.469-7.742 7.742-7.742z"/><path d="m345.166 161.146v15.484h-30.906c-4.273 0-7.742-3.468-7.742-7.742 0-4.273 3.469-7.742 7.742-7.742z"/><path d="m344.423 201.254.005-.004h-30.167c-4.273 0-7.742 3.468-7.742 7.742 0 4.284 3.469 7.742 7.742 7.742h26.795l2.954-4.976c0-.001.417-10.509.413-10.504z"/><path d="m344.423 201.254c-.675 5.32-1.798 10.499-3.368 15.484h3.716c.249-2.712.393-5.455.393-8.232v-7.252z"/></g><path d="m256 351.583c-85.755 0-155.521-69.766-155.521-155.52v18.581c0 85.754 69.766 155.52 155.521 155.52s155.521-69.766 155.521-155.52v-18.581c0 85.754-69.767 155.52-155.521 155.52z" fill="#dad8db"/><path d="m353.996 493.419h-195.992c-6.186 0-11.604-3.239-14.688-8.104-1.705 2.69-2.706 5.87-2.706 9.29 0 9.606 7.788 17.394 17.394 17.394h195.993c9.606 0 17.394-7.788 17.394-17.394 0-3.42-1.001-6.6-2.706-9.29-3.085 4.865-8.503 8.104-14.689 8.104z" fill="#959db0"/></g></g></svg>