<?xml version="1.0"?>
<svg xmlns="http://www.w3.org/2000/svg" xmlns:xlink="http://www.w3.org/1999/xlink" xmlns:svgjs="http://svgjs.com/svgjs" version="1.1" width="512" height="512" x="0" y="0" viewBox="0 0 512 512" style="enable-background:new 0 0 512 512" xml:space="preserve" class=""><g>
<g xmlns="http://www.w3.org/2000/svg">
	<g>
		<path d="M211.07,494.93c-1.86-1.86-4.44-2.93-7.07-2.93s-5.21,1.07-7.07,2.93S194,499.37,194,502s1.07,5.21,2.93,7.07    c1.86,1.86,4.44,2.93,7.07,2.93s5.21-1.07,7.07-2.93S214,504.63,214,502S212.93,496.79,211.07,494.93z" fill="#2c82adbd" data-original="#000000" style="" class=""/>
	</g>
</g>
<g xmlns="http://www.w3.org/2000/svg">
	<g>
		<path d="M499.954,11.59C494.229,4.225,485.596,0,476.267,0H35.733c-9.329,0-17.962,4.225-23.687,11.59    c-5.725,7.366-7.688,16.775-5.385,25.814l43.812,172c1.529,6.003,4.814,11.177,9.208,15.061C56.111,229.402,54,235.457,54,242v240    c0,16.542,13.458,30,30,30h80.5c5.523,0,10-4.477,10-10s-4.477-10-10-10H84c-5.514,0-10-4.486-10-10V242c0-5.514,4.486-10,10-10    h344c5.514,0,10,4.486,10,10v240c0,5.514-4.486,10-10,10H238c-5.523,0-10,4.477-10,10s4.477,10,10,10h190    c16.542,0,30-13.458,30-30V242c0-6.543-2.111-12.598-5.68-17.534c4.394-3.884,7.678-9.058,9.208-15.061l43.812-172    C507.642,28.365,505.679,18.956,499.954,11.59z M485.958,32.468l-43.812,172c-1.13,4.435-5.115,7.532-9.691,7.532H79.544    c-4.576,0-8.561-3.097-9.691-7.532l-43.812-172c-0.768-3.013-0.113-6.149,1.795-8.604C29.746,21.408,32.624,20,35.733,20h440.534    c3.109,0,5.987,1.408,7.896,3.864C486.071,26.319,486.726,29.455,485.958,32.468z" fill="#2c82adbd" data-original="#000000" style="" class=""/>
	</g>
</g>
<g xmlns="http://www.w3.org/2000/svg">
	<g>
		<path d="M458.428,43.863c-1.892-2.437-4.806-3.863-7.894-3.863H265.005c-0.003,0-0.007,0-0.01,0H61.466    c-3.087,0-6.001,1.426-7.896,3.863c-1.895,2.438-2.557,5.613-1.795,8.605l33.623,132c1.128,4.431,5.118,7.532,9.69,7.532H416.91    c4.572,0,8.562-3.101,9.69-7.532l33.623-132C460.985,49.476,460.323,46.301,458.428,43.863z M409.139,172H273.755l41.756-41.756    c3.905-3.905,3.906-10.237,0-14.142c-3.905-3.906-10.237-3.905-14.142,0l-55.432,55.431c-0.15,0.15-0.284,0.31-0.422,0.467    H102.861L74.333,60h166.525l-72.595,72.595c-3.905,3.905-3.905,10.237,0,14.143c1.953,1.953,4.512,2.929,7.071,2.929    c2.559,0,5.119-0.976,7.071-2.929L269.143,60h168.525L409.139,172z" fill="#2c82adbd" data-original="#000000" style="" class=""/>
	</g>
</g>
<g xmlns="http://www.w3.org/2000/svg">
	<g>
		<path d="M368,252c-27.57,0-50,22.43-50,50s22.43,50,50,50s50-22.43,50-50S395.57,252,368,252z M368,332c-16.542,0-30-13.458-30-30    s13.458-30,30-30s30,13.458,30,30S384.542,332,368,332z" fill="#2c82adbd" data-original="#000000" style="" class=""/>
	</g>
</g>
<g xmlns="http://www.w3.org/2000/svg">
	<g>
		<path d="M368,372c-27.57,0-50,22.43-50,50s22.43,50,50,50s50-22.43,50-50S395.57,372,368,372z M368,452c-16.542,0-30-13.458-30-30    s13.458-30,30-30s30,13.458,30,30S384.542,452,368,452z" fill="#2c82adbd" data-original="#000000" style="" class=""/>
	</g>
</g>
<g xmlns="http://www.w3.org/2000/svg">
	<g>
		<path d="M248,252c-27.57,0-50,22.43-50,50s22.43,50,50,50s50-22.43,50-50S275.57,252,248,252z M248,332c-16.542,0-30-13.458-30-30    s13.458-30,30-30s30,13.458,30,30S264.542,332,248,332z" fill="#2c82adbd" data-original="#000000" style="" class=""/>
	</g>
</g>
<g xmlns="http://www.w3.org/2000/svg">
	<g>
		<path d="M248,372c-27.57,0-50,22.43-50,50s22.43,50,50,50s50-22.43,50-50S275.57,372,248,372z M248,452c-16.542,0-30-13.458-30-30    s13.458-30,30-30s30,13.458,30,30S264.542,452,248,452z" fill="#2c82adbd" data-original="#000000" style="" class=""/>
	</g>
</g>
<g xmlns="http://www.w3.org/2000/svg">
	<g>
		<path d="M134.592,404.719v-91.29c4.207-1.795,7.919-4.708,10.657-8.508c6.628-9.201,9.989-18.357,9.989-27.213    c0-17.119-14.01-31.581-30.592-31.581c-16.582,0-30.592,14.462-30.592,31.581c0,8.856,3.361,18.012,9.989,27.214    c2.714,3.768,6.387,6.666,10.55,8.464v91.334c-4.185,1.797-7.877,4.702-10.603,8.487c-6.629,9.2-9.99,18.356-9.99,27.212    C94,457.538,108.01,472,124.592,472c16.582,0,30.592-14.462,30.592-31.581c0-8.856-3.361-18.012-9.989-27.214    C142.469,409.421,138.777,406.516,134.592,404.719z M114.054,277.707c-0.001-6.168,4.949-11.58,10.592-11.58    s10.592,5.412,10.592,11.581c0,4.51-2.15,9.877-6.217,15.523c-1.407,1.953-3.345,2.244-4.375,2.244    c-1.03,0-2.969-0.292-4.375-2.244C116.204,287.585,114.054,282.217,114.054,277.707z M124.592,452    C118.95,452,114,446.588,114,440.419c0-4.51,2.15-9.877,6.217-15.523c1.407-1.953,3.345-2.244,4.375-2.244    c1.03,0,2.969,0.292,4.375,2.244c4.067,5.646,6.217,11.014,6.217,15.524C135.185,446.588,130.235,452,124.592,452z" fill="#2c82adbd" data-original="#000000" style="" class=""/>
	</g>
</g>
<g xmlns="http://www.w3.org/2000/svg">
	<g>
		<path d="M341.28,90.33c-1.86-1.86-4.44-2.93-7.07-2.93s-5.21,1.07-7.07,2.93c-1.86,1.86-2.93,4.44-2.93,7.07    c0,2.63,1.07,5.21,2.93,7.07c1.86,1.86,4.44,2.93,7.07,2.93s5.21-1.07,7.07-2.93c1.86-1.86,2.93-4.43,2.93-7.07    C344.21,94.77,343.14,92.19,341.28,90.33z" fill="#2c82adbd" data-original="#000000" style="" class=""/>
	</g>
</g>
<g xmlns="http://www.w3.org/2000/svg">
</g>
<g xmlns="http://www.w3.org/2000/svg">
</g>
<g xmlns="http://www.w3.org/2000/svg">
</g>
<g xmlns="http://www.w3.org/2000/svg">
</g>
<g xmlns="http://www.w3.org/2000/svg">
</g>
<g xmlns="http://www.w3.org/2000/svg">
</g>
<g xmlns="http://www.w3.org/2000/svg">
</g>
<g xmlns="http://www.w3.org/2000/svg">
</g>
<g xmlns="http://www.w3.org/2000/svg">
</g>
<g xmlns="http://www.w3.org/2000/svg">
</g>
<g xmlns="http://www.w3.org/2000/svg">
</g>
<g xmlns="http://www.w3.org/2000/svg">
</g>
<g xmlns="http://www.w3.org/2000/svg">
</g>
<g xmlns="http://www.w3.org/2000/svg">
</g>
<g xmlns="http://www.w3.org/2000/svg">
</g>
</g></svg>
