<?xml version="1.0"?>
<svg xmlns="http://www.w3.org/2000/svg" xmlns:xlink="http://www.w3.org/1999/xlink" version="1.1" id="Capa_1" x="0px" y="0px" viewBox="0 0 512 512" style="enable-background:new 0 0 512 512;" xml:space="preserve" width="512px" height="512px" class=""><g><path style="fill:#EFEDE6" d="M34.133,17.067h443.733C496.708,17.067,512,32.358,512,51.2v409.6  c0,18.842-15.292,34.133-34.133,34.133H34.133C15.292,494.933,0,479.642,0,460.8V51.2C0,32.358,15.292,17.067,34.133,17.067z" data-original="#ECEFF1" class="active-path" data-old_color="#ECEFF1"/><path style="fill:#CE665C" d="M273.067,426.667c-7.066,0-13.414-4.335-15.94-10.923l-69.188-179.951l-35.43,94.481  c-2.389,6.349-8.329,10.684-15.087,11.025c-6.793,0.478-13.21-3.243-16.145-9.387l-29.423-58.846H17.067  C7.646,273.067,0,265.421,0,256c0-9.421,7.646-17.067,17.067-17.067H102.4c6.451,0,12.356,3.652,15.258,9.421l16.657,33.28  l37.547-99.908c2.492-6.622,8.806-11.025,15.872-11.059l0,0c7.066,0,13.414,4.335,15.94,10.923l65.024,169.062l55.979-251.938  c2.048-9.216,11.162-15.019,20.343-12.971c5.291,1.161,9.694,4.779,11.913,9.728l63.761,143.36h74.24  c9.421,0,17.067,7.646,17.067,17.067s-7.646,17.067-17.067,17.067H409.6c-6.758,0-12.902-4.028-15.599-10.24l-47.241-106.086  l-57.037,256.649c-1.604,7.373-7.885,12.8-15.394,13.38L273.067,426.667L273.067,426.667z" data-original="#F44336" class="" data-old_color="#F44336"/><path d="M477.867,494.933H34.133C15.292,494.933,0,479.642,0,460.8V51.2c0-18.842,15.292-34.133,34.133-34.133h443.733  C496.708,17.067,512,32.358,512,51.2v409.6C512,479.642,496.708,494.933,477.867,494.933z M34.133,51.2v409.6h443.733V51.2H34.133z" data-original="#000000" class="" style="fill:#191E23" data-old_color="#000000"/></g> </svg>
