<?xml version="1.0" encoding="utf-8"?>
<!-- Generator: Adobe Illustrator 24.1.1, SVG Export Plug-In . SVG Version: 6.00 Build 0)  -->
<svg version="1.1" id="Capa_1" xmlns="http://www.w3.org/2000/svg" xmlns:xlink="http://www.w3.org/1999/xlink" x="0px" y="0px"
	 viewBox="0 0 512 512" style="enable-background:new 0 0 512 512;" xml:space="preserve">
<style type="text/css">
	.st0{enable-background:new    ;}
	.st1{clip-path:url(#SVGID_2_);enable-background:new    ;}
	.st2{fill:#2B696A;}
	.st3{fill:#2A6566;}
	.st4{clip-path:url(#SVGID_4_);enable-background:new    ;}
	.st5{fill:#4FBFC2;}
	.st6{clip-path:url(#SVGID_6_);enable-background:new    ;}
	.st7{fill:#76797B;}
	.st8{clip-path:url(#SVGID_8_);enable-background:new    ;}
	.st9{fill:#727577;}
	.st10{clip-path:url(#SVGID_10_);enable-background:new    ;}
	.st11{fill:#D7DDE1;}
	.st12{clip-path:url(#SVGID_12_);enable-background:new    ;}
	.st13{clip-path:url(#SVGID_14_);enable-background:new    ;}
	.st14{clip-path:url(#SVGID_16_);enable-background:new    ;}
	.st15{clip-path:url(#SVGID_18_);enable-background:new    ;}
	.st16{clip-path:url(#SVGID_20_);enable-background:new    ;}
	.st17{clip-path:url(#SVGID_22_);enable-background:new    ;}
	.st18{clip-path:url(#SVGID_24_);enable-background:new    ;}
	.st19{clip-path:url(#SVGID_26_);enable-background:new    ;}
	.st20{clip-path:url(#SVGID_28_);enable-background:new    ;}
	.st21{clip-path:url(#SVGID_30_);enable-background:new    ;}
	.st22{fill:#3F553D;}
	.st23{fill:#3D523B;}
	.st24{clip-path:url(#SVGID_32_);enable-background:new    ;}
	.st25{fill:#749B70;}
	.st26{clip-path:url(#SVGID_34_);enable-background:new    ;}
	.st27{clip-path:url(#SVGID_36_);enable-background:new    ;}
	.st28{clip-path:url(#SVGID_38_);enable-background:new    ;}
	.st29{clip-path:url(#SVGID_40_);enable-background:new    ;}
	.st30{clip-path:url(#SVGID_42_);enable-background:new    ;}
	.st31{clip-path:url(#SVGID_44_);enable-background:new    ;}
	.st32{fill:#6F3732;}
	.st33{fill:#6B3530;}
	.st34{fill:#68342F;}
	.st35{clip-path:url(#SVGID_46_);enable-background:new    ;}
	.st36{fill:#C36157;}
	.st37{clip-path:url(#SVGID_48_);enable-background:new    ;}
	.st38{fill:#7B7E80;}
	.st39{clip-path:url(#SVGID_50_);enable-background:new    ;}
	.st40{clip-path:url(#SVGID_52_);enable-background:new    ;}
	.st41{clip-path:url(#SVGID_54_);enable-background:new    ;}
	.st42{fill:#67332E;}
	.st43{clip-path:url(#SVGID_56_);enable-background:new    ;}
	.st44{clip-path:url(#SVGID_58_);enable-background:new    ;}
	.st45{clip-path:url(#SVGID_60_);enable-background:new    ;}
	.st46{clip-path:url(#SVGID_62_);enable-background:new    ;}
	.st47{clip-path:url(#SVGID_64_);enable-background:new    ;}
	.st48{clip-path:url(#SVGID_66_);enable-background:new    ;}
	.st49{clip-path:url(#SVGID_68_);enable-background:new    ;}
	.st50{clip-path:url(#SVGID_70_);enable-background:new    ;}
	.st51{clip-path:url(#SVGID_72_);enable-background:new    ;}
	.st52{clip-path:url(#SVGID_74_);enable-background:new    ;}
	.st53{clip-path:url(#SVGID_76_);enable-background:new    ;}
	.st54{clip-path:url(#SVGID_78_);enable-background:new    ;}
	.st55{clip-path:url(#SVGID_80_);enable-background:new    ;}
	.st56{clip-path:url(#SVGID_82_);enable-background:new    ;}
	.st57{fill:#536870;}
	.st58{fill:#50646C;}
	.st59{fill:#4D6168;}
	.st60{clip-path:url(#SVGID_84_);enable-background:new    ;}
	.st61{fill:#92B7C5;}
	.st62{clip-path:url(#SVGID_86_);enable-background:new    ;}
	.st63{clip-path:url(#SVGID_88_);enable-background:new    ;}
	.st64{clip-path:url(#SVGID_90_);enable-background:new    ;}
	.st65{clip-path:url(#SVGID_92_);enable-background:new    ;}
	.st66{clip-path:url(#SVGID_94_);enable-background:new    ;}
	.st67{clip-path:url(#SVGID_96_);enable-background:new    ;}
	.st68{clip-path:url(#SVGID_98_);enable-background:new    ;}
	.st69{clip-path:url(#SVGID_100_);enable-background:new    ;}
</style>
<g transform="matrix(0.913517 0 0 0.913517 12.0819 21.2171)">
	<g>
		<g class="st0">
			<g class="st0">
				<defs>
					<path id="SVGID_1_" class="st0" d="M502.4,136.1l-38,40.9c-0.4,0.4-0.8,0.8-1.3,1.1c-0.5,0.3-1,0.6-1.5,0.9
						c-0.5,0.2-1.1,0.4-1.7,0.6c-0.6,0.1-1.2,0.2-1.8,0.2l37.5-40.7c0.7,0,1.4-0.1,2-0.2c0.6-0.1,1.2-0.3,1.8-0.6
						c0.6-0.3,1.1-0.6,1.6-0.9C501.6,137,502,136.6,502.4,136.1z"/>
				</defs>
				<clipPath id="SVGID_2_">
					<use xlink:href="#SVGID_1_"  style="overflow:visible;"/>
				</clipPath>
				<g class="st1">
					<path class="st2" d="M502.4,136.1l-38,40.9c-0.4,0.4-0.8,0.8-1.3,1.1c-0.5,0.3-1,0.6-1.5,0.9c-0.5,0.2-1.1,0.4-1.7,0.6
						c-0.6,0.1-1.2,0.2-1.8,0.2l37.5-40.7c0.7,0,1.4-0.1,2-0.2c0.6-0.1,1.2-0.3,1.8-0.6c0.6-0.3,1.1-0.6,1.6-0.9
						C501.6,137,502,136.6,502.4,136.1"/>
				</g>
			</g>
			<g>
				<polygon class="st3" points="495.7,139.1 458.2,179.8 381.4,182 412.5,141.1 				"/>
			</g>
			<g class="st0">
				<defs>
					<path id="SVGID_3_" class="st0" d="M372.5,166.8l30.2-42.1c-0.3,0.4-0.6,0.9-0.8,1.4c-0.2,0.5-0.4,1-0.6,1.6
						c-0.1,0.5-0.2,1.1-0.3,1.7c0,0.6,0,1.2,0,1.8c0.1,1.4,0.6,2.8,1.2,4c0.7,1.2,1.5,2.3,2.6,3.2c1,0.9,2.2,1.6,3.6,2.1
						c1.3,0.5,2.7,0.7,4.2,0.7L381.4,182c-1.3,0-2.6-0.2-3.8-0.6c-1.2-0.4-2.3-1.1-3.3-2c-1-0.8-1.8-1.8-2.4-3
						c-0.6-1.1-1-2.4-1.1-3.7c-0.1-0.6-0.1-1.1,0-1.7c0-0.5,0.1-1.1,0.3-1.6c0.1-0.5,0.3-1,0.5-1.5
						C371.9,167.6,372.2,167.2,372.5,166.8z"/>
				</defs>
				<clipPath id="SVGID_4_">
					<use xlink:href="#SVGID_3_"  style="overflow:visible;"/>
				</clipPath>
				<g class="st4">
					<path class="st2" d="M412.5,141.1L381.4,182c-1.3,0-2.6-0.2-3.8-0.6c-1.2-0.4-2.3-1.1-3.3-2c-1-0.8-1.8-1.8-2.4-3
						c-0.6-1.1-1-2.4-1.1-3.7c-0.1-0.6-0.1-1.1,0-1.7c0-0.5,0.1-1.1,0.3-1.6c0.1-0.5,0.3-1,0.5-1.5c0.2-0.5,0.5-0.9,0.8-1.3
						l30.2-42.1c-0.3,0.4-0.6,0.9-0.8,1.4c-0.2,0.5-0.4,1-0.6,1.6c-0.1,0.5-0.2,1.1-0.3,1.7c0,0.6,0,1.2,0,1.8
						c0.1,1.4,0.6,2.8,1.2,4c0.7,1.2,1.5,2.3,2.6,3.2c1,0.9,2.2,1.6,3.6,2.1C409.6,140.9,411,141.2,412.5,141.1"/>
				</g>
			</g>
			<g>
				<path class="st5" d="M493.4,118.8c1.4,0,2.8,0.2,4.1,0.7c1.3,0.5,2.5,1.2,3.5,2.1c1,0.9,1.9,2,2.6,3.2c0.7,1.2,1.1,2.5,1.3,3.9
					c0.2,1.4,0,2.7-0.4,4c-0.4,1.2-1,2.3-1.8,3.3c-0.8,0.9-1.8,1.7-3,2.3c-1.2,0.5-2.5,0.9-3.9,0.9l-83.2,2c-1.4,0-2.9-0.2-4.2-0.7
					c-1.3-0.5-2.5-1.2-3.6-2.1c-1-0.9-1.9-2-2.6-3.2c-0.7-1.2-1.1-2.6-1.2-4c-0.1-1.4,0-2.8,0.4-4c0.4-1.2,1.1-2.4,1.9-3.3
					c0.9-0.9,1.9-1.7,3.1-2.3c1.2-0.5,2.5-0.9,4-0.9L493.4,118.8z"/>
			</g>
		</g>
		<g class="st0">
			<g class="st0">
				<defs>
					<path id="SVGID_5_" class="st0" d="M509,198.3c-12.9,12.1-25.9,24.2-38.8,36.3c-0.4,0.4-0.8,0.7-1.2,1
						c-0.4,0.3-0.9,0.5-1.4,0.7c-0.5,0.2-1,0.4-1.5,0.5c-0.5,0.1-1.1,0.2-1.7,0.2l38.4-36.1c0.6,0,1.2-0.1,1.8-0.2
						c0.6-0.1,1.1-0.3,1.7-0.5c0.5-0.2,1-0.5,1.5-0.8C508.1,199,508.6,198.7,509,198.3z"/>
				</defs>
				<clipPath id="SVGID_6_">
					<use xlink:href="#SVGID_5_"  style="overflow:visible;"/>
				</clipPath>
				<g class="st6">
					<path class="st7" d="M509,198.3l-38.8,36.3c-0.4,0.4-0.8,0.7-1.2,1c-0.4,0.3-0.9,0.5-1.4,0.7c-0.5,0.2-1,0.4-1.5,0.5
						c-0.5,0.1-1.1,0.2-1.7,0.2l38.4-36.1c0.6,0,1.2-0.1,1.8-0.2c0.6-0.1,1.1-0.3,1.7-0.5c0.5-0.2,1-0.5,1.5-0.8
						C508.1,199,508.6,198.7,509,198.3"/>
				</g>
			</g>
			<g class="st0">
				<defs>
					<path id="SVGID_7_" class="st0" d="M378.2,223.6c2.4-2.9,4.9-5.9,7.3-8.8c0.9-1.1,2.1-2.5,3-3.6c0.5-0.6,1.1-1.3,1.5-1.8
						c0.9-1.1,2.2-2.6,3.1-3.7c0.9-1.1,2.2-2.6,3.1-3.8c0.5-0.6,1.1-1.3,1.6-1.9c1-1.2,2.2-2.7,3.2-3.9c1-1.2,2.3-2.8,3.3-3.9
						c0.5-0.6,1.2-1.4,1.7-2c1-1.2,2.3-2.8,3.3-4c-0.4,0.5-0.7,1-1,1.5c-0.3,0.6-0.5,1.1-0.7,1.7c-0.2,0.6-0.3,1.2-0.4,1.9
						c-0.1,0.7-0.1,1.3,0,2l-30.9,37c-0.1-0.6-0.1-1.3,0-1.9c0.1-0.6,0.2-1.2,0.4-1.8c0.2-0.6,0.4-1.1,0.7-1.6
						C377.5,224.5,377.8,224,378.2,223.6z"/>
				</defs>
				<clipPath id="SVGID_8_">
					<use xlink:href="#SVGID_7_"  style="overflow:visible;"/>
				</clipPath>
				<g class="st8">
					<path class="st7" d="M407.1,193.3l-30.9,37c-0.1-0.6-0.1-1.3,0-1.9c0.1-0.6,0.2-1.2,0.4-1.8c0.2-0.6,0.4-1.1,0.7-1.6
						c0.3-0.5,0.6-1,1-1.4l31-37.5c-0.4,0.5-0.7,1-1,1.5c-0.3,0.6-0.5,1.1-0.7,1.7c-0.2,0.6-0.3,1.2-0.4,1.9
						C407,191.9,407,192.6,407.1,193.3"/>
				</g>
			</g>
			<g>
				<polygon class="st9" points="502.7,200.8 464.3,236.9 386.9,239.6 418.7,203.4 				"/>
			</g>
			<g class="st0">
				<defs>
					<path id="SVGID_9_" class="st0" d="M418.7,203.4l-31.9,36.2c-1.3,0-2.7-0.2-3.9-0.6c-1.2-0.5-2.3-1.1-3.3-2
						c-1-0.8-1.8-1.9-2.4-3c-0.6-1.1-1-2.4-1.1-3.7l30.9-37c0.1,1.4,0.6,2.8,1.2,4c0.7,1.2,1.5,2.3,2.6,3.3c1.1,0.9,2.3,1.7,3.6,2.1
						C415.8,203.2,417.3,203.5,418.7,203.4z"/>
				</defs>
				<clipPath id="SVGID_10_">
					<use xlink:href="#SVGID_9_"  style="overflow:visible;"/>
				</clipPath>
				<g class="st10">
					<path class="st7" d="M418.7,203.4l-31.9,36.2c-1.3,0-2.7-0.2-3.9-0.6c-1.2-0.5-2.3-1.1-3.3-2c-1-0.8-1.8-1.9-2.4-3
						c-0.6-1.1-1-2.4-1.1-3.7l30.9-37c0.1,1.4,0.6,2.8,1.2,4c0.7,1.2,1.5,2.3,2.6,3.3c1.1,0.9,2.3,1.7,3.6,2.1
						C415.8,203.2,417.3,203.5,418.7,203.4"/>
				</g>
			</g>
			<g>
				<path class="st11" d="M500.3,180.1c1.4,0,2.8,0.2,4.1,0.7c1.3,0.5,2.5,1.2,3.5,2.1c1,0.9,1.9,2,2.6,3.2c0.7,1.2,1.1,2.6,1.3,4
					c0.2,1.4,0,2.8-0.4,4.1c-0.4,1.3-1,2.4-1.8,3.4c-0.8,1-1.9,1.8-3,2.3c-1.2,0.6-2.5,0.9-4,0.9l-83.9,2.6c-1.5,0-2.9-0.2-4.2-0.7
					c-1.3-0.5-2.5-1.2-3.6-2.1c-1.1-0.9-1.9-2-2.6-3.3c-0.7-1.2-1.1-2.6-1.2-4c-0.1-1.4,0-2.8,0.4-4.1c0.4-1.3,1.1-2.4,1.9-3.4
					c0.9-1,1.9-1.8,3.1-2.3c1.2-0.6,2.6-0.9,4-0.9L500.3,180.1z"/>
			</g>
		</g>
		<g class="st0">
			<g class="st0">
				<defs>
					<path id="SVGID_11_" class="st0" d="M515.5,261.7l-39.7,31.5c-0.4,0.3-0.7,0.5-1.1,0.8c-0.4,0.2-0.8,0.4-1.3,0.6
						c-0.4,0.2-0.9,0.3-1.4,0.4c-0.5,0.1-1,0.2-1.5,0.2l39.3-31.3c0.5,0,1.1-0.1,1.6-0.2c0.5-0.1,1-0.2,1.5-0.4
						c0.5-0.2,0.9-0.4,1.4-0.6C514.7,262.3,515.1,262,515.5,261.7z"/>
				</defs>
				<clipPath id="SVGID_12_">
					<use xlink:href="#SVGID_11_"  style="overflow:visible;"/>
				</clipPath>
				<g class="st12">
					<path class="st2" d="M515.5,261.7l-39.7,31.5c-0.4,0.3-0.7,0.5-1.1,0.8c-0.4,0.2-0.8,0.4-1.3,0.6c-0.4,0.2-0.9,0.3-1.4,0.4
						c-0.5,0.1-1,0.2-1.5,0.2l39.3-31.3c0.5,0,1.1-0.1,1.6-0.2c0.5-0.1,1-0.2,1.5-0.4c0.5-0.2,0.9-0.4,1.4-0.6
						C514.7,262.3,515.1,262,515.5,261.7"/>
				</g>
			</g>
			<g>
				<polygon class="st3" points="509.8,263.8 470.5,295.1 392.4,298.3 425.1,266.9 				"/>
			</g>
			<g class="st0">
				<defs>
					<path id="SVGID_13_" class="st0" d="M384.2,281.4l31.9-32.8c-0.5,0.5-0.9,1.1-1.3,1.7c-0.4,0.6-0.7,1.3-0.9,1.9
						c-0.2,0.7-0.4,1.4-0.5,2.1c-0.1,0.7-0.1,1.5,0,2.3c0.1,1.5,0.6,2.9,1.2,4.1c0.7,1.3,1.6,2.4,2.6,3.3c1.1,0.9,2.3,1.7,3.6,2.2
						c1.3,0.5,2.8,0.7,4.2,0.7l-32.7,31.3c-1.4,0.1-2.7-0.2-3.9-0.6c-1.2-0.5-2.4-1.1-3.3-2c-1-0.9-1.8-1.9-2.4-3.1
						c-0.6-1.2-1-2.4-1.1-3.8c-0.1-0.7-0.1-1.4,0-2.1c0.1-0.7,0.2-1.3,0.5-2c0.2-0.6,0.5-1.2,0.9-1.8
						C383.3,282.4,383.7,281.8,384.2,281.4z"/>
				</defs>
				<clipPath id="SVGID_14_">
					<use xlink:href="#SVGID_13_"  style="overflow:visible;"/>
				</clipPath>
				<g class="st13">
					<path class="st2" d="M425.1,266.9l-32.7,31.3c-1.4,0.1-2.7-0.2-3.9-0.6c-1.2-0.5-2.4-1.1-3.3-2c-1-0.9-1.8-1.9-2.4-3.1
						c-0.6-1.2-1-2.4-1.1-3.8c-0.1-0.7-0.1-1.4,0-2.1c0.1-0.7,0.2-1.3,0.5-2c0.2-0.6,0.5-1.2,0.9-1.8c0.3-0.6,0.8-1.1,1.2-1.5
						l31.9-32.8c-0.5,0.5-0.9,1.1-1.3,1.7c-0.4,0.6-0.7,1.3-0.9,1.9c-0.2,0.7-0.4,1.4-0.5,2.1c-0.1,0.7-0.1,1.5,0,2.3
						c0.1,1.5,0.6,2.9,1.2,4.1c0.7,1.3,1.6,2.4,2.6,3.3c1.1,0.9,2.3,1.7,3.6,2.2C422.2,266.8,423.6,267,425.1,266.9"/>
				</g>
			</g>
			<g>
				<path class="st5" d="M507.4,242.6c1.4-0.1,2.9,0.2,4.2,0.7c1.3,0.5,2.5,1.2,3.6,2.1c1.1,0.9,2,2,2.6,3.3
					c0.7,1.2,1.1,2.6,1.3,4.1c0.2,1.5,0,2.9-0.3,4.1c-0.4,1.3-1,2.5-1.9,3.4c-0.8,1-1.9,1.8-3.1,2.4c-1.2,0.6-2.5,0.9-4,1l-84.7,3.2
					c-1.5,0.1-2.9-0.2-4.2-0.7c-1.3-0.5-2.6-1.2-3.6-2.2c-1.1-0.9-2-2.1-2.6-3.3c-0.7-1.3-1.1-2.7-1.2-4.1c-0.1-1.5,0-2.9,0.4-4.2
					c0.4-1.3,1.1-2.5,2-3.5c0.9-1,1.9-1.8,3.2-2.4c1.2-0.6,2.6-0.9,4.1-1L507.4,242.6z"/>
			</g>
		</g>
		<g class="st0">
			<g class="st0">
				<defs>
					<path id="SVGID_15_" class="st0" d="M522.1,326.4l-40.7,26.5c-0.3,0.2-0.7,0.4-1,0.6c-0.4,0.2-0.7,0.3-1.1,0.4
						c-0.4,0.1-0.8,0.2-1.2,0.3c-0.4,0.1-0.8,0.1-1.3,0.1l40.3-26.3c0.5,0,0.9-0.1,1.4-0.2c0.4-0.1,0.9-0.2,1.3-0.3
						c0.4-0.1,0.8-0.3,1.2-0.5C521.3,326.9,521.7,326.7,522.1,326.4z"/>
				</defs>
				<clipPath id="SVGID_16_">
					<use xlink:href="#SVGID_15_"  style="overflow:visible;"/>
				</clipPath>
				<g class="st14">
					<path class="st7" d="M522.1,326.4l-40.7,26.5c-0.3,0.2-0.7,0.4-1,0.6c-0.4,0.2-0.7,0.3-1.1,0.4c-0.4,0.1-0.8,0.2-1.2,0.3
						c-0.4,0.1-0.8,0.1-1.3,0.1l40.3-26.3c0.5,0,0.9-0.1,1.4-0.2c0.4-0.1,0.9-0.2,1.3-0.3c0.4-0.1,0.8-0.3,1.2-0.5
						C521.3,326.9,521.7,326.7,522.1,326.4"/>
				</g>
			</g>
			<g class="st0">
				<defs>
					<path id="SVGID_17_" class="st0" d="M390.5,340.2l32.8-27.8c-0.6,0.5-1.2,1.1-1.6,1.8c-0.5,0.7-0.9,1.4-1.2,2.1
						c-0.3,0.8-0.5,1.6-0.7,2.4c-0.1,0.8-0.1,1.7-0.1,2.6l-32.5,27.1c-0.1-0.8-0.1-1.6,0.1-2.4c0.1-0.8,0.3-1.5,0.6-2.2
						c0.3-0.7,0.7-1.4,1.1-2C389.4,341.2,389.9,340.7,390.5,340.2z"/>
				</defs>
				<clipPath id="SVGID_18_">
					<use xlink:href="#SVGID_17_"  style="overflow:visible;"/>
				</clipPath>
				<g class="st15">
					<path class="st7" d="M419.7,321.3l-32.5,27.1c-0.1-0.8-0.1-1.6,0.1-2.4c0.1-0.8,0.3-1.5,0.6-2.2c0.3-0.7,0.7-1.4,1.1-2
						c0.4-0.6,0.9-1.2,1.5-1.6l32.8-27.8c-0.6,0.5-1.2,1.1-1.6,1.8c-0.5,0.7-0.9,1.4-1.2,2.1c-0.3,0.8-0.5,1.6-0.7,2.4
						C419.6,319.6,419.6,320.4,419.7,321.3"/>
				</g>
			</g>
			<g>
				<polygon class="st9" points="517.1,328 476.8,354.3 398,358 431.6,331.8 				"/>
			</g>
			<g class="st0">
				<defs>
					<path id="SVGID_19_" class="st0" d="M431.6,331.8L398,358c-1.4,0.1-2.7-0.2-3.9-0.6c-1.2-0.5-2.4-1.1-3.4-2
						c-1-0.9-1.8-1.9-2.4-3.1c-0.6-1.2-1-2.5-1.1-3.9l32.5-27.1c0.1,1.5,0.6,2.9,1.3,4.2c0.7,1.3,1.6,2.4,2.7,3.4
						c1.1,0.9,2.3,1.7,3.7,2.2C428.6,331.6,430.1,331.8,431.6,331.8z"/>
				</defs>
				<clipPath id="SVGID_20_">
					<use xlink:href="#SVGID_19_"  style="overflow:visible;"/>
				</clipPath>
				<g class="st16">
					<path class="st7" d="M431.6,331.8L398,358c-1.4,0.1-2.7-0.2-3.9-0.6c-1.2-0.5-2.4-1.1-3.4-2c-1-0.9-1.8-1.9-2.4-3.1
						c-0.6-1.2-1-2.5-1.1-3.9l32.5-27.1c0.1,1.5,0.6,2.9,1.3,4.2c0.7,1.3,1.6,2.4,2.7,3.4c1.1,0.9,2.3,1.7,3.7,2.2
						C428.6,331.6,430.1,331.8,431.6,331.8"/>
				</g>
			</g>
			<g>
				<path class="st11" d="M514.6,306.4c1.5-0.1,2.9,0.2,4.2,0.7c1.3,0.5,2.6,1.2,3.6,2.2c1.1,0.9,2,2.1,2.7,3.3
					c0.7,1.3,1.1,2.7,1.3,4.1c0.2,1.5,0,2.9-0.3,4.2c-0.4,1.3-1,2.5-1.9,3.5c-0.8,1-1.9,1.9-3.1,2.5c-1.2,0.6-2.6,1-4,1l-85.5,3.8
					c-1.5,0.1-2.9-0.2-4.3-0.7c-1.3-0.5-2.6-1.2-3.7-2.2c-1.1-0.9-2-2.1-2.7-3.4c-0.7-1.3-1.1-2.7-1.3-4.2c-0.1-1.5,0-2.9,0.4-4.3
					c0.4-1.3,1.1-2.5,2-3.6c0.9-1,2-1.9,3.2-2.5c1.2-0.6,2.6-1,4.1-1L514.6,306.4z"/>
			</g>
		</g>
		<g class="st0">
			<g class="st0">
				<defs>
					<path id="SVGID_21_" class="st0" d="M528.6,392.5L487,413.7c-0.3,0.1-0.6,0.3-0.9,0.4c-0.3,0.1-0.6,0.2-0.9,0.3
						c-0.3,0.1-0.6,0.2-1,0.2c-0.3,0.1-0.7,0.1-1,0.1l41.3-21.2c0.4,0,0.7-0.1,1.1-0.1c0.4-0.1,0.7-0.1,1-0.2c0.3-0.1,0.7-0.2,1-0.3
						S528.3,392.6,528.6,392.5z"/>
				</defs>
				<clipPath id="SVGID_22_">
					<use xlink:href="#SVGID_21_"  style="overflow:visible;"/>
				</clipPath>
				<g class="st17">
					<path class="st2" d="M528.6,392.5L487,413.7c-0.3,0.1-0.6,0.3-0.9,0.4c-0.3,0.1-0.6,0.2-0.9,0.3c-0.3,0.1-0.6,0.2-1,0.2
						c-0.3,0.1-0.7,0.1-1,0.1l41.3-21.2c0.4,0,0.7-0.1,1.1-0.1c0.4-0.1,0.7-0.1,1-0.2c0.3-0.1,0.7-0.2,1-0.3
						S528.3,392.6,528.6,392.5"/>
				</g>
			</g>
			<g>
				<polygon class="st3" points="524.5,393.5 483.3,414.7 403.8,418.9 438.2,398 				"/>
			</g>
			<g class="st0">
				<defs>
					<path id="SVGID_23_" class="st0" d="M397,400.1l33.7-22.6c-0.8,0.5-1.5,1.1-2.1,1.8c-0.6,0.7-1.1,1.5-1.5,2.3
						c-0.4,0.9-0.7,1.8-0.9,2.7c-0.2,1-0.2,2-0.1,3c0.2,1.5,0.6,3,1.3,4.3c0.7,1.3,1.6,2.5,2.7,3.4c1.1,1,2.3,1.7,3.7,2.2
						c1.4,0.5,2.8,0.7,4.3,0.7l-34.4,21c-1.4,0.1-2.7-0.1-4-0.6c-1.2-0.5-2.4-1.1-3.4-2c-1-0.9-1.8-1.9-2.5-3.1
						c-0.6-1.2-1-2.5-1.2-3.9c-0.1-1,0-1.9,0.1-2.8c0.2-0.9,0.4-1.7,0.8-2.5c0.4-0.8,0.8-1.5,1.4-2.2
						C395.7,401.1,396.3,400.6,397,400.1z"/>
				</defs>
				<clipPath id="SVGID_24_">
					<use xlink:href="#SVGID_23_"  style="overflow:visible;"/>
				</clipPath>
				<g class="st18">
					<path class="st2" d="M438.2,398l-34.4,21c-1.4,0.1-2.7-0.1-4-0.6c-1.2-0.5-2.4-1.1-3.4-2c-1-0.9-1.8-1.9-2.5-3.1
						c-0.6-1.2-1-2.5-1.2-3.9c-0.1-1,0-1.9,0.1-2.8c0.2-0.9,0.4-1.7,0.8-2.5c0.4-0.8,0.8-1.5,1.4-2.2c0.6-0.6,1.2-1.2,1.9-1.7
						l33.7-22.6c-0.8,0.5-1.5,1.1-2.1,1.8c-0.6,0.7-1.1,1.5-1.5,2.3c-0.4,0.9-0.7,1.8-0.9,2.7c-0.2,1-0.2,2-0.1,3
						c0.2,1.5,0.6,3,1.3,4.3c0.7,1.3,1.6,2.5,2.7,3.4c1.1,1,2.3,1.7,3.7,2.2C435.2,397.8,436.7,398,438.2,398"/>
				</g>
			</g>
			<g>
				<path class="st5" d="M522,371.5c1.5-0.1,2.9,0.2,4.2,0.7c1.3,0.5,2.6,1.2,3.7,2.2c1.1,0.9,2,2.1,2.7,3.4
					c0.7,1.3,1.2,2.7,1.3,4.2c0.2,1.5,0,3-0.3,4.3c-0.4,1.3-1,2.6-1.9,3.6c-0.9,1-1.9,1.9-3.1,2.5c-1.2,0.6-2.6,1-4.1,1.1l-86.4,4.4
					c-1.5,0.1-3-0.2-4.3-0.7c-1.4-0.5-2.6-1.3-3.7-2.2c-1.1-1-2-2.1-2.7-3.4c-0.7-1.3-1.1-2.8-1.3-4.3c-0.2-1.5,0-3,0.4-4.4
					c0.4-1.4,1.1-2.6,2-3.6c0.9-1.1,2-1.9,3.2-2.5c1.2-0.6,2.6-1,4.1-1.1L522,371.5z"/>
			</g>
		</g>
		<g class="st0">
			<g class="st0">
				<defs>
					<path id="SVGID_25_" class="st0" d="M535.1,459.8l-42.5,15.8c-0.2,0.1-0.4,0.2-0.6,0.2c-0.2,0.1-0.4,0.1-0.7,0.2
						c-0.2,0-0.5,0.1-0.7,0.1c-0.2,0-0.5,0.1-0.7,0.1l42.3-15.8c0.3,0,0.5,0,0.8-0.1c0.3,0,0.5-0.1,0.7-0.1s0.5-0.1,0.7-0.2
						C534.6,460,534.8,459.9,535.1,459.8z"/>
				</defs>
				<clipPath id="SVGID_26_">
					<use xlink:href="#SVGID_25_"  style="overflow:visible;"/>
				</clipPath>
				<g class="st19">
					<path class="st2" d="M535.1,459.8l-42.5,15.8c-0.2,0.1-0.4,0.2-0.6,0.2c-0.2,0.1-0.4,0.1-0.7,0.2c-0.2,0-0.5,0.1-0.7,0.1
						c-0.2,0-0.5,0.1-0.7,0.1l42.3-15.8c0.3,0,0.5,0,0.8-0.1c0.3,0,0.5-0.1,0.7-0.1s0.5-0.1,0.7-0.2
						C534.6,460,534.8,459.9,535.1,459.8"/>
				</g>
			</g>
			<g>
				<polygon class="st3" points="532.1,460.4 489.8,476.2 409.6,481 444.9,465.5 				"/>
			</g>
			<g class="st0">
				<defs>
					<path id="SVGID_27_" class="st0" d="M403.9,461.2c1-0.5,2.2-1.1,3.2-1.6c0.5-0.2,1.1-0.6,1.6-0.8c1-0.5,2.3-1.1,3.3-1.6
						c1-0.5,2.3-1.2,3.3-1.7c0.5-0.3,1.2-0.6,1.7-0.8c1-0.5,2.4-1.2,3.4-1.7c1-0.5,2.4-1.2,3.5-1.7c0.5-0.3,1.2-0.6,1.8-0.9
						c1.1-0.5,2.5-1.2,3.6-1.8c1.1-0.5,2.6-1.3,3.6-1.8c0.6-0.3,1.3-0.6,1.8-0.9c1.1-0.6,2.6-1.3,3.8-1.9c-1,0.5-1.8,1.1-2.6,1.8
						c-0.8,0.7-1.4,1.6-1.9,2.5c-0.5,0.9-0.9,2-1.1,3.1c-0.2,1.1-0.3,2.2-0.2,3.4c0.2,1.6,0.6,3,1.3,4.4c0.7,1.3,1.6,2.5,2.7,3.5
						c1.1,1,2.4,1.7,3.7,2.2c1.4,0.5,2.9,0.7,4.4,0.6L409.6,481c-1.4,0.1-2.7-0.1-4-0.6c-1.3-0.5-2.4-1.2-3.4-2
						c-1-0.9-1.8-2-2.5-3.2c-0.6-1.2-1-2.6-1.2-4c-0.1-1.1,0-2.2,0.2-3.2c0.2-1,0.6-2,1-2.8c0.5-0.9,1.1-1.7,1.8-2.3
						C402.3,462.2,403.1,461.6,403.9,461.2z"/>
				</defs>
				<clipPath id="SVGID_28_">
					<use xlink:href="#SVGID_27_"  style="overflow:visible;"/>
				</clipPath>
				<g class="st20">
					<path class="st2" d="M444.9,465.5L409.6,481c-1.4,0.1-2.7-0.1-4-0.6c-1.3-0.5-2.4-1.2-3.4-2c-1-0.9-1.8-2-2.5-3.2
						c-0.6-1.2-1-2.6-1.2-4c-0.1-1.1,0-2.2,0.2-3.2c0.2-1,0.6-2,1-2.8c0.5-0.9,1.1-1.7,1.8-2.3c0.7-0.7,1.5-1.3,2.4-1.7l34.7-17.2
						c-1,0.5-1.8,1.1-2.6,1.8c-0.8,0.7-1.4,1.6-1.9,2.5c-0.5,0.9-0.9,2-1.1,3.1c-0.2,1.1-0.3,2.2-0.2,3.4c0.2,1.6,0.6,3,1.3,4.4
						c0.7,1.3,1.6,2.5,2.7,3.5c1.1,1,2.4,1.7,3.7,2.2C441.9,465.4,443.4,465.6,444.9,465.5"/>
				</g>
			</g>
			<g>
				<path class="st5" d="M529.6,438c1.5-0.1,2.9,0.2,4.3,0.6c1.4,0.5,2.6,1.2,3.7,2.2c1.1,1,2,2.1,2.7,3.4c0.7,1.3,1.2,2.8,1.3,4.3
					c0.2,1.5,0,3-0.3,4.4c-0.4,1.4-1,2.6-1.9,3.7c-0.9,1.1-1.9,2-3.2,2.6c-1.2,0.6-2.6,1-4.1,1.1l-87.2,5.1c-1.5,0.1-3-0.1-4.4-0.6
					c-1.4-0.5-2.6-1.3-3.7-2.2c-1.1-1-2-2.1-2.7-3.5c-0.7-1.3-1.1-2.8-1.3-4.4c-0.2-1.6,0-3.1,0.4-4.5c0.4-1.4,1.1-2.7,2-3.7
					c0.9-1.1,2-2,3.2-2.6c1.3-0.6,2.7-1,4.2-1.1L529.6,438z"/>
			</g>
		</g>
		<g class="st0">
			<g class="st0">
				<defs>
					<path id="SVGID_29_" class="st0" d="M394.5,331.2L364,357.6c-0.4,0.3-0.8,0.6-1.3,0.9c-0.4,0.3-0.9,0.5-1.4,0.7
						c-0.5,0.2-1,0.4-1.5,0.5c-0.5,0.1-1.1,0.2-1.6,0.2l30.1-26.2c0.6,0,1.2-0.1,1.8-0.2c0.6-0.1,1.1-0.3,1.7-0.5
						c0.5-0.2,1-0.5,1.5-0.8C393.7,331.9,394.1,331.6,394.5,331.2z"/>
				</defs>
				<clipPath id="SVGID_30_">
					<use xlink:href="#SVGID_29_"  style="overflow:visible;"/>
				</clipPath>
				<g class="st21">
					<path class="st22" d="M394.5,331.2L364,357.6c-0.4,0.3-0.8,0.6-1.3,0.9c-0.4,0.3-0.9,0.5-1.4,0.7c-0.5,0.2-1,0.4-1.5,0.5
						c-0.5,0.1-1.1,0.2-1.6,0.2l30.1-26.2c0.6,0,1.2-0.1,1.8-0.2c0.6-0.1,1.1-0.3,1.7-0.5c0.5-0.2,1-0.5,1.5-0.8
						C393.7,331.9,394.1,331.6,394.5,331.2"/>
				</g>
			</g>
			<g>
				<polygon class="st23" points="388.2,333.7 358.1,359.9 277.4,363.7 300.3,337.6 				"/>
			</g>
			<g class="st0">
				<defs>
					<path id="SVGID_31_" class="st0" d="M268.6,347l22.1-27.6c-0.4,0.5-0.8,1.1-1.1,1.6c-0.3,0.6-0.6,1.2-0.8,1.8
						c-0.2,0.6-0.3,1.3-0.4,2c-0.1,0.7-0.1,1.4,0,2.1c0.1,1.5,0.5,3,1.2,4.3c0.7,1.3,1.6,2.5,2.7,3.4c1.1,1,2.3,1.7,3.7,2.2
						c1.4,0.5,2.9,0.7,4.4,0.7l-22.9,26.1c-1.4,0.1-2.8-0.2-4-0.6c-1.3-0.5-2.4-1.2-3.4-2c-1-0.9-1.8-1.9-2.4-3.1
						c-0.6-1.2-1-2.5-1.1-3.9c0-0.7,0-1.3,0-1.9c0.1-0.6,0.2-1.2,0.4-1.8c0.2-0.6,0.4-1.1,0.7-1.7C267.9,348,268.2,347.5,268.6,347z
						"/>
				</defs>
				<clipPath id="SVGID_32_">
					<use xlink:href="#SVGID_31_"  style="overflow:visible;"/>
				</clipPath>
				<g class="st24">
					<path class="st22" d="M300.3,337.6l-22.9,26.1c-1.4,0.1-2.8-0.2-4-0.6c-1.3-0.5-2.4-1.2-3.4-2c-1-0.9-1.8-1.9-2.4-3.1
						c-0.6-1.2-1-2.5-1.1-3.9c0-0.7,0-1.3,0-1.9c0.1-0.6,0.2-1.2,0.4-1.8c0.2-0.6,0.4-1.1,0.7-1.7c0.3-0.5,0.6-1,1-1.5l22.1-27.6
						c-0.4,0.5-0.8,1.1-1.1,1.6c-0.3,0.6-0.6,1.2-0.8,1.8c-0.2,0.6-0.3,1.3-0.4,2c-0.1,0.7-0.1,1.4,0,2.1c0.1,1.5,0.5,3,1.2,4.3
						c0.7,1.3,1.6,2.5,2.7,3.4c1.1,1,2.3,1.7,3.7,2.2C297.3,337.4,298.8,337.7,300.3,337.6"/>
				</g>
			</g>
			<g>
				<path class="st25" d="M386.2,311.8c1.5-0.1,3,0.2,4.3,0.7c1.3,0.5,2.6,1.2,3.7,2.2c1.1,0.9,2,2.1,2.7,3.4
					c0.7,1.3,1.1,2.7,1.3,4.2c0.1,1.5,0,3-0.4,4.3c-0.4,1.3-1.1,2.5-2,3.6c-0.9,1-2,1.9-3.2,2.5c-1.2,0.6-2.7,1-4.2,1l-87.9,3.9
					c-1.5,0.1-3-0.2-4.4-0.7c-1.4-0.5-2.6-1.3-3.7-2.2c-1.1-1-2-2.1-2.7-3.4c-0.7-1.3-1.1-2.7-1.2-4.3c-0.1-1.5,0.1-3,0.5-4.3
					c0.5-1.3,1.2-2.6,2.1-3.6c0.9-1,2.1-1.9,3.3-2.5c1.3-0.6,2.7-1,4.2-1L386.2,311.8z"/>
			</g>
		</g>
		<g class="st0">
			<g class="st0">
				<defs>
					<path id="SVGID_33_" class="st0" d="M399.7,398.4c-10.4,7-20.9,14-31.3,21c-0.3,0.2-0.7,0.4-1.1,0.6c-0.4,0.2-0.8,0.4-1.2,0.5
						c-0.4,0.1-0.8,0.2-1.3,0.3c-0.4,0.1-0.9,0.1-1.3,0.2l30.9-20.9c0.5,0,1-0.1,1.5-0.2c0.5-0.1,0.9-0.2,1.4-0.4
						c0.4-0.1,0.9-0.3,1.3-0.5C398.9,398.9,399.3,398.7,399.7,398.4z"/>
				</defs>
				<clipPath id="SVGID_34_">
					<use xlink:href="#SVGID_33_"  style="overflow:visible;"/>
				</clipPath>
				<g class="st26">
					<path class="st7" d="M399.7,398.4l-31.3,21c-0.3,0.2-0.7,0.4-1.1,0.6c-0.4,0.2-0.8,0.4-1.2,0.5c-0.4,0.1-0.8,0.2-1.3,0.3
						c-0.4,0.1-0.9,0.1-1.3,0.2l30.9-20.9c0.5,0,1-0.1,1.5-0.2c0.5-0.1,0.9-0.2,1.4-0.4c0.4-0.1,0.9-0.3,1.3-0.5
						C398.9,398.9,399.3,398.7,399.7,398.4"/>
				</g>
			</g>
			<g class="st0">
				<defs>
					<path id="SVGID_35_" class="st0" d="M274,407.5c7.6-7.4,15.2-14.8,22.8-22.3c-0.6,0.5-1.1,1.2-1.5,1.8
						c-0.4,0.7-0.8,1.4-1.1,2.1c-0.3,0.7-0.5,1.5-0.6,2.3c-0.1,0.8-0.1,1.7-0.1,2.5L271,415.6c-0.1-0.8,0-1.6,0.1-2.3
						c0.1-0.7,0.3-1.5,0.6-2.1c0.3-0.7,0.6-1.3,1-1.9C273,408.6,273.5,408,274,407.5z"/>
				</defs>
				<clipPath id="SVGID_36_">
					<use xlink:href="#SVGID_35_"  style="overflow:visible;"/>
				</clipPath>
				<g class="st27">
					<path class="st7" d="M293.6,394L271,415.6c-0.1-0.8,0-1.6,0.1-2.3c0.1-0.7,0.3-1.5,0.6-2.1c0.3-0.7,0.6-1.3,1-1.9
						c0.4-0.6,0.9-1.2,1.4-1.7l22.8-22.3c-0.6,0.5-1.1,1.2-1.5,1.8c-0.4,0.7-0.8,1.4-1.1,2.1c-0.3,0.7-0.5,1.5-0.6,2.3
						C293.5,392.3,293.5,393.2,293.6,394"/>
				</g>
			</g>
			<g>
				<polygon class="st9" points="394.4,400.2 363.5,421.1 282.1,425.4 305.7,404.7 				"/>
			</g>
			<g class="st0">
				<defs>
					<path id="SVGID_37_" class="st0" d="M305.7,404.7l-23.6,20.7c-1.4,0.1-2.8-0.1-4.1-0.6c-1.3-0.5-2.4-1.2-3.4-2.1
						c-1-0.9-1.8-2-2.5-3.2c-0.6-1.2-1-2.6-1.1-4l22.6-21.6c0.1,1.6,0.6,3,1.2,4.4c0.7,1.3,1.6,2.5,2.7,3.5c1.1,1,2.4,1.7,3.8,2.2
						C302.6,404.6,304.1,404.8,305.7,404.7z"/>
				</defs>
				<clipPath id="SVGID_38_">
					<use xlink:href="#SVGID_37_"  style="overflow:visible;"/>
				</clipPath>
				<g class="st28">
					<path class="st7" d="M305.7,404.7l-23.6,20.7c-1.4,0.1-2.8-0.1-4.1-0.6c-1.3-0.5-2.4-1.2-3.4-2.1c-1-0.9-1.8-2-2.5-3.2
						c-0.6-1.2-1-2.6-1.1-4l22.6-21.6c0.1,1.6,0.6,3,1.2,4.4c0.7,1.3,1.6,2.5,2.7,3.5c1.1,1,2.4,1.7,3.8,2.2
						C302.6,404.6,304.1,404.8,305.7,404.7"/>
				</g>
			</g>
			<g>
				<path class="st11" d="M392.3,377.9c1.5-0.1,3,0.2,4.3,0.7c1.4,0.5,2.6,1.3,3.7,2.2c1.1,1,2,2.1,2.7,3.4c0.7,1.3,1.1,2.8,1.3,4.3
					c0.1,1.5,0,3-0.4,4.4c-0.4,1.4-1.1,2.6-2,3.7c-0.9,1.1-2,1.9-3.3,2.6c-1.3,0.6-2.7,1-4.2,1.1l-88.7,4.5c-1.5,0.1-3-0.2-4.4-0.7
					c-1.4-0.5-2.7-1.3-3.8-2.2c-1.1-1-2-2.1-2.7-3.5c-0.7-1.3-1.1-2.8-1.2-4.4c-0.1-1.6,0.1-3.1,0.5-4.4c0.5-1.4,1.2-2.6,2.1-3.7
					c0.9-1.1,2.1-2,3.4-2.6c1.3-0.6,2.7-1,4.3-1.1L392.3,377.9z"/>
			</g>
		</g>
		<g class="st0">
			<g class="st0">
				<defs>
					<path id="SVGID_39_" class="st0" d="M404.7,467.1c-10.7,5.1-21.3,10.3-32,15.4c-0.3,0.1-0.6,0.3-0.9,0.4
						c-0.3,0.1-0.6,0.2-0.9,0.3c-0.3,0.1-0.6,0.1-0.9,0.2c-0.3,0.1-0.6,0.1-1,0.1l31.7-15.3c0.4,0,0.7-0.1,1.1-0.1
						c0.3-0.1,0.7-0.1,1-0.2c0.3-0.1,0.7-0.2,1-0.3C404.1,467.3,404.4,467.2,404.7,467.1z"/>
				</defs>
				<clipPath id="SVGID_40_">
					<use xlink:href="#SVGID_39_"  style="overflow:visible;"/>
				</clipPath>
				<g class="st29">
					<path class="st22" d="M404.7,467.1l-32,15.4c-0.3,0.1-0.6,0.3-0.9,0.4c-0.3,0.1-0.6,0.2-0.9,0.3c-0.3,0.1-0.6,0.1-0.9,0.2
						c-0.3,0.1-0.6,0.1-1,0.1l31.7-15.3c0.4,0,0.7-0.1,1.1-0.1c0.3-0.1,0.7-0.1,1-0.2c0.3-0.1,0.7-0.2,1-0.3
						C404.1,467.3,404.4,467.2,404.7,467.1"/>
				</g>
			</g>
			<g>
				<polygon class="st23" points="400.7,468.1 369,483.4 286.8,488.3 311.1,473.3 				"/>
			</g>
			<g class="st0">
				<defs>
					<path id="SVGID_41_" class="st0" d="M280,469l23.6-16.8c-0.8,0.5-1.5,1.2-2.1,1.9c-0.6,0.7-1.1,1.5-1.5,2.4
						c-0.4,0.9-0.7,1.8-0.9,2.8c-0.2,1-0.2,2-0.2,3c0.1,1.6,0.6,3.1,1.2,4.4c0.7,1.3,1.6,2.5,2.7,3.5c1.1,1,2.4,1.8,3.8,2.3
						c1.4,0.5,2.9,0.7,4.5,0.7l-24.3,15c-1.4,0.1-2.8-0.1-4.1-0.6c-1.3-0.5-2.5-1.2-3.5-2.1c-1-0.9-1.9-2-2.5-3.2
						c-0.6-1.2-1-2.6-1.1-4.1c-0.1-1,0-1.9,0.2-2.8c0.2-0.9,0.5-1.7,0.8-2.5c0.4-0.8,0.9-1.5,1.4-2.2
						C278.6,470.1,279.2,469.5,280,469z"/>
				</defs>
				<clipPath id="SVGID_42_">
					<use xlink:href="#SVGID_41_"  style="overflow:visible;"/>
				</clipPath>
				<g class="st30">
					<path class="st22" d="M311.1,473.3l-24.3,15c-1.4,0.1-2.8-0.1-4.1-0.6c-1.3-0.5-2.5-1.2-3.5-2.1c-1-0.9-1.9-2-2.5-3.2
						c-0.6-1.2-1-2.6-1.1-4.1c-0.1-1,0-1.9,0.2-2.8c0.2-0.9,0.5-1.7,0.8-2.5c0.4-0.8,0.9-1.5,1.4-2.2c0.6-0.7,1.2-1.3,1.9-1.8
						l23.6-16.8c-0.8,0.5-1.5,1.2-2.1,1.9c-0.6,0.7-1.1,1.5-1.5,2.4c-0.4,0.9-0.7,1.8-0.9,2.8c-0.2,1-0.2,2-0.2,3
						c0.1,1.6,0.6,3.1,1.2,4.4c0.7,1.3,1.6,2.5,2.7,3.5c1.1,1,2.4,1.8,3.8,2.3C308,473.2,309.5,473.4,311.1,473.3"/>
				</g>
			</g>
			<g>
				<path class="st25" d="M398.6,445.3c1.5-0.1,3,0.2,4.4,0.7c1.4,0.5,2.6,1.3,3.7,2.2c1.1,1,2,2.2,2.7,3.5c0.7,1.3,1.1,2.8,1.3,4.4
					c0.1,1.6,0,3.1-0.4,4.5c-0.4,1.4-1.1,2.7-2,3.8c-0.9,1.1-2,2-3.3,2.7c-1.3,0.7-2.7,1.1-4.2,1.1l-89.6,5.2
					c-1.6,0.1-3.1-0.1-4.5-0.7c-1.4-0.5-2.7-1.3-3.8-2.3c-1.1-1-2-2.2-2.7-3.5c-0.7-1.3-1.1-2.8-1.2-4.4c-0.1-1.6,0.1-3.1,0.5-4.5
					c0.5-1.4,1.2-2.7,2.1-3.8c0.9-1.1,2.1-2,3.4-2.7c1.3-0.7,2.8-1.1,4.3-1.1L398.6,445.3z"/>
			</g>
		</g>
		<g class="st0">
			<g class="st0">
				<defs>
					<path id="SVGID_43_" class="st0" d="M242.3,15.8L225,66.5c-0.3,0.9-0.7,1.7-1.3,2.4c-0.5,0.7-1.2,1.4-2,1.9
						c-0.8,0.5-1.6,1-2.5,1.3c-0.9,0.3-1.9,0.5-2.9,0.5l16.6-50.3c1.1,0,2.2-0.2,3.2-0.5c1-0.3,1.9-0.8,2.7-1.4
						c0.8-0.6,1.5-1.3,2.1-2C241.5,17.6,241.9,16.7,242.3,15.8z"/>
				</defs>
				<clipPath id="SVGID_44_">
					<use xlink:href="#SVGID_43_"  style="overflow:visible;"/>
				</clipPath>
				<g class="st31">
					<path class="st32" d="M242.3,15.8L225,66.5c0,0.1,0,0.1-0.1,0.2c0,0.1,0,0.1-0.1,0.2c0,0.1,0,0.1-0.1,0.2c0,0.1,0,0.1-0.1,0.2
						L242,16.5c0-0.1,0.1-0.1,0.1-0.2c0-0.1,0-0.1,0.1-0.2s0-0.1,0.1-0.2C242.2,15.9,242.2,15.8,242.3,15.8"/>
					<path class="st33" d="M242,16.5l-17.3,50.7c-0.3,0.8-0.8,1.5-1.4,2.2c-0.6,0.6-1.2,1.2-1.9,1.7c-0.7,0.5-1.5,0.9-2.4,1.1
						c-0.9,0.3-1.8,0.4-2.8,0.4l16.6-50.3c1.1,0,2.1-0.2,3-0.5c0.9-0.3,1.8-0.7,2.6-1.2c0.8-0.5,1.5-1.1,2.1-1.8
						C241.1,18.1,241.6,17.3,242,16.5"/>
				</g>
			</g>
			<g>
				<polygon class="st34" points="232.8,22.2 216.3,72.6 137.1,73.9 146.8,23.3 				"/>
			</g>
			<g class="st0">
				<defs>
					<path id="SVGID_45_" class="st0" d="M126.7,62.7l8.8-51.6c0,0.2-0.1,0.3-0.1,0.5c0,0.2,0,0.3,0,0.5c0,0.2,0,0.4,0,0.5
						c0,0.2,0,0.4,0,0.5c0.1,1.4,0.5,2.7,1.1,3.9c0.6,1.2,1.5,2.3,2.5,3.2c1,0.9,2.2,1.6,3.6,2.1c1.3,0.5,2.8,0.8,4.3,0.7l-9.7,50.7
						c-1.4,0-2.7-0.2-3.9-0.7c-1.2-0.5-2.3-1.1-3.3-2c-1-0.8-1.7-1.8-2.3-2.9c-0.6-1.1-0.9-2.3-1-3.6c0-0.2,0-0.3,0-0.5
						c0-0.2,0-0.3,0-0.5c0-0.2,0-0.3,0-0.5C126.7,63.1,126.7,62.9,126.7,62.7z"/>
				</defs>
				<clipPath id="SVGID_46_">
					<use xlink:href="#SVGID_45_"  style="overflow:visible;"/>
				</clipPath>
				<g class="st35">
					<path class="st33" d="M146.8,23.3l-9.7,50.7c-1.4,0-2.7-0.2-3.9-0.7c-1.2-0.5-2.3-1.1-3.3-2c-1-0.8-1.7-1.8-2.3-2.9
						c-0.6-1.1-0.9-2.3-1-3.6c0-0.2,0-0.3,0-0.5c0-0.2,0-0.3,0-0.5c0-0.2,0-0.3,0-0.5c0-0.2,0-0.3,0.1-0.5l8.8-51.6
						c0,0.2-0.1,0.3-0.1,0.5c0,0.2,0,0.3,0,0.5c0,0.2,0,0.4,0,0.5c0,0.2,0,0.4,0,0.5c0.1,1.4,0.5,2.7,1.1,3.9
						c0.6,1.2,1.5,2.3,2.5,3.2c1,0.9,2.2,1.6,3.6,2.1C143.9,23,145.3,23.3,146.8,23.3"/>
				</g>
			</g>
			<g>
				<path class="st36" d="M231.4,2.2c1.5,0,2.9,0.3,4.2,0.7c1.3,0.5,2.5,1.2,3.5,2.1c1,0.9,1.9,2,2.5,3.2c0.6,1.2,1,2.5,1.1,3.9
					c0.1,1.4-0.1,2.7-0.5,3.9c-0.4,1.2-1.1,2.3-2,3.2c-0.9,0.9-2,1.7-3.2,2.2c-1.2,0.5-2.6,0.8-4.1,0.8l-86,1
					c-1.5,0-2.9-0.2-4.3-0.7c-1.3-0.5-2.5-1.2-3.6-2.1c-1-0.9-1.9-2-2.5-3.2c-0.6-1.2-1-2.5-1.1-3.9c-0.1-1.4,0.1-2.7,0.6-3.9
					c0.5-1.2,1.2-2.3,2.1-3.2c0.9-0.9,2.1-1.7,3.3-2.2c1.3-0.5,2.7-0.8,4.2-0.8L231.4,2.2z"/>
			</g>
		</g>
		<g class="st0">
			<g class="st0">
				<defs>
					<path id="SVGID_47_" class="st0" d="M246.6,76.9l-17.8,46.3c-0.3,0.8-0.8,1.6-1.3,2.3c-0.6,0.7-1.2,1.3-2,1.8
						c-0.7,0.5-1.6,0.9-2.5,1.2c-0.9,0.3-1.9,0.5-2.9,0.5l17.1-45.9c1.1,0,2.2-0.2,3.1-0.5c1-0.3,1.9-0.8,2.7-1.3
						c0.8-0.6,1.5-1.2,2.1-2C245.8,78.6,246.3,77.8,246.6,76.9z"/>
				</defs>
				<clipPath id="SVGID_48_">
					<use xlink:href="#SVGID_47_"  style="overflow:visible;"/>
				</clipPath>
				<g class="st37">
					<path class="st38" d="M246.6,76.9l-17.8,46.3c0,0,0,0.1,0,0.1c0,0,0,0.1,0,0.1c0,0,0,0.1,0,0.1s0,0.1,0,0.1l17.8-46.3
						c0,0,0-0.1,0-0.1c0,0,0-0.1,0-0.1C246.6,77,246.6,77,246.6,76.9C246.6,76.9,246.6,76.9,246.6,76.9"/>
					<path class="st7" d="M246.5,77.2l-17.8,46.3c-0.3,0.8-0.8,1.5-1.4,2.2c-0.6,0.7-1.2,1.2-1.9,1.7c-0.7,0.5-1.6,0.9-2.4,1.2
						c-0.9,0.3-1.8,0.4-2.8,0.5l17.1-45.9c1.1,0,2.1-0.2,3-0.5c1-0.3,1.8-0.7,2.6-1.2c0.8-0.5,1.5-1.2,2.1-1.9
						C245.6,78.9,246.1,78.1,246.5,77.2"/>
				</g>
			</g>
			<g class="st0">
				<defs>
					<path id="SVGID_49_" class="st0" d="M129.9,119.3l9.2-47.1c0,0.2-0.1,0.4-0.1,0.6c0,0.2,0,0.4-0.1,0.6c0,0.2,0,0.4,0,0.6
						c0,0.2,0,0.4,0,0.6l-9.2,46.9c0-0.2,0-0.4,0-0.6c0-0.2,0-0.4,0-0.6c0-0.2,0-0.4,0.1-0.6C129.8,119.6,129.8,119.5,129.9,119.3z"
						/>
				</defs>
				<clipPath id="SVGID_50_">
					<use xlink:href="#SVGID_49_"  style="overflow:visible;"/>
				</clipPath>
				<g class="st39">
					<path class="st7" d="M138.9,74.6l-9.2,46.9c0-0.2,0-0.4,0-0.6c0-0.2,0-0.4,0-0.6c0-0.2,0-0.4,0.1-0.6c0-0.2,0.1-0.4,0.1-0.5
						l9.2-47.1c0,0.2-0.1,0.4-0.1,0.6c0,0.2,0,0.4-0.1,0.6c0,0.2,0,0.4,0,0.6C138.9,74.2,138.9,74.4,138.9,74.6"/>
				</g>
			</g>
			<g>
				<polygon class="st9" points="237.2,83.2 220.2,129 140.3,130.8 150.4,84.7 				"/>
			</g>
			<g class="st0">
				<defs>
					<path id="SVGID_51_" class="st0" d="M150.4,84.7l-10.1,46.1c-1.4,0-2.7-0.2-4-0.7c-1.2-0.5-2.4-1.1-3.3-2c-1-0.8-1.8-1.9-2.3-3
						c-0.6-1.1-0.9-2.4-1-3.7l9.2-46.9c0.1,1.4,0.5,2.8,1.1,4c0.6,1.2,1.5,2.3,2.5,3.2c1,0.9,2.3,1.7,3.6,2.2
						C147.4,84.5,148.9,84.8,150.4,84.7z"/>
				</defs>
				<clipPath id="SVGID_52_">
					<use xlink:href="#SVGID_51_"  style="overflow:visible;"/>
				</clipPath>
				<g class="st40">
					<path class="st7" d="M150.4,84.7l-10.1,46.1c-1.4,0-2.7-0.2-4-0.7c-1.2-0.5-2.4-1.1-3.3-2c-1-0.8-1.8-1.9-2.3-3
						c-0.6-1.1-0.9-2.4-1-3.7l9.2-46.9c0.1,1.4,0.5,2.8,1.1,4c0.6,1.2,1.5,2.3,2.5,3.2c1,0.9,2.3,1.7,3.6,2.2
						C147.4,84.5,148.9,84.8,150.4,84.7"/>
				</g>
			</g>
			<g>
				<path class="st11" d="M235.8,62.7c1.5,0,2.9,0.2,4.2,0.7c1.3,0.5,2.5,1.2,3.6,2.1c1,0.9,1.9,2,2.5,3.2c0.6,1.2,1,2.5,1.1,4
					c0.1,1.4-0.1,2.8-0.5,4c-0.5,1.2-1.2,2.3-2.1,3.3c-0.9,0.9-2,1.7-3.3,2.3c-1.2,0.5-2.6,0.9-4.1,0.9l-86.8,1.6
					c-1.5,0-3-0.2-4.3-0.7c-1.3-0.5-2.6-1.2-3.6-2.2c-1-0.9-1.9-2-2.5-3.2c-0.6-1.2-1-2.6-1.1-4c-0.1-1.4,0.1-2.8,0.6-4
					c0.5-1.2,1.2-2.4,2.2-3.3c0.9-0.9,2.1-1.7,3.3-2.3c1.3-0.5,2.7-0.9,4.2-0.9L235.8,62.7z"/>
			</g>
		</g>
		<g class="st0">
			<g class="st0">
				<defs>
					<path id="SVGID_53_" class="st0" d="M251,139.3l-18.3,41.6c-0.4,0.8-0.8,1.5-1.4,2.2c-0.6,0.7-1.2,1.3-2,1.7
						c-0.7,0.5-1.6,0.9-2.4,1.2c-0.9,0.3-1.8,0.4-2.8,0.5l17.6-41.2c1.1,0,2.1-0.2,3-0.5c1-0.3,1.8-0.7,2.6-1.3
						c0.8-0.5,1.5-1.2,2.1-1.9C250.1,141,250.6,140.2,251,139.3z"/>
				</defs>
				<clipPath id="SVGID_54_">
					<use xlink:href="#SVGID_53_"  style="overflow:visible;"/>
				</clipPath>
				<g class="st41">
					<path class="st33" d="M251,139.3l-18.3,41.6c-0.4,0.8-0.8,1.5-1.4,2.2c-0.6,0.7-1.2,1.3-2,1.7c-0.7,0.5-1.6,0.9-2.4,1.2
						c-0.9,0.3-1.8,0.4-2.8,0.5l17.6-41.2c1.1,0,2.1-0.2,3-0.5c1-0.3,1.8-0.7,2.6-1.3c0.8-0.5,1.5-1.2,2.1-1.9
						C250.1,141,250.6,140.2,251,139.3"/>
				</g>
			</g>
			<g>
				<polygon class="st42" points="241.7,145.3 224.1,186.5 143.6,188.8 154.1,147.5 				"/>
			</g>
			<g class="st0">
				<defs>
					<path id="SVGID_55_" class="st0" d="M133.1,176.8l9.6-42.4c0,0.2-0.1,0.4-0.1,0.7c0,0.2-0.1,0.5-0.1,0.7c0,0.2,0,0.5,0,0.7
						c0,0.2,0,0.5,0,0.7c0.1,1.5,0.5,2.8,1.1,4.1c0.6,1.2,1.5,2.4,2.6,3.3c1.1,0.9,2.3,1.7,3.6,2.2c1.4,0.5,2.8,0.8,4.4,0.7
						l-10.5,41.4c-1.4,0-2.8-0.2-4-0.7c-1.2-0.5-2.4-1.1-3.3-2c-1-0.9-1.8-1.9-2.3-3c-0.6-1.2-0.9-2.4-1-3.8c0-0.2,0-0.4,0-0.7
						c0-0.2,0-0.4,0-0.6c0-0.2,0-0.4,0.1-0.6C133,177.2,133,177,133.1,176.8z"/>
				</defs>
				<clipPath id="SVGID_56_">
					<use xlink:href="#SVGID_55_"  style="overflow:visible;"/>
				</clipPath>
				<g class="st43">
					<path class="st33" d="M154.1,147.5l-10.5,41.4c-1.4,0-2.8-0.2-4-0.7c-1.2-0.5-2.4-1.1-3.3-2c-1-0.9-1.8-1.9-2.3-3
						c-0.6-1.2-0.9-2.4-1-3.8c0-0.2,0-0.4,0-0.7c0-0.2,0-0.4,0-0.6c0-0.2,0-0.4,0.1-0.6c0-0.2,0.1-0.4,0.1-0.6l9.6-42.4
						c0,0.2-0.1,0.4-0.1,0.7c0,0.2-0.1,0.5-0.1,0.7c0,0.2,0,0.5,0,0.7c0,0.2,0,0.5,0,0.7c0.1,1.5,0.5,2.8,1.1,4.1
						c0.6,1.2,1.5,2.4,2.6,3.3c1.1,0.9,2.3,1.7,3.6,2.2C151.1,147.2,152.5,147.5,154.1,147.5"/>
				</g>
			</g>
			<g>
				<path class="st36" d="M240.2,124.5c1.5,0,2.9,0.2,4.3,0.7c1.3,0.5,2.6,1.2,3.6,2.2c1,0.9,1.9,2,2.6,3.3c0.6,1.2,1,2.6,1.2,4
					c0.1,1.4-0.1,2.8-0.6,4.1c-0.5,1.3-1.2,2.4-2.1,3.4c-0.9,1-2,1.8-3.3,2.3c-1.3,0.6-2.7,0.9-4.2,0.9l-87.7,2.1
					c-1.5,0-3-0.2-4.4-0.7c-1.4-0.5-2.6-1.2-3.6-2.2c-1.1-0.9-1.9-2.1-2.6-3.3c-0.6-1.2-1-2.6-1.1-4.1c-0.1-1.5,0.1-2.8,0.6-4.1
					c0.5-1.3,1.2-2.4,2.2-3.4c0.9-1,2.1-1.8,3.4-2.3c1.3-0.6,2.7-0.9,4.2-0.9L240.2,124.5z"/>
			</g>
		</g>
		<g class="st0">
			<g class="st0">
				<defs>
					<path id="SVGID_57_" class="st0" d="M255.4,203.1c-6.3,12.3-12.6,24.5-18.9,36.8c-0.4,0.7-0.9,1.4-1.4,2.1
						c-0.6,0.6-1.2,1.2-1.9,1.6c-0.7,0.5-1.5,0.8-2.3,1.1c-0.8,0.3-1.7,0.4-2.7,0.4l18.1-36.3c1,0,2-0.2,2.9-0.5
						c0.9-0.3,1.8-0.7,2.5-1.2c0.8-0.5,1.5-1.1,2.1-1.7C254.5,204.7,255,203.9,255.4,203.1z"/>
				</defs>
				<clipPath id="SVGID_58_">
					<use xlink:href="#SVGID_57_"  style="overflow:visible;"/>
				</clipPath>
				<g class="st44">
					<path class="st7" d="M255.4,203.1l-18.9,36.8c-0.4,0.7-0.9,1.4-1.4,2.1c-0.6,0.6-1.2,1.2-1.9,1.6c-0.7,0.5-1.5,0.8-2.3,1.1
						c-0.8,0.3-1.7,0.4-2.7,0.4l18.1-36.3c1,0,2-0.2,2.9-0.5c0.9-0.3,1.8-0.7,2.5-1.2c0.8-0.5,1.5-1.1,2.1-1.7
						C254.5,204.7,255,203.9,255.4,203.1"/>
				</g>
			</g>
			<g class="st0">
				<defs>
					<path id="SVGID_59_" class="st0" d="M136.4,235.4c0.3-1,0.6-2.4,0.9-3.5c0.1-0.5,0.3-1.2,0.5-1.8c0.3-1.1,0.7-2.5,0.9-3.6
						c0.3-1.1,0.7-2.5,1-3.6c0.1-0.5,0.3-1.3,0.5-1.8c0.3-1.1,0.7-2.6,1-3.7c0.3-1.1,0.7-2.6,1-3.8c0.2-0.6,0.4-1.3,0.5-1.9
						c0.3-1.2,0.7-2.7,1-3.9c0.3-1.2,0.7-2.8,1-3.9c0.2-0.6,0.4-1.4,0.5-2c0.3-1.2,0.8-2.8,1.1-4.1c-0.1,0.3-0.1,0.5-0.2,0.8
						c0,0.3-0.1,0.5-0.1,0.8c0,0.3,0,0.5-0.1,0.8c0,0.3,0,0.6,0,0.8l-9.9,37.3c0-0.3,0-0.5,0-0.8c0-0.3,0-0.5,0-0.8
						c0-0.2,0.1-0.5,0.1-0.7C136.3,235.8,136.3,235.6,136.4,235.4z"/>
				</defs>
				<clipPath id="SVGID_60_">
					<use xlink:href="#SVGID_59_"  style="overflow:visible;"/>
				</clipPath>
				<g class="st45">
					<path class="st7" d="M146,201.1l-9.9,37.3c0-0.3,0-0.5,0-0.8c0-0.3,0-0.5,0-0.8c0-0.2,0.1-0.5,0.1-0.7c0-0.2,0.1-0.5,0.2-0.7
						l10-37.5c-0.1,0.3-0.1,0.5-0.2,0.8c0,0.3-0.1,0.5-0.1,0.8c0,0.3,0,0.5-0.1,0.8C146,200.5,146,200.8,146,201.1"/>
				</g>
			</g>
			<g>
				<polygon class="st9" points="246.3,208.7 228.2,245.1 146.9,247.9 157.8,211.5 				"/>
			</g>
			<g class="st0">
				<defs>
					<path id="SVGID_61_" class="st0" d="M157.8,211.5l-10.9,36.4c-1.4,0-2.8-0.2-4-0.6c-1.3-0.5-2.4-1.2-3.4-2
						c-1-0.9-1.8-1.9-2.4-3.1c-0.6-1.2-0.9-2.5-1-3.8l9.9-37.3c0.1,1.5,0.5,2.9,1.1,4.2c0.6,1.3,1.5,2.4,2.6,3.4
						c1.1,0.9,2.3,1.7,3.7,2.2C154.8,211.3,156.3,211.5,157.8,211.5z"/>
				</defs>
				<clipPath id="SVGID_62_">
					<use xlink:href="#SVGID_61_"  style="overflow:visible;"/>
				</clipPath>
				<g class="st46">
					<path class="st7" d="M157.8,211.5l-10.9,36.4c-1.4,0-2.8-0.2-4-0.6c-1.3-0.5-2.4-1.2-3.4-2c-1-0.9-1.8-1.9-2.4-3.1
						c-0.6-1.2-0.9-2.5-1-3.8l9.9-37.3c0.1,1.5,0.5,2.9,1.1,4.2c0.6,1.3,1.5,2.4,2.6,3.4c1.1,0.9,2.3,1.7,3.7,2.2
						C154.8,211.3,156.3,211.5,157.8,211.5"/>
				</g>
			</g>
			<g>
				<path class="st11" d="M244.8,187.5c1.5,0,3,0.2,4.3,0.7c1.3,0.5,2.6,1.2,3.6,2.2c1.1,0.9,1.9,2.1,2.6,3.3
					c0.6,1.3,1.1,2.6,1.2,4.1c0.1,1.5-0.1,2.9-0.6,4.2c-0.5,1.3-1.2,2.5-2.1,3.5c-0.9,1-2,1.8-3.3,2.4c-1.3,0.6-2.7,0.9-4.2,1
					l-88.5,2.7c-1.5,0-3-0.2-4.4-0.7c-1.4-0.5-2.6-1.3-3.7-2.2c-1.1-0.9-2-2.1-2.6-3.4c-0.6-1.3-1-2.7-1.1-4.2
					c-0.1-1.5,0.1-2.9,0.6-4.2c0.5-1.3,1.2-2.5,2.2-3.5c1-1,2.1-1.8,3.4-2.4c1.3-0.6,2.7-0.9,4.3-1L244.8,187.5z"/>
			</g>
		</g>
		<g class="st0">
			<g class="st0">
				<defs>
					<path id="SVGID_63_" class="st0" d="M259.8,268.4c-6.5,10.6-12.9,21.1-19.4,31.7c-0.4,0.7-0.9,1.3-1.5,1.8
						c-0.6,0.6-1.2,1-1.9,1.4c-0.7,0.4-1.4,0.7-2.2,1c-0.8,0.2-1.6,0.4-2.5,0.4l18.7-31.3c0.9,0,1.9-0.2,2.7-0.4
						c0.9-0.3,1.7-0.6,2.4-1c0.7-0.4,1.4-1,2-1.6C258.8,269.8,259.3,269.2,259.8,268.4z"/>
				</defs>
				<clipPath id="SVGID_64_">
					<use xlink:href="#SVGID_63_"  style="overflow:visible;"/>
				</clipPath>
				<g class="st47">
					<path class="st33" d="M259.8,268.4l-19.4,31.7c-0.4,0.7-0.9,1.3-1.5,1.8c-0.6,0.6-1.2,1-1.9,1.4c-0.7,0.4-1.4,0.7-2.2,1
						c-0.8,0.2-1.6,0.4-2.5,0.4l18.7-31.3c0.9,0,1.9-0.2,2.7-0.4c0.9-0.3,1.7-0.6,2.4-1c0.7-0.4,1.4-1,2-1.6
						C258.8,269.8,259.3,269.2,259.8,268.4"/>
				</g>
			</g>
			<g>
				<polygon class="st42" points="251,273.5 232.3,304.8 150.3,308.1 161.6,276.8 				"/>
			</g>
			<g class="st0">
				<defs>
					<path id="SVGID_65_" class="st0" d="M139.8,294.9l10.4-32.4c-0.1,0.3-0.2,0.6-0.2,0.9c-0.1,0.3-0.1,0.6-0.2,0.9
						c0,0.3-0.1,0.6-0.1,1c0,0.3,0,0.7,0,1c0.1,1.5,0.5,3,1.1,4.2c0.6,1.3,1.5,2.4,2.6,3.4c1.1,1,2.3,1.7,3.7,2.2
						c1.4,0.5,2.9,0.8,4.4,0.7l-11.3,31.3c-1.4,0.1-2.8-0.2-4.1-0.6c-1.3-0.5-2.4-1.2-3.4-2c-1-0.9-1.8-1.9-2.4-3.1
						c-0.6-1.2-1-2.5-1-3.9c0-0.3,0-0.6,0-0.9c0-0.3,0-0.6,0.1-0.9c0-0.3,0.1-0.6,0.2-0.9C139.6,295.4,139.7,295.1,139.8,294.9z"/>
				</defs>
				<clipPath id="SVGID_66_">
					<use xlink:href="#SVGID_65_"  style="overflow:visible;"/>
				</clipPath>
				<g class="st48">
					<path class="st33" d="M161.6,276.8l-11.3,31.3c-1.4,0.1-2.8-0.2-4.1-0.6c-1.3-0.5-2.4-1.2-3.4-2c-1-0.9-1.8-1.9-2.4-3.1
						c-0.6-1.2-1-2.5-1-3.9c0-0.3,0-0.6,0-0.9c0-0.3,0-0.6,0.1-0.9c0-0.3,0.1-0.6,0.2-0.9c0.1-0.3,0.1-0.6,0.2-0.8l10.4-32.4
						c-0.1,0.3-0.2,0.6-0.2,0.9c-0.1,0.3-0.1,0.6-0.2,0.9c0,0.3-0.1,0.6-0.1,1c0,0.3,0,0.7,0,1c0.1,1.5,0.5,3,1.1,4.2
						c0.6,1.3,1.5,2.4,2.6,3.4c1.1,1,2.3,1.7,3.7,2.2C158.5,276.6,160.1,276.9,161.6,276.8"/>
				</g>
			</g>
			<g>
				<path class="st36" d="M249.4,251.8c1.5-0.1,3,0.2,4.4,0.7c1.4,0.5,2.6,1.3,3.7,2.2c1.1,0.9,2,2.1,2.6,3.4
					c0.7,1.3,1.1,2.7,1.2,4.2c0.1,1.5-0.1,2.9-0.6,4.3c-0.5,1.3-1.2,2.5-2.1,3.5c-0.9,1-2.1,1.9-3.3,2.5c-1.3,0.6-2.7,1-4.2,1
					l-89.4,3.4c-1.6,0.1-3.1-0.2-4.4-0.7c-1.4-0.5-2.6-1.3-3.7-2.2c-1.1-1-2-2.1-2.6-3.4c-0.6-1.3-1-2.7-1.1-4.2
					c-0.1-1.5,0.1-3,0.6-4.3c0.5-1.3,1.3-2.5,2.2-3.6c1-1,2.1-1.9,3.4-2.5c1.3-0.6,2.8-1,4.3-1L249.4,251.8z"/>
			</g>
		</g>
		<g class="st0">
			<g class="st0">
				<defs>
					<path id="SVGID_67_" class="st0" d="M264,335.3l-19.9,26.4c-0.4,0.6-0.9,1.1-1.5,1.6c-0.5,0.5-1.1,0.9-1.8,1.2
						c-0.6,0.3-1.3,0.6-2,0.8c-0.7,0.2-1.5,0.3-2.3,0.4l19.3-26c0.9,0,1.7-0.2,2.5-0.4c0.8-0.2,1.5-0.5,2.2-0.9
						c0.7-0.4,1.3-0.8,1.9-1.3C263,336.5,263.5,335.9,264,335.3z"/>
				</defs>
				<clipPath id="SVGID_68_">
					<use xlink:href="#SVGID_67_"  style="overflow:visible;"/>
				</clipPath>
				<g class="st49">
					<path class="st7" d="M264,335.3l-19.9,26.4c-0.4,0.6-0.9,1.1-1.5,1.6c-0.5,0.5-1.1,0.9-1.8,1.2c-0.6,0.3-1.3,0.6-2,0.8
						c-0.7,0.2-1.5,0.3-2.3,0.4l19.3-26c0.9,0,1.7-0.2,2.5-0.4c0.8-0.2,1.5-0.5,2.2-0.9c0.7-0.4,1.3-0.8,1.9-1.3
						C263,336.5,263.5,335.9,264,335.3"/>
				</g>
			</g>
			<g class="st0">
				<defs>
					<path id="SVGID_69_" class="st0" d="M143.4,355.3c0.3-0.8,0.7-1.8,1-2.5c0.2-0.4,0.4-0.9,0.5-1.3c0.3-0.8,0.7-1.8,1-2.6
						c0.3-0.8,0.7-1.8,1-2.6c0.2-0.4,0.4-0.9,0.5-1.3c0.3-0.8,0.7-1.9,1.1-2.7c0.3-0.8,0.8-1.9,1.1-2.7c0.2-0.4,0.4-1,0.6-1.4
						c0.3-0.8,0.8-2,1.1-2.8c0.3-0.9,0.8-2,1.1-2.9c0.2-0.4,0.4-1,0.6-1.5c0.4-0.9,0.8-2.1,1.2-2.9c-0.1,0.4-0.3,0.7-0.4,1.1
						c-0.1,0.4-0.2,0.8-0.3,1.1c-0.1,0.4-0.1,0.8-0.1,1.2c0,0.4,0,0.8,0,1.2l-10.8,26.8c0-0.4,0-0.8,0-1.1c0-0.4,0.1-0.7,0.1-1.1
						c0.1-0.4,0.1-0.7,0.2-1.1C143.2,356,143.3,355.7,143.4,355.3z"/>
				</defs>
				<clipPath id="SVGID_70_">
					<use xlink:href="#SVGID_69_"  style="overflow:visible;"/>
				</clipPath>
				<g class="st50">
					<path class="st7" d="M153.5,332.8l-10.8,26.8c0-0.4,0-0.8,0-1.1c0-0.4,0.1-0.7,0.1-1.1c0.1-0.4,0.1-0.7,0.2-1.1
						c0.1-0.3,0.2-0.7,0.3-1l10.8-27.2c-0.1,0.4-0.3,0.7-0.4,1.1c-0.1,0.4-0.2,0.8-0.3,1.1c-0.1,0.4-0.1,0.8-0.1,1.2
						C153.4,332,153.4,332.4,153.5,332.8"/>
				</g>
			</g>
			<g>
				<polygon class="st9" points="255.8,339.6 236.5,365.6 153.7,369.5 165.5,343.6 				"/>
			</g>
			<g class="st0">
				<defs>
					<path id="SVGID_71_" class="st0" d="M165.5,343.6l-11.8,25.9c-1.4,0.1-2.8-0.2-4.1-0.6c-1.3-0.5-2.4-1.2-3.4-2.1
						c-1-0.9-1.8-2-2.4-3.2c-0.6-1.2-1-2.6-1-4l10.8-26.8c0.1,1.5,0.5,3,1.1,4.3c0.7,1.3,1.6,2.5,2.6,3.5c1.1,1,2.4,1.7,3.8,2.2
						C162.4,343.4,163.9,343.6,165.5,343.6z"/>
				</defs>
				<clipPath id="SVGID_72_">
					<use xlink:href="#SVGID_71_"  style="overflow:visible;"/>
				</clipPath>
				<g class="st51">
					<path class="st7" d="M165.5,343.6l-11.8,25.9c-1.4,0.1-2.8-0.2-4.1-0.6c-1.3-0.5-2.4-1.2-3.4-2.1c-1-0.9-1.8-2-2.4-3.2
						c-0.6-1.2-1-2.6-1-4l10.8-26.8c0.1,1.5,0.5,3,1.1,4.3c0.7,1.3,1.6,2.5,2.6,3.5c1.1,1,2.4,1.7,3.8,2.2
						C162.4,343.4,163.9,343.6,165.5,343.6"/>
				</g>
			</g>
			<g>
				<path class="st11" d="M254.2,317.4c1.5-0.1,3,0.2,4.4,0.7c1.4,0.5,2.6,1.3,3.7,2.2c1.1,1,2,2.1,2.6,3.4c0.7,1.3,1.1,2.7,1.2,4.3
					c0.1,1.5-0.1,3-0.6,4.4c-0.5,1.4-1.2,2.6-2.1,3.6c-0.9,1.1-2.1,1.9-3.4,2.5c-1.3,0.6-2.7,1-4.3,1.1l-90.3,4
					c-1.6,0.1-3.1-0.2-4.5-0.7c-1.4-0.5-2.7-1.3-3.8-2.2c-1.1-1-2-2.1-2.6-3.5c-0.7-1.3-1.1-2.8-1.1-4.3c-0.1-1.5,0.1-3,0.6-4.4
					c0.5-1.4,1.3-2.6,2.2-3.7c1-1.1,2.2-1.9,3.5-2.5c1.3-0.6,2.8-1,4.4-1.1L254.2,317.4z"/>
			</g>
		</g>
		<g class="st0">
			<g class="st0">
				<defs>
					<path id="SVGID_73_" class="st0" d="M268,403.8l-20.5,20.8c-0.4,0.4-0.9,0.8-1.4,1.2c-0.5,0.4-1,0.7-1.6,0.9
						c-0.6,0.3-1.2,0.5-1.8,0.6c-0.6,0.2-1.3,0.2-1.9,0.3l19.9-20.5c0.7,0,1.4-0.1,2.1-0.3c0.7-0.2,1.3-0.4,1.9-0.7
						c0.6-0.3,1.2-0.6,1.7-1C267,404.7,267.5,404.3,268,403.8z"/>
				</defs>
				<clipPath id="SVGID_74_">
					<use xlink:href="#SVGID_73_"  style="overflow:visible;"/>
				</clipPath>
				<g class="st52">
					<path class="st33" d="M268,403.8l-20.5,20.8c-0.4,0.4-0.9,0.8-1.4,1.2c-0.5,0.4-1,0.7-1.6,0.9c-0.6,0.3-1.2,0.5-1.8,0.6
						c-0.6,0.2-1.3,0.2-1.9,0.3l19.9-20.5c0.7,0,1.4-0.1,2.1-0.3c0.7-0.2,1.3-0.4,1.9-0.7c0.6-0.3,1.2-0.6,1.7-1
						C267,404.7,267.5,404.3,268,403.8"/>
				</g>
			</g>
			<g>
				<polygon class="st42" points="260.7,407 240.8,427.6 157.2,432 169.5,411.7 				"/>
			</g>
			<g class="st0">
				<defs>
					<path id="SVGID_75_" class="st0" d="M147.3,416.7c3.8-7.2,7.5-14.5,11.3-21.7c-0.2,0.4-0.4,0.9-0.6,1.4
						c-0.2,0.5-0.3,0.9-0.4,1.4c-0.1,0.5-0.2,1-0.2,1.5c0,0.5,0,1,0,1.6c0.1,1.6,0.5,3.1,1.2,4.4c0.7,1.3,1.6,2.5,2.7,3.5
						c1.1,1,2.4,1.8,3.8,2.3c1.4,0.5,2.9,0.8,4.5,0.7L157.2,432c-1.5,0.1-2.9-0.1-4.1-0.6c-1.3-0.5-2.5-1.2-3.5-2.1
						c-1-0.9-1.8-2-2.4-3.2c-0.6-1.2-1-2.6-1.1-4c0-0.5,0-1,0-1.4c0-0.5,0.1-0.9,0.2-1.4c0.1-0.5,0.2-0.9,0.4-1.3
						C146.9,417.5,147.1,417.1,147.3,416.7z"/>
				</defs>
				<clipPath id="SVGID_76_">
					<use xlink:href="#SVGID_75_"  style="overflow:visible;"/>
				</clipPath>
				<g class="st53">
					<path class="st33" d="M169.5,411.7L157.2,432c-1.5,0.1-2.9-0.1-4.1-0.6c-1.3-0.5-2.5-1.2-3.5-2.1c-1-0.9-1.8-2-2.4-3.2
						c-0.6-1.2-1-2.6-1.1-4c0-0.5,0-1,0-1.4c0-0.5,0.1-0.9,0.2-1.4c0.1-0.5,0.2-0.9,0.4-1.3c0.2-0.4,0.3-0.8,0.5-1.2l11.3-21.7
						c-0.2,0.4-0.4,0.9-0.6,1.4c-0.2,0.5-0.3,0.9-0.4,1.4c-0.1,0.5-0.2,1-0.2,1.5c0,0.5,0,1,0,1.6c0.1,1.6,0.5,3.1,1.2,4.4
						c0.7,1.3,1.6,2.5,2.7,3.5c1.1,1,2.4,1.8,3.8,2.3C166.3,411.5,167.9,411.8,169.5,411.7"/>
				</g>
			</g>
			<g>
				<path class="st36" d="M259,384.4c1.6-0.1,3.1,0.2,4.4,0.7c1.4,0.5,2.7,1.3,3.8,2.2c1.1,1,2,2.1,2.7,3.5c0.7,1.3,1.1,2.8,1.2,4.4
					c0.1,1.6-0.1,3.1-0.6,4.5c-0.5,1.4-1.2,2.6-2.1,3.7c-0.9,1.1-2.1,2-3.4,2.6c-1.3,0.6-2.8,1-4.3,1.1l-91.2,4.7
					c-1.6,0.1-3.1-0.2-4.5-0.7c-1.4-0.5-2.7-1.3-3.8-2.3c-1.1-1-2-2.2-2.7-3.5c-0.7-1.3-1.1-2.8-1.2-4.4c-0.1-1.6,0.1-3.1,0.7-4.5
					c0.5-1.4,1.3-2.7,2.3-3.8c1-1.1,2.2-2,3.5-2.6c1.3-0.6,2.8-1,4.4-1.1L259,384.4z"/>
			</g>
		</g>
		<g class="st0">
			<g class="st0">
				<defs>
					<path id="SVGID_77_" class="st0" d="M271.5,473.9c-7,5-14,10-21,15c-0.4,0.3-0.8,0.5-1.2,0.7c-0.4,0.2-0.8,0.4-1.3,0.6
						c-0.4,0.2-0.9,0.3-1.4,0.4c-0.5,0.1-1,0.2-1.5,0.2l20.5-14.8c0.5,0,1.1-0.1,1.6-0.2c0.5-0.1,1-0.2,1.5-0.4
						c0.5-0.2,1-0.4,1.4-0.6C270.7,474.5,271.1,474.2,271.5,473.9z"/>
				</defs>
				<clipPath id="SVGID_78_">
					<use xlink:href="#SVGID_77_"  style="overflow:visible;"/>
				</clipPath>
				<g class="st54">
					<path class="st33" d="M271.5,473.9l-21,15c-0.4,0.3-0.8,0.5-1.2,0.7c-0.4,0.2-0.8,0.4-1.3,0.6c-0.4,0.2-0.9,0.3-1.4,0.4
						c-0.5,0.1-1,0.2-1.5,0.2l20.5-14.8c0.5,0,1.1-0.1,1.6-0.2c0.5-0.1,1-0.2,1.5-0.4c0.5-0.2,1-0.4,1.4-0.6
						C270.7,474.5,271.1,474.2,271.5,473.9"/>
				</g>
			</g>
			<g>
				<polygon class="st42" points="265.7,476 245.2,490.8 160.8,495.8 173.5,481.3 				"/>
			</g>
			<g class="st0">
				<defs>
					<path id="SVGID_79_" class="st0" d="M151.7,478.8l11.8-16.1c-0.4,0.5-0.7,1.1-1,1.7c-0.3,0.6-0.5,1.2-0.7,1.9
						c-0.2,0.6-0.3,1.3-0.4,2c-0.1,0.7-0.1,1.4-0.1,2.1c0.1,1.6,0.5,3.1,1.2,4.5c0.7,1.4,1.6,2.6,2.7,3.6c1.1,1,2.4,1.8,3.8,2.3
						c1.4,0.5,3,0.8,4.6,0.7l-12.7,14.5c-1.5,0.1-2.9-0.1-4.2-0.6c-1.3-0.5-2.5-1.2-3.5-2.1c-1-0.9-1.9-2-2.5-3.3
						c-0.6-1.3-1-2.6-1.1-4.1c0-0.6,0-1.3,0.1-1.9c0.1-0.6,0.2-1.2,0.4-1.8c0.2-0.6,0.4-1.2,0.7-1.7
						C151,479.8,151.3,479.2,151.7,478.8z"/>
				</defs>
				<clipPath id="SVGID_80_">
					<use xlink:href="#SVGID_79_"  style="overflow:visible;"/>
				</clipPath>
				<g class="st55">
					<path class="st33" d="M173.5,481.3l-12.7,14.5c-1.5,0.1-2.9-0.1-4.2-0.6c-1.3-0.5-2.5-1.2-3.5-2.1c-1-0.9-1.9-2-2.5-3.3
						c-0.6-1.3-1-2.6-1.1-4.1c0-0.6,0-1.3,0.1-1.9c0.1-0.6,0.2-1.2,0.4-1.8c0.2-0.6,0.4-1.2,0.7-1.7c0.3-0.5,0.6-1.1,0.9-1.5
						l11.8-16.1c-0.4,0.5-0.7,1.1-1,1.7c-0.3,0.6-0.5,1.2-0.7,1.9c-0.2,0.6-0.3,1.3-0.4,2c-0.1,0.7-0.1,1.4-0.1,2.1
						c0.1,1.6,0.5,3.1,1.2,4.5c0.7,1.4,1.6,2.6,2.7,3.6c1.1,1,2.4,1.8,3.8,2.3C170.4,481.2,171.9,481.4,173.5,481.3"/>
				</g>
			</g>
			<g>
				<path class="st36" d="M264,452.8c1.6-0.1,3.1,0.2,4.5,0.7c1.4,0.5,2.7,1.3,3.8,2.3c1.1,1,2,2.2,2.7,3.5c0.7,1.3,1.1,2.8,1.2,4.4
					c0.1,1.6-0.1,3.1-0.6,4.5c-0.5,1.4-1.2,2.7-2.2,3.8c-1,1.1-2.1,2-3.4,2.7c-1.3,0.7-2.8,1.1-4.4,1.2l-92.2,5.4
					c-1.6,0.1-3.2-0.1-4.6-0.7c-1.4-0.5-2.7-1.3-3.8-2.3c-1.1-1-2-2.2-2.7-3.6c-0.7-1.4-1.1-2.9-1.2-4.5c-0.1-1.6,0.1-3.2,0.7-4.6
					c0.5-1.4,1.3-2.7,2.3-3.9c1-1.1,2.2-2,3.5-2.7c1.4-0.7,2.9-1.1,4.5-1.2L264,452.8z"/>
			</g>
		</g>
		<g class="st0">
			<g class="st0">
				<defs>
					<path id="SVGID_81_" class="st0" d="M123.4,204.5l-8.1,37.1c-0.2,1.1-0.7,2.1-1.2,3c-0.6,0.9-1.3,1.7-2.1,2.4
						c-0.8,0.7-1.8,1.3-2.9,1.7c-1.1,0.4-2.2,0.6-3.4,0.7l7.2-36.5c1.3,0,2.6-0.3,3.7-0.7c1.1-0.4,2.2-1,3.1-1.8
						c0.9-0.7,1.7-1.6,2.3-2.6C122.7,206.7,123.1,205.6,123.4,204.5z"/>
				</defs>
				<clipPath id="SVGID_82_">
					<use xlink:href="#SVGID_81_"  style="overflow:visible;"/>
				</clipPath>
				<g class="st56">
					<path class="st57" d="M123.4,204.5l-8.1,37.1c0,0.2-0.1,0.3-0.1,0.5s-0.1,0.3-0.1,0.5c-0.1,0.2-0.1,0.3-0.2,0.5
						c-0.1,0.1-0.1,0.3-0.2,0.4l8-36.9c0.1-0.2,0.1-0.3,0.2-0.5s0.1-0.3,0.2-0.5c0.1-0.2,0.1-0.3,0.2-0.5
						C123.3,204.8,123.4,204.6,123.4,204.5"/>
					<path class="st58" d="M122.8,206.5l-8,36.9c-0.4,0.8-0.9,1.6-1.5,2.3c-0.6,0.7-1.3,1.3-2.1,1.9c-0.8,0.5-1.6,0.9-2.6,1.2
						c-0.9,0.3-1.9,0.5-2.9,0.5l7.2-36.5c1.1,0,2.2-0.2,3.2-0.5c1-0.3,1.9-0.8,2.8-1.3c0.8-0.6,1.6-1.2,2.3-2
						C121.8,208.2,122.3,207.4,122.8,206.5"/>
				</g>
			</g>
			<g>
				<polygon class="st59" points="112.9,212.9 105.7,249.3 22.4,252.2 22,215.7 				"/>
			</g>
			<g class="st0">
				<defs>
					<path id="SVGID_83_" class="st0" d="M22,215.7l0.4,36.5c-1.5,0.1-2.8-0.2-4.1-0.7c-1.3-0.5-2.4-1.2-3.4-2
						c-1-0.9-1.8-1.9-2.4-3.1c-0.6-1.2-0.9-2.5-1-3.9l-1.4-37.4c0.1,1.5,0.4,2.9,1.1,4.2c0.6,1.3,1.5,2.4,2.6,3.4
						c1.1,1,2.3,1.7,3.7,2.2C18.9,215.5,20.4,215.7,22,215.7z"/>
				</defs>
				<clipPath id="SVGID_84_">
					<use xlink:href="#SVGID_83_"  style="overflow:visible;"/>
				</clipPath>
				<g class="st60">
					<path class="st58" d="M22,215.7l0.4,36.5c-1.5,0.1-2.8-0.2-4.1-0.7c-1.3-0.5-2.4-1.2-3.4-2c-1-0.9-1.8-1.9-2.4-3.1
						c-0.6-1.2-0.9-2.5-1-3.9l-1.4-37.4c0.1,1.5,0.4,2.9,1.1,4.2c0.6,1.3,1.5,2.4,2.6,3.4c1.1,1,2.3,1.7,3.7,2.2
						C18.9,215.5,20.4,215.7,22,215.7"/>
				</g>
			</g>
			<g>
				<path class="st61" d="M111.8,191.3c1.6,0,3,0.2,4.4,0.7c1.4,0.5,2.6,1.3,3.7,2.2c1.1,0.9,1.9,2.1,2.6,3.3c0.6,1.3,1,2.7,1.1,4.2
					c0.1,1.5-0.2,2.9-0.7,4.2c-0.5,1.3-1.3,2.5-2.2,3.5c-1,1-2.1,1.8-3.5,2.4c-1.3,0.6-2.8,0.9-4.3,1l-91,2.8
					c-1.6,0-3.1-0.2-4.5-0.7c-1.4-0.5-2.7-1.3-3.7-2.2c-1.1-1-2-2.1-2.6-3.4c-0.6-1.3-1-2.7-1.1-4.2c-0.1-1.5,0.2-2.9,0.8-4.3
					c0.5-1.3,1.3-2.5,2.3-3.5c1-1,2.2-1.8,3.6-2.4c1.3-0.6,2.8-0.9,4.4-1L111.8,191.3z"/>
			</g>
		</g>
		<g class="st0">
			<g class="st0">
				<defs>
					<path id="SVGID_85_" class="st0" d="M126.7,270.4c-2.8,10.6-5.6,21.3-8.4,31.9c-0.3,1-0.7,2-1.3,2.9c-0.6,0.9-1.3,1.7-2.1,2.4
						c-0.8,0.7-1.8,1.2-2.8,1.6c-1,0.4-2.1,0.6-3.3,0.7l7.6-31.3c1.3,0,2.5-0.3,3.6-0.7c1.1-0.4,2.2-1,3.1-1.7
						c0.9-0.7,1.7-1.6,2.3-2.5C126,272.6,126.4,271.5,126.7,270.4z"/>
				</defs>
				<clipPath id="SVGID_86_">
					<use xlink:href="#SVGID_85_"  style="overflow:visible;"/>
				</clipPath>
				<g class="st62">
					<path class="st38" d="M126.7,270.4l-8.4,31.9c0,0.1-0.1,0.2-0.1,0.4c0,0.1-0.1,0.2-0.1,0.4c0,0.1-0.1,0.2-0.1,0.4
						s-0.1,0.2-0.1,0.3l8.4-31.8c0.1-0.1,0.1-0.3,0.2-0.4c0-0.1,0.1-0.3,0.1-0.4c0-0.1,0.1-0.3,0.1-0.4
						C126.7,270.6,126.7,270.5,126.7,270.4"/>
					<path class="st7" d="M126.2,271.9l-8.4,31.8c-0.4,0.9-0.9,1.7-1.5,2.4c-0.6,0.7-1.3,1.4-2.1,1.9c-0.8,0.5-1.6,1-2.6,1.3
						c-0.9,0.3-1.9,0.5-3,0.5l7.6-31.3c1.1,0,2.2-0.2,3.2-0.6c1-0.3,2-0.8,2.8-1.4c0.9-0.6,1.6-1.3,2.3-2.1
						C125.2,273.7,125.8,272.9,126.2,271.9"/>
				</g>
			</g>
			<g>
				<polygon class="st9" points="116.3,278.5 108.7,309.8 24.6,313.2 24.4,282 				"/>
			</g>
			<g class="st0">
				<defs>
					<path id="SVGID_87_" class="st0" d="M24.4,282l0.2,31.2c-1.5,0.1-2.9-0.2-4.2-0.6c-1.3-0.5-2.5-1.2-3.5-2.1
						c-1-0.9-1.8-2-2.4-3.2c-0.6-1.2-0.9-2.5-1-4l-1.2-32.1c0.1,1.5,0.4,3,1.1,4.3c0.6,1.3,1.5,2.5,2.6,3.5c1.1,1,2.4,1.7,3.8,2.3
						C21.3,281.8,22.8,282,24.4,282z"/>
				</defs>
				<clipPath id="SVGID_88_">
					<use xlink:href="#SVGID_87_"  style="overflow:visible;"/>
				</clipPath>
				<g class="st63">
					<path class="st7" d="M24.4,282l0.2,31.2c-1.5,0.1-2.9-0.2-4.2-0.6c-1.3-0.5-2.5-1.2-3.5-2.1c-1-0.9-1.8-2-2.4-3.2
						c-0.6-1.2-0.9-2.5-1-4l-1.2-32.1c0.1,1.5,0.4,3,1.1,4.3c0.6,1.3,1.5,2.5,2.6,3.5c1.1,1,2.4,1.7,3.8,2.3
						C21.3,281.8,22.8,282,24.4,282"/>
				</g>
			</g>
			<g>
				<path class="st11" d="M115.2,256.5c1.6-0.1,3.1,0.2,4.5,0.7c1.4,0.5,2.6,1.3,3.7,2.2c1.1,1,2,2.1,2.6,3.4c0.6,1.3,1,2.7,1.1,4.2
					c0.1,1.5-0.2,3-0.7,4.3c-0.5,1.3-1.3,2.6-2.2,3.6c-1,1-2.2,1.9-3.5,2.5c-1.3,0.6-2.8,1-4.4,1L24.4,282c-1.6,0.1-3.1-0.2-4.5-0.7
					c-1.4-0.5-2.7-1.3-3.8-2.3c-1.1-1-2-2.1-2.6-3.5c-0.6-1.3-1-2.8-1.1-4.3c-0.1-1.5,0.2-3,0.8-4.4c0.5-1.4,1.3-2.6,2.4-3.6
					c1-1,2.2-1.9,3.6-2.5c1.4-0.6,2.9-1,4.5-1L115.2,256.5z"/>
			</g>
		</g>
		<g class="st0">
			<g class="st0">
				<defs>
					<path id="SVGID_89_" class="st0" d="M130.1,337.9l-8.8,26.5c-0.3,1-0.8,1.9-1.4,2.7c-0.6,0.8-1.3,1.6-2.1,2.2
						c-0.8,0.6-1.7,1.1-2.7,1.5c-1,0.4-2.1,0.6-3.2,0.6l7.9-25.8c1.2-0.1,2.4-0.3,3.5-0.7c1.1-0.4,2.1-1,3-1.6
						c0.9-0.7,1.7-1.5,2.3-2.4C129.2,340,129.7,339,130.1,337.9z"/>
				</defs>
				<clipPath id="SVGID_90_">
					<use xlink:href="#SVGID_89_"  style="overflow:visible;"/>
				</clipPath>
				<g class="st64">
					<path class="st57" d="M130.1,337.9l-8.8,26.5c0,0.1,0,0.1-0.1,0.2s0,0.1-0.1,0.2c0,0.1-0.1,0.1-0.1,0.2c0,0.1-0.1,0.1-0.1,0.2
						l8.8-26.4c0-0.1,0.1-0.1,0.1-0.2c0-0.1,0.1-0.1,0.1-0.2s0.1-0.1,0.1-0.2S130,338,130.1,337.9"/>
					<path class="st58" d="M129.7,338.8l-8.8,26.4c-0.4,0.9-0.9,1.7-1.5,2.4c-0.6,0.7-1.3,1.4-2.1,1.9c-0.8,0.6-1.7,1-2.6,1.3
						c-0.9,0.3-1.9,0.5-3,0.6l7.9-25.8c1.1-0.1,2.2-0.3,3.3-0.6c1-0.3,2-0.8,2.8-1.4c0.9-0.6,1.6-1.3,2.3-2.1
						C128.8,340.6,129.3,339.7,129.7,338.8"/>
				</g>
			</g>
			<g>
				<polygon class="st59" points="119.7,345.6 111.8,371.4 26.9,375.4 26.9,349.7 				"/>
			</g>
			<g class="st0">
				<defs>
					<path id="SVGID_91_" class="st0" d="M26.9,349.7l0,25.7c-1.5,0.1-2.9-0.2-4.2-0.6c-1.3-0.5-2.5-1.2-3.5-2.1
						c-1-0.9-1.8-2-2.4-3.2c-0.6-1.2-0.9-2.6-1-4l-1-26.6c0.1,1.6,0.4,3.1,1.1,4.4c0.6,1.3,1.5,2.5,2.6,3.5c1.1,1,2.4,1.8,3.8,2.3
						C23.7,349.5,25.3,349.8,26.9,349.7z"/>
				</defs>
				<clipPath id="SVGID_92_">
					<use xlink:href="#SVGID_91_"  style="overflow:visible;"/>
				</clipPath>
				<g class="st65">
					<path class="st58" d="M26.9,349.7l0,25.7c-1.5,0.1-2.9-0.2-4.2-0.6c-1.3-0.5-2.5-1.2-3.5-2.1c-1-0.9-1.8-2-2.4-3.2
						c-0.6-1.2-0.9-2.6-1-4l-1-26.6c0.1,1.6,0.4,3.1,1.1,4.4c0.6,1.3,1.5,2.5,2.6,3.5c1.1,1,2.4,1.8,3.8,2.3
						C23.7,349.5,25.3,349.8,26.9,349.7"/>
				</g>
			</g>
			<g>
				<path class="st61" d="M118.6,323.1c1.6-0.1,3.1,0.2,4.5,0.7c1.4,0.5,2.7,1.3,3.8,2.2c1.1,1,2,2.1,2.6,3.5c0.7,1.3,1,2.8,1.1,4.3
					c0.1,1.6-0.2,3-0.7,4.4c-0.5,1.4-1.3,2.6-2.3,3.7c-1,1.1-2.2,1.9-3.5,2.6c-1.3,0.6-2.8,1-4.4,1.1l-92.8,4.1
					c-1.6,0.1-3.2-0.2-4.6-0.7c-1.4-0.5-2.7-1.3-3.8-2.3c-1.1-1-2-2.2-2.6-3.5c-0.6-1.3-1-2.8-1.1-4.4c-0.1-1.6,0.2-3.1,0.8-4.5
					c0.5-1.4,1.4-2.6,2.4-3.7c1-1.1,2.3-2,3.6-2.6c1.4-0.6,2.9-1,4.5-1.1L118.6,323.1z"/>
			</g>
		</g>
		<g class="st0">
			<g class="st0">
				<defs>
					<path id="SVGID_93_" class="st0" d="M133.3,407.2c-3.1,6.9-6.1,13.8-9.2,20.8c-0.4,0.9-0.9,1.7-1.5,2.5c-0.6,0.7-1.3,1.4-2.1,2
						c-0.8,0.6-1.7,1-2.6,1.3c-0.9,0.3-1.9,0.5-3,0.6l8.3-20.2c1.1-0.1,2.2-0.3,3.2-0.6c1-0.4,2-0.8,2.8-1.5
						c0.9-0.6,1.6-1.3,2.3-2.1C132.3,409.1,132.8,408.2,133.3,407.2z"/>
				</defs>
				<clipPath id="SVGID_94_">
					<use xlink:href="#SVGID_93_"  style="overflow:visible;"/>
				</clipPath>
				<g class="st66">
					<path class="st7" d="M133.3,407.2l-9.2,20.8c-0.4,0.9-0.9,1.7-1.5,2.5c-0.6,0.7-1.3,1.4-2.1,2c-0.8,0.6-1.7,1-2.6,1.3
						c-0.9,0.3-1.9,0.5-3,0.6l8.3-20.2c1.1-0.1,2.2-0.3,3.2-0.6c1-0.4,2-0.8,2.8-1.5c0.9-0.6,1.6-1.3,2.3-2.1
						C132.3,409.1,132.8,408.2,133.3,407.2"/>
				</g>
			</g>
			<g>
				<polygon class="st9" points="123.2,414.1 114.9,434.3 29.2,438.8 29.4,418.9 				"/>
			</g>
			<g class="st0">
				<defs>
					<path id="SVGID_95_" class="st0" d="M29.4,418.9l-0.2,20c-1.5,0.1-2.9-0.1-4.2-0.6c-1.3-0.5-2.5-1.2-3.5-2.1
						c-1-0.9-1.8-2-2.4-3.3c-0.6-1.2-0.9-2.6-1-4.1l-0.8-20.9c0.1,1.6,0.4,3.1,1.1,4.5c0.6,1.4,1.6,2.6,2.7,3.6
						c1.1,1,2.4,1.8,3.9,2.3C26.2,418.7,27.8,419,29.4,418.9z"/>
				</defs>
				<clipPath id="SVGID_96_">
					<use xlink:href="#SVGID_95_"  style="overflow:visible;"/>
				</clipPath>
				<g class="st67">
					<path class="st7" d="M29.4,418.9l-0.2,20c-1.5,0.1-2.9-0.1-4.2-0.6c-1.3-0.5-2.5-1.2-3.5-2.1c-1-0.9-1.8-2-2.4-3.3
						c-0.6-1.2-0.9-2.6-1-4.1l-0.8-20.9c0.1,1.6,0.4,3.1,1.1,4.5c0.6,1.4,1.6,2.6,2.7,3.6c1.1,1,2.4,1.8,3.9,2.3
						C26.2,418.7,27.8,419,29.4,418.9"/>
				</g>
			</g>
			<g>
				<path class="st11" d="M122,391.1c1.6-0.1,3.1,0.2,4.6,0.7c1.4,0.5,2.7,1.3,3.8,2.3c1.1,1,2,2.2,2.7,3.5c0.7,1.3,1.1,2.8,1.1,4.4
					c0.1,1.6-0.2,3.1-0.7,4.5c-0.5,1.4-1.3,2.7-2.3,3.8c-1,1.1-2.2,2-3.6,2.7c-1.4,0.7-2.9,1.1-4.5,1.1l-93.8,4.8
					c-1.6,0.1-3.2-0.2-4.6-0.7c-1.4-0.5-2.7-1.3-3.9-2.3c-1.1-1-2-2.2-2.7-3.6c-0.6-1.4-1-2.9-1.1-4.5c-0.1-1.6,0.2-3.1,0.8-4.6
					c0.6-1.4,1.4-2.7,2.4-3.8c1-1.1,2.3-2,3.7-2.7c1.4-0.7,2.9-1.1,4.6-1.1L122,391.1z"/>
			</g>
		</g>
		<g class="st0">
			<g class="st0">
				<defs>
					<path id="SVGID_97_" class="st0" d="M136,478.6l-9.5,14.8c-0.5,0.7-1,1.4-1.6,1.9c-0.6,0.6-1.3,1.1-2,1.5
						c-0.7,0.4-1.5,0.8-2.3,1c-0.8,0.3-1.7,0.4-2.6,0.5l8.7-14.3c1-0.1,1.9-0.2,2.8-0.5c0.9-0.3,1.7-0.7,2.5-1.1
						c0.8-0.5,1.5-1,2.2-1.7C135,480.1,135.5,479.4,136,478.6z"/>
				</defs>
				<clipPath id="SVGID_98_">
					<use xlink:href="#SVGID_97_"  style="overflow:visible;"/>
				</clipPath>
				<g class="st68">
					<path class="st58" d="M136,478.6l-9.5,14.8c-0.5,0.7-1,1.4-1.6,1.9c-0.6,0.6-1.3,1.1-2,1.5c-0.7,0.4-1.5,0.8-2.3,1
						c-0.8,0.3-1.7,0.4-2.6,0.5l8.7-14.3c1-0.1,1.9-0.2,2.8-0.5c0.9-0.3,1.7-0.7,2.5-1.1c0.8-0.5,1.5-1,2.2-1.7
						C135,480.1,135.5,479.4,136,478.6"/>
				</g>
			</g>
			<g>
				<polygon class="st59" points="126.8,484 118.1,498.4 31.5,503.5 32,489.6 				"/>
			</g>
			<g class="st0">
				<defs>
					<path id="SVGID_99_" class="st0" d="M32,489.6l-0.5,14c-1.5,0.1-3-0.1-4.3-0.6c-1.3-0.5-2.5-1.2-3.6-2.1
						c-1-0.9-1.9-2.1-2.5-3.3c-0.6-1.3-1-2.7-1-4.2l-0.6-14.9c0.1,1.6,0.4,3.2,1.1,4.6c0.7,1.4,1.6,2.6,2.7,3.6
						c1.1,1,2.4,1.8,3.9,2.3C28.8,489.4,30.4,489.7,32,489.6z"/>
				</defs>
				<clipPath id="SVGID_100_">
					<use xlink:href="#SVGID_99_"  style="overflow:visible;"/>
				</clipPath>
				<g class="st69">
					<path class="st58" d="M32,489.6l-0.5,14c-1.5,0.1-3-0.1-4.3-0.6c-1.3-0.5-2.5-1.2-3.6-2.1c-1-0.9-1.9-2.1-2.5-3.3
						c-0.6-1.3-1-2.7-1-4.2l-0.6-14.9c0.1,1.6,0.4,3.2,1.1,4.6c0.7,1.4,1.6,2.6,2.7,3.6c1.1,1,2.4,1.8,3.9,2.3
						C28.8,489.4,30.4,489.7,32,489.6"/>
				</g>
			</g>
			<g>
				<path class="st61" d="M125.6,460.6c1.6-0.1,3.2,0.2,4.6,0.7c1.4,0.5,2.7,1.3,3.8,2.3c1.1,1,2,2.2,2.7,3.6
					c0.7,1.4,1.1,2.9,1.2,4.5c0.1,1.6-0.2,3.2-0.7,4.6c-0.5,1.4-1.3,2.8-2.3,3.9c-1,1.1-2.2,2.1-3.6,2.7c-1.4,0.7-2.9,1.1-4.5,1.2
					L32,489.6c-1.7,0.1-3.2-0.1-4.7-0.7c-1.5-0.5-2.8-1.3-3.9-2.3c-1.1-1-2-2.2-2.7-3.6c-0.7-1.4-1-2.9-1.1-4.6
					c-0.1-1.6,0.2-3.2,0.8-4.7c0.6-1.5,1.4-2.8,2.4-3.9c1-1.1,2.3-2.1,3.7-2.8c1.4-0.7,3-1.1,4.6-1.2L125.6,460.6z"/>
			</g>
		</g>
	</g>
</g>
</svg>
